<svg width="120" height="120" fill="none" xmlns="http://www.w3.org/2000/svg"><g clip-path="url(#a)" fill="#000"><path d="M70.0934 75.0555c4.6505-1.1926 8.6902-3.8156 11.6826-7.5854 3.6689-4.6221 5.2955-10.394 4.58-16.2524-.7155-5.8573-3.6866-11.0721-8.3623-14.6747-4.5301-3.4925-10.1776-5.0451-15.9021-4.3718-5.7242.6733-10.8577 3.4938-14.4547 7.9417-3.0836 3.8132-4.7654 8.4127-4.8637 13.3012-.1595 7.9361-2.8943 15.6415-7.7007 21.6967l-5.2592 6.6256c-2.3329 2.9389-1.8398 7.2278 1.0991 9.5606l4.9577 3.9352c2.9389 2.3329 7.2278 1.8396 9.5606-1.0992l5.2588-6.6251c4.8598-6.122 11.555-10.4398 19.4039-12.4524ZM45.5771 53.4706c.0857-4.2603 1.552-8.2695 4.2404-11.5941 6.4587-7.9868 18.3303-9.383 26.4637-3.1124 4.078 3.1486 6.6672 7.6876 7.2907 12.7937.6239 5.1074-.7942 10.1393-3.9926 14.1688-2.6087 3.2865-6.1298 5.573-10.1827 6.6124-8.2701 2.1208-15.38 6.61-20.595 12.9969l-11.208-8.8966c4.9843-6.4678 7.8154-14.6026 7.9835-22.9687Zm-12.9764 29.265.7059-.8891 10.2036 10.1954-.276.3476c-.1453.1831-.3059.3464-.4745.4968l-10.159-10.1507Zm2.4609-3.1001.7915-.9971 11.2243 8.9095-1.8122 2.283-10.2036-10.1954Zm-2.4057 9.465c-1.1798-.9365-1.6878-2.4092-1.4553-3.7994l8.5954 8.5885c-.7708-.0577-1.5325-.3382-2.1822-.8539l-4.9577-3.9353-.0002.0001Z"/><path d="M52.4713 46.9017c.3705-.6428.7984-1.2657 1.2718-1.8509.487-.6022.3936-1.485-.2085-1.9721-.5983-.4835-1.485-.3936-1.9721.2085-.5655.6993-1.0773 1.4441-1.5211 2.214-.3514.6096-.1935 1.373.3416 1.7978.0539.0427.1117.0821.1731.1175.671.3865 1.5284.1562 1.9152-.5148Zm-6.7789 21.8135c.1136.0902.2435.1641.3871.2172.7266.2679 1.5329-.104 1.8007-.8305 1.721-4.6678 2.6444-9.5565 2.7442-14.53.0166-.8221.1041-1.6423.2604-2.438.1492-.76-.346-1.4968-1.106-1.6461-.7599-.1491-1.4969.3461-1.6461 1.1061-.1873.9546-.2924 1.9375-.3122 2.9218-.0936 4.6607-.9588 9.2418-2.5715 13.616-.215.583-.0182 1.2171.4434 1.5835Zm27.5061-1.9233c-.3665-.6822-1.2169-.938-1.8989-.5714-.9894.5319-2.0515.9452-3.1567 1.2285-.7502.1923-1.2023.9565-1.01 1.7066.0789.3081.2544.5658.4856.7493.332.2635.7789.3741 1.2211.2606 1.3245-.3396 2.5988-.8359 3.7876-1.4746.6822-.3666.9381-1.2168.5713-1.899Zm.1621-23.9034c6.0556 4.8068 7.0715 13.6441 2.2647 19.6998-.2733.3442-.5645.6786-.8655.9937-.5348.5602-.5145 1.4476.0455 1.9826.0317.0302.0642.0586.0979.0854.5613.4455 1.38.3976 1.8847-.1309.3597-.3768.7077-.7762 1.034-1.1872 5.7682-7.2669 4.5491-17.8718-2.7177-23.64-.6066-.4815-1.4887-.3801-1.9701.2265-.4815.6065-.3801 1.4886.2265 1.9701Zm6.3859-8.0452c.6066.4815 1.4886.3801 1.9701-.2265l4.8821-6.1505c.4815-.6066.3801-1.4887-.2265-1.9702-.6065-.4814-1.4886-.38-1.9701.2265L79.52 32.8732c-.4815.6065-.3801 1.4886.2265 1.9701Zm-12.8337-6.6497c-.0762.5141.1365 1.004.516 1.3053.1863.1478.4129.2504.6651.2878.766.1136 1.4793-.4151 1.593-1.1811l1.1527-7.7645c.1137-.7663-.415-1.4794-1.181-1.5931-.7661-.1136-1.4794.4151-1.5931 1.1811l-1.1527 7.7645Zm11.3004 56.7825-2.8847-7.3004c-.2846-.7205-1.0993-1.0735-1.8195-.7887-.7203.2845-1.0735 1.0991-.7888 1.8195l2.8848 7.3003c.0936.2371.2447.4344.4311.5824.3796.3013.9053.3972 1.3883.2063.7203-.2845 1.0734-1.0992.7888-1.8194ZM50.7691 23.1485l2.8847 7.3004c.0936.2371.2447.4344.4312.5824.3795.3013.9052.3972 1.3883.2063.7202-.2845 1.0734-1.0991.7887-1.8195l-2.8847-7.3003c-.2844-.7204-1.0991-1.0735-1.8195-.7888-.7202.2846-1.0733 1.099-.7887 1.8195Zm41.0618 50.8248-6.1506-4.8821c-.6065-.4815-1.4886-.3801-1.9701.2265-.4814.6065-.38 1.4886.2265 1.9701l6.1505 4.8821c.6066.4815 1.4887.3801 1.9702-.2265.4814-.6066.3802-1.4885-.2265-1.9701ZM45.2722 38.8067c.4815-.6066.3801-1.4887-.2265-1.9702l-6.1505-4.8821c-.6066-.4815-1.4887-.38-1.9701.2265-.4815.6066-.3801 1.4887.2265 1.9701l6.1505 4.8822c.6067.4816 1.4887.38 1.9701-.2265Zm44.0106 20.1635c.1863.1478.4128.2503.6651.2877l7.7645 1.1527c.766.1137 1.4793-.415 1.593-1.1811.1137-.766-.4152-1.4794-1.1811-1.593l-7.7645-1.1527c-.766-.1137-1.4794.4151-1.593 1.1811-.0763.5138.1366 1.0041.516 1.3053ZM39.0344 48.8667l-7.7645-1.1528c-.766-.1137-1.4793.4151-1.593 1.1811-.0762.5138.1365 1.0039.5161 1.3052.1862.1479.4128.2504.665.2878l7.7645 1.1528c.766.1136 1.4794-.4151 1.593-1.1811.114-.7661-.4153-1.4796-1.1811-1.593Zm48.2816-3.8221c.0937.2372.2448.4344.4312.5824.3795.3013.9052.3972 1.3883.2064l7.3003-2.8848c.7202-.2845 1.0733-1.0992.7888-1.8194-.2844-.7202-1.0992-1.0735-1.8195-.7888l-7.3004 2.8847c-.7202.2846-1.0733 1.0993-.7887 1.8195Z"/></g><defs><clipPath id="a"><path fill="#fff" transform="rotate(38.441 26.4961 75.9978039)" d="M0 0h85.2353v85.2353H0z"/></clipPath></defs></svg>