<svg width="500" height="500" fill="none" xmlns="http://www.w3.org/2000/svg"><path d="M322.1 97.3401c-1.037.8332-2.246 1.4273-3.54 1.74-3.55.79-13 .39-14.6 4.7299-.511 1.302-1.308 2.474-2.33 3.429-1.023.955-2.246 1.669-3.58 2.091 0 0-7.49.4-7.89 2-.4 1.6-3.15 4.34-3.15 4.34H416s4.34-6.7-2.76-13c-6.21-5.5199-17.56 2.84-19-3.9999M393.07 88.63c-1.44-5.19-4.47-12.19-10.62-14.79-10.26-4.34-18.93 1.58-21.3 7.49-2.37 5.91-3.94 9.86-13 4.73-9.06-5.13-17-4.73-19.72 2-.785 1.9484-1.766 3.8114-2.93 5.56M103.05 166.1h44.79s2.62-4-1.67-7.87-12.65 3.34-11.45-4.77c0 0-1-10-7.16-12.64-1.586-.726-3.333-1.025-5.07-.867-1.737.158-3.402.767-4.83 1.767" stroke="#263238" stroke-linecap="round" stroke-linejoin="round"/><path d="M114.68 145.35c-1.43 3.58-2.39 6-7.87 2.86s-10.26-2.86-11.93 1.2-3.82 6.2-6 6.67c-2.18.47-7.87.24-8.83 2.87-.3117.787-.7946 1.496-1.4138 2.073-.6192.578-1.3591 1.011-2.1662 1.267 0 0-4.53.23-4.77 1.19-.4771.979-1.1237 1.866-1.91 2.62H96m231.25 0h21.15s2.62-4-1.67-7.87-12.64 3.34-11.45-4.77c0 0-.95-10-7.16-12.64-6.21-2.64-11.44 1-12.88 4.53-1.44 3.53-2.38 6-7.87 2.86s-10.26-2.86-11.92 1.2c-1.66 4.06-3.82 6.2-6 6.67-2.18.47-7.87.24-8.82 2.87-.313.787-.796 1.494-1.415 2.072-.619.577-1.358 1.01-2.165 1.268 0 0-4.53.23-4.77 1.19-.477.979-1.124 1.866-1.91 2.62h49.82" stroke="#263238" stroke-linecap="round" stroke-linejoin="round"/><g opacity=".1" fill="#000"><path opacity=".1" d="M23.23 232.17c3.94.78 12.69-1.33 12.69-1.33s-3.14-5.35-3.38-5.66c-2.81-3.62-10.37-9-15.18-7.2-.7914.315-1.5078.792-2.1029 1.401-.5951.61-1.0556 1.337-1.3516 2.135-.296.799-.421 1.651-.3668 2.501.0542.85.2863 1.679.6813 2.433 1.57 3.26 5.66 5.05 9.01 5.72Z"/><path opacity=".1" d="M31.8202 257c3.84-.27 11.1899-4.25 11.7799-4.57 2.2716 4.208 4.8206 8.26 7.6301 12.13 1.62 2.26 3.33 4.49 5.07 6.7-.95-.89-1.8-1.68-1.93-1.78-3.66-2.74-12.36-5.89-16.54-2.93-.6803.513-1.2453 1.163-1.6584 1.907-.4131.745-.665 1.569-.7395 2.417-.0745.849.0302 1.704.3071 2.509.277.806.7202 1.544 1.3008 2.167 2.38 2.72 6.79 3.37 10.2 3.13 3.41-.24 9.8-3.52 11.46-4.4.68.84 1.34 1.69 2 2.53 3.26 4 6.53 8 9.62 12.06 1.09 1.42 2.1 2.86 3.1299 4.29-.84-.79-1.5499-1.45-1.6699-1.54-3.67-2.75-12.36-5.9-16.54-2.93-.683.511-1.2504 1.16-1.6653 1.905-.4149.745-.6679 1.569-.7425 2.418-.0746.85.031 1.706.3098 2.511.2787.806.7244 1.544 1.308 2.166 2.38 2.73 6.79 3.37 10.2 3.13 3.41-.24 9.18-3.2 11.16-4.24 1 1.5 2 3 2.92 4.5.6 1 1.24 2 1.78 3.07l1.66 3.13c1 2 2 4.12 2.91 6.12.64 1.39 1.23 2.72 1.82 4.07-1.07-1.43-3.21-4.18-3.42-4.39-3.2-3.26-11.32-7.69-15.91-5.4-.75.403-1.4068.959-1.9278 1.632-.521.674-.8946 1.449-1.0964 2.276-.2018.827-.2274 1.688-.075 2.525.1523.838.4791 1.634.9592 2.337 1.94 3.06 6.2 4.36 9.61 4.64 3.75.31 11.3299-2.37 12.27-2.71 1 2.23 1.9 4.4 2.74 6.47.6333 1.52 1.2233 2.99 1.77 4.41l3.12-.68c-.6667-1.567-1.3634-3.207-2.09-4.92-1-2.26-2.07-4.66-3.2201-7.11 2.1431-1.448 4.1968-3.024 6.1501-4.72 3.1699 2.22 10.4498 4 11.3898 4.27-.42 2.39-.84 4.71-1.28 6.9-.23 1.16-.46 2.25-.69 3.34l3.3-.72c.13-.68.25-1.35.37-2.06.44-2.43.85-5 1.25-7.71 1 0 9-.13 12.45-1.72 3.1-1.45 6.64-4.15 7.4-7.69.206-.826.236-1.687.087-2.526-.149-.838-.472-1.637-.949-2.342-.477-.706-1.098-1.303-1.821-1.753-.723-.45-1.533-.742-2.377-.859-5.09-.56-11.17 6.41-13 10.59-.11.25-1 3.06-1.54 4.84.15-1.1.32-2.16.46-3.29.31-2.23.55-4.46.82-6.87.09-1.16.18-2.34.27-3.53.09-1.19.09-2.43.14-3.66 0-2.86 0-5.75-.18-8.66 2 .26 8.91 1.1 12.2.14 3.29-.96 7.2-3.1 8.48-6.48.331-.785.492-1.631.473-2.482-.018-.852-.216-1.69-.58-2.46s-.887-1.455-1.534-2.009c-.646-.554-1.402-.966-2.219-1.209-5-1.33-12 4.64-14.5 8.49-.15.24-1.62 3.2-2.4 4.84-.1-1.75-.2-3.49-.36-5.26-.47-5.1-1.1-10.25-1.7-15.39-.19-1.58-.36-3.15-.53-4.72.69.1 8.94 1.28 12.63.2 3.28-1 7.19-3.1 8.48-6.48.329-.786.488-1.632.468-2.484-.02-.851-.218-1.689-.583-2.459-.365-.769-.888-1.454-1.535-2.008-.647-.554-1.403-.966-2.22-1.209-5-1.33-12 4.65-14.49 8.49-.19.29-2.3 4.56-2.78 5.67-.38-3.47-.73-6.92-.93-10.34-.3-4.615-.3-9.245 0-13.86.32.05 8.92 1.32 12.7.21 3.28-1 7.2-3.09 8.48-6.48.329-.785.489-1.631.47-2.482-.02-.851-.218-1.688-.582-2.458-.364-.769-.886-1.454-1.531-2.009-.646-.554-1.401-.967-2.217-1.211-5-1.32-12 4.65-14.5 8.5-.19.3-2.46 4.88-2.81 5.75v-.82c.429-4.619 1.269-9.19 2.51-13.66.65-2.48 1.42-4.81 2.21-7.06 1.58.4 8.81 2.15 12.32 1.53 3.51-.62 7.49-2.29 9.14-5.51.412-.745.663-1.568.736-2.416.073-.848-.033-1.702-.311-2.506-.278-.804-.722-1.541-1.304-2.163-.581-.621-1.287-1.114-2.071-1.445-4.78-1.87-12.45 3.3-15.34 6.85-.15.19-1.53 2.33-2.52 3.9.38-1 .74-2.06 1.12-3 1.41-3.61 2.92-6.83 4.28-9.68.79-1.61 1.53-3 2.24-4.39 1.75-.41 8.8-2.17 11.58-4.3 2.78-2.13 5.59-5.48 5.57-9.1.024-.852-.132-1.699-.457-2.486-.325-.788-.813-1.498-1.431-2.085-.618-.586-1.352-1.036-2.155-1.321-.803-.284-1.658-.396-2.507-.328-5.1.55-9.53 8.66-10.45 13.15-.08.38-.64 6.59-.55 6.57h.1c-.71 1.28-1.45 2.65-2.24 4.17-1.42 2.82-3 6-4.5 9.61-1.636 3.828-3.049 7.748-4.23 11.74-1.356 4.499-2.307 9.111-2.84 13.78-.005.057-.005.114 0 .17-.3-1.47-1.26-5.56-1.37-5.87-1.54-4.31-7.0498-11.73-12.1798-11.57-.8485.053-1.6764.283-2.4302.676-.7537.393-1.4165.941-1.9454 1.606-.5289.666-.912 1.435-1.1247 2.258-.2126.823-.25 1.682-.1097 2.52.48 3.58 3.7999 6.55 6.78 8.24 3.36 1.89 11.6898 2.62 12.3498 2.68-.427 4.764-.537 9.551-.33 14.33.11 2.78.3 5.58.53 8.39-.29-1.27-.57-2.4-.62-2.55-1.54-4.31-7.0598-11.73-12.1798-11.57-.8499.05-1.6798.278-2.4355.67-.7557.393-1.4204.939-1.9506 1.606-.5302.666-.9142 1.436-1.1268 2.26-.2126.825-.2491 1.685-.1071 2.524.48 3.59 3.8 6.56 6.78 8.24 2.98 1.68 10.1098 2.48 11.9998 2.66.1 1.07.18 2.15.29 3.22.49 5.16 1 10.3 1.36 15.37.13 1.78.18 3.54.25 5.3-.27-1.12-.5-2.06-.55-2.2-1.54-4.32-7-11.74-12.1798-11.58-.8504.051-1.6804.281-2.4361.674-.7558.393-1.4203.941-1.9504 1.608-.5301.667-.9139 1.438-1.1264 2.263-.2125.825-.249 1.685-.1071 2.525.48 3.59 3.8099 6.56 6.7799 8.24 2.9699 1.68 9.4199 2.4 11.6499 2.62v5.36c-.08 1.2-.07 2.35-.21 3.55-.14 1.2-.23 2.36-.34 3.52-.31 2.24-.6 4.54-1 6.71-.23 1.51-.48 2.95-.73 4.4-.1-1.78-.38-5.26-.43-5.54-.926-3.925-2.844-7.547-5.57-10.52-.079-.441-.203-.874-.37-1.29-.283-.803-.732-1.538-1.3173-2.156-.5858-.618-1.2953-1.106-2.0822-1.431-.7869-.326-1.6335-.482-2.4848-.458-.8512.024-1.6879.226-2.4555.595-4.56 2.34-5.78 11.51-5 16 0 .26.85 3.1 1.38 4.88-.4701-1-.92-2-1.42-3-1-2-2-4-3.11-6.18l-1.72-3.09c-.5601-1-1.27-2.08-1.91-3.13-1.53-2.41-3.2-4.78-4.93-7.12 1.78-.86 8-4 10.26-6.62s4.29-6.55 3.5-10.08c-.1634-.834-.4999-1.625-.9878-2.321-.4879-.696-1.1164-1.282-1.8448-1.72-.7284-.438-1.5406-.719-2.3842-.824-.8436-.105-1.6997-.031-2.5132.215-4.86 1.63-7.45 10.51-7.4 15.08 0 .29.41 3.57.66 5.37-1-1.4-2.09-2.81-3.2-4.2-3.2001-4-6.57-7.94-9.91-11.89-1-1.21-2-2.43-3-3.64.63-.3 8.16-3.87 10.64-6.81 2.21-2.61 4.29-6.55 3.5-10.08-.1582-.837-.4911-1.632-.9773-2.332-.4861-.7-1.1144-1.29-1.8439-1.731-.7295-.44-1.5438-.722-2.3897-.827-.8458-.105-1.7042-.03-2.5191.22-4.8601 1.62-7.45 10.5-7.4 15.08 0 .34.6 5.06.8 6.25-2.22-2.67-4.42-5.36-6.47-8.1-2.7921-3.685-5.344-7.547-7.6401-11.56.2901-.14 8.1601-3.83 10.7001-6.84 2.21-2.61 4.3-6.55 3.5-10.08-.1584-.836-.4911-1.63-.9766-2.329-.4855-.699-1.1128-1.288-1.8411-1.729-.7284-.441-1.5413-.723-2.386-.828-.8447-.106-1.7021-.032-2.5163.216-4.87 1.62-7.4601 10.5-7.4101 15.08 0 .36.6501 5.44.8301 6.35-.13-.24-.3001-.46-.43-.7-2.1838-4.093-4.0041-8.369-5.44-12.78-.82-2.42-1.47-4.79-2-7.11 1.54-.53 8.53-3.06 11.12-5.52 2.59-2.46 5-6 4.58-9.63-.0642-.849-.3067-1.676-.7119-2.425-.4051-.75-.9637-1.406-1.6394-1.925-.6756-.519-1.4531-.889-2.2817-1.087-.8286-.199-1.6897-.22-2.5271-.063-5 1.08-8.56 9.62-9 14.18 0 .25.0001 2.79.0601 4.65-.25-1.05-.52-2.13-.74-3.14-.82-3.79-1.34-7.31-1.77-10.43-.23-1.78-.4001-3.39-.5501-4.9 1.23-1.31 6.1301-6.67 7.2801-10 1.15-3.33 1.64-7.66-.37-10.66-.4507-.723-1.0484-1.344-1.7544-1.822-.706-.477-1.5045-.801-2.3438-.95-.8392-.149-1.7004-.12-2.5277.086-.8272.205-1.602.582-2.2741 1.106-3.94 3.27-3.16 12.49-1.4601 16.74.1401.37 3.1001 5.85 3.1601 5.78l.0799-.08c.11 1.46.25 3 .4301 4.72.3699 3.13.8099 6.67 1.5499 10.5.7624 4.128 1.7641 8.208 3 12.22 1.3511 4.497 3.1014 8.865 5.23 13.05 0 0 .0601.1.0801.15-1-1.07-4.11-3.95-4.37-4.14-3.67-2.75-12.36-5.9-16.54-2.93-.683.511-1.2504 1.16-1.6653 1.905-.4149.745-.6679 1.569-.7425 2.418-.0746.85.031 1.706.3098 2.511.2787.806.7244 1.544 1.308 2.166 2.2 2.74 6.61 3.38 10.02 3.17Z"/><path opacity=".1" d="M112.58 214.71c.09 0 .33-6.19.3-6.58-.35-4.57-3.71-13.18-8.69-14.38-.833-.175-1.694-.174-2.527.006-.833.179-1.618.531-2.3061 1.034-.6876.503-1.2616 1.144-1.6849 1.884-.4233.739-.6862 1.559-.7718 2.406-.48 3.59 1.94 7.33 4.3598 9.74 2.85 2.83 11.32 5.89 11.32 5.89Z"/></g><g opacity=".1" fill="#000"><path opacity=".1" d="M469.06 318.29c-3.38.12-10.37-2.8-10.37-2.8s3.32-4 3.57-4.25c2.81-2.63 9.8-6.05 13.57-4 .616.367 1.147.86 1.561 1.446.413.586.699 1.252.838 1.955.14.703.13 1.428-.028 2.127-.159.699-.462 1.358-.891 1.932-1.75 2.54-5.38 3.48-8.25 3.59Z"/><path opacity=".1" d="M458.61 337.75c-3.16-.73-8.73-5-9.18-5.37-2.459 3.197-5.132 6.224-8 9.06-1.65 1.67-3.36 3.29-5.1 4.9.9-.62 1.71-1.16 1.84-1.22 3.41-1.8 11.05-3.25 14.13-.23.497.516.881 1.131 1.125 1.804.245.674.345 1.392.294 2.106-.051.715-.252 1.411-.589 2.044-.338.632-.805 1.186-1.37 1.626-2.34 1.95-6.09 1.89-8.89 1.24-2.8-.65-7.68-4.23-8.94-5.19-.68.61-1.34 1.23-2 1.83-3.24 2.92-6.49 5.81-9.6 8.75-1.09 1-2.13 2.09-3.17 3.14.8-.54 1.48-1 1.59-1.06 3.41-1.79 11.06-3.24 14.14-.22.497.515.88 1.129 1.125 1.802.244.673.344 1.39.293 2.104-.051.714-.251 1.409-.589 2.04-.337.632-.804 1.185-1.369 1.624-2.34 2-6.09 1.9-8.9 1.25-2.81-.65-7.2-3.89-8.71-5-1 1.11-2.07 2.23-3 3.35-.64.78-1.3 1.49-1.89 2.32l-1.8 2.38c-1.08 1.55-2.21 3.15-3.23 4.69-.72 1.07-1.38 2.1-2.06 3.14 1.08-1.05 3.23-3 3.43-3.19 3.1-2.29 10.43-4.88 13.94-2.37.569.436 1.04.986 1.383 1.616.343.629.55 1.324.608 2.038.057.715-.036 1.434-.274 2.11-.238.676-.615 1.295-1.107 1.816-2 2.28-5.74 2.8-8.61 2.57-3.15-.24-9.09-3.48-9.83-3.89-1.11 1.72-2.17 3.4-3.14 5-.72 1.18-1.41 2.33-2.06 3.43l-2.5-1c.75-1.22 1.55-2.48 2.39-3.81 1.12-1.75 2.35-3.59 3.63-5.48-1.588-1.488-3.084-3.071-4.48-4.74-2.93 1.42-9.22 2-10 2 0 2 .07 4 .15 5.9 0 1 .08 1.94.12 2.87l-2.64-1v-8.34c-.82-.14-7.5-1.31-10.12-3.09-2.38-1.62-5-4.34-5.12-7.38-.062-.714.027-1.434.262-2.111.235-.677.609-1.298 1.1-1.821.491-.522 1.086-.936 1.748-1.213.661-.277 1.373-.412 2.09-.395 4.3.22 8.42 6.82 9.42 10.54.06.22.43 2.67.64 4.23 0-.94 0-1.84.05-2.8 0-1.89.14-3.78.23-5.81.09-1 .17-2 .25-3 .08-1 .25-2 .38-3.06.33-2.38.79-4.77 1.3-7.17-1.66 0-7.55-.27-10.16-1.51-2.61-1.24-5.56-3.53-6.18-6.52-.167-.696-.187-1.42-.056-2.124.13-.704.407-1.373.812-1.963.406-.59.931-1.089 1.541-1.463.611-.374 1.293-.616 2.003-.71 4.29-.44 9.36 5.46 10.91 9 .1.22.93 2.88 1.35 4.34.32-1.44.63-2.88 1-4.32 1.07-4.18 2.28-8.37 3.47-12.56.37-1.29.71-2.57 1.07-3.85-.59 0-7.6-.13-10.52-1.52-2.6-1.24-5.57-3.54-6.18-6.52-.171-.696-.192-1.421-.063-2.126.129-.706.405-1.376.811-1.967.406-.591.932-1.089 1.544-1.463.613-.373 1.297-.613 2.008-.704 4.29-.44 9.36 5.46 10.91 9 .11.26 1.3 4.09 1.55 5.07.78-2.82 1.53-5.65 2.15-8.46.866-3.792 1.484-7.637 1.85-11.51-.28 0-7.59-.1-10.58-1.53-2.6-1.23-5.57-3.53-6.19-6.51-.169-.697-.189-1.421-.06-2.127.13-.705.406-1.375.812-1.967.405-.591.931-1.09 1.542-1.465.612-.375 1.295-.617 2.006-.711 4.3-.44 9.36 5.47 10.91 9 .13.28 1.4 4.4 1.58 5.16 0-.23.06-.46.08-.68.259-3.897.169-7.809-.27-11.69-.21-2.14-.53-4.18-.89-6.16-1.36.12-7.6.61-10.44-.37s-5.92-2.9-6.86-5.8c-.244-.674-.343-1.392-.291-2.107.052-.715.254-1.411.593-2.043.338-.632.806-1.186 1.372-1.625.567-.439 1.22-.754 1.916-.925 4.21-.91 9.9 4.4 11.83 7.74.1.18 1 2.14 1.57 3.58-.17-.89-.34-1.81-.52-2.66-.69-3.19-1.52-6.07-2.27-8.61-.44-1.44-.87-2.74-1.28-4-1.4-.58-7-3-9-5.12s-3.92-5.3-3.42-8.3c.092-.712.333-1.396.708-2.008.374-.612.874-1.138 1.465-1.544.592-.406 1.263-.682 1.969-.811.706-.129 1.431-.107 2.128.063 4.16 1.14 6.76 8.47 6.94 12.32 0 .34-.35 5.56-.42 5.53h-.09c.42 1.16.86 2.4 1.31 3.77.81 2.53 1.7 5.4 2.46 8.58.866 3.425 1.534 6.898 2 10.4.524 3.92.702 7.879.53 11.83-.006.047-.006.094 0 .14.44-1.19 1.79-4.46 1.92-4.7 1.85-3.37 7.42-8.81 11.66-8 .699.156 1.358.457 1.933.885.576.427 1.055.97 1.407 1.594.351.624.568 1.316.635 2.029.067.714-.016 1.433-.245 2.112-.88 2.92-4 5-6.73 6-3.05 1.13-10.07.62-10.62.58-.344 4.009-.952 7.991-1.82 11.92-.46 2.3-1 4.6-1.56 6.9.41-1 .79-1.91.86-2 1.86-3.38 7.43-8.81 11.66-8 .7.155 1.36.455 1.936.882.576.427 1.056.97 1.408 1.595.352.624.568 1.316.635 2.03.066.714-.019 1.434-.249 2.113-.88 2.91-4 4.94-6.73 5.94-2.73 1-8.73.71-10.32.6-.22.88-.44 1.77-.67 2.64-1.1 4.22-2.21 8.43-3.18 12.59-.34 1.47-.63 2.92-.91 4.38.37-.9.68-1.65.74-1.76 1.86-3.38 7.43-8.81 11.67-8 .699.156 1.358.457 1.933.885.576.427 1.055.97 1.407 1.594.351.624.568 1.316.635 2.029.067.714-.016 1.433-.245 2.112-.88 2.91-4 4.94-6.74 5.94s-8.14.73-10 .62c-.25 1.5-.5 3-.68 4.47-.09 1-.25 2-.3 3l-.18 3c-.05 1.9-.11 3.85-.11 5.7v3.75c.32-1.46 1-4.31 1.1-4.54 1.283-3.136 3.349-5.89 6-8 .127-.348.288-.683.48-1 .344-.628.815-1.177 1.385-1.611.569-.434 1.224-.744 1.92-.909.697-.165 1.421-.182 2.124-.049.704.133 1.372.412 1.961.819 3.48 2.56 3.27 10.34 2 14-.07.21-1.11 2.47-1.79 3.88.53-.77 1-1.52 1.58-2.31 1.08-1.55 2.2-3.08 3.41-4.72l1.84-2.34c.6-.79 1.33-1.56 2-2.35 1.6-1.79 3.3-3.54 5.05-5.26-1.37-.95-6.15-4.39-7.64-6.86-1.49-2.47-2.7-6-1.56-8.85.244-.669.625-1.279 1.119-1.792.494-.512 1.09-.916 1.749-1.184.66-.269 1.368-.396 2.079-.374.712.021 1.411.192 2.053.5 3.82 2 4.79 9.72 4.14 13.52 0 .23-.82 2.91-1.27 4.36 1.06-1 2.11-2.05 3.22-3.05 3.2-2.9 6.52-5.73 9.82-8.56l3-2.63c-.49-.33-6.27-4.3-7.94-7.07-1.49-2.46-2.69-6-1.56-8.84.244-.669.625-1.279 1.119-1.792.494-.513 1.089-.917 1.748-1.186.659-.269 1.367-.398 2.079-.378.712.021 1.411.19 2.054.496 3.82 2 4.79 9.72 4.14 13.52 0 .29-1.17 4.13-1.5 5.09 2.21-1.92 4.39-3.87 6.46-5.87 2.863-2.709 5.542-5.605 8.02-8.67-.23-.16-6.27-4.27-8-7.11-1.49-2.47-2.7-6-1.57-8.85.245-.673.63-1.288 1.128-1.803.498-.516 1.099-.921 1.763-1.19.665-.268 1.378-.394 2.095-.37.716.025 1.419.2 2.064.513 3.82 2 4.79 9.72 4.14 13.52-.05.3-1.26 4.43-1.53 5.16.14-.17.3-.34.44-.52 2.365-3.106 4.45-6.415 6.23-9.89 1-1.91 1.86-3.79 2.65-5.63-1.21-.65-6.68-3.69-8.5-6.07-1.82-2.38-3.34-5.69-2.53-8.62.167-.698.479-1.352.917-1.921.437-.569.989-1.039 1.621-1.38.631-.34 1.327-.544 2.043-.597.715-.054 1.434.045 2.109.288 4 1.57 5.83 9.13 5.6 13 0 .21-.38 2.32-.66 3.85.34-.83.71-1.69 1-2.5 1.18-3 2.08-5.9 2.86-8.44.43-1.44.79-2.76 1.11-4-.85-1.26-4.21-6.36-4.72-9.26-.51-2.9-.34-6.59 1.73-8.81.47-.541 1.049-.978 1.698-1.281.65-.303 1.356-.466 2.073-.478.717-.012 1.428.127 2.088.407.659.281 1.253.697 1.741 1.222 2.85 3.25 1 10.8-1 14.1-.17.29-3.36 4.45-3.4 4.39l-.06-.08c-.28 1.2-.61 2.47-1 3.86-.63 2.49-1.51 5.41-2.63 8.49-1.175 3.331-2.544 6.59-4.1 9.76-1.722 3.559-3.76 6.956-6.09 10.15-.027.039-.057.076-.09.11 1-.74 3.95-2.73 4.19-2.86 3.41-1.79 11.06-3.25 14.14-.23.497.516.881 1.131 1.125 1.804.245.674.345 1.392.294 2.106-.051.715-.252 1.411-.589 2.044-.338.632-.805 1.186-1.37 1.626-2.34 1.95-6.1 1.9-8.9 1.24Z"/><path opacity=".1" d="M397.14 291.87c-.08 0 .55-5.19.63-5.52.9-3.74 4.84-10.45 9.14-10.78.715-.035 1.43.081 2.098.341.668.26 1.274.657 1.777 1.167.504.509.895 1.119 1.147 1.79.253.671.361 1.387.318 2.102-.07 3-2.58 5.83-4.92 7.51-2.75 1.97-10.19 3.38-10.19 3.39Z"/></g><path d="m208.65 33.3601 12.5 118.7899" stroke="#263238" stroke-linecap="round" stroke-linejoin="round"/><path d="m246.14 58.6001-9.32 2.14-8.53 16.87-13.51-3.86-.38 3.68 16.8 6.97 6.01-8.34v14.55l18.04.78 3.69-16.49 6.59 5.82v15.32h3.88l2.33-19.2-10.28-16.68-15.32-1.56Z" fill="#fff" stroke="#263238" stroke-linecap="round" stroke-linejoin="round"/><path d="m237.21 76.0601-.14-8.21" stroke="#263238" stroke-linecap="round" stroke-linejoin="round"/><path d="m246 64.0001 2.53 4.75s7 2.22 8.24 2.53c1.24.31 5.07-.95 8.23-1.58 3.16-.63 13.31 4.43 13.31 4.43l8.87.32-4.75-5.7-17.11-2.54-8.87 2.86-6-1.59 1.28-2.48-2.85-4.44-2.88 3.44Z" fill="#000" stroke="#263238" stroke-linecap="round" stroke-linejoin="round"/><path d="M246.91 57.2402c-.515-.0974-1.048.0115-1.484.3033-.436.2918-.74.7431-.846 1.2567-.38 1.94-.77 6.79-.77 6.79l4.65-1.36 5.44 2.33s1.74-5.05.77-6.79c-.97-1.74-5.43-4.08-7.76-2.53Z" fill="#fff" stroke="#263238" stroke-linecap="round" stroke-linejoin="round"/><path d="M245.94 54.53s.58 5.43.78 7.37c.2 1.94 1.36 4.85 2.13 4.27.77-.58 3.49-6 3.49-6l1.36-3.68-7.76-1.96Zm.06-7.9299s-1.7-.15-1.7 2.63 1.23 2.93 1.23 2.93l.47-5.56Zm11.37 2.3201c.22.0118.435.0717.63.1755.195.1038.364.2489.497.4253.132.1763.224.3795.27.5953.045.2159.043.439-.007.6539-.31 1.7-3.24 4-3.24 4l1.85-5.85Z" fill="#fff" stroke="#263238" stroke-linecap="round" stroke-linejoin="round"/><path d="M251.76 41s-3.1-.78-4.85 2.91c-1.75 3.69-1.36 8.15-1 10.67.36 2.52 2.72 3.68 5.05 3.68 2.33 0 5.81-4.84 6.59-8.53.78-3.69.22-8.73-5.79-8.73Zm-40.73 30.6002.77 5.82 3.49.39-.58-6.6-3.68.39Zm3.75-.0901 1.41-.19.28 3.1-1.41.19-.28-3.1ZM265.53 96.04l-2.12 3.32.55 3.33 1.85-.18 3.15-1.11.45-5.36h-3.88Z" fill="#fff" stroke="#263238" stroke-linecap="round" stroke-linejoin="round"/><path d="m237.21 90.6101-1.37 5.98-15.18 19.9799 10.18 28.69 2.59-.56-2.22-27.39 12.4-13.14 1.48.93.04 14.66 14.21 24.02 2.96-.75-6.66-23.13.37-24.6099-.76-3.9-18.04-.78Z" fill="#263238" stroke="#263238" stroke-linecap="round" stroke-linejoin="round"/><path d="m230.84 145.26-2.22 3.14s-3.52 1.67-4.07 2.59c-.55.92 3 .74 3 .74l4.07-.37 4.26-2.77-2.41-3.89-2.63.56Z" fill="#fff" stroke="#263238" stroke-linecap="round" stroke-linejoin="round"/><path d="M209.18 37.5901s-1.86 4.24-9.54 7.15c-7.68 2.91-18.8 4.5-21.71 10.59s-2.91 5.57-3.44 9c-.283 2.005-1.214 3.8626-2.65 5.29 0 0 2.65.27 4-1.58s1.86-7.15 4-7.95c2.14-.8 6.03-2.09 6.03-2.09s-3.7 3.18-4 4.77c-.3 1.59-.53 5.3-1.06 7.68-.231 1.3012-.864 2.4973-1.81 3.42 0 0 3.44 0 4.5-2.38s0-5.56 3.44-7.95c3.44-2.39 7.15-1.32 13-1.06s11.39-3.17 11.39-3.17l-2.15-21.72Z" fill="#000" stroke="#263238" stroke-linecap="round" stroke-linejoin="round"/><path d="m259.34 143.78-2.55 8.47 6.33-.25-.82-8.97-2.96.75Z" fill="#fff" stroke="#263238" stroke-linecap="round" stroke-linejoin="round"/><path d="M249.64 48.43c-.11.5-.46.85-.8.78-.34-.07-.52-.54-.41-1 .11-.46.46-.85.8-.78.34.07.51.5.41 1Zm4.63 1.0801c-.11.5-.46.85-.8.78-.34-.07-.52-.54-.41-1 .11-.46.46-.85.8-.78.34.07.51.49.41 1Z" fill="#263238"/><path d="m251.19 49.0701-1.23 3.71h2.01m-3.55 1.08s1.08 1.85 3.86.77m-4.02-8.7999c.402-.2172.867-.29 1.316-.2063.449.0837.857.3188 1.154.6663m2.32.6199c.27-.1483.569-.2379.876-.2628.308-.0249.617.0154.908.1183.291.1029.556.2661.78.4788.223.2128.399.4703.516.7557" stroke="#263238" stroke-linecap="round" stroke-linejoin="round"/><path d="m245.33 45.3701 11.11-1.37s-.46 1.8501.16 2.3101c.62.46.77 2.6299.77 2.6299l-.46 2.47 2.47-4.32s.77-3.3999.15-4.4799c-.203-.326-.473-.6051-.792-.8189-.319-.2138-.679-.3573-1.058-.4212-.661-1.0004-1.593-1.7921-2.688-2.2826-1.094-.4905-2.305-.6595-3.492-.4874-4.32.46-6.17 2.62-6.17 4.32v2.45Z" fill="#263238" stroke="#263238" stroke-linecap="round" stroke-linejoin="round"/><path d="m237.13 465.2 19.6-112.47-73.98-67.89 26.85-91.48-28.74.64-12.14 10.86-25.37-.62-3.43 12.37-6.96-.87-2.4 4.34-11.87 23.7-6.17 23.67-23.0002 28.75-2.52 67.84-37.08 53.52-11.66 47.64H237.13Z" fill="gray" stroke="#39515E" stroke-linecap="round" stroke-linejoin="round"/><path d="m404.06 465.2-24.55-53.83 40 26.65v-42.65L396 367.52l3.48-31.33-35.7-67.89-1.78-23.5-12.18-11.32L287.3 238l-4.46-21.95-40-22.63-24 58.11-22.11 9.78 15.58 21.36-2.52 16.93 5.21 26.14-87 19.15s-.87 41.78-.87 45.26c0 3.48-17.41 23.5-17.41 23.5l-.81 51.55h295.15Z" fill="#ABABAB" stroke="#39515E" stroke-linecap="round" stroke-linejoin="round"/><path d="m452.51 465.2-10.39-4.55-13.06-27.85-15.67-11.31-6.96-16.54-6.96-13.06-37.2-18.17 5.77 91.48h84.47Zm-389.3603-.11H109.66l.84-27.07-4.35-15.66v-41.78l-10.4403-1.74-8.71 9.57-13.92 7.84-30.17 68.95h20.24v-.11Z" fill="#CCC" stroke="#39515E" stroke-linecap="round" stroke-linejoin="round"/><path d="m79.2397 419.77 1.0201-4.34M63.1499 465.2l6.2-24.49 5.85-3.72 3.42-14.58m-25.51 43.05 9.85-27.94m32.8897-47.12-.96 4.54m3.1902-15.16-1.82 8.67" stroke="#39515E" stroke-miterlimit="10"/><path d="m109.66 465.09.84-27.07-4.35-15.66v-41.78l-8.7001 55.7-7.84 2.61-2.61 15.67-1.62 10.53H109.66Zm148.95-30.87c4.948-.67 9.786-1.988 14.39-3.92 3.676-1.499 6.91-3.908 9.4-7 .29-.39.56-.8.82-1.21l-6.87-31-13.55-11.82-2.26-10.14-13-10.14-4.5 15.78-7.33 10.14-.56 37.19 7 13.38c5.509-.047 11.008-.468 16.46-1.26Z" fill="#fff" stroke="#39515E" stroke-linecap="round" stroke-linejoin="round"/><path d="m258.61 434.22-1.38-11.58 4.07-10.97v-6.5l-.82-10.16m6.38 4.01 2.16 12.24 4.06.81-.81 10.16 1.62 5.29m-8.53-36.98.72 4.08m-14.13-30.09 3.25 33.32" stroke="#39515E" stroke-miterlimit="10"/><path d="M212.25 433.39c9.349 1.421 18.793 2.123 28.25 2.1 1.9 0 3.76-.05 5.59-.12l-.2-10.46-3.38-4.5v-32.12l5.64-5.64-.57-23.65-6.76 12.4-9 7.88-5.64 16.34-9 10.71-2.26 11.27-10.7 9-4.27 4.55c4.033.86 8.133 1.607 12.3 2.24Z" fill="#CCC" stroke="#39515E" stroke-linecap="round" stroke-linejoin="round"/><path d="m375.1 465.2 47.25-.09-61.18-36.66-14.79-35.69-12.19-1.74-10.44-13.92-5.23 5.22 3.48 30.46-13.05 21.76v13.93l-6.09 15.66 29.44 1.07h42.8Z" fill="#fff" stroke="#39515E" stroke-linecap="round" stroke-linejoin="round"/><path d="m351.4 465.14-2.23-12.45 3.51-7.35-.96-14.37 2.88 2.88 19.48 31.29H351.4Z" fill="#CCC" stroke="#39515E" stroke-linecap="round" stroke-linejoin="round"/><path d="m351.72 430.97 13.74 6.71 5.42 6.7 15.65 7.99 10.86 6.71 6.67 6.12-29.98-.06-22.36-34.17Z" fill="#fff" stroke="#39515E" stroke-linecap="round" stroke-linejoin="round"/><path d="M308.95 434.54v13.93l-6.56 16.45 24.85.32-5.24-29.83 10.45-9.57-13.93-43.52 3.48 30.46-13.05 21.76Z" fill="#CCC" stroke="#39515E" stroke-linecap="round" stroke-linejoin="round"/><path d="m334.19 391.02 9.19 19.43 4.06.41 3.25 9.75m-10.33 29.19 1.4 4.54m-6.91-39.83 2.84 10.98 4.88 8.12-5.69 4.88 2.46 7.99" stroke="#39515E" stroke-miterlimit="10"/><path d="m218.74 191.25-20.4 22.31-.7-40.9L217.95 148l.79 43.25Zm-14.16 89.32 20.86-18.41c1.496-1.298 3.161-2.388 4.95-3.24 2.244-1.065 4.589-1.902 7-2.5 3.09-.752 6.232-1.273 9.4-1.56 3.988-.368 7.995-.515 12-.44 9.683.128 19.343.981 28.9 2.55 7.942 1.315 15.795 3.129 23.51 5.43 6.94 2.07 13 4.29 18.23 6.34s9.55 3.93 13.05 5.31l-27.07 17.55c-3.31-1.3-7.42-3.07-12.35-5-4.93-1.93-10.68-4-17.25-6-7.298-2.168-14.726-3.868-22.24-5.09-9.048-1.471-18.194-2.259-27.36-2.36-3.799-.065-7.598.081-11.38.44-2.997.276-5.968.774-8.89 1.49-2.299.564-4.534 1.362-6.67 2.38-1.697.821-3.274 1.867-4.69 3.11ZM271 431.11l-23.54 9c2.057-.764 4.028-1.743 5.88-2.92 1.64-1.046 3.117-2.33 4.38-3.81 1.192-1.402 2.114-3.012 2.72-4.75.623-1.851.914-3.797.86-5.75-.017-3.406-1.062-6.728-3-9.53-2.485-3.295-5.659-6.008-9.3-7.95-5.245-2.865-10.758-5.21-16.46-7-6.8-2.29-15-4.55-24.65-6.9-13.143-3.061-26.013-7.194-38.48-12.36-11.259-4.614-21.829-10.759-31.41-18.26-8.8-6.874-16.048-15.53-21.27-25.4-5.295-10.489-8.036-22.08-8-33.83-.05-4.772.284-9.541 1-14.26.683-4.536 1.754-9.006 3.2-13.36 1.424-4.266 3.221-8.399 5.37-12.35 2.165-3.954 4.672-7.711 7.49-11.23L142 230.12c-5.978 7.437-10.577 15.883-13.58 24.94-1.546 4.603-2.69 9.33-3.42 14.13-.741 4.998-1.075 10.048-1 15.1-.008 12.456 2.921 24.738 8.55 35.85 5.538 10.463 13.218 19.642 22.54 26.94 9.48 7.63 20.75 14 33.28 19.33 13.191 5.485 26.81 9.88 40.72 13.14 10.25 2.5 18.88 4.91 26.07 7.34 6.036 1.918 11.867 4.426 17.41 7.49 4.48 2.61 7.69 5.37 9.81 8.41 2.066 2.961 3.186 6.479 3.21 10.09.067 2.068-.238 4.13-.9 6.09-.637 1.829-1.607 3.524-2.86 5-1.337 1.556-2.897 2.904-4.63 4-1.95 1.262-4.029 2.315-6.2 3.14Z" fill="#CCC" stroke="#39515E" stroke-linecap="round" stroke-linejoin="round"/><path d="M155.09 347.08c9.48 7.63 20.75 14 33.28 19.33 13.191 5.485 26.81 9.88 40.72 13.14 10.25 2.5 18.88 4.91 26.07 7.34 6.036 1.918 11.867 4.426 17.41 7.49 4.48 2.61 7.69 5.37 9.81 8.41 2.066 2.961 3.186 6.479 3.21 10.09.165 3.748-.973 7.437-3.22 10.44-2.49 3.092-5.724 5.501-9.4 7-4.595 1.929-9.423 3.247-14.36 3.92-5.997.868-12.05 1.292-18.11 1.27-9.457.023-18.901-.679-28.25-2.1-8.978-1.361-17.864-3.268-26.61-5.71-8.5-2.37-16.59-5.11-24.13-8-7.54-2.89-14.54-6-20.85-9L127.88 465h229.69c7.157-7.972 12.757-17.215 16.51-27.25 3.933-10.692 5.76-22.044 5.38-33.43-.34-12.17-2.19-23-5.82-32.71-3.612-9.707-9.235-18.54-16.5-25.92-7.47-7.66-17-14.41-28.86-20.43s-26.14-11.35-43-16.16c-10.854-3.16-20.344-6.193-28.47-9.1-6.939-2.401-13.707-5.268-20.26-8.58-5.4-2.83-9.45-5.64-12.15-8.52-2.7-2.88-4.08-5.81-4.14-8.89-.076-2.519.466-5.019 1.58-7.28 1.388-2.629 3.461-4.833 6-6.38 3.647-2.198 7.667-3.707 11.86-4.45 6.318-1.182 12.745-1.682 19.17-1.49 9.683.128 19.344.981 28.9 2.55 7.943 1.315 15.795 3.129 23.51 5.43 6.94 2.07 13 4.29 18.23 6.34s9.55 3.93 13.05 5.31l14.88-67c-4.68-2-9.71-4-15.22-5.9-5.51-1.9-11.51-3.68-18.1-5.29-6.59-1.61-13.79-3-21.71-4.21-7.92-1.21-16.59-2.07-26.09-2.63l-.87-39.62L218 148l.79 43.25c-13.971 1.928-27.603 5.802-40.5 11.51-11.105 4.907-21.241 11.761-29.93 20.24-7.95 7.85-14.199 17.251-18.36 27.62-4.197 10.719-6.236 22.161-6 33.67-.008 12.456 2.921 24.738 8.55 35.85 5.538 10.463 13.218 19.642 22.54 26.94Z" fill="#fff" stroke="#39515E" stroke-linecap="round" stroke-linejoin="round"/><path d="m127.88 465 12.78-54.33-16.37 10.24L113.87 465h14.01Z" fill="#CCC" stroke="#39515E" stroke-linecap="round" stroke-linejoin="round"/><path d="M404.15 451.89c-1.007-.19-2.049.014-2.91.57l4.48 2.69c.12-.317.173-.654.158-.992-.015-.338-.098-.669-.245-.974-.147-.305-.354-.577-.609-.799-.255-.223-.552-.391-.874-.495Zm1.26-35.4s.6-2.52.62-2.68c.2-1.89-.53-5.67-2.48-6.54-.328-.135-.681-.199-1.035-.187-.355.011-.703.096-1.022.251-.319.155-.602.375-.83.647-.228.271-.396.588-.493.929-.47 1.43.24 3.14 1.05 4.31.96 1.38 4.19 3.26 4.19 3.27Zm29.65 15.38c1.22-1.47 2.69-5 1.54-6.82-.198-.294-.456-.543-.757-.73-.302-.187-.639-.308-.991-.356-.351-.047-.709-.019-1.049.082-.34.101-.654.273-.923.504-.541.544-.955 1.201-1.215 1.923-.259.723-.356 1.493-.285 2.257 0 1.67 1.69 5 1.7 5 .01 0 1.92-1.73 1.98-1.86Z" fill="#263238"/><path d="M393.86 445.77c1.413.902 2.958 1.577 4.58 2-.13.74-.26 1.48-.42 2.19 0 .18-.09.36-.13.55l.94.56c.06-.29.12-.59.19-.88.23-1.17.42-2.36.57-3.56 1.605.592 3.292.929 5 1 .773-.02 1.531-.21 2.222-.556.692-.345 1.298-.838 1.778-1.444.192-.3.319-.637.372-.988.054-.352.033-.711-.062-1.055-.094-.343-.259-.662-.485-.938-.226-.275-.507-.499-.825-.659-1.93-.91-5.27 1-6.58 2.39-.08.09-.9 1.19-1.34 1.81.09-.73.18-1.45.25-2.19.19-2.12.32-4.28.45-6.43 0-.65.09-1.31.14-2 .28.1 3.56 1.2 5.16 1 1.41-.15 3.18-.73 4-2 .192-.299.319-.635.372-.986.053-.351.032-.71-.062-1.052-.094-.343-.26-.661-.485-.936-.226-.274-.507-.497-.825-.656-1.93-.91-5.27 1-6.58 2.39-.09.11-1.28 1.7-1.56 2.11.1-1.44.22-2.88.39-4.3.215-1.909.549-3.803 1-5.67.13 0 3.56 1.21 5.19 1 1.42-.15 3.18-.73 4-2 .192-.299.319-.635.372-.986.053-.351.032-.71-.062-1.052-.094-.343-.26-.661-.485-.936-.226-.274-.507-.498-.825-.656-1.93-.92-5.27 1-6.57 2.39-.11.11-1.38 1.82-1.59 2.14 0-.11.05-.22.08-.33.524-1.857 1.21-3.664 2.05-5.4.45-1 .94-1.87 1.43-2.73.62.28 3.45 1.54 4.93 1.55 1.48.01 3.24-.37 4.16-1.57.225-.275.39-.593.484-.936.093-.342.114-.7.06-1.051-.053-.351-.18-.687-.372-.985-.192-.299-.445-.554-.742-.748-1.81-1.12-5.34.42-6.79 1.66-.08.07-.81.84-1.33 1.41.23-.39.46-.79.69-1.16.85-1.37 1.71-2.57 2.48-3.64.44-.6.85-1.13 1.24-1.63 1.726-.034 3.436-.334 5.07-.89 1.26-.65 2.7-1.83 3-3.31.067-.344.062-.698-.014-1.04-.077-.341-.224-.663-.432-.945-.208-.282-.472-.518-.775-.693-.304-.175-.641-.284-.989-.322-2.13-.15-4.55 2.84-5.27 4.6-.06.16-.76 2.65-.72 2.65h.05c-.39.47-.8 1-1.23 1.54-.8 1.05-1.69 2.24-2.57 3.6-.96 1.457-1.838 2.966-2.63 4.52-.894 1.741-1.63 3.558-2.2 5.43v.07c0-.63-.09-2.37-.11-2.51-.31-1.88-2-5.33-4.12-5.65-.352-.042-.709-.01-1.048.095-.338.104-.652.278-.919.511-.268.232-.484.518-.634.839-.15.321-.232.67-.239 1.025-.07 1.51 1.07 3 2.16 3.89 1.24 1 4.59 2 4.86 2-.531 1.918-.935 3.869-1.21 5.84-.17 1.15-.3 2.31-.41 3.48 0-.54-.06-1-.07-1.09-.31-1.88-2-5.34-4.12-5.65-.352-.044-.709-.013-1.048.091-.339.104-.652.278-.919.511-.267.233-.482.52-.631.842-.148.322-.227.671-.232 1.026-.07 1.5 1.07 3 2.16 3.88 1.459.903 3.047 1.578 4.71 2 0 .44-.09.89-.12 1.34-.19 2.15-.36 4.29-.6 6.39-.08.74-.19 1.47-.3 2.19v-.94c-.31-1.88-2-5.33-4.12-5.65-.352-.044-.709-.013-1.048.091-.339.104-.652.278-.919.511-.267.233-.482.52-.631.842-.148.322-.227.671-.232 1.026-.19 1.44.95 2.91 2.04 3.82Zm55.85-17.72c-1.69-1.31-5.36-.15-6.93.93-.14.09-2.1 1.79-2.06 1.81-.58.17-1.2.37-1.88.6-1.24.44-2.64.94-4.12 1.59-1.61.676-3.176 1.451-4.69 2.32-1.705.958-3.321 2.066-4.83 3.31l-.05.05c.33-.53 1.23-2 1.28-2.15.78-1.74 1.27-5.56-.32-7-.269-.23-.584-.4-.924-.5-.34-.1-.697-.128-1.048-.081-.351.048-.688.168-.989.354-.301.187-.56.434-.759.727-.89 1.21-.75 3.06-.35 4.43.47 1.54 2.75 4.16 2.94 4.37-1.508 1.298-2.922 2.702-4.23 4.2-.78.87-1.53 1.76-2.27 2.67.28-.46.52-.88.55-.94.78-1.74 1.27-5.56-.32-7-.269-.23-.584-.4-.924-.5-.34-.1-.697-.128-1.048-.081-.351.048-.688.168-.989.354-.301.187-.56.434-.759.727-.89 1.21-.75 3.07-.34 4.43.719 1.554 1.674 2.987 2.83 4.25l-.84 1c-1.34 1.7-2.67 3.39-4 5-.47.57-1 1.12-1.45 1.66l.47-.82c.78-1.73 1.27-5.55-.32-7-.269-.23-.584-.4-.924-.5-.34-.1-.697-.128-1.048-.081-.351.048-.688.168-.989.354-.301.187-.56.434-.759.727-.89 1.21-.75 3.06-.34 4.43.668 1.574 1.587 3.03 2.72 4.31l-1 1.08.88.53c.61-.63 1.2-1.29 1.79-2 1.016 1.366 2.237 2.567 3.62 3.56.656.401 1.391.653 2.155.739.763.087 1.536.005 2.265-.239.325-.14.617-.348.856-.609.24-.261.422-.569.534-.905.112-.336.152-.692.118-1.044-.034-.353-.143-.694-.318-1.002-1.11-1.83-5-2.07-6.8-1.63-.12 0-1.41.49-2.12.76.47-.56.95-1.11 1.41-1.69 1.33-1.66 2.63-3.39 3.93-5.11l1.2-1.56c.18.23 2.32 3 3.74 3.7.655.399 1.388.65 2.15.736.761.086 1.533.006 2.26-.236.325-.14.617-.348.856-.609.24-.261.422-.569.534-.905.112-.336.153-.692.118-1.044-.034-.353-.143-.694-.318-1.002-1.1-1.83-4.94-2.08-6.8-1.64-.14 0-2 .71-2.46.9.88-1.15 1.77-2.28 2.7-3.37 1.238-1.475 2.574-2.865 4-4.16.08.11 2.29 3 3.75 3.73 1.26.66 3.05 1.15 4.41.5.326-.139.619-.346.859-.607.241-.26.424-.568.537-.904.113-.336.154-.693.121-1.046-.034-.353-.142-.694-.317-1.003-1.11-1.83-4.95-2.07-6.8-1.64-.15 0-2.15.76-2.51.92l.25-.24c1.461-1.26 3.03-2.387 4.69-3.37.91-.56 1.81-1 2.7-1.48.36.57 2 3.18 3.26 4 1.26.82 2.91 1.47 4.33 1 .338-.104.651-.279.918-.512.267-.233.481-.52.63-.841.149-.322.229-.671.235-1.025.005-.354-.064-.706-.203-1.032-.9-1.94-4.69-2.6-6.58-2.37-.11 0-1.14.26-1.89.45.41-.2.82-.41 1.21-.59 1.47-.68 2.85-1.21 4.08-1.67l1.94-.67c1.457.918 3.045 1.609 4.71 2.05.756.137 1.532.107 2.275-.088.743-.195 1.434-.551 2.025-1.042.246-.25.437-.549.561-.878.123-.329.176-.68.156-1.031-.021-.35-.115-.693-.277-1.005-.161-.312-.386-.586-.66-.806Zm-50.99 37.11 1.15.71.71-.52.27-.2-2.13.01ZM67.4099 399c-.2969.193-.55.446-.7428.743-.1929.297-.3213.631-.3769.981-.0556.35-.0372.707.054 1.049.0913.342.2533.662.4757.937.7148.827 1.7141 1.355 2.8 1.48l2.15-4.91c-1.51-.68-3.25-1-4.36-.28Zm9.9501-6.45c-.6763.506-1.1568 1.23-1.36 2.05l3.77-2.11c-.3713-.203-.7898-.305-1.2131-.294-.4232.01-.8362.132-1.1969.354Zm.6399-35.74c1.28 1.08 4.89 2.06 4.89 2.06s-.07-2.58-.1-2.74c-.3-1.88-2-5.34-4.09-5.67-.3521-.047-.71-.018-1.0502.084-.3402.102-.6549.275-.9234.507-.2684.233-.4844.519-.6338.842-.1493.322-.2286.672-.2326 1.027-.04 1.5 1.14 2.97 2.14 3.89ZM51.67 368.15s-1.49-2.11-1.6-2.23c-1.28-1.4-4.6-3.36-6.54-2.47-.3175.158-.5982.38-.8238.654-.2256.273-.391.591-.4853.932-.0944.342-.1157.7-.0624 1.05.0533.351.1799.686.3715.984.76 1.3 2.51 1.9 3.93 2.07 1.65.19 5.21-.98 5.21-.99Z" fill="#263238"/><path d="M49.79 360.17c.1.6.21 1.24.34 1.94.26 1.29.56 2.74 1 4.3.4455 1.698.9932 3.368 1.64 5 .714 1.82 1.5874 3.574 2.61 5.24v.06c-.47-.4-1.84-1.5-2-1.57-1.61-1-5.33-2-7-.66-.2648.236-.4767.526-.6218.85-.1451.324-.2201.675-.2201 1.03s.075.706.2201 1.03c.1451.324.357.614.6218.85 1.08 1.05 2.93 1.17 4.34 1 1.59-.24 4.5-2.15 4.73-2.3 1.0904 1.668 2.2862 3.264 3.58 4.78.75.88 1.53 1.75 2.33 2.61l-.86-.68c-1.61-1-5.33-2-7-.65-.2634.237-.4741.527-.6183.851-.1441.324-.2186.674-.2186 1.029 0 .354.0745.705.2186 1.029.1442.324.3549.614.6183.851.6106.465 1.3154.791 2.065.955.7496.164 1.526.162 2.275-.005 1.6396-.499 3.194-1.244 4.61-2.21.31.32.61.65.92 1 1.49 1.56 3 3.11 4.4 4.68.5.55 1 1.11 1.45 1.67l-.75-.58c-1.61-1-5.33-2-7-.66-.2634.237-.4741.527-.6183.851-.1441.324-.2186.674-.2186 1.029 0 .354.0745.705.2186 1.029.1442.324.3549.614.6183.851 1.08 1.05 2.94 1.17 4.34 1 1.5981-.478 3.1127-1.199 4.49-2.14.47.58.94 1.17 1.37 1.77.28.41.58.78.84 1.21v.06l.38-.86.22-.13-.65-.88c-.72-.95-1.49-1.88-2.29-2.79 1.4823-.821 2.8311-1.863 4-3.09.487-.595.8386-1.288 1.0303-2.033.1917-.744.2189-1.521.0797-2.277-.0944-.341-.2595-.659-.4848-.932-.2252-.273-.5055-.495-.8225-.653-.3169-.158-.6636-.247-1.0173-.261-.3537-.015-.7065.045-1.0354.176-2 .84-2.74 4.61-2.56 6.5 0 .12.29 1.47.46 2.21-.49-.55-1-1.1-1.47-1.64-1.47-1.55-3-3.07-4.52-4.6l-1.38-1.4c.25-.15 3.25-1.88 4.18-3.19.5496-.584.9587-1.286 1.1961-2.052.2374-.766.2969-1.576.1739-2.368-.0946-.341-.2598-.659-.4849-.932-.225-.273-.505-.497-.8217-.655-.3167-.158-.6631-.248-1.0168-.264-.3537-.016-.7069.042-1.0366.171-2 .84-2.74 4.61-2.56 6.51 0 .14.41 2.08.54 2.57-1-1-2-2.08-3-3.14-1.2853-1.433-2.4746-2.95-3.56-4.54.12-.07 3.26-1.87 4.21-3.2.4868-.593.8383-1.285 1.03-2.027.1918-.743.2191-1.519.08-2.273-.0897-.347-.2522-.671-.4767-.951-.2245-.28-.5059-.509-.8255-.671-.3196-.163-.6701-.256-1.0284-.272-.3582-.017-.7159.042-1.0494.174-2 .84-2.74 4.61-2.56 6.51 0 .15.45 2.23.55 2.6l-.2-.27c-1.0441-1.625-1.9442-3.338-2.69-5.12-.42-1-.77-1.94-1.09-2.88 1.6058-.656 3.1002-1.556 4.43-2.67.5464-.536.9691-1.186 1.2386-1.903.2694-.716.3791-1.483.3214-2.247-.0612-.347-.1941-.677-.3901-.969-.196-.292-.4509-.541-.7483-.729-.2974-.188-.6308-.312-.9789-.364-.3481-.052-.7032-.031-1.0427.062-2 .62-3.22 4.28-3.26 6.19 0 .1.1 1.16.18 1.93-.13-.43-.28-.87-.41-1.28-.47-1.54-.8-3-1.08-4.27-.16-.73-.29-1.39-.4-2 1.1147-1.316 2.0187-2.797 2.68-4.39.243-.728.3232-1.5.2351-2.262-.0881-.762-.3425-1.495-.7451-2.148-.2107-.285-.4792-.523-.788-.697-.3087-.174-.6508-.281-1.0038-.314-.3529-.033-.7089.009-1.0446.122-.3357.114-.6436.298-.9036.539-1.53 1.49-.9 5.28 0 7 .06.06 1.47 2.26 1.49 2.23Zm26.4001 7.41c1.46.67 4.94.69 5.22.7-.0216 2.005.092 4.01.34 6 .14 1.15.32 2.31.51 3.46-.17-.51-.32-1-.35-1-.78-1.74-3.32-4.63-5.44-4.39-.3511.05-.6879.173-.9885.361-.3005.188-.5582.437-.7562.731-.198.295-.332.627-.3932.976-.0612.35-.0483.708.0379 1.052.32 1.47 1.8 2.59 3.1 3.19 1.6405.493 3.3473.729 5.06.7.08.44.15.88.23 1.32.38 2.13.77 4.24 1.09 6.33.11.74.19 1.47.28 2.2l-.3-.9c-.79-1.74-3.33-4.63-5.45-4.39-.3466.05-.6789.172-.9758.358-.2969.186-.5518.431-.7485.721-.1966.29-.3307.617-.3937.962s-.0534.698.028 1.039c.32 1.47 1.8 2.59 3.09 3.19 1.1003.387 2.2542.599 3.42.63l2.33-1.31 1.84-1 5.03-5.51c-.1138-.042-.2308-.076-.35-.1-2.1-.38-4.83 2.33-5.73 4 0 .11-.56 1.39-.83 2.09-.1-.72-.2-1.44-.33-2.17-.36-2.1-.8-4.21-1.22-6.33-.14-.64-.26-1.29-.38-1.94.29 0 3.75.23 5.24-.34 1.33-.51 2.89-1.53 3.3-3 .1033-.337.1346-.692.0921-1.042-.0425-.35-.158-.687-.3389-.99-.181-.302-.4234-.563-.7116-.766-.2882-.203-.6158-.343-.9616-.412-2.1-.38-4.82 2.33-5.72 4-.07.13-.8 2-1 2.45-.27-1.43-.53-2.85-.73-4.26-.2828-1.904-.4398-3.825-.47-5.75.14 0 3.75.24 5.28-.34.7353-.23 1.4116-.617 1.9816-1.135.57-.518 1.02-1.155 1.3184-1.865.1101-.337.148-.693.1112-1.045-.0369-.353-.1476-.693-.325-1-.1774-.307-.4175-.573-.7046-.78-.2871-.208-.6148-.353-.9616-.425-2.1-.39-4.83 2.33-5.73 4-.07.13-.85 2.11-1 2.48v-.34c.0298-1.93.2239-3.853.58-5.75.19-1.05.43-2 .68-3 .67.11 3.73.59 5.16.21 1.43-.38 3-1.2 3.61-2.59.1454-.323.2214-.673.2231-1.027.0017-.354-.071-.704-.2133-1.029-.1424-.324-.3512-.615-.613-.853-.2618-.239-.5707-.419-.9068-.531-2-.61-5 1.79-6.13 3.36-.06.08-.56 1-.92 1.7.12-.43.24-.88.36-1.29.47-1.54 1-2.93 1.45-4.16.28-.69.54-1.31.78-1.89.72-.24 3.58-1.2 4.66-2.18 1.08-.98 2.14-2.47 2-4-.0193-.354-.1129-.7-.2747-1.016-.1618-.316-.3882-.594-.6645-.817-.2763-.222-.5963-.384-.9393-.475-.343-.091-.7012-.109-1.0515-.052-2.1.4-3.66 3.92-3.9 5.81v2.75c-.25.56-.51 1.15-.79 1.81-.49 1.22-1 2.6-1.54 4.14-.5523 1.656-1.0097 3.342-1.37 5.05-.3775 1.925-.5849 3.879-.62 5.84v.07c-.17-.6-.71-2.27-.76-2.39-.79-1.74-3.33-4.63-5.45-4.39-.3509.049-.6875.172-.9877.361-.3002.188-.5573.438-.7546.732-.1972.294-.3301.627-.39.976-.06.35-.0455.708.0423 1.051.32 1.45 1.8 2.59 3.09 3.17ZM221.22 389.76c-.351.05-.688.172-.988.361-.3.188-.557.438-.754.732-.198.294-.331.627-.39.977-.06.349-.046.707.042 1.05.25.726.656 1.387 1.19 1.939.534.551 1.183.978 1.9 1.251.984.354 2.015.556 3.06.6l.89-1.06.5-1.45c-.79-1.75-3.33-4.64-5.45-4.4Zm-10.97 15.11c-.297.193-.55.446-.743.743-.192.297-.321.631-.376.981-.056.35-.038.707.054 1.049.091.342.253.661.475.937.9 1.21 2.72 1.6 4.14 1.6.93-.068 1.844-.277 2.71-.62l.58-2.92-.06-.06c-1.44-1.25-4.96-2.81-6.78-1.71Zm9.95-6.4c-1.63 1-1.95 4.22-1.66 6.2l4.79-5.69c-.378-.44-.899-.733-1.472-.827-.573-.093-1.16.019-1.658.317Z" fill="#263238"/><path d="M205.43 391.32c.31.32.61.65.92 1 1.49 1.56 3 3.11 4.4 4.68.5.55 1 1.11 1.45 1.67l-.75-.58c-1.61-1-5.33-2-7-.66-.263.237-.474.527-.618.851-.144.324-.219.675-.219 1.029 0 .355.075.705.219 1.029.144.324.355.614.618.851 1.08 1.05 2.94 1.17 4.34 1 1.598-.477 3.113-1.199 4.49-2.14.47.59.94 1.17 1.37 1.77.28.41.58.78.84 1.21l.79 1.24c.36.62.73 1.24 1.08 1.85l.77-.91c-.3-.5-.61-1-.94-1.53l-.82-1.23c-.26-.41-.59-.82-.89-1.23-.72-1-1.49-1.88-2.29-2.79 1.482-.821 2.831-1.863 4-3.09.487-.594.839-1.288 1.031-2.032.191-.745.218-1.522.079-2.278-.089-.339-.247-.656-.466-.931-.218-.274-.491-.5-.802-.663-.31-.163-.651-.259-1.001-.282-.35-.024-.701.026-1.031.146-2 .84-2.74 4.61-2.56 6.5 0 .12.29 1.47.46 2.21-.49-.55-1-1.1-1.47-1.63-1.47-1.55-3-3.08-4.52-4.61l-1.38-1.4c.25-.15 3.25-1.88 4.18-3.19.488-.592.839-1.284 1.031-2.027.192-.743.219-1.519.079-2.273-.094-.341-.26-.659-.485-.932-.225-.273-.505-.496-.821-.655-.317-.158-.663-.248-1.017-.264-.354-.016-.707.042-1.037.171-2 .84-2.74 4.61-2.56 6.51 0 .14.41 2.08.54 2.57-1-1-2-2.08-3-3.14-1.285-1.433-2.474-2.95-3.56-4.54.12-.07 3.26-1.87 4.21-3.2.487-.593.839-1.285 1.03-2.027.192-.743.219-1.519.08-2.273-.094-.341-.26-.659-.485-.932-.225-.273-.505-.496-.821-.655-.317-.158-.663-.248-1.017-.264-.354-.016-.707.042-1.037.171-2 .84-2.74 4.61-2.56 6.51 0 .15.45 2.23.55 2.6l-.2-.27c-1.044-1.625-1.944-3.338-2.69-5.12-.42-1-.77-1.94-1.09-2.88 1.604-.656 3.098-1.553 4.43-2.66.95-1.07 1.86-2.68 1.57-4.16-.061-.346-.194-.676-.39-.969-.196-.292-.451-.54-.748-.729-.298-.188-.631-.312-.979-.364-.348-.052-.703-.031-1.043.062-2 .62-3.22 4.29-3.26 6.19 0 .1.1 1.16.18 1.93-.13-.43-.28-.87-.41-1.28-.47-1.54-.8-3-1.08-4.27-.16-.73-.29-1.39-.4-2 1.115-1.316 2.019-2.797 2.68-4.39.243-.727.323-1.5.235-2.262-.088-.762-.342-1.495-.745-2.148-.211-.285-.479-.522-.788-.697-.309-.174-.651-.281-1.004-.314-.353-.033-.709.009-1.044.123-.336.114-.644.297-.904.538-1.53 1.49-.9 5.29 0 7 .08.15 1.49 2.32 1.51 2.29.1.6.21 1.24.34 1.94.26 1.29.56 2.74 1 4.3.446 1.698.993 3.368 1.64 5 .716 1.823 1.589 3.579 2.61 5.25.004.017.004.034 0 .05-.47-.4-1.84-1.5-1.95-1.57-1.61-1-5.33-2-7-.65-.263.236-.473.526-.618.849-.144.323-.218.672-.218 1.026s.074.704.218 1.027c.145.323.355.612.618.848 1.08 1.06 2.93 1.17 4.34 1 1.59-.24 4.5-2.15 4.73-2.3 1.091 1.668 2.286 3.265 3.58 4.78.75.88 1.53 1.75 2.33 2.61l-.86-.68c-1.61-1-5.33-2-7-.65-.265.237-.477.526-.622.85-.145.324-.22.675-.22 1.03s.075.706.22 1.03c.145.324.357.614.622.85 1.07 1.05 2.93 1.17 4.33.95 1.674-.542 3.253-1.342 4.68-2.37Zm15.45-28.59c1.28 1.08 4.89 2.06 4.89 2.06s-.07-2.58-.1-2.74c-.3-1.88-2-5.34-4.09-5.67-.352-.045-.709-.015-1.049.087-.339.103-.653.276-.921.508-.268.232-.484.518-.634.84-.15.321-.231.67-.236 1.025-.08 1.5 1.05 2.97 2.14 3.89Z" fill="#263238"/><path d="M194.51 374.08s-1.49-2.12-1.6-2.24c-1.28-1.4-4.6-3.36-6.54-2.47-.318.158-.598.38-.824.654-.226.273-.391.591-.485.933-.095.341-.116.699-.063 1.049.054.351.18.686.372.984.76 1.3 2.51 1.9 3.93 2.07 1.7.19 5.21-.98 5.21-.98Zm24.49-.58c1.46.67 4.94.7 5.22.7-.019 1.989.094 3.976.34 5.95.14 1.15.32 2.31.51 3.47-.17-.52-.32-1-.35-1-.78-1.74-3.32-4.63-5.44-4.39-.351.05-.688.172-.988.361-.301.188-.559.437-.757.731-.198.295-.332.627-.393.976-.061.35-.048.708.038 1.052.32 1.47 1.8 2.59 3.1 3.19 1.641.493 3.347.729 5.06.7.08.44.15.88.23 1.32.38 2.13.77 4.25 1.09 6.33 0 .31.07.62.11.93l.63-1.8c-.34-1.86-.72-3.73-1.09-5.6-.13-.64-.26-1.29-.38-1.93 1.364.082 2.732.052 4.09-.09l1.76-5.09 1.39-1.21c-.183-.09-.379-.154-.58-.19-2.1-.38-4.82 2.33-5.72 4-.07.13-.8 2-1 2.45-.27-1.43-.53-2.85-.73-4.26-.283-1.904-.44-3.825-.47-5.75.14 0 3.75.24 5.28-.34.735-.23 1.412-.617 1.982-1.135.57-.518 1.02-1.155 1.318-1.865.11-.337.148-.693.111-1.045-.037-.353-.147-.693-.325-1-.177-.307-.417-.573-.704-.78-.287-.208-.615-.353-.962-.425-2.1-.39-4.83 2.33-5.73 4-.07.13-.85 2.11-1 2.48v-.34c.03-1.93.224-3.853.58-5.75.19-1 .43-2 .68-3 .67.11 3.73.59 5.16.21 1.43-.38 3-1.2 3.61-2.59.145-.323.221-.673.223-1.027.002-.354-.071-.704-.213-1.029-.142-.324-.351-.615-.613-.853-.262-.239-.571-.42-.907-.531-2-.61-5 1.79-6.13 3.36-.06.08-.56 1-.92 1.7.12-.43.24-.88.36-1.29.47-1.54 1-2.93 1.45-4.16.28-.69.54-1.31.78-1.89.72-.24 3.58-1.2 4.66-2.18 1.08-.98 2.14-2.47 2-4-.019-.354-.113-.701-.275-1.016-.161-.316-.388-.594-.664-.817-.276-.222-.596-.384-.939-.475-.343-.091-.702-.109-1.052-.052-2.1.4-3.66 3.92-3.89 5.81 0 .17-.05 2.76 0 2.75-.25.56-.51 1.15-.78 1.81-.5 1.22-1.05 2.6-1.55 4.14-.552 1.656-1.01 3.342-1.37 5.05-.406 1.915-.644 3.863-.71 5.82v.11c-.17-.6-.71-2.27-.76-2.39-.79-1.74-3.33-4.63-5.45-4.39-.351.049-.687.172-.988.361-.3.188-.557.437-.754.732-.197.294-.33.627-.39.976-.06.35-.046.708.042 1.051.43 1.44 1.91 2.56 3.17 3.16Z" fill="#263238"/><path d="m370.64 286.16-3.99-4.95 3.59-2.83 2.41 3.01-.82 1.91.68 1.52-1.41 1.01" fill="#fff"/><path d="m370.64 286.16-3.99-4.95 3.59-2.83 2.41 3.01-.82 1.91.68 1.52-1.41 1.01" stroke="#263238" stroke-linecap="round" stroke-linejoin="round"/><path d="M403 294.75s-2.73-2.44-3.75-2.28c-1.02.16-14.4 2.4-14.4 2.4l-12.31-10.05-1.88 1.34 11.78 14.78 12.8-.8-2.75 14-11.65 8.86 19 11.35 3.83-12.08 15.13-14.9-5.88-7.37-9.92-5.25Z" fill="#000" stroke="#263238" stroke-linecap="round" stroke-linejoin="round"/><path d="m406.9 291.52-2.15 4.52-.79-.72-1.51 10.99 10.48-6.35-1.05-1.66.24-3.43-5.22-3.35Z" fill="#fff" stroke="#263238" stroke-linecap="round" stroke-linejoin="round"/><path d="m402.45 306.31 6.13-3.72-5.12-3.6-1.01 7.32Z" fill="#fff" stroke="#263238" stroke-linecap="round" stroke-linejoin="round"/><path d="M419 280.75s4.63-5.42 9.34-2 3.41 6.76 6.77 4.93c3.36-1.83 9.67-6.48 13.47-.56 3.8 5.92.87 12.12-1.52 13.54s-1.76-1.29-1.71-2.6c.05-1.31-3.87-3-4.74-.3-.87 2.7-5.44 6.86-11.24 6.47-5.8-.39-6.92-7.52-6.79-11.71-.008-1.258-.344-2.491-.973-3.58s-1.531-1.995-2.617-2.63l.01-1.56Z" fill="#263238" stroke="#263238" stroke-linecap="round" stroke-linejoin="round"/><path d="M407.9 279.63s-2.9 6.46-2.3 10.27c.6 3.81.28 6.74 2.22 7.48 1.94.74 8.37-3.15 9.79-5.72s3.45-6.28 2.89-9.84c-.56-3.56-7.38-8.74-12.6-2.19Z" fill="#fff" stroke="#263238" stroke-linecap="round" stroke-linejoin="round"/><path d="M409 286.41c-.15.5-.47.84-.72.76-.25-.08-.33-.54-.18-1 .15-.46.47-.84.72-.76.25.08.29.5.18 1Zm4.62 1.92c-.15.5-.48.85-.73.77-.25-.08-.33-.54-.18-1 .15-.46.48-.84.73-.77.25.07.33.5.18 1Z" fill="#263238"/><path d="M410.17 287.24s.3.22-.12 1-1.43.5-1.32 1.17c.11.67 1.38 1 1.38 1m-2.27 1.16s1.61 1.52 3.05 1.15m4.25-5.99-2.99-.76m-2.36-1.13-1.43-1.28" stroke="#263238" stroke-linecap="round" stroke-linejoin="round"/><path d="M407.9 279.63s-.43 1-.93 2.37c1.69-.88 4.6-1.87 7.26-.23 2.66 1.64 4 5.41 4.54 7.72 1.13-2.29 2.14-5 1.73-7.67-.56-3.56-7.38-8.74-12.6-2.19Z" fill="#263238" stroke="#263238" stroke-linecap="round" stroke-linejoin="round"/><path d="M418.08 289.39s2.08-1.91 2-.17c-.08 1.74-2.47 2.77-3 2.85-.53.08-.49-.59-.49-.59" fill="#fff"/><path d="M418.08 289.39s2.08-1.91 2-.17c-.08 1.74-2.47 2.77-3 2.85-.53.08-.49-.59-.49-.59" stroke="#263238" stroke-linecap="round" stroke-linejoin="round"/><path d="m418.79 307.38-3.2 22.81c-.07.486-.309.931-.675 1.258-.365.328-.835.516-1.325.532h-.69c-.532.02-1.052-.165-1.452-.516-.4-.352-.65-.844-.698-1.374l-1.25-13.72 9.29-8.99Z" fill="#000" stroke="#263238" stroke-linecap="round" stroke-linejoin="round"/><path d="M413 327.06 402.73 318l-2.3 1.93 9.86 11.41c.216.233.482.414.779.529.296.114.615.159.931.131h.81c.311-.013.614-.095.889-.24s.514-.349.7-.598c.186-.249.314-.537.374-.842.061-.304.053-.619-.023-.92" fill="#000"/><path d="M413 327.06 402.73 318l-2.3 1.93 9.86 11.41c.216.233.482.414.779.529.296.114.615.159.931.131h.81c.311-.013.614-.095.889-.24s.514-.349.7-.598c.186-.249.314-.537.374-.842.061-.304.053-.619-.023-.92v0" stroke="#263238" stroke-linecap="round" stroke-linejoin="round"/><path d="m402.73 317.99-2.41-3.85-5.42-.6.03 3.23 2.6 2.17 1.65.23 1.25.75 2.3-1.93ZM373.71 330s-11.32 14.73-10.7 17.17c.62 2.44 17.16 28.27 17.16 28.27l2.3-1.52-9.09-28.38 18.27-7.27-17.94-8.27Z" fill="#fff" stroke="#263238" stroke-linecap="round" stroke-linejoin="round"/><path d="m382.83 335.46 1.34 5.89 6.05-2.32-7.39-3.57Z" fill="#263238" stroke="#263238" stroke-miterlimit="10"/><path d="m380.17 375.39-3 5s-2.39 3.58-1.69 3.8c1.53.49 5.49-2.11 6.62-2.91 1.13-.8 2.34-1.33 3.09-1.86s2.25-.84.2-2.74c-.69-.63-2.88-2.81-2.88-2.81l-2.34 1.52Z" fill="#fff" stroke="#263238" stroke-linecap="round" stroke-linejoin="round"/><path d="M398.86 325.3c-5.096-2.032-10.308-3.759-15.61-5.17-9.17-2.49-15.95-4.42-15.82-2.13.13 2.29 16.81 39.18 16.81 39.18l2.86-.91-4.36-20.34s7 4.9 12.17 2.47 7.14-9 6.78-11.24" fill="#263238"/><path d="M398.86 325.3c-5.096-2.032-10.308-3.759-15.61-5.17-9.17-2.49-15.95-4.42-15.82-2.13.13 2.29 16.81 39.18 16.81 39.18l2.86-.91-4.36-20.34s7 4.9 12.17 2.47 7.14-9 6.78-11.24" stroke="#263238" stroke-linecap="round" stroke-linejoin="round"/><path d="M381.3 319.6c-8.16-2.21-14-3.73-13.87-1.6.13 2.29 16.81 39.18 16.81 39.18l2.86-.91-4.36-20.34c1.49-3.63-.09-11.26-1.44-16.33Z" fill="#fff" stroke="#263238" stroke-linecap="round" stroke-linejoin="round"/><path d="m382.74 335.93-7.19-10.43" stroke="#263238" stroke-linecap="round" stroke-linejoin="round"/><path d="m384.24 357.18-2.68 5.05s-5.41 5.24-4.21 5.51c1.2.27 11.37-4.1 12.13-5.14.76-1.04-2.38-6.33-2.38-6.33l-2.86.91Z" fill="#fff" stroke="#263238" stroke-linecap="round" stroke-linejoin="round"/><path d="m371.8 283.72 25.22 30.03M294.2 190.72l74.01 88.56m30.97 39.88v146M158.33 278.59s5.32 31.13-.46 41c-5.78 9.87-20.28 2.77-20.28 2.77v141.8" stroke="#263238" stroke-miterlimit="10"/><path d="M126.39 290.24s4.71-.54 5.07.55c.198.893.198 1.817 0 2.71 0 0 2.71 2.9 2.71 4.89 0 1.99-2.89 2.9-2.89 2.9l-.54 4.7-7.24.36-.91-5.61s-2.72-10.68 3.8-10.5Z" fill="#fff" stroke="#263238" stroke-linecap="round" stroke-linejoin="round"/><path d="m127.84 298-2-2.9c.671-1.091 1.044-2.339 1.08-3.62 0-2-.18-5.61-4.34-5.61s-6.88 3.26-7.78 10.32c-.9 7.06 3.25 10.5 9.23 9.23 5.98-1.27 3.81-7.42 3.81-7.42Z" fill="#263238" stroke="#263238" stroke-linecap="round" stroke-linejoin="round"/><path d="M127.66 296.76s-3.08-.36-2.9 2c.048.507.248.988.574 1.379.327.391.764.674 1.255.812.49.138 1.011.123 1.493-.041.483-.165.904-.471 1.208-.88" fill="#fff"/><path d="M127.66 296.76s-3.08-.36-2.9 2c.048.507.248.988.574 1.379.327.391.764.674 1.255.812.49.138 1.011.123 1.493-.041.483-.165.904-.471 1.208-.88" stroke="#263238" stroke-linecap="round" stroke-linejoin="round"/><path d="M123.37 308.12 116.7 310s-.52 1.3-1.3 3c-1.05 2.31-3.94 7-3.94 7l-13.3499 3.81-4.29 13.83-.95 5.72 7.6199-3.82.48-13.34 12-1.85 5.15-13 5.25-3.23Z" fill="#263238" stroke="#263238" stroke-linecap="round" stroke-linejoin="round"/><path d="M134 306.17s-5.25-2.35-9.23-1.81c-3.98.54-3.62 2.54-3.62 2.54l.18 2.71s6.67-1.99 12.67-3.44Zm-17.93 13.22 3.75 17.34c.029.208.107.406.227.578.121.172.28.313.466.411.186.097.392.149.602.151.21.002.418-.046.605-.14l8.47-4.23-14.12-14.11Z" fill="#000" stroke="#263238" stroke-linecap="round" stroke-linejoin="round"/><path d="m125.49 328.62-1.99 3.98" stroke="#263238" stroke-linecap="round" stroke-linejoin="round"/><path d="m143.04 346.18 10.93 18.08-1.45 24.45 5.25-.18 5.25-29.16-7.67-20.43-12.31 7.24Z" fill="#263238" stroke="#263238" stroke-linecap="round" stroke-linejoin="round"/><path d="M121.32 309.61s-5.25 9.05-5.25 9.78c0 .73 20.46 20.45 20.46 20.45l15.57-10.32-9.78-17 14.08-13.82 1.08-18.65-2.53-.18-4.53 13.58-15 11.82-14.1 4.34Z" fill="#000" stroke="#263238" stroke-linecap="round" stroke-linejoin="round"/><path d="m154.95 279.87.18-4.16 4.52-3.44.37.9v2.72l.18 2.17-2.72 1.99-2.53-.18Z" fill="#fff" stroke="#263238" stroke-linecap="round" stroke-linejoin="round"/><path d="M136.53 339.84s3.44 5.79 6 7.6c2.56 1.81 10.47-3.8 12.47-5.44 2-1.64 9.6-11.4 9.6-11.4l7.06 30.08 4.35-1.81s-2.55-40-3.81-41.12c-1.26-1.12-20.82 11.58-20.82 11.58l-14.85 10.51Z" fill="#263238" stroke="#263238" stroke-linecap="round" stroke-linejoin="round"/><path d="M176 358.88h6.15c1.09 0 3.8-1.63 4-.36.2 1.27-5.25 4.7-7.43 5.79-2.093.813-4.28 1.36-6.51 1.63l-.55-5.25 4.34-1.81Zm-18.23 29.65 3.08 5.61s3.8 1.63 3.8 2.36-6.15.36-6.7.36c-.55 0-6.69-6-6.69-6l1.26-2.18 5.25-.15Z" fill="#fff" stroke="#263238" stroke-linecap="round" stroke-linejoin="round"/><path d="m159.65 272.27 59.09-81.02" stroke="#263238" stroke-miterlimit="10"/><path d="M12 465.2h474" stroke="#263238" stroke-linecap="round" stroke-linejoin="round"/></svg>