<svg width="477" height="429" fill="none" xmlns="http://www.w3.org/2000/svg"><path d="M213.913 206.471c-9.835.655-19.397-3.551-22.948-5.736h-1.64l-1.639 9.013v9.832l4.098 10.651s3.278 4.097 4.098 4.097c.819 0-11.475 25.399-11.475 25.399v45.882l-2.458 22.122 3.278 9.013c-3.005-.82-4.425-.984 13.933 4.916 18.359 5.899 26.774-12.29 28.686-22.122.82-10.925 2.459-32.118 2.459-29.496 0 2.622 11.474 7.647 17.211 9.832 13.66 4.37 42.291 13.109 47.536 13.109 5.246 0 11.474-2.185 13.933-3.277 8.196-7.374 3.279-27.857 2.459-30.315-.656-1.967-4.644-5.189-6.557-6.555-2.645-1.516-4.618-2.406-9.835-4.097l-22.129-5.735-1.639 4.097c-.084-.752-.596-1.294-2.459-2.458l-3.278-5.735-3.278 4.096-3.279 1.639v-2.458l1.64-4.916-1.64-2.458c-.546-.273-1.803-.983-2.458-1.639-.656-.655-1.366-1.912-1.64-2.458l-.819-7.374c1.99-3.784 6.131-13.24 9.015-19.664 2.904-6.468 3.279-19.39 2.459-25.399l-6.557-9.012c-27.046 18.844-32.783 16.386-45.077 17.206Z" fill="#263238"/><path d="M194.587 235.836c-.15-.002-.298-.038-.432-.106s-.25-.167-.339-.288c-2.573-3.605-7.278-14.125-7.769-18.975-.492-4.851 2.278-16.387 2.393-16.911.062-.24.216-.445.427-.574.212-.128.465-.169.706-.113.241.055.451.203.586.41.134.208.182.46.133.703 0 .131-2.803 11.765-2.36 16.386.442 4.621 5.032 14.748 7.425 18.025.073.102.126.216.155.338.029.121.034.247.014.37-.02.124-.064.242-.129.348-.066.106-.152.199-.253.272-.17.092-.364.132-.557.115Z" fill="#263238"/><path d="m208.077 342.954-6.245-.442c6.77-1.819 10.966-12.716 13.589-20.205.492-1.409.967-2.753 1.442-3.982 2.328-6.079 2.541-25.006 2.41-32.282-.967-3.424-3.574-11.765-5.409-14.469-.383-.547-.65-1.166-.785-1.82-.135-.653-.136-1.328-.002-1.982.573-2.752 3.393-4.539 5.868-6.095.837-.495 1.642-1.043 2.41-1.639.557-3.507 4.638-4.605 7.671-5.408.951-.262 1.852-.508 2.557-.77 2.934-2.687 15.785-27.234 18.605-40.425 2.393-11.127-1.639-15.06-1.639-15.092l3.704-4.326c.689.573 6.672 6.063 3.557 20.614-2.426 11.307-16.474 42.277-21.817 44.424-1.126.421-2.276.776-3.443 1.065-1.224.271-2.417.672-3.557 1.196-.36 2.294-2.59 3.704-4.917 5.195-1.151.636-2.238 1.383-3.246 2.228 2.689 4.359 5.688 14.879 6.032 16.108l.099.705c0 2.687.426 26.448-2.787 34.805-.442 1.18-.901 2.458-1.377 3.802-2.934 8.488-3.032 16.206-12.72 18.795Zm105.645-56.829c-4.475-2.195-16.13-4.489-23.113-5.964-2.983-.623-5.556-1.18-7.491-1.639-3.21-.762-6.586-.356-9.523 1.147-.872.382-1.771.699-2.688.951-3.541.884-5.951-2.589-7.688-5.129-.197-.279-.41-.607-.639-.902-2.213 1.295-5.262 3.065-8.196 2.229-.681-.205-1.311-.548-1.853-1.007-.541-.46-.982-1.026-1.295-1.664-.747-1.611-1.297-3.305-1.639-5.047-.541-2.278-.918-3.72-2.049-4.621-3.868-3.081-3.852-4.539-3.934-4.916l2.902-4.736c1.312 1.936 2.853 3.708 4.589 5.277 2.231 2.023 3.661 4.779 4.033 7.767.247 1.206.609 2.386 1.082 3.523 1.209-.406 2.364-.956 3.442-1.639.803-.53 1.674-.948 2.59-1.245 2.573-.639 4.147 1.639 5.655 3.818.618.957 1.32 1.856 2.098 2.687.41-.131.902-.327 1.442-.557 4.075-1.981 8.716-2.468 13.114-1.376 1.819.459 4.344.983 7.261 1.638 6.95 1.323 13.725 3.434 20.195 6.293l1.705 5.112Z" fill="#fff"/><path d="M346.014 316.965c-.185 0-.367-.051-.525-.147-10.589-6.899-34.423-8.849-34.685-8.865-.133.003-.266-.021-.389-.072-.123-.051-.234-.127-.326-.223-.092-.097-.163-.212-.207-.337-.045-.126-.062-.26-.052-.392.01-.133.049-.263.112-.38.064-.117.151-.219.257-.3.106-.082.228-.14.357-.171.13-.031.265-.034.396-.01 1 0 24.587 1.999 35.57 9.16.106.067.197.154.269.256.071.103.121.219.147.341.026.122.028.248.004.371s-.072.239-.142.343c-.086.13-.202.237-.34.312-.137.074-.29.113-.446.114Zm-8.524-18.648c-.74-.016-1.475-.138-2.18-.36-3.394-.967-21.31-10.586-22.031-10.996-.221-.118-.386-.319-.46-.558-.073-.239-.049-.498.067-.72.121-.222.325-.387.567-.461.242-.073.503-.049.728.068 6.376 3.441 19.096 10.11 21.637 10.848.68.277 1.426.351 2.147.213.059-.22.195-.412.383-.54.189-.129.417-.185.643-.159.227.026.436.132.591.299.155.168.244.385.252.613-.009.251-.076.498-.195.719-.12.222-.289.413-.494.559-.485.336-1.066.503-1.655.475Z" fill="#263238"/><path d="M347.505 285.65s-9.015 8.784-9.015 9.734c0 .95 6.409 6.637 6.884 8.537.476 1.901 4.754-.475 5.934 0 1.18.476.951 3.802-2.377 4.507-3.327.704-3.081 9.258-1.901 10.438 1.18 1.18 11.474 6.407 17.096 12.339 5.623 5.932 8.786 11.864 11.147 12.814 2.36.951 4.753 1.639 5.458-3.08.705-4.72 1.426-14.945-4.737-22.303-6.163-7.357-8.786-8.078-10.687-8.078-1.902 0-4.918.246-3.787-2.36 1.131-2.605 3.787-4.916 2.836-7.128-.951-2.212-8.376-16.124-16.851-15.42Z" fill="#263238"/><path d="M380.42 347.493c-.692.035-1.381-.121-1.991-.45-.61-.329-1.117-.82-1.468-1.418-.055-.111-.089-.231-.098-.355-.008-.123.007-.248.047-.365.04-.117.102-.226.184-.319s.182-.169.294-.223c.222-.109.478-.128.714-.051.236.076.432.242.548.461.082.131.721 1.196 2.721.705 2.737-.689 4.917-1.475 5.475-4.72.768-7.081-.681-14.227-4.147-20.45-2.106-3.176-4.632-6.053-7.508-8.554-2.573-2.409-4.59-4.31-4.737-6.342 0-.737 0-1.474-.082-2.244.139-2.941-.423-5.873-1.639-8.554-2.147-4.277-7.245-9.832-12.081-11.881-4.442-1.818-6.458-1.015-8.196 3.278-.098.232-.284.416-.517.512-.234.095-.496.094-.729-.004-.232-.098-.416-.284-.512-.518-.095-.233-.093-.495.004-.728 2.213-5.276 5.328-6.554 10.737-4.309s10.786 8.193 13.113 12.798c1.371 2.917 2.023 6.119 1.902 9.34 0 .743.033 1.464.098 2.163.082 1.278 1.967 3.048 4.131 5.08 3.008 2.617 5.644 5.633 7.835 8.963 3.721 6.616 5.259 14.237 4.393 21.778-.82 4.342-3.852 5.457-6.884 6.211-.524.142-1.065.208-1.607.196ZM211.454 198.834c-4.671 0-13.113-.606-17.522-4.703-1.764-1.627-3.307-3.478-4.59-5.506-.85-1.401-1.88-2.685-3.065-3.818-1.055-.909-1.816-2.111-2.186-3.452-.371-1.342-.335-2.764.104-4.085.094-.232.277-.417.507-.515.23-.098.489-.102.722-.01.118.044.225.11.317.196.091.086.164.189.214.304.051.115.078.238.079.364.002.125-.022.249-.069.365-.293.968-.294 2-.003 2.968.292.968.863 1.828 1.642 2.473 1.266 1.242 2.368 2.64 3.279 4.162 1.196 1.903 2.64 3.639 4.294 5.162 4.557 4.227 14.753 4.276 17.671 4.178.252 0 .494.1.672.278.178.179.278.42.278.673 0 .252-.1.493-.278.672-.178.178-.42.278-.672.278l-1.394.016Z" fill="#263238"/><path d="M218.437 207.29c-7.897.087-15.752-1.142-23.244-3.638-10.048-3.933-9.835-8.193-9.425-9.357.125-.428.272-.849.442-1.261.394-.984.541-1.344 0-2.229-1.344-2.032-.245-6.44-.114-6.932.062-.242.217-.451.432-.58.215-.128.472-.167.715-.108.244.066.453.224.582.442.128.217.167.476.107.722-.443 1.638-.771 4.457-.132 5.407.421.57.668 1.248.712 1.955.043.706-.118 1.41-.466 2.027-.155.344-.281.7-.377 1.065-.442 1.639 1.459 4.408 8.196 7.079 8.196 3.278 29.112 5.998 41.488 0 20.08-9.668 21.506-13.24 21.457-14.109-.05-.868-.132-1.638-.23-2.621-.498-2.622-.398-5.322.295-7.899 1.115-2.884 2.229-5.751 1.082-9.34-.761-3.283-1.152-6.642-1.164-10.012-.115-2.229-.213-4.343-.442-5.949-.28-2.893-1.192-5.69-2.672-8.193-.097-.078-.177-.174-.237-.283-.059-.109-.095-.229-.108-.353-.012-.124.001-.248.037-.367.037-.119.097-.229.177-.324.162-.193.394-.315.645-.339.251-.025.502.05.699.208 1.377 1.163 2.786 5.719 3.278 9.455.262 1.638.361 3.851.475 6.128.004 3.21.367 6.409 1.082 9.537 1.344 4.228 0 7.555-1.082 10.488-.599 2.33-.677 4.764-.229 7.128.098.95.197 1.868.246 2.72.098 2.13-2.115 6.096-22.539 15.911-5.475 2.622-12.638 3.622-19.686 3.622Z" fill="#263238"/><path d="M303.854 208.929c-4.258-.111-8.493-.66-12.638-1.639-3.819-.885-4.573-5.883-5.131-9.537-.097-1.27-.401-2.515-.901-3.687-2.262-1.507-2.623-2.835-2.623-6.309-.189-1.789-.975-3.462-2.229-4.752-.8-1.025-1.502-2.122-2.098-3.277-1.328-2.655-5.934-15.633-4.819-19.369.786-2.606-2.394-8.505-7.639-10.537-5.704-2.228-17.097-9.274-17.572-9.569-.107-.066-.2-.152-.273-.253-.074-.101-.126-.216-.155-.338-.029-.122-.034-.248-.014-.372.02-.123.065-.242.131-.348.135-.213.347-.364.592-.422.245-.058.503-.018.719.11.115 0 11.72 7.26 17.26 9.423 5.983 2.327 9.835 9.127 8.77 12.847-.803 2.72 3.032 14.649 4.688 18.025.582 1.047 1.257 2.04 2.016 2.966 1.508 1.617 2.426 3.696 2.607 5.899 0 3.277.311 3.753 1.786 4.736 1.049.704 1.328 2.491 1.639 4.916.509 3.277 1.131 7.374 3.672 7.964 8.786 2.015 18.72 2.54 19.769-1.033.885-2.999.508-7.751.164-11.946-.317-2.604-.383-5.232-.197-7.849.41-2.9-4.918-23.072-8.196-35.116-1.557-5.867-2.787-10.488-3.18-12.323-1.147-5.407-34.292-29.397-42.783-32.773-7.31-2.966-18.227-6.8659-28.718-6.5545-.139.0124-.279-.0095-.408-.0637-.128-.0543-.241-.1394-.329-.2477-1.567-1.8356-3.313-3.5099-5.213-4.9979l-.574.6227c-2.262 2.4416-7.556 8.1931-15.146 7.2101-4.172-.4462-8.258-1.4949-12.13-3.1135.028.8714-.277 1.7206-.852 2.3761l-.148.1147c-.163.1147-4.048 2.5397-14.752 1.6387-10.327-.934-15.998-1.4421-25.899-11.3395-2.77-2.7694-5.983-6.145-9.409-9.7337-7.901-8.4718-16.916-17.9269-20.359-19.6474-3.934-1.9664-11.015-2.753-13.572-2.9824-.279 2.9987-1.737 11.7492-9.146 14.7479 0 1.1798.524 4.6538 5.065 10.6021l2.508 3.2773c7.654 10.1269 25.603 33.8387 31.291 36.2797 1.836.787 4.918 1.885 8.426 3.146 9.589 3.442 21.538 7.718 25.096 11.291 3.016 2.998 5.605 14.453 7.9 24.58 1.344 5.899 2.738 12.011 3.557 12.994 1.683 1.595 3.637 2.877 5.77 3.785 1.428.539 2.72 1.384 3.787 2.475.136.211.183.467.131.713-.052.245-.2.46-.41.598-.21.133-.464.181-.708.132-.245-.049-.461-.19-.603-.395-.931-.743-1.956-1.36-3.049-1.835-2.371-1.013-4.534-2.457-6.377-4.26-1.065-1.262-2.13-5.834-3.95-13.781-1.967-8.947-4.77-21.074-7.393-23.712-3.278-3.277-15.473-7.652-24.391-10.848-3.557-1.278-6.556-2.376-8.54-3.277-6.147-2.638-23.653-25.7596-32.046-36.8697l-2.507-3.2773c-6.2621-8.1933-5.4917-12.2408-5.377-12.6668.0329-.1555.1063-.2996.2128-.4176.1065-.118.2424-.2057.3937-.2543 8.1955-2.7529 8.5235-14.0433 8.5405-14.158.004-.1262.033-.2504.086-.3652.053-.1148.128-.218.221-.3034.093-.0855.202-.1515.321-.1942.119-.0428.245-.0614.372-.0548.409 0 10.064.6718 15.244 3.2773 3.721 1.9336 12.474 11.0937 20.932 19.9588 3.41 3.5723 6.557 6.9479 9.376 9.7009 9.409 9.4058 14.523 9.8319 24.719 10.7987 8.983.8196 12.753-.8849 13.392-1.229.195-.4486.28-.9376.246-1.4256 0-.5408 0-1.7862 1.164-1.7862.408.0516.803.1794 1.164.3769 3.792 1.6335 7.81 2.6833 11.916 3.1135 6.557.8357 11.475-4.3916 13.524-6.5546.364-.46.795-.8631 1.278-1.1963.557-.2621 1.639-.7701 7.016 5.2765 10.687-.1966 21.686 3.7198 29.062 6.7184 8.54 3.49 42.504 27.53 43.914 34.215.377 1.786 1.639 6.391 3.163 12.225 4.77 17.828 8.672 32.773 8.196 35.87-.161 2.481-.089 4.971.213 7.439.345 4.359.738 9.291-.245 12.618-.853 3.015-4.869 3.933-9.311 3.933Z" fill="#263238"/><path d="M206.684 108.266c-2.926.015-5.834-.456-8.606-1.393-9.474-3.277-9.376-6.473-9.261-7.0789.039-.2499.176-.474.38-.623.205-.1491.46-.2108.71-.1717.25.0391.474.1759.623.3802.149.2044.211.4596.172.7094 0 .164.377 2.36 7.999 4.916 5.164 1.654 10.71 1.691 15.895.107 5.185-1.584 9.763-4.715 13.119-8.9721.076-.098.172-.1797.28-.2403.109-.0606.229-.0989.352-.1126.124-.0138.249-.0027.369.0326.119.0353.23.0941.326.1728.196.1603.321.3907.348.6418.028.2512-.044.5031-.2.7019-2.689 3.3949-6.109 6.1399-10.005 8.0329-3.897 1.892-8.169 2.882-12.501 2.897Z" fill="#263238"/><path d="M123.709 33.2155 6.31104 12.6504 114.841 16.4521l8.868 16.7634Z" fill="#E8E8E8"/><path d="M104.383 16.0751v-5.3256L6.31104 12.6504l98.07196 3.4247Z" fill="#D9D9D9"/><path d="M110.743 10.6349 90.4827 0 6.31104 12.6504 110.743 10.6349Z" fill="#E8E8E8"/><path d="M99.6622 72.5924c-.1374.0051-.2741-.0218-.3993-.0787-.1252-.0569-.2354-.1422-.3219-.249-.1476-.1639-14.5559-16.8946-18.8505-20.2702-.8852-.6882-1.8031-1.442-2.7539-2.2122-3.8249-3.4345-8.0984-6.3341-12.7036-8.6193-5.901-2.4908-13.4412-14.6168-13.7526-15.1412-.0646-.1076-.1074-.2269-.1258-.351-.0185-.1241-.0124-.2506.0181-.3723.0304-.1218.0846-.2363.1593-.3371.0747-.1009.1686-.186.2762-.2505.1076-.0646.2269-.1073.3511-.1258.1241-.0185.2507-.0123.3725.0181.1217.0305.2363.0846.3372.1593.1008.0747.1859.1685.2505.2761 0 .1147 7.5402 12.1097 12.9003 14.3874 4.6881 1.9828 9.1794 5.6534 13.1134 8.8815l2.7211 2.1958c4.4585 3.4903 18.5227 19.8277 19.1287 20.5324.082.0932.144.2016.184.3191.039.1175.054.2416.045.3651-.009.1235-.043.244-.099.3544-.056.1104-.133.2085-.228.2887-.172.1515-.3938.2333-.6228.2294Z" fill="#263238"/><path d="M70.8946 23.826 8.83545 12.6504 73.1567 31.9865l-2.2621-8.1605Zm11.7202 10.9954 23.0632 6.9315 1.639-11.3887-27.4068-4.916s.6065 3.5559.9507 4.916c.4786 1.5253 1.0647 3.0147 1.7539 4.4572Z" fill="#9E9E9E"/><path d="M198.341 98.4667h-.263c-.12-.034-.233-.0915-.332-.1693-.098-.0778-.18-.1744-.241-.2841-.061-.1097-.1-.2303-.114-.355-.014-.1247-.003-.2509.032-.3714 0 0 1.786-6.3089 0-10.6513-.063-.1178-.101-.2474-.11-.3806-.01-.1332.009-.2668.055-.3923.046-.1254.117-.2399.21-.3358.093-.096.205-.1713.329-.2211.124-.0497.257-.0729.39-.0678.134.005.264.0381.384.0971.12.0589.226.1425.311.2452.086.1026.149.2221.185.3507 2.016 4.9159.114 11.6017 0 11.8802-.059.1801-.169.3386-.318.4554-.149.1168-.33.1864-.518.2001Zm21.178-3.3099c-.151.0001-.299-.0356-.433-.1039-.134-.0684-.25-.1675-.338-.2893-2.59-3.5723-6.917-9.832-6.753-11.5853.029-.2478.152-.4748.345-.6336.192-.1588.439-.2371.687-.2185.25.0288.478.1518.64.3437.161.1919.243.4382.229.6886 0 .9996 3.279 6.1286 6.393 10.2908.073.1011.126.2157.155.3371.029.1215.033.2474.014.3707-.02.1232-.064.2414-.13.3477-.065.1063-.151.1986-.252.2718-.163.1153-.358.1781-.557.1802Zm106.07 147.6102c-.226-.004-.451-.032-.672-.082-2.623-.573-12.884-11.077-14.753-13.634-1.444-1.825-3.289-3.294-5.392-4.293-1.045 1.449-1.7 3.142-1.902 4.916-.197 2.425-.574 4.801-1.983 5.768-.338.223-.722.363-1.123.412-.401.048-.808.003-1.189-.133-2.917-.885-2.475-3.589-1.852-7.325l.213-1.327c.65-2.925 1.756-5.728 3.279-8.308.262-.492.541-1.033.688-1.36-.754-1.262-3.836-6.342-5.95-9.832-.129-.216-.169-.474-.11-.719.058-.245.209-.457.421-.592.107-.066.225-.11.349-.131.124-.02.25-.015.372.014.122.029.237.082.338.155.101.074.187.166.253.273 1 1.639 5.95 9.717 6.179 10.193.23.475 0 1.13-.868 2.818-1.418 2.403-2.452 5.013-3.066 7.734l-.229 1.328c-.639 3.9-.672 4.834.524 5.194.459.148.623 0 .705 0 .853-.573 1.082-3.408 1.164-4.342.174-2.456 1.2-4.774 2.901-6.555.171-.117.365-.195.569-.229.204-.034.413-.023.612.033 2.573 1.123 4.826 2.869 6.556 5.079 2.525 3.278 12.097 12.585 13.687 12.929.181 0 .492.082.574-.082.082-.163 0-1.474-1.41-2.802-1.885-1.638-8.097-9.832-7.556-11.716.057-.205.17-.391.326-.535.156-.145.35-.243.559-.284.885-.181 1.77.458 6.835 4.916 2.607 2.31 6.557 5.784 7.541 5.981.379.075.762.129 1.147.164-.206-.365-.436-.715-.688-1.049-.787-1.098-2.344-2.802-3.853-4.457-1.842-1.858-3.515-3.876-4.999-6.031-.116-.221-.14-.48-.066-.719.073-.24.239-.44.459-.559.223-.118.483-.145.724-.074.242.07.447.232.571.451 1.412 2.009 2.985 3.9 4.705 5.654 1.639 1.769 3.147 3.441 3.999 4.621.853 1.179 1.64 2.408.968 3.277-.673.868-2 .786-3.279.508-1.278-.279-4.114-2.606-8.425-6.407-1.148-1.016-2.525-2.245-3.639-3.163 1.696 2.865 3.709 5.531 5.999 7.948 1.82 1.638 2.557 3.67 1.836 5.063-.171.399-.457.737-.823.971-.365.233-.792.352-1.226.34Z" fill="#263238"/><path d="M335.195 234.836c-1.343-.073-2.653-.442-3.836-1.082-.185-.139-.314-.34-.361-.567-.047-.227-.01-.463.105-.664.115-.202.299-.354.518-.429.22-.075.459-.067.673.021.994.574 2.131.852 3.278.803l.082-.098s0-.557-1.82-2.212c-2.947-3.092-5.685-6.376-8.195-9.832-.135-.189-.208-.415-.208-.647 0-.232.073-.459.208-.648 1.131-1.376 10.802 3.147 10.9 3.278.065.013.132.013.197 0 0 0 0-.77-1.213-1.786-1.508-1.229-9.95-4.326-22.604-8.292l-.23-.082c-2.688-.836-3.819-4.654-3.934-5.08-.037-.23.013-.466.138-.663.126-.196.32-.339.545-.402.225-.063.465-.041.675.062.209.103.374.279.462.495.262.885 1.229 3.278 2.671 3.786h.23c9.376 2.949 21.03 6.833 23.243 8.635 2.213 1.803 2.164 3.409 1.64 4.326-.278.408-.699.695-1.179.804-.481.11-.985.033-1.411-.214-.984-.491-4.623-1.933-7.049-2.769 2.02 2.678 4.21 5.223 6.557 7.62 1.721 1.638 2.442 2.736 2.409 3.719-.022.301-.109.594-.257.857-.147.263-.35.491-.595.667-.479.33-1.063.47-1.639.394ZM184.801 16.0915s-11.736 3.0151-13.31 9.4386c-1.574 6.4236 0 13.1093 5.065 12.4374 5.065-.6718 11.704-5.0634 16.13-4.7521 4.425.3114 3.491 1.9828 1.901 4.7849-1.59 2.8021 1.262 7.5542 9.179 5.342 7.918-2.2122 8.196-6.3252 13.917-4.7521 5.721 1.5731.508 14.5513 1.836 16.3866 1.328 1.8353 1.639 4.4244 4.622 0 2.984-4.4244 7.475-10.4383 12.212-8.8488 4.737 1.5895-4.426 10.7496-9.163 12.6505l-4.753 1.9008s-1.902 13.2731-4.754 15.174c0 0 18.998-2.5236 26.227-9.1765 7.229-6.653.951-6.5546 2.213-10.1105 1.262-3.5559 8.54-3.7362 8.54-8.0458 0-4.3097-.951-3.6706-7.59-6.8332-6.638-3.1626-4.753-4.7357-3.802-6.3252.95-1.5895 1.901-4.4244-3.476-6.0139-5.376-1.5895-18.03-5.3748-15.703-8.8487 2.328-3.474 3.541-10.4383-4.622-9.832-8.163.6063-15.966 5.9156-20.605 5.3421-4.639-.5736-8.917-1.8026-14.064.0819Z" fill="#263238"/><path d="M200.291 87.619h-.229l-2.131-.4752c-5.524-1.2126-17.015-3.7198-23.145-8.0622-7.491-5.3092-6.131-18.5168-4.787-22.7281 1.345-4.2114 4.377-18.4513 4.41-18.6643.025-.1251.076-.2437.149-.3481.073-.1044.168-.1923.277-.2582.105-.0703.223-.117.348-.1368.124-.0198.252-.0123.373.0221.191.0175.383.0175.574 0 .098-.0499.203-.0831.311-.0983 2.49-.4809 4.912-1.2622 7.213-2.3269 3.278-1.3437 6.458-2.6219 9.097-2.4252 1.459.1147 3.278.3768 3.869 1.6386.59 1.2618-.148 2.7366-1.197 4.5882-.236.4556-.333.9707-.277 1.4809.055.5101.26.9926.588 1.3868 1.312 1.6386 4.23 2.1139 7.77 1.1143 2.402-.6696 4.674-1.7388 6.721-3.1626 2.262-1.4584 4.032-2.6055 7.72-1.6387 4.557 1.2782 3.508 7.7836 2.754 12.5521-.331 1.4057-.464 2.8509-.393 4.2933.246.3441.459.721.672 1.0815.166.3548.387.6811.655.9668.641-.6079 1.193-1.303 1.64-2.0647 2.671-3.8836 7.638-11.1101 13.31-9.2092.555.1431 1.048.4642 1.403.9141.355.4498.553 1.0036.564 1.5766.114 3.7525-6.934 10.2744-11.098 11.9294l-4.294 1.7206c-.574 2.2941-3.033 11.8967-4.721 14.9446l-.328.6226c-1.049 2.0648-3.278 6.3908-7.491 8.6194-.222.116-.481.1398-.72.0662-.239-.0737-.44-.2388-.558-.4595-.117-.2243-.141-.4855-.068-.7275.074-.242.239-.4456.461-.567 3.705-1.95 5.721-5.8992 6.688-7.8l.36-.6719c1.738-3.179 4.623-14.7479 4.656-14.9445.033-.1459.101-.2816.198-.3957.097-.1141.22-.2032.359-.2598l4.754-1.9008c3.655-1.4584 9.982-7.5542 9.835-10.1269 0-.2458 0-.5408-.672-.7538-3.787-1.2618-7.59 3.2773-11.13 8.5046-1.459 2.1139-2.476 2.9004-3.459 2.8677-.984-.0328-1.639-1.0324-2.147-1.9173-.181-.3113-.361-.639-.574-.9504-.656-.9176-.426-2.5727 0-5.6697.656-4.0475 1.541-9.5862-1.377-10.4055-2.918-.8193-4.032 0-6.18 1.3437-2.126 1.56-4.497 2.7562-7.015 3.5395-6.213 1.737-8.917-.6555-9.835-1.7697-.558-.6804-.9-1.5107-.985-2.3859-.084-.8751.093-1.7557.509-2.5301.574-1.0324 1.361-2.4252 1.164-2.7857 0 0-.295-.4425-2.311-.5899-2.016-.1475-5.278 1.0815-8.196 2.2941-2.406 1.0817-4.923 1.895-7.507 2.4252-.252.0928-.519.1373-.787.1311-.705 3.2773-3.131 14.3218-4.279 17.8941-1.147 3.5723-2.458 15.9605 4.082 20.6143 5.803 4.113 17.047 6.5546 22.44 7.7508l2.18.4752c.122.0289.237.0815.338.1548.102.0733.188.1659.253.2725.066.1066.109.225.129.3485.02.1235.015.2497-.015.3713-.051.2035-.17.3836-.336.5115-.167.1278-.372.1958-.582.1931Z" fill="#263238"/><path d="M172.392 51.9289c-.155.0028-.308-.0369-.442-.1147-2.166-1.258-4.056-2.9395-5.557-4.9442-1.501-2.0046-2.583-4.2911-3.18-6.723-.492-1.4169-.492-2.9583 0-4.3752.252-.3679.602-.658 1.011-.8375.408-.1795.858-.2413 1.3-.1785 1.639.1475 3.77 1.6387 5.278 5.1618.853 2.2089 1.953 4.3143 3.279 6.276.154.1999.222.453.19.7034-.032.2505-.163.4778-.363.6321-.2.1543-.453.2229-.703.1906-.251-.0323-.478-.1627-.632-.3626-1.459-2.078-2.664-4.3224-3.59-6.6857-1.279-3.0316-2.934-3.9656-3.721-4.0311-.377 0-.508.1311-.541.1802-.541 1.1962 1.377 9.832 8.065 13.3223.185.1003.332.2592.417.4518.085.1926.103.4081.053.6125-.051.2044-.168.3862-.333.5168-.165.1307-.369.2028-.58.205h.049Zm38.701-2.6218h-.492c-.408-.0713-.785-.267-1.078-.5602-.294-.2933-.489-.6699-.561-1.0784-.262-1.1143-2.622-2.7038-4.229-3.474-.113-.0542-.215-.1305-.299-.2243-.084-.0938-.148-.2034-.189-.3223-.041-.1189-.059-.2448-.051-.3703.008-.1256.041-.2484.097-.3612.052-.113.127-.2142.219-.2979.093-.0836.201-.148.318-.1892.118-.0412.243-.0585.367-.0509.124.0077.246.0402.358.0956.787.3768 4.704 2.3924 5.261 4.7684 0 .1475 0 .1475.132.1639.207.0067.412-.0376.598-.1291.186-.0914.346-.2272.467-.3953.105-.1547.161-.3374.161-.5243 0-.187-.056-.3697-.161-.5244-1.246-2.3105-2.098-3.605-3.147-3.8836-.129-.0235-.251-.0732-.359-.146-.109-.0729-.201-.1673-.272-.2774-.07-.1101-.117-.2335-.137-.3625-.021-.129-.014-.2608.018-.3873.033-.1265.092-.2448.172-.3477.081-.1028.182-.188.296-.2501.115-.0621.242-.0999.372-.111.13-.011.261.0048.385.0467 1.902.4916 3.049 2.3924 4.344 4.834.275.4766.401 1.0242.363 1.5728-.038.5487-.239 1.0736-.576 1.5079-.277.3759-.633.6856-1.044.9067-.412.2211-.867.3479-1.333.3714Zm-34.062-6.6036c-.103.0157-.208.0157-.311 0-.491-.1077-.945-.341-1.319-.6771s-.653-.7634-.812-1.2401c-.076-.4783-.044-.9673.092-1.432.136-.4646.373-.8934.695-1.2554.18-.1742.421-.2716.672-.2716.251 0 .492.0974.672.2716.173.1775.27.4156.27.6636 0 .248-.097.4862-.27.6637-.164.1966-.443.6718-.361.934.082.2622.246.3277.558.4752 1.746-.7969 3.624-1.2636 5.54-1.3765.28-.0106.551-.1077.774-.2778.223-.1702.387-.4051.472-.6726.246-.5629.293-1.1933.131-1.7861-.216.0326-.436-.0098-.624-.1202s-.332-.282-.409-.4861c-.087-.2263-.083-.4777.012-.701.095-.2232.273-.4008.496-.4952.299-.1255.628-.1598.946-.0986.318.0613.611.2153.841.4427.406.547.658 1.1925.73 1.8696.072.6771-.039 1.3611-.32 1.9812-.209.6307-.604 1.1832-1.134 1.5841-.53.4009-1.169.6314-1.833.6609-1.782.1062-3.525.5628-5.131 1.3437-.124.0281-.253.0281-.377 0Z" fill="#263238"/><path d="M179.408 48.3566c-.958-.3957-1.944-.7189-2.95-.9668-.438-.1168-.881-.2098-1.328-.2786-.508-.0983-1.049-.1474-1.754-.3441.373-.584.921-1.0349 1.566-1.2881.645-.2532 1.353-.2956 2.024-.1211.688.1459 1.306.523 1.75 1.0685.445.5456.689 1.2267.692 1.9302Zm17.293 2.6219c.592-.7986 1.435-1.3756 2.393-1.6387.966-.2786 1.985-.3124 2.967-.0983.969.2232 1.869.6788 2.623 1.3273.757.6237 1.325 1.4467 1.639 2.376-.934-.3277-1.639-.7046-2.459-.9832-.722-.2888-1.468-.5136-2.229-.6718-.752-.1859-1.521-.2957-2.295-.3277-.885 0-1.721 0-2.639.0164Zm-11.753 11.2904h-.18c-1.682-.3376-3.328-.8313-4.918-1.4748-.293-.1263-.555-.3171-.765-.5582-.21-.2411-.363-.5264-.448-.8346-.152-1.1568.141-2.3282.82-3.2773l4.688-9.2257.164-.2294c.31-.3644.702-.6508 1.143-.8358.441-.1851.92-.2636 1.398-.2293.507.1044.987.3144 1.408.6165.421.3021.773.6895 1.034 1.1368.103.1905.143.4083.115.6227 0 0-1.066 6.9807-1.18 9.832.047.9669-.219 1.9233-.76 2.7265-.541.8032-1.326 1.4103-2.24 1.7306h-.279Zm.771-14.4202-4.672 9.1929c-.403.5272-.622 1.1719-.623 1.8353 0 0 0 .1147.18.1803 1.376.563 2.804.9911 4.262 1.2781.461-.2575.838-.641 1.087-1.1055.25-.4644.362-.9905.323-1.5163.115-2.6219.918-8.1933 1.147-9.6845-.212-.2837-.512-.4906-.852-.5899-.164.0079-.324.0498-.471.1232-.147.0733-.277.1765-.381.3028v-.0164Zm-12.343 3.0808c.37-.1205.76-.1623 1.147-.1228.387.0395.761.1594 1.099.3522 1.042.5731 1.875 1.4637 2.376 2.5424.501 1.0787.645 2.289.41 3.4551-.524 1.3437-2.229-.1803-4.688-1.1471-.803-.3113-.885 0-1.639-.2622l1.295-4.8176Zm19.424 9.16c-.279 1.6386 2.754 1.2454 6.311 1.8189 3.557.5735 6.262 1.9664 6.557.2622.295-1.7042-2-5.8992-5.541-6.4727-3.54-.5735-7.048 2.6874-7.327 4.3916Zm-8.868 9.3403c2.147-.6554 3.966-.9832 5.704-1.5239.872-.2496 1.726-.5561 2.557-.9177.869-.3441 1.639-.8357 2.721-1.3437-.218 1.1282-.792 2.1565-1.639 2.9332-.844.7664-1.854 1.3272-2.951 1.6387-1.063.3077-2.177.4024-3.278.2786-1.112-.0846-2.184-.4512-3.114-1.0652Z" fill="#263238"/><path d="M225.6 148.708c0 9.078-3.803 16.386-17.425 16.386-9.606 0-15.392-7.341-15.392-16.386 0-9.046 3.869-16.387 15.392-16.387s17.425 7.325 17.425 16.387Z" fill="#E8E8E8"/><path d="M206.536 150.757h-.311c-.525 0-1.525 0-1.82-.902-.295-.901.377-1.327.836-1.638.233-.187.447-.395.639-.623l-.147-.098c-1.23-.852-9.458-.59-16.703.163-.124.016-.25.007-.371-.026-.12-.034-.233-.092-.331-.169-.098-.078-.179-.175-.239-.285-.059-.11-.096-.231-.108-.355-.023-.252.053-.502.212-.698.159-.196.389-.322.64-.351 2.573-.262 15.556-1.524 18.031.164.286.17.524.409.693.696.169.286.263.61.274.943.007.258-.037.516-.13.758s-.232.463-.411.651c.787 0 1.869-.18 3.115-.328 5.491-.655 14.752-1.753 22.784.393.237.071.437.232.557.448.12.216.152.47.088.709-.064.238-.218.443-.431.57-.212.126-.465.165-.706.109-7.753-2.049-16.703-.984-22.063-.344-1.869.032-3.229.213-4.098.213ZM74.0252 39.8521c-.1854.0014-.367-.0524-.5217-.1545-.1547-.1022-.2755-.248-.3471-.419-.6959-2.3212-1.0168-4.7386-.9507-7.1609l-2.2456-7.8983c-.0398-.1548-.0405-.3169-.0023-.472.0383-.1551.1145-.2983.2216-.4168.1072-.1185.242-.2086.3926-.2622.1505-.0537.3119-.0692.4699-.0452l7.9336 1.3928c.3934 0 2.2949.6227 2.6391 4.916.1576 1.8193.7783 3.5681 1.8031 5.0798.0672.1055.1121.2236.1319.3471.0199.1234.0143.2497-.0164.3709s-.0859.2349-.1621.3341c-.0762.0991-.172.1816-.2812.2425-.1062.0648-.2243.1078-.3473.1264-.123.0186-.2486.0125-.3692-.018-.1206-.0306-.2339-.0849-.3333-.1598-.0993-.0749-.1827-.1688-.2452-.2764-1.1789-1.7528-1.8898-3.7779-2.0654-5.8828-.2294-2.8348-1.1474-3.2773-1.1638-3.2773l-6.36-1.1143 1.8687 6.5547c.0079.0927.0079.1859 0 .2785-.0732 2.2122.1921 4.4226.7868 6.5547.099.2304.1028.4906.0107.7239s-.2727.4207-.5025.5214c-.1069.0586-.2235.0975-.3442.1147ZM108.842 57.566c-.174.0074-.346-.0383-.492-.1311-2.164-1.2781-21.2112-12.7159-23.7683-17.4353-.0849-.1469-.1296-.3137-.1296-.4834 0-.1697.0447-.3364.1296-.4834.5309-.9589.8495-2.0207.9343-3.1134.0108-.1248.0461-.2463.1038-.3575s.1368-.2099.2327-.2906c.0959-.0806.2067-.1416.3262-.1794.1194-.0378.2452-.0518.37-.041.1249.0107.2464.046.3576.1037.1112.0577.21.1367.2907.2326.0807.0959.1417.2067.1795.3261s.0518.2451.041.3699c-.1126 1.1868-.4287 2.3453-.9343 3.4248 2.7866 3.8836 17.2608 12.9946 22.8008 16.3866.109.0608.205.1433.281.2425.077.0991.132.2128.162.334.031.1213.037.2475.017.371-.02.1234-.065.2415-.132.347-.09.1188-.207.2148-.34.2803-.134.0654-.282.0985-.43.0966Zm96.416 324.863s-.902-13.863-1.639-14.534c-.738-.672-10.163.606-12.097-.361-1.935-.967-3 4.326-4.246 4.916-1.246.59-3.868-1.934-2.082-5.227 1.787-3.294-5.556-9.21-7.392-9.062-1.836.147-13.54 4.916-22.588 5.473-9.048.557-16.244-1.147-18.736.164-2.491 1.311-4.803 2.786-1.328 6.784 3.475 3.998 11.475 11.913 22.096 12.011 10.622.099 13.114-1.638 14.425-3.179 1.312-1.54 3.279-4.342 4.705-1.475 1.426 2.868 1.459 6.752 3.934 7.489 2.475.738 19.424 4.67 24.948-2.999Z" fill="#263238"/><path d="M189.423 396.555c-2.481.019-4.957-.25-7.376-.803-3.412-.949-6.551-2.689-9.163-5.08-.623-.508-1.246-1.016-1.868-1.475-1.181-.868-4.033-.557-7.311-.196-4.345.644-8.757.688-13.114.131-8.179-1.613-15.638-5.772-21.309-11.881-3.032-3.752-1.787-7.046-.262-10.11.353-.947 1.022-1.744 1.893-2.258.872-.513 1.893-.711 2.893-.561.219.081.4.239.51.444.11.206.14.444.085.671-.054.226-.19.425-.381.558-.192.132-.425.19-.656.163-.164 0-1.639-.263-2.656 1.835-1.393 2.802-2.278 5.178 0 8.062 5.398 5.741 12.451 9.659 20.178 11.209 4.184.515 8.419.466 12.589-.148 3.82-.426 6.852-.754 8.622.557.656.475 1.295 1 1.951 1.524 2.395 2.218 5.283 3.836 8.425 4.72 5.147 1.278 13.556 1.015 18.703-1.639 4.77-2.458 5.541-4.752 3.279-9.422-.046-.206-.021-.42.068-.611.09-.19.241-.345.428-.441.188-.095.402-.126.608-.087.207.039.395.146.535.303 2.786 5.571 1.639 9.029-4.032 11.929-3.961 1.817-8.283 2.708-12.639 2.606Zm-8.212-31.856c-.175.001-.347-.048-.495-.14-.148-.093-.266-.227-.341-.384-.057-.108-.092-.226-.103-.347-.011-.121.003-.242.039-.358.037-.116.096-.224.174-.316.079-.093.175-.169.283-.225.131-.098 4.41-3.015 9.081-22.22.016-.133.06-.261.129-.376.07-.115.162-.214.273-.291.11-.077.235-.129.367-.154.132-.024.267-.021.398.011.13.031.253.09.359.172.106.082.194.186.257.304s.1.249.11.382c.009.134-.01.269-.057.394-4.917 20.385-9.54 23.204-10.048 23.45-.133.065-.278.099-.426.098Zm19.26 6.62c-.239.001-.47-.091-.644-.256-.174-.164-.278-.389-.29-.628-.459-7.145 8.982-26.94 9.392-27.776.139-.154.325-.259.53-.297.204-.039.416-.009.602.084s.336.244.428.431c.091.186.119.398.079.602-.098.196-9.622 20.188-9.212 26.825.009.124-.007.25-.046.369-.04.118-.103.228-.185.322-.082.095-.183.172-.295.228-.112.055-.234.088-.359.096Z" fill="#263238"/><path d="M207.88 344.117c-6.229 0-17.424-3.277-22.784-6.439-5.606-3.278-3.901-15.371-2.41-26.055.18-1.311.361-2.606.525-3.835.655-5.079.491-14.846.311-24.301-.197-11.159-.377-21.712.656-26.087 1.901-8.193 18.375-38.345 19.08-39.623.056-.111.135-.209.231-.289.096-.08.207-.139.327-.174.12-.036.245-.046.369-.031s.243.055.351.117c.11.059.207.138.285.234.078.096.137.207.172.326.035.119.046.244.032.367-.013.124-.051.243-.112.351-.164.312-17.047 31.299-18.899 39.148-.967 4.146-.771 15.075-.59 25.628.164 9.521.344 19.369-.328 24.58-.164 1.246-.344 2.54-.541 3.851-1.328 9.586-3 21.532 1.491 24.154 5.59 3.277 18.72 6.931 23.555 6.047 2.377-.426 10.442-2.753 14.95-14.584 3.671-9.619 4.688-41.442 4.688-44.752-.639-1.928-1.549-3.754-2.705-5.424-2.278-3.835-3.278-5.719-2.36-6.784.918-1.065 2.114-.262 2.606 0 2.06 1.034 3.982 2.322 5.721 3.834l1.114.869v-.279c-.409-1.491-.868-2.818-1.245-3.883-.787-2.311-1.23-3.589-.492-4.441.245-.237.549-.404.881-.482.332-.078.679-.064 1.004.039 2.491.492 3.852.312 4.917-.688 1.279-1.376 23.785-37.689 25.375-45.554 1.803-8.718 1.639-18.419-.344-21.598-2.328-3.72-5.147-7.489-5.18-7.521-.15-.203-.213-.456-.176-.705.037-.248.171-.472.373-.623.098-.077.211-.133.331-.166.121-.033.247-.041.37-.024.124.017.243.058.351.122.107.064.201.148.275.249 0 0 2.902 3.867 5.262 7.652 2.606 4.179 2.262 14.961.606 22.941-1.655 7.981-24.636 45.178-26.046 46.587-1.836 1.836-4.213 1.639-6.557 1.213.194.812.44 1.612.738 2.392.377 1.098.852 2.458 1.278 4.015.328 1.229.574 2.474-.295 3.032-.868.557-1.95-.181-3.77-1.639-1.621-1.411-3.41-2.616-5.327-3.589h-.098c.668 1.441 1.429 2.837 2.278 4.179 1.836 3.113 2.967 5.096 2.967 6.391 0 .327-.738 34.739-4.803 45.423-4.917 12.765-13.769 15.305-16.392 15.78-.669.078-1.344.094-2.016.049Z" fill="#263238"/><path d="M294.101 314.212c-.836 0-1.639 0-2.278-.098-3.934-.295-17.605-4.785-29.669-8.734-7.245-2.376-14.081-4.621-17.49-5.523-5.922-1.723-11.21-5.141-15.212-9.831-.095-.095-.169-.208-.217-.333-.048-.125-.069-.259-.062-.393.007-.133.043-.264.104-.383s.147-.224.252-.307c.104-.084.225-.145.355-.178.13-.034.265-.04.397-.017.132.022.258.072.369.146.112.074.206.171.277.285 3.774 4.338 8.702 7.514 14.212 9.16 3.475.917 10.343 3.162 17.605 5.555 11.376 3.72 25.522 8.373 29.226 8.652 5.541.426 14.933-.754 18.031-5.735 3.098-4.982 3.59-17.124 2.738-20.107l-.115-.409c-1.016-3.589-3.393-12.028-11.147-14.601-9.703-3.277-26.636-7.882-28.439-7.57-.377 0-.787 1.016-1.033 1.556-.377.852-.77 1.721-1.639 1.737-.869.017-1.443-.999-1.639-1.425-.344-.689-.689-1.491-1.033-2.327-.524-1.262-1.639-3.884-2.246-4.031-.781.72-1.49 1.516-2.114 2.376-1.508 1.933-2.524 3.277-3.672 2.802-1.147-.475-1.016-1.639-1.016-2.098.033-1.147.176-2.288.426-3.408.525-2.655.541-3.572-1.229-4.244-4.197-1.639-5.131-8.537-5.131-11.077 0-.252.1-.494.278-.672.179-.179.421-.279.673-.279.252 0 .494.1.672.279.178.178.278.42.278.672 0 1.638.673 8.095 3.902 9.307 3.229 1.213 2.885 3.982 2.426 6.375-.175.941-.279 1.894-.312 2.851.41-.459.902-1.098 1.279-1.639.697-.986 1.505-1.887 2.409-2.687.229-.18.495-.305.779-.368.284-.062.578-.06.861.007 1.508.41 2.426 2.606 3.491 5.129.295.705.59 1.409.869 2.016.442-.983 1.049-2.311 2.327-2.638 2.426-.59 23.096 5.489 29.506 7.619 8.687 2.901 11.359 12.339 12.359 15.895l.115.394c.983 3.408.623 16.026-2.951 21.646-3.393 5.293-11.999 6.653-17.572 6.653Zm126.692 62.007c-.333.024-.667.024-1 0-.25-.037-.475-.172-.626-.375-.15-.202-.214-.457-.177-.707.037-.25.171-.475.374-.625.203-.151.458-.215.707-.178.132 0 11.475 1.377 21.457-17.73 8.606-16.386 9.016-21.302 8.885-22.548-.312.23-.722.607-1.099.951-.972.994-2.116 1.804-3.376 2.392-1.885.754-22.228 18.025-26.391 36.214-.027.121-.078.236-.15.337-.071.101-.163.187-.268.253-.105.065-.222.109-.345.129-.122.02-.247.015-.368-.014-.123-.025-.239-.075-.342-.146-.103-.07-.191-.161-.258-.267-.067-.105-.113-.223-.134-.346-.02-.124-.016-.25.013-.372 4.36-19.041 25.309-36.656 27.538-37.558 1.045-.495 1.989-1.178 2.786-2.015.637-.758 1.471-1.326 2.41-1.639.27-.058.552-.035.809.067.256.103.477.279.634.507 2.262 3.015-4.459 16.894-8.672 24.891-9.097 17.304-19.227 18.779-22.407 18.779Z" fill="#263238"/><path d="M422.235 373.99c-.138-.001-.274-.033-.398-.092-.125-.06-.235-.146-.323-.252-.081-.095-.143-.206-.181-.326-.038-.119-.052-.245-.041-.37.01-.124.045-.246.103-.357.058-.111.137-.21.234-.291.131-.098 12.965-10.995 18.522-22.793.114-.216.307-.381.538-.459.232-.078.484-.064.706.04.221.103.395.288.483.515.089.228.087.481-.006.707-5.737 12.191-18.473 22.941-19.014 23.449-.174.147-.395.229-.623.229Zm-2.245-22.892h-.082c-.125-.008-.246-.041-.357-.097-.112-.056-.211-.133-.292-.228-.081-.095-.142-.204-.18-.323-.038-.119-.051-.244-.04-.368 1.295-15.583 8.901-31.659 22.604-47.75.574-.688.967-1.147 1.131-1.377.33-.529.631-1.076.902-1.638 1.114-2.098 2.016-3.736 3.278-3.376 1.262.361 1.639 1.639 1.295 8.193-.688 13.11-9.622 38.476-9.999 39.541-.031.129-.089.25-.17.355-.08.106-.182.193-.299.257-.116.063-.245.102-.377.113-.133.01-.266-.007-.391-.05-.125-.044-.24-.113-.337-.204-.097-.091-.174-.201-.226-.323-.051-.122-.077-.254-.075-.387.003-.132.032-.263.088-.384.099-.262 9.229-26.136 9.835-39.016.15-1.881.15-3.772 0-5.653-.344.54-.754 1.311-1.016 1.802-.262.492-.721 1.36-1.016 1.786-.295.426-.623.77-1.262 1.524-13.442 15.797-20.883 31.495-22.146 46.669-.003.236-.093.462-.254.634-.16.173-.379.28-.614.3Z" fill="#263238"/><path d="M420.465 360.504h-.262c-.241-.072-.444-.237-.564-.458-.12-.221-.147-.481-.076-.722 5.524-18.91 18.408-42.605 18.539-42.9.059-.109.138-.206.235-.284.096-.079.207-.137.326-.172.119-.035.244-.046.367-.033.123.014.243.052.351.112.109.059.206.138.285.235.078.096.137.206.172.325.035.119.046.244.032.368-.014.123-.052.242-.112.351-.131.245-12.9 23.826-18.375 42.605-.075.179-.203.33-.368.433-.164.103-.356.152-.55.14Z" fill="#263238"/><path d="M414.712 374.302c-.245.001-.48-.093-.656-.262-.656-.623-15.998-15.65-14.212-34.412 1.558-16.387 5.541-31.806 8.688-33.822.21-.152.454-.252.71-.292.256-.04.519-.019.765.063 1.885.655 2.279 3.424 2.77 6.947.269 2.8.897 5.554 1.869 8.194 2.639 6.21 9.016 34.657 5.59 50.061-.068.231-.221.427-.429.55-.207.123-.454.162-.689.11-.235-.052-.442-.192-.578-.39-.137-.199-.192-.442-.157-.68 3.279-15.026-2.901-42.834-5.491-48.914-1.029-2.777-1.701-5.673-2-8.619-.311-2.18-.688-4.916-1.393-5.359-1.77 1.115-6.032 14.158-7.77 32.38-1.639 17.796 13.491 32.659 13.638 32.773.147.127.25.297.296.486.046.188.032.387-.04.567-.072.18-.199.333-.362.438-.163.105-.355.157-.549.148v.033Z" fill="#263238"/><path d="M416.023 372.057c-.183-.002-.361-.055-.515-.153-.154-.099-.277-.239-.354-.404-8.196-18.124-9.524-43.572-9.524-43.818-.009-.124.007-.249.047-.366.04-.118.103-.227.186-.32.082-.093.182-.169.294-.223.113-.054.234-.084.358-.091.246-.004.482.088.66.256.178.169.283.401.291.646 0 .245 1.393 25.35 9.376 43.145.1.229.107.487.018.72-.089.233-.266.422-.493.526-.108.051-.225.079-.344.082Zm-1.115-46.899c-.241.001-.473-.09-.65-.254-.176-.165-.284-.39-.3-.631-1.459-25.005 8.917-46.587 13.9-56.943.913-1.789 1.729-3.627 2.442-5.506 1.098-3.687 2.508-4.309 3.475-4.178 1.426.18 3.361 1.917 3.705 14.617.442 16.026-4.229 44.047-4.262 44.243-.021.124-.065.242-.131.349-.067.106-.153.199-.255.272-.102.073-.218.125-.34.154-.122.028-.249.032-.372.012-.124-.021-.243-.065-.349-.131-.107-.067-.199-.153-.272-.255-.073-.102-.126-.218-.154-.34-.029-.122-.033-.248-.012-.372 0-.279 4.671-28.136 4.245-43.965-.311-11.815-2.065-12.782-2.081-12.798-.686.824-1.158 1.802-1.377 2.851-.736 1.978-1.59 3.909-2.557 5.785-4.918 10.225-15.13 31.495-13.704 56.009.007.125-.011.25-.053.367-.042.118-.107.227-.19.32-.084.092-.185.168-.298.222-.113.053-.236.084-.361.09l-.049.082Z" fill="#263238"/><path d="M419.629 347.051c-.235-.002-.461-.09-.636-.247s-.287-.372-.314-.605c-.312-2.835.704-7.161 2.573-15.027.934-3.965 2.082-8.897 3.393-14.993 2.74-14.09 4.758-28.31 6.049-42.605.029-.249.152-.478.344-.64.192-.161.438-.243.688-.229.125.01.246.045.357.103.11.058.208.137.288.234.079.096.138.207.174.326.036.12.047.246.034.37-1.293 14.371-3.318 28.668-6.065 42.834-1.328 6.112-2.492 11.045-3.426 15.01-1.803 7.669-2.803 11.88-2.524 14.404.027.25-.045.5-.202.697-.156.196-.385.323-.634.352l-.099.016Zm14.622 33.92c-.205-.001-.404-.066-.569-.187-.165-.12-.287-.29-.349-.485-.072-.241-.044-.501.075-.722.12-.221.323-.385.564-.458l1.934-.606c-.094-.05-.181-.111-.262-.18-.186-.171-.321-.39-.39-.633s-.071-.5-.004-.744c.325-.978.807-1.896 1.427-2.72l.213-.311c-3.557 1.344-8.491 2.802-11.884 1.327-.116-.048-.22-.119-.308-.208-.088-.088-.158-.194-.205-.309-.047-.116-.071-.24-.07-.365.001-.125.026-.248.074-.363.105-.231.295-.412.531-.504.236-.092.499-.087.732.012 3.278 1.409 8.95-.786 10.835-1.507.672-.263 1.901-.738 2.557.098.655.836 0 1.819-.885 3.179-.312.459-.656.983-.902 1.442.541-.131 1.279-.361 1.869-.541 1.581-.58 3.237-.933 4.917-1.049 1.049 0 1.361.508 1.41.935.131.884.229 1.458-11.015 4.915l-.295-.016Zm-22.654-7.227c-.155.003-.308-.036-.442-.114-2.59-1.417-4.945-3.224-6.983-5.359-1.557-1.638-2.705-2.081-3.279-1.933-.105.043-.197.115-.264.208-.066.092-.106.202-.113.316-.027.246-.121.479-.271.676-.15.196-.351.348-.581.438-.901.345-1.787-.376-2.819-1.212l-.263-.197v.328c.164 1.917.427 4.801-1.639 5.752-.114.051-.237.08-.362.084-.125.004-.25-.017-.367-.061-.117-.044-.225-.111-.316-.196-.092-.086-.165-.189-.217-.303-.052-.114-.08-.237-.084-.362-.004-.125.016-.25.06-.367.045-.117.111-.224.197-.316.086-.091.188-.165.302-.216.836-.377.64-2.557.525-3.851-.115-1.295-.197-2.343.59-2.786.787-.442 1.721.213 2.738 1.016l.786.623c.137-.333.346-.63.613-.871.266-.241.584-.42.928-.522.836-.246 2.606-.246 5.131 2.458 1.896 1.951 4.073 3.608 6.458 4.916.113.057.213.136.295.232.082.097.144.208.182.329.038.121.052.248.04.373-.011.126-.048.249-.107.36-.067.147-.169.275-.298.373-.129.097-.28.161-.44.184Zm-328.7855-1.163c-1.6942-.001-3.3864-.116-5.0651-.344-7.4418-1-18.2932-4.916-27.6692-17.435-15.5558-20.86-16.1623-37.837-16.3918-45.096 0-1.098 0-1.95-.1475-2.573-.4098-3.277 0-7.144 1.9178-7.947.4918-.23 1.4917-.394 2.5571.901.6902.962 1.0988 2.096 1.1802 3.277.3443 2.098.7377 4.49 5.3765 7.194 9.7039 5.62 42.0285 26.366 50.9784 57.173.048.123.0698.254.064.386s-.0391.262-.0976.38c-.0586.118-.1412.223-.2426.308-.1014.085-.2193.147-.3463.184-.1269.037-.2601.046-.3911.029-.1309-.018-.2567-.063-.3693-.132-.1127-.069-.2097-.161-.2848-.27-.0752-.108-.1269-.231-.1518-.361-8.7532-30.119-40.5696-50.52-50.1096-56.058-5.4257-3.147-5.9338-6.26-6.2944-8.521-.0496-.83-.3152-1.632-.7704-2.327-.1097-.158-.2559-.288-.4262-.377-.3115.196-1.1638 2.327-.7049 5.981 0 .655.1148 1.639.1639 2.736.2459 7.079.836 23.646 16.0312 44.031 8.9499 12.028 19.2439 15.698 26.3087 16.682 4.4653.658 9.0184.39 13.3757-.787.2391-.078.4993-.057.7235.056.2243.114.3944.312.4731.55.0408.119.0573.244.0487.369-.0086.124-.0421.246-.0987.358-.0566.111-.135.21-.2306.291-.0956.081-.2064.141-.3259.179-2.9523.837-6.013 1.229-9.081 1.163Z" fill="#263238"/><path d="M91.794 369.238h-.1639c-.6065-.114-15.0968-2.704-30.7181-16.632-9.6802-8.957-16.7211-20.393-20.3586-33.068-.029-.122-.0339-.248-.0142-.371.0197-.124.0635-.242.129-.349.0654-.106.1512-.199.2525-.272.1012-.073.2159-.126.3376-.155.1216-.029.2477-.034.3712-.014.1235.019.2419.063.3484.129.1066.065.1992.151.2726.252.0734.101.1261.216.1552.337 3.5274 12.312 10.3648 23.421 19.7684 32.118 15.1788 13.552 29.6363 16.157 29.7838 16.174.2456.047.463.189.6066.393.1437.205.2024.457.1639.704-.0424.216-.1592.409-.3301.547-.1708.138-.3848.211-.6043.207Zm9.278-.328c-.248.022-.494-.055-.685-.215-.19-.16-.309-.389-.331-.637-.022-.247.056-.494.216-.684.159-.191.388-.31.636-.332.181 0 18.031-3.752 18.703-36.837.82-36.492-6.557-53.977-11.13-58.549-.951-.967-1.787-1.425-2.196-1.261-1.754.688-1.902 8.734-1.984 13.535-.131 6.423-3.278 12.601-7.5071 21.171-1.4589 2.917-3.0981 6.227-4.8192 9.832-6.4092 13.781-2.9669 37.558-2.9341 37.788.0345.129.0414.264.02.396-.0213.132-.0703.258-.1438.37-.0735.112-.1697.207-.2825.279-.1128.073-.2396.12-.372.14-.1325.02-.2676.011-.3965-.025-.129-.036-.2488-.099-.3517-.185-.103-.085-.1867-.191-.2456-.312-.059-.12-.0919-.251-.0966-.385-.1475-.983-3.5734-24.58 3.0817-38.869 1.6391-3.687 3.3931-6.997 4.9175-9.93 4.1635-8.341 7.1799-14.355 7.2939-20.352.148-8.521.459-14.191 3.18-15.272 1.853-.738 3.656 1.097 4.246 1.638 6.343 6.407 12.408 27.431 11.687 59.926-.787 34.739-19.473 38.508-20.26 38.656l-.246.114Zm-22.1453 8.456c-5.5896-.196-5.7863-1.18-5.8847-1.638-.0983-.459.2951-1.246 1.2622-1.639 1.3567-.606 2.8508-.838 4.3274-.672 1.1026.119 2.2179.013 3.2784-.311 2.5079-.77 2.9013-1.721 2.9013-1.721.0288-.119.081-.232.1535-.332.0725-.099.1639-.183.269-.247.1051-.064.2218-.106.3434-.125.1216-.019.2457-.013.3651.016.2449.066.4549.223.5862.44.1313.217.1738.476.1187.723 0 .312-.6065 1.967-4.1799 3.065-1.2896.388-2.6425.522-3.9832.393-.702-.09-1.4126-.09-2.1146 0 .7705.098 1.6392.164 2.5735.196.2522 0 .494.101.6723.279.1783.178.2785.42.2785.672 0 .252-.1002.494-.2785.672-.1783.178-.4201.278-.6723.278l-.0163-.049Z" fill="#263238"/><path d="M107.662 371.975c-.129 0-.257-.026-.375-.077-.118-.051-.225-.125-.314-.218-.178-.178-.278-.42-.278-.672 0-.252.1-.493.278-.672.6-.549 1.149-1.153 1.639-1.802l-.098.098c-.672.803-1.639 1.999-3 1.327-.533-.32-.997-.742-1.366-1.243-.368-.501-.634-1.069-.781-1.673-.059-.246-.018-.505.115-.72.132-.215.344-.369.59-.427.245-.059.504-.018.719.114.216.132.369.345.428.59.178.673.598 1.257 1.18 1.639.197-.31.422-.6.672-.869.689-.803 1.853-2.163 3.279-1.212.202.139.37.321.492.534.122.213.195.45.213.695.098 1.524-1.869 3.523-2.721 4.309-.182.173-.422.272-.672.279Zm-6.705-7.21c-.124.024-.252.024-.377 0-.115-.05-.22-.122-.307-.213s-.155-.199-.199-.317c-.045-.118-.065-.243-.059-.369.005-.126.036-.25.09-.363 9.202-23.027 12.656-47.948 10.065-72.609-.028-.252.044-.504.2-.703.156-.199.385-.329.636-.362.124-.016.25-.007.37.027.121.033.233.091.331.169.098.078.179.175.239.284.06.11.097.231.109.356 4.721 39.95-10.081 73.28-10.229 73.624-.087.152-.214.276-.367.36-.154.084-.327.124-.502.116Zm-13.4414-15.633c-.1751.002-.3473-.044-.4977-.134-.1504-.09-.2731-.219-.3546-.374-.1148-.246-12.5233-24.891-8.5237-61.81 1.6081-16.05 5.3227-31.818 11.048-46.898 1.9014-5.26 3.1472-8.734 2.803-10.897-.1803-1.115-1.6392-10.947 1.0654-12.159.541-.246 1.4261-.279 2.4424.967 2.8522 3.506 11.4746 30.053 10.9656 51.961 0 .125-.024.249-.072.364-.048.115-.118.22-.206.308-.088.089-.193.159-.308.206-.116.048-.239.073-.364.073s-.249-.025-.364-.073c-.115-.047-.22-.117-.308-.206-.089-.088-.159-.193-.207-.308-.047-.115-.072-.239-.072-.364.508-22.089-8.3433-48.029-10.5398-50.798l-.2623-.279c-.4918 1.049-.6721 5.047.1147 9.98.4098 2.638-.9015 6.292-2.9013 11.831-5.6639 14.941-9.3452 30.559-10.9497 46.456-3.934 36.329 8.1959 60.499 8.327 60.745.0591.11.0954.231.1068.356.0113.125-.0026.25-.0408.37-.0382.119-.1.229-.1818.324-.0817.095-.1817.172-.294.228-.1296.077-.2757.122-.4262.131Z" fill="#263238"/><path d="M87.8269 327.829c-.2466 0-.4836-.095-.6609-.267-.1774-.171-.2813-.404-.2898-.65 0-.345-.2131-8.325 2.8849-25.596 3.0981-17.272 6.5567-58.156 6.5567-58.582.0289-.249.1519-.478.3439-.639.1919-.162.4383-.244.6888-.23.1244.011.2455.046.3561.103.1107.058.2086.137.2881.234.0794.096.1388.207.1745.327.0358.119.0472.245.0337.369 0 .409-3.5243 41.556-6.5567 58.762-3.0325 17.206-2.8686 25.104-2.8522 25.186.0003.252-.0965.495-.2705.678-.1739.183-.4116.293-.6638.305h-.0328Zm-23.4401-1.262c-.1364-.001-.271-.031-.3951-.088-.1242-.056-.2353-.138-.3262-.239-.1311-.164-13.7363-15.944-17.0638-37.132-3.3275-21.188-4.7372-28.251-6.8845-31.299-1.2458-1.786-1.295-3.703-.1148-4.801.6393-.606 3.2784-2.212 9.0975 2.573 7.7205 6.309 25.9153 29.496 30.505 44.62.0554.237.0185.485-.1032.694-.1217.21-.319.365-.5515.435-.2324.069-.4825.046-.699-.063-.2166-.109-.3832-.297-.4658-.525-4.4094-14.535-22.5059-37.689-29.8985-43.686-3.6882-3.015-5.9666-3.278-6.5567-2.655-.3607.344-.3607 1.245.3934 2.311 2.3932 3.392 3.7537 10.258 7.1959 32.101 3.2784 20.647 16.5065 36.05 16.6377 36.181.0821.095.1446.205.1841.323.0395.119.0552.245.046.37-.0091.124-.0429.246-.0992.358-.0564.112-.1343.211-.2293.293-.1868.159-.427.241-.672.229Z" fill="#263238"/><path d="M85.2375 343.905c-.1407 0-.2799-.03-.4075-.09-.1276-.059-.2403-.146-.3301-.254 0-.099-7.9992-9.669-18.5227-24.957-10.5235-15.289-16.2442-43.048-16.4901-44.244-.0238-.123-.0231-.249.0019-.371.025-.123.0739-.239.144-.342.07-.104.1598-.193.2641-.261.1044-.069.2213-.117.344-.14.245-.044.4977.008.7053.145.2076.137.3542.349.4094.592 0 .295 5.819 28.447 16.195 43.539 10.376 15.092 18.3424 24.711 18.4244 24.81.1577.196.2323.447.2078.698-.0244.251-.1461.483-.339.645-.169.145-.3837.227-.6065.23Zm-27.6692-76.559c-.2036-.005-.4004-.074-.5623-.198-.1619-.123-.2806-.295-.3392-.49 0-.196-6.0322-20.286-7.9009-33.363-.4425-3.162-.8687-5.751-1.2129-7.882-.918-5.555-1.2622-7.652-.164-8.701.2941-.244.6438-.413 1.0183-.49.3745-.077.7623-.061 1.1291.048 3.0816.606 29.0297 20.401 35.2914 43.26.0366.122.0483.25.0345.376-.0138.127-.0528.249-.1148.36-.062.111-.1456.209-.246.287-.1004.078-.2154.135-.3383.168-.1229.033-.2512.041-.3772.024-.126-.018-.2473-.061-.3565-.126-.1092-.065-.2042-.152-.2794-.254-.0752-.103-.129-.22-.1582-.343-5.9502-21.663-30.9804-41.344-33.8162-41.901-.168-.03-.3401-.03-.5081 0-.3278.475.1803 3.507.754 7.03.3442 2.114.7704 4.736 1.2294 7.915 1.8359 12.945 7.7697 32.888 7.8352 33.084.0713.241.0441.501-.0758.722-.1198.221-.3224.386-.5634.458-.0911.022-.1856.028-.2787.016Z" fill="#263238"/><path d="M78.4672 295.679c-.2219.004-.4377-.072-.6089-.213-.1712-.141-.2866-.339-.3255-.557-1.7475-7.305-4.8682-14.212-9.1957-20.352-7.6058-11.077-12.2283-35.788-12.4086-36.837-.0238-.123-.0231-.249.0019-.371.025-.123.074-.239.144-.343.07-.103.1598-.192.2641-.261.1044-.068.2213-.116.344-.139.2492-.039.5038.019.7112.162.2074.143.3519.361.4035.608 0 .246 4.7208 25.366 12.0971 36.05 4.5062 6.348 7.7351 13.51 9.5072 21.09.0235.123.0221.249-.0041.371-.0263.122-.0768.238-.1487.341-.0718.102-.1635.189-.2696.255-.1061.067-.2244.111-.348.131l-.1639.065Zm11.196-53.355c-.1249-.004-.2477-.033-.3614-.084-.1137-.052-.2162-.126-.3014-.217-.0853-.091-.1517-.198-.1954-.315-.0438-.117-.0641-.242-.0597-.367.3442-9.062-.7704-15.043-3.9832-21.302l-.377-.705c-6.3272-12.437-13.7527-27.382-14.8346-32.56-.7048-3.277-1.8031-4.605-2.3276-4.621-.1147 0-1.4752.115-3.1308 5.604-2.8194 9.275 3.8029 43.834 3.8848 44.244.0479.248-.0047.504-.1461.713-.1414.209-.3601.353-.6079.401-.2478.048-.5044-.005-.7135-.146-.209-.141-.3533-.36-.4011-.608-.2787-1.442-6.7862-35.378-3.8357-45.095 1.4097-4.687 3.0325-6.965 4.9175-6.965h.0164c2.4588.099 3.6226 3.884 4.098 6.129 1.1802 5.588 10.9824 24.842 14.7525 32.085l.3607.721c3.3767 6.554 4.5569 12.863 4.1962 22.269-.0318.229-.1459.438-.3208.589-.175.151-.3989.233-.6299.23Z" fill="#263238"/><path d="M82.8767 257.498c-.2375-.002-.4656-.092-.641-.253-.1753-.16-.2855-.379-.3097-.615 0-.115-.9179-12.142-1.8195-19.811-.9015-7.669-9.835-21.795-9.9661-21.926-.1348-.217-.1777-.479-.1193-.728.0584-.249.2133-.464.4307-.599.2174-.135.4794-.178.7284-.119.249.058.4646.213.5993.43.377.59 9.3105 14.748 10.2449 22.712.9343 7.964 1.8195 19.779 1.8358 19.893.0182.25-.0629.497-.2255.687-.1627.19-.3938.309-.6432.329h-.1148Z" fill="#263238"/><ellipse cx="259.809" cy="264.643" rx=".819595" ry=".819321" fill="#263238"/><ellipse cx="270.464" cy="267.101" rx="1.63918" ry="1.63866" fill="#263238"/><ellipse cx="258.99" cy="263.824" rx="1.63918" ry="1.63864" fill="#263238"/><ellipse rx="1.23304" ry="6.16403" transform="matrix(.89504 .44598 -.4462 .89493 191.013 247.235)" fill="#263238"/></svg>