<svg width="661" height="661" fill="none" xmlns="http://www.w3.org/2000/svg"><path d="M327.275 247.505c.647-.093.714-3.411.343-3.451-1.322-.119-1.824 3.676-.343 3.451Zm-140.371 48.107c1.084-.396 8.078 1.071 8.078-1.15 0-1.428-7.192-3.305-8.078-2.644.07.951.468 1.848 1.124 2.539 0 .7-3.027-.08-3.292.661.211.364.556.631.962.742.406.111.839.058 1.206-.148Z" stroke="gray" stroke-miterlimit="10"/><path d="M250.347 339.344c-2.935.159-5.764-3.609-8.976-4.058-2.856-.397-3.028-.701-5.539.33 2.802-1.15-4.522-4.534-4.561-4.548-1.23-.33-2.486 3.001-3.596 2.525.225.093 1.322-2.644.198-3.675-1.123-1.031-3.12 1.454-3.225 1.388.185.106 3.133-7.376-.463-9.333-3.464-2.274-6.306-1.851-9.452-3.424-2.935-1.481-3.2-5.116-7.324-4.852 1.679-.105-3.252-4.402-1.891-3.86-2.194-.872-6.438.978-9.254.344-1.123-.238-1.851-3.12-3.477-3.12-2.485 0-1.811 4.455-2.207 5.288-1.151 2.525-1.613-6.61-.45-5.87-.833-.529-6.61 3.49-7.258 3.966-1.322.979-1.824 2.882-3.172 3.279 2.273-.674-7.271-1.732-5.288-.978-6.042-2.301-3.279-3.081-4.918-8.408-.476-1.507 1.097-2.221-.185-3.596-1.283-1.375-6.372-1.587-7.932-.582-1.111.608.145-4.177.634-4.68 1.97-1.996 2.644-6.61-.449-6.716-5.064-.132-2.565 4.35-5.711 5.91-9.466 4.706-9.889-8.606-9.585-14.198-.116-.083-.24-.154-.37-.212.13.058.254.129.37.212.516-9.849 7.615-7.179 13.537-6.492-1.56-.185-.238-2.538 1.56-2.644 1.677.062 3.33.425 4.879 1.071 2.987.886 2.234 0 4.455 3.768.872 1.507 1.216 5.288 3.173 5.909.171 0-.106-13.775 1.017-15.427 1.415-2.089 4.799-4.68 5.87-6.055 2.446-3.133.093.396.397-3.239 0-.383-.979-5.566.687-5.566-.648 0 .569 4.865.503 4.905 1.665-1.15.581-2.842.661-4.151 0-1.045 5.393-2.829 5.83-3.781.185-.397-2.578 0-2.578-.079 0-1.402 4.336-1.164 4.97-1.6.253-1.793.879-3.514 1.838-5.05 1.957-2.023 6.835-1.573 8.342-4.667-.185.384.648 1.917 1.692 1.613-3.847 1.124-5.685 3.173-1.071 2.486 2.353-.357 5.923-2.644 7.681-3.966.106-.08-.806-1.217-.674-2.01-.08.502-2.909 2.737-3.57 2.644-4.494-.82-2.353-3.834-4.098-4.997-.465.222-.98.318-1.494.278-.476-1.613 5.434-2.83-.251-3.57-3.966-.515-5.883 5.196-8.58 5.196 1.322 0 7.285-7.245 10.1-7.932 1.124-.371 16.988-1.521 15.666-5.024-.363-.21-.739-.4-1.124-.568-1.097-1.018 2.869-2.023-1.533-2.539-.106-.481-.146-.975-.119-1.467-.423-.291-4.865 1.547-4.865 1.533-.344-1.612 4.111-1.798 4.614-2.644 0 .066-9.532-4.561-8.673-5.697 1.759-2.274 1.745.264.609-3.266-.318-.965-4.561-6.914-4.257-7.191-2.063 1.864-.899 6.107-4.495 6.12-3.966 0-3.583-4.547-3.583-7.152 0-1.15-9.849-4.085-10.576-4.058-5.565.145-3.278.502-3.622 4.918-.066.753-.886 3.886-.806 4.336.661 3.424 3.49 4.521 1.758 8.91-.529 1.322-3.689 1.706-3.966 2.485-.304 1.045 1.229 2.102.991 3.345-.092.503.516 5.222.199 5.077-2.102-.992-1.177.965-3.53-1.137-2.644-2.367-.807-5.791-2.353-7.589-.608-.727-8.289-3.635-9.995-4.415-2.245-1.271-4.876-1.685-7.403-1.163.674-.106-.634-3.966-.925-4.403-1.666-2.829-3.464.318-2.459-5.288.251-1.401 6.517-8.13 6.61-7.932 0-.277-5.129-2.194-5.09-2.287.714-1.705 5.063 3.041 6.253-.542-.542 1.653 6.888-1.613 5.037-2.948-.78-.555-5.143 0-4.878-2.049-.172 1.322 9.346 1.851 5.565-1.52-.132-.119 3.464 0 4.191 0 .503 0-1.322-1.745-1.203-1.917.542-.542 2.446 2.644 4.945-.132 1.93-2.155-1.005-2.38-1.124-4.469 0-.238 2.974-1.044 1.983-2.538-.754-1.137-4.707-2.498-6.015-2.075-.912.29.33 4.732-2.142 6.173-.328-.324-.581-.717-.74-1.15-1.045.066.938 3.86-.397 3.239s-1.454-3.318-1.666-3.503c-.528-.463-1.229-2.168-2.115-2.962-.886-.793-1.732 2.949-2.075 3.015-1.322.238.172-3.239.264-3.398.608-1.137-3.212-.767-3.146-.701-1.217-1.057.833-1.639 1.044-1.969-.264.423-2.935-4.35-2.935-4.323-1.758-3.966-.568 0-1.018-4.508.212 2.102 8.17-3.504 5.407-4.416-2.763-.912-6.821-1.216-7.443 1.018-.343 1.322-.145 6.346-.661 8.368-.171.648-2.34 1.693-1.586 4.27.304 1.005 6.094 2.314 3.371 4.522.021-.28.15-.54.36-.725.21-.186.484-.281.764-.267.079.172-2.961 5.738-2.644 5.5-1.235-1.118-2.4-2.31-3.49-3.57-.159-.291 3.873-.912 4.085-1.11 1.56-1.52-2.287-1.494-2.287-1.719 0-.436 2.062-.172 1.322-.74-.495-.371-1.059-.638-1.66-.783-.601-.146-1.225-.169-1.834-.066-.61.102-1.192.328-1.712.662-.52.335-.966.772-1.312 1.284-.714.952 5.672 3.385-2.009 4.376-3.504.45-4.931-1.322-7.932-2.023-.886-.211-.846-1.137-2.446-1.322-.555 0-4.363 1.613-3.199 2.142.846.37 3.966-1.771 4.481-1.229-2.062-2.261-2.445 6.372-3.781 5.671-.594-.317-.224-2.393-2.035-2.988-2.486-.833-8.117 1.732-9.968-.304-.899-.978 2.366-1.216 2.115-1.798-.912-2.115-6.094-2.26-7.932-2.71-1.838-.449-3.239-1.494-4.918-1.679-2.023-.211-2.789 1.23-4.667 1.23-.277 0 .384-2.512-.4887-2.644-.6021 1.004-1.3711 1.898-2.2738 2.644-1.798-.133-1.56-4.548-3.7016-4.218 1.4542-.224-3.0539 3.2-2.7498 3.028-1.9142 1.217-3.8959 2.325-5.9358 3.318-1.1237-.066 6.3324-4.64 6.3192-4.468.0793-.899-6.4514 1.864-7.1785 2.26-.7271.397 0-1.15-1.322-.7-3.1199 1.123-.8989 2.088-1.6525 2.908.3041-.317-19.288-4.614-20.5835-4.719-1.9169-.159-13.8281-1.508-14.542-2.327-1.322-1.428-4.7196.092-6.2795 1.798-1.2559 1.322-10.576 3.424-10.9859 5.446-.9518 4.244 8.95 5.037 9.7035 7.351 0 .185-11.1444-.423-12.3739 2.511.423-1.004 3.1199 3.213 3.3975 3.319 1.322.476 8.0907-.979 8.1171-.939 1.9037 1.891-2.2342 4.455-3.2521 5.407-1.2295 1.137-1.322-.701-2.8026 1.23-.872.822-1.8044 1.577-2.7895 2.26.3173-.291 2.2474 4.032 2.3135 4.085 1.1766 1.031 4.7857 1.018 4.3627.595 1.1369 1.137-.1058 3.517.9518 4.072.7139.383 3.186.079 4.5477.634-1.2163-.489 3.7412-2.155 3.4504-1.322-.6742 2.036-8.8045 11.898-9.9943 10.576 1.4277 1.574 16.0887-8.328 16.0887-10.668-.389-.33-.8378-.581-1.322-.741-.3305-.832 7.932-7.707 7.6412-5.036 0-.278-4.9311 3.767-3.7942 4.812.3438.304 5.8036-1.587 6.61-1.904.8065-.317-1.983-2.789 0-3.146.6743-.119 3.2786 1.414 3.3844 1.322-.1244-.038-.2553-.048-.3841-.031-.1287.017-.2523.062-.3624.131-.1101.068-.2043.16-.2762.268-.0719.108-.1199.231-.1407.359.2512.793 11.66.291 12.3739.925-.3437-.304 7.3239 6.319 7.2446 4.469-.3259-.656-.4102-1.405-.238-2.116 3.6487 2.644-1.7054 3.385-1.6921 3.226 0 .185 2.7762 4.098 2.644 4.138.5155-.278-.7139-3.543.1189-3.239.1873.414.2647.869.2248 1.322.9254 1.19 1.084-2.644.965-2.38.1983-.515.2909 5.05-.2908 4.971-.8461-.119 4.8517-.489 3.1728.331.5288-.265-2.0755-1.812-.6346-1.931 2.221-.185.476 1.878-1.0047 2.01-.0103 1.085.0782 2.169.2644 3.239.4495.33 2.4854-1.587 3.5165-1.401 1.0312.185.8461 3.966 1.4146 4.759.4098.568 3.2653 3.437 3.6355 3.966 1.7866 1.861 3.8035 3.487 6.0019 4.838-.1983-.158 7.5092 6.346 3.2652 6.346-.159 0-4.6005-11.964-9.5315-8.487 1.0311-.728 6.6095 7.297 6.9935 8.328 2.062 5.923-1.3221 12.81.978 19.275 1.573 4.429 5.724 7.231 8.527 10.272 1.718 2.085 3.211 4.345 4.455 6.742 1.97 3.332 2.406 4.178 2.01 6.081 0 .093 8.883 9.386 8.54 9.638.846-.608-8.805-18.032-8.527-18.072 3.49-.357 3.794 5.103 4.442 6.108 1.784 2.763 5.037 5.288 6.993 7.852 3.345 4.297 3.794 8.805 6.782 11.898 1.983 2.049 6.61 3.834 9.254 4.667 3.49 1.11 7.178.066 9.994 2.816 1.322 1.229 3.319 1.322 4.217 2.181 2.473 2.274 3.491 1.137 5.804 3.517 1.56 1.599 2.01 3.067 2.908 3.966 1.481 1.454 3.966 4.217 6.201 4.375 2.234.159 1.52-2.459 2.644-2.194 4.97 1.176 4.071 7.839 2.062 11.898-2.168 4.429-4.944 5.195-2.499 9.664.172.317-2.419 4.521-2.168 5.83.476 2.485 6.029 9.849 7.324 12.427 2.486 4.891 5.658 5.393 9.175 9.386 3.212 3.648 2.194 6.61 1.639 11.58-.806 7.285-1.018 14.45-2.565 21.509-.621 2.816-5.962 17.477-3.966 20.293.913 1.322 1.322-3.688 2.169-3.966.846-.278-.542 10.933-1.428 10.312-.463-.331.515-3.636-.701-3.094 1.111-.489-2.274 4.667-2.287 4.72.132-1.454 1.732 1.771 1.798 2.287.106.899 1.957-.595 1.864.714.132-1.957-5.552 2.247-2.869 1.837.444-.259.853-.574 1.217-.938.396-.08-2.803 3.344-.661 3.688.423.066.647-2.195 1.242-1.6 1.256 1.256-2.393 3.966-1.533 4.998.172.211 1.956-.807 2.3-.093.106.225-1.203 1.243-.992 1.322.714.264 2.34-.701 2.644.331.305 1.031-3.172.079-1.983 1.771.45.635 3.279-2.049 3.808-.291-.146-.502-3.173 1.587-3.279 1.719 1.225-.358 2.47-.645 3.728-.86.265.582-4.138 2.288-4.257 1.785.133.569 2.644 2.142 3.068 1.745.687-.7-.913-.357-.344-1.097.396-.529 3.781-2.406 3.966-2.908-.299.179-.543.436-.709.743-.165.307-.244.653-.23 1.002.506.092 1.021.118 1.534.079-.423-.476-1.018 2.221-.86 2.142-.212-.194-.384-.428-.505-.689-.12-.262-.187-.544-.195-.832-.754-.33-.37 1.587-.476 1.507-.077-.251-.248-.462-.477-.59-.229-.129-.499-.163-.753-.097.622-.873-.766 2.644-.766 1.441 0-.674 2.141 1.97 2.088 1.917.29-.433.493-.918.595-1.428 1.14.884 2.327 1.705 3.556 2.459.661.198-.475-1.547-.092-1.494 1.745-.149 3.467-.504 5.129-1.058-2.379-.872-5.288-5.102-5.737-5.288-.357-.092-1.706.199-1.507-.713.198-.913 1.467.317 1.798 0 .33-.318-1.494-3.134-1.111-3.966.595-1.322 1.639-1.693 2.314-2.922.899-1.639 3.12-2.895 3.252-4.72.119-1.441-2.076-1.467-1.97-1.877.41-1.586 1.428-5.473 3.067-7.535.621-.793 2.737-2.869 2.723-2.882-.515-.436-4.561-.079-2.432-3.292-.674 1.005 4.825-.872 4.548-.714.753-.436-.106-2.974.277-3.384 1.877-1.996 8.791.899 9.571-4.429.172-1.176-3.067-5.288-3.133-5.209 1.098-1.15 6.214 1.322 9.03-1.665.7-.741 4.204-6.941 4.19-6.756-.341.907-.784 1.772-1.322 2.578 0-1.229 4.112-4.627 4.64-6.055.767-2.035-.158-4.693.899-6.61 2.129-3.728 6.901-3.014 9.545-4.679 3.398-2.155 4.376-5.288 5.42-9.254.648-2.459 0-8.726 1.322-10.695-.185.396 13.247-14.384 4.852-13.908Z" stroke="gray" stroke-miterlimit="10"/><path d="M185.08 291.594c1.943-2.644-20.028-7.377-17.278-3.372-1.322-1.916 8.764.648 9.254.913 1.639.938 5.631 5.671 8.024 2.459Zm-7.006 3.609c.304.568 3.146 1.322 3.437.661.291-.661-3.807-1.375-3.437-.661Zm19.235.158c.661 1.15 2.643.463 2.762 0 .305-.819-3.437-1.137-2.762 0Zm10.695 141.534c.898.489 2.763-1.97 1.943-2.129-.82-.159-2.803 1.666-1.943 2.129Zm2.194.171c.595.318 3.054-.806 2.763-1.401-.542-1.229-3.318 1.071-2.763 1.401Zm-54.123-107.491c-.753 1.229.741 2.432 1.045 1.89.304-.542-.291-3.12-1.045-1.89Zm67.171-156.79c.159-2.961-4.375-1.52-5.05-1.322-.674.199 4.839 4.945 5.05 1.322Z" stroke="gray" stroke-miterlimit="10"/><path d="M274.064 170.763c-.542.33-7.218-.714-7.258-.595.172-.45 2.42-3.028 2.129-3.133 1.467.555 5.684 5.565 5.883.925.158-2.71-3.808-2.71-4.389-4.957-.172-.622 5.155 1.718 4.085-1.587-.595-1.877-5.83 1.322-5.619-.687-.079.7 1.811-2.459 1.481-2.102 1.665-1.838 9.254 4.495 4.349-1.864-.198-.251 4.402-.172 4.627-1.111.225-.938-4.574-.806-3.49-2.644 1.322-2.247 4.799 1.018 2.644-3.582.079.158-5.539-1.759-4.68-2.644.859-.886 7.456 0 7.205-1.018-.634-2.406-3.9.132-4.164-1.93-.146-1.071 1.983 0 2.3-.556 1.19-1.877-5.156-.357-4.931-.185-1.719-1.322 7.033-9.478 7.284-9.135-1.599-2.141-3.067 1.428-4.204.304-1.137-1.123 6.333-2.062 6.531-2.194.635-.397-3.966-1.322-4.191-1.018.807-1.322 11.581-1.203 11.581-4.178 0-3.966-10.219-.158-11.356.212-.899.277-2.195-.886-2.816-.648-2.049.78-3.966 4.112-6.134 4.429 2.155-.317 4.601-5.526 1.084-6.148-.555-.092-6.504 4.297-6.874 2.975-.291-1.044 3.582-1.534 3.49-2.406-.185-1.851-12.639 1.044-12.665.767-.185-2.525 17.345-1.507 19.103-3.887.978-1.322-22.289-5.076-24.391-4.534-.529.132-3.688 1.255-4.045 1.322-.728-.09-1.462-.13-2.195-.119-3.966.449-7.813.185-11.766.938-.489.093 1.719 1.573 1.692 1.706-.026.132-3.463.357-2.987.978-.106-.132 4.865 3.53 4.521 3.609-2.789.595-7.932-5.777-10.708-3.715-.688.502 2.049 2.181 2.049 2.565 0 1.533-5.605-1.745-5.447-1.745-.41 0-.251 3.344-1.044 3.847 2.419-1.507-2.988-3.636-3.834-3.715-.915-.076-1.832.129-2.627.588-.796.458-1.434 1.147-1.828 1.977-1.256.436-3.107-1.084-4.733-.423-1.163.476 1.031 2.432-.582 3.318-.436.238-11.739.515-10.232 3.966 1.137 2.644 7.245-.119 1.825 4.31-1.481 1.203-5.764.713-7.628 1.983-8.659 5.909 8.011 2.009 7.839 5.288 0 .37-8.844.383-8.672 1.203.224 1.203 6.187 3.966 7.773 4.111 3.213.304 6.293-2.102 10.576 0 3.755 1.811 7.549 5.526 8.672 9.717 1.322 4.904-1.797 5.526 3.345 5.526 1.284 1.731 2.756 3.313 4.389 4.719-.185.146-5.737-2.194-5.737-.78 0 3.305 7.747.886 5.684 6.782-.317.873-2.763-.37-3.49 1.415-.567 1.18-.865 2.471-.872 3.781-.119 2.379 3.45 10.575 6.081 14.224 2.115 2.895 3.371 3.345 6.359 4.693 4.68 2.102 3.596 2.367 6.24-1.546 1.017-1.534-.556-3.015-.146-4.204.212-.622 2.234-.608 2.538-1.944.384-1.718.146-4.561.371-5.288.565-.064 1.137.013 1.665.225.225-.132 3.133-4.045 3.477-4.045.218.193.36.457.401.745.041.288-.021.581-.176.828.568 1.785 7.244-4.164 7.377-4.27 2.551-1.851 2.181-1.97 4.455-2.975 5.037-2.155 10.708-4.045 14.806-6.464Zm-170.446-20.452c1.455-.793 1.455 0 2.552-1.15.309.558.712 1.059 1.19 1.481 1.732 0 2.432-3.728 3.516-3.966s.331 3.305 2.829.886c.952-.913.741-1.759 1.666-2.777.251-.277-5.288-.092-6.028.159-2.102.74-5.804 5.42-5.725 5.367Zm11.079-1.48c-2.499.198 1.322 1.824 1.242 1.428-1.024.008-2.027.301-2.895.846-.449.634 2.499.396 2.182.515-1.084.054-2.128.426-3.001 1.071 1.599 2.34 4.323.119 5.592-.674-.661.41 3.886 1.533 4.19 1.071-.436.647-4.706 1.242-4.64 1.93.238 2.221 8.527-.727 9.757-1.322 4.111-1.798 5.288-.344 3.384-3.966.172.291-4.442-2.895-5.169-2.512-2.142 1.11 1.322 3.331.806 4.111-1.229 2.023-5.38-2.274-6.359-2.525-2.525-.528-3-.132-5.089.027Zm27.987 17.635c3.027 2.274 6.61-6.226 4.653-6.332-.258.209-.434.502-.499.828-.066.326-.015.664.142.957.212-.45-2.485-1.322-2.432-1.322-.582-.913 3.847-1.745.978-3.689-2.128-1.454-1.877 1.243-1.837 1.23.37-.185-6.373-.78-4.231 1.15.723.2 1.462.342 2.208.423 2.538 2.208-4.416 1.018-3.702.886-2.022.423 4.098 5.407 4.72 5.869Zm-42.424-1.467c.85.92 1.649 1.887 2.393 2.895 1.825 0 3.742-2.644 4.641-3.331 2.353-1.759 5.697-3.477 8.077-5.447.886-.727-10.854-4.098-12.387-3.622-4.918 1.546-.635.489-2.234 3.199-.503.833-3.1467 5.195-2.8162 5.605.7215.386 1.5123.624 2.3262.701Zm8.977-13.458c1.322.158 2.644-1.15 2.644-1.891 0-.74-3.318 1.812-2.644 1.891Zm79.386 16.353c.192 0 .382-.038.559-.114.176-.075.336-.184.47-.323.133-.138.237-.302.305-.481.069-.179.101-.371.094-.563.317 1.084-5.645-2.036-6.187-2.221-1.322-.449-.49-1.665-2.644-2.154-1.468-.331-3.715 1.85-3.649 1.864-1.983-.701-1.15.145-3.398.145-1.652 0 1.137-9.056-6.041-4.72-4.336 2.644-.741 3.966-.542 6.769 0 .463-3.239-.965-3.107-3.067.119-1.904 2.499-3.609 2.499-4.812 0-2.221-7.813 2.644-8.197 4.415-.515 2.327 2.843 6.981 4.217 5.156-.356.463-3.661-.436-3.569.437.476 4.772 17.675 1.797 18.045 2.762-.228-.148-.424-.342-.574-.57-.15-.227-.251-.483-.298-.752.238-.793 6.055 3.61 6.094 3.966-.668.38-1.235.915-1.652 1.56 1.11.926 2.34-.938 4.19.979 2.089 2.168 2.05 1.718 2.552 5.01.106.688 6.319-1.322 5.195 1.547-1.123 2.869-2.776-.74-3.595-.476-.82.264-2.948.344-4.085.687.085.736.319 1.446.687 2.089-1.758.859-4.614.093-5.962 1.322-4.958 4.244 5.288 1.666 6.702 2.115 1.415.45 9.981 10.92 12.202 7.932.556-.766-3.767-5.446-4.574-5.288 3.279-.952 8.091 4.469 6.372-1.018-.766-2.445-6.61-4.336-4.045-7.39 1.058-1.322 5.473 4.138 6.213 4.112 0 0 4.337-4.548 4.337-4.521 0-3.041-11.978-4.68-11.594-7.628.728-.333 1.513-.526 2.313-.569-.528-.541-1.204-.913-1.943-1.071-.198-1.811 1.917-1.718-1.124-1.718 2.208 0-3.054-2.393-3.252-2.472-.621-.199-3.014-.939-3.014-.939ZM85.7583 217.998c-1.3881.806 1.7318 4.627 2.5647 4.058.2511-.185-.5288-5.248-2.5647-4.058Zm49.6677-64.818c.515-.661-1.124-2.049-1.573-.899-.45 1.15.991 1.573 1.573.899Zm40.4 43.983c.529-.092 1.573-2.142.225-2.062-1.349.079-1.031 2.181-.225 2.062Z" stroke="gray" stroke-miterlimit="10"/><path d="M183.309 179.686c4.085-.753-3.966-3.701-2.644-2.564.885.727-2.274 3.463 2.644 2.564Zm-14.093 15.666c1.203.82 2.987-1.388 2.842-2.049-.145-.661-4.257 1.031-2.842 2.049Zm-14.344-42c.688 2.115 17.781 2.988 19.764 1.547 7.932-5.725-16.749-2.856-16.419-4.72.38-.498.824-.942 1.322-1.322.608-.806-13.418-3.635-12.347-1.97 2.948 4.495 5.711.252 7.68 6.465Zm-17.199 18.376c.397-.516 2.314 1.057 2.393-.08 0-.806-5.698-4.864-6.2-6.16-.281-1.748-.409-3.518-.384-5.288.675-.608.609-1.322-.224-1.917-.569-.199-1.184-.227-1.769-.082-.584.146-1.114.459-1.523.902.786.554 1.489 1.218 2.089 1.969 0-.383-3.742-1.731-4.112-.991-.529 1.058 1.706 4.891.992 5.288-.132 0-5.05-5.526-5.288-4.27.522.445.969.972 1.322 1.56 0 .198-2.724.079-2.578.463-1.97-5.209-3.596 1.031-5.381-.648-.185-.185 3.067-2.644-.766-2.644-1.481 0-5.288 2.128-5.778 3.371-2.221 5.288 2.763 1.401 4.852 3.014.106.079-4.415 1.256-4.415 1.877 0 2.777 10.695-.277 10.695 2.063 0 .568-9.638 0-9.254 1.56.991 4.309 13.22 3.45 15.705 3.106 1.299-.321 2.628-.503 3.966-.542.833 0 7.681 2.353 6.861-.436-.661-2.181-2.234.661-2.776-.82.447-.517.979-.955 1.573-1.295Zm64.342 56.449c.146.648 4.495 2.644 4.641 1.719.145-.926-4.773-2.287-4.641-1.719Zm-43.374-84.515c-1.323-.741-3.041.819-1.64 1.401 1.243.489 3.041-.661 1.64-1.401Zm-11.621-1.058c8.804 0-1.587-4.904-2.168-3.966-.582.939 1.137 3.966 2.168 3.966Zm.898-8.13c.08 0 6.941 3.212 6.61 2.128.186.556-3.159 1.322-2.987 1.56 2.194 2.42 5.645 3.966 8.751 3.12.212 0 6.465-5.632 6.28-4.68-.251 1.322-4.614-4.415-4.852-4.6-.238-.185-9.505-5.05-10.404-4.363.069.253.211.48.409.651.197.172.442.281.701.314 0 .516-2.273.106-2.485.529.423.335.833.679 1.23 1.031-.45.873-3.067-.423-2.975 1.322.555.667 1.256 1.196 2.049 1.547.053.925-4.957 0-2.327 1.441Zm26.044 23.875c-1.89 4.469 7.628 3.437 7.628 2.459 0-1.494-7.086-3.728-7.628-2.459Zm-20.874-15.335c-.159-.502-5.83.251-4.944.978 1.494 1.23 5.089-.489 4.944-.978Zm-34.505-.093c.384-.978-2.472-.819-2.234-.489.516.741 1.864 1.481 2.234.489Zm32.852 8.95c-1.203-.991-4.759 1.388-4.27 1.798 1.943 1.653 8.672 1.825 4.27-1.798Zm-17.279-6.57c.595-.82-2.406-3.437-2.551-2.208-.145 1.23 1.917 3.081 2.551 2.208Zm6.584 1.441c-1.785-.754.754 2.644.476 2.644-.828-.662-1.803-1.116-2.842-1.322-.635.516.925 2.076.409 2.327-.806.383-2.776-3.398-3.886-3.464-2.38-.132.846 3.384.952 3.45 1.996 1.203 3.569.278 5.565.82-.277-.079 2.208 6.332 4.548.661 1.705-4.191-3.186-4.296-5.222-5.116Zm-15.943-4.23c1.322-.212-5.288-1.785-5.288.74-.027 4.283 5.301-.74 5.288-.74Zm-3.662-1.56c.608.277 4.865.224 4.865-.648 0-3.186-7.059.344-6.888.489.664.146 1.345.199 2.023.159Zm22.739-6.399c.528-.978-3.147-1.758-2.235-.899.516.489 1.719 1.891 2.235.899Zm-10.246 3.86c1.203-.396 1.956 0 2.247 1.151-.145.356-2.776.251-2.644.489.132.238 14.397 5.856 7.113-1.322-.967-.914-2.157-1.557-3.451-1.864-6.438-.794-2.736 1.163-3.265 1.546Zm41.008 52.431c.146-.859-7.31-5.962-7.707-5.909-.714.092-4.191 4.759-3.741 6.239.449 1.481 11.515-.727 11.448-.33Z" stroke="gray" stroke-miterlimit="10"/><path d="M156.974 126.357c2.644-1.904.463.793.49.833.536.023 1.068.107 1.586.251-2.988 3.503 5.579 2.935 5.539 2.274.384 5.446 10.92-1.825 12.189-.926 2.432 1.732-6.398 3.437-6.187 3.728 0 0 2.842 2.406 2.485 2.42-1.679.132-10.457-6.108-8.976-.556.344 1.322 7.245 3.966 7.245 5.183 0 0-8.699-2.644-8.911 1.15-.132 2.353 4.799-.423 4.852-.278-.767-1.705.767 5.288.767 3.966 0 1.587-6.742-4.125-6.465-.978.616.566 1.28 1.08 1.983 1.533 0 .542-5.79 1.018-4.428 2.393 1.559 1.6 19.155 2.089 20.041 0 .886-2.089-6.61-1.56-6.94-2.115 1.044 1.639 6.61-2.975 7.046-3.186 2.802-1.547 3.966.727 5.446-3.649.437-1.322-4.851-1.322-4.798-1.322 3.08-2.181 7.138-1.322 9.941-2.644 1.705-.846 11.805-6.068 11.898-6.835.093-.766-4.733-.198-5.01-.317 2.326 1.018 10.576-4.468 10.708-4.442-.661-.211-10.232-3.463-10.391-1.004.38-.579.916-1.037 1.547-1.322-1.878.74-11.277.238-12.546.304-4.31.224-8.474-.569-12.268.476-.767.211-18.403 6.001-18.733 5.288.3.16.643.224.98.184.338-.04.656-.183.91-.409Zm59.834 98.383c-1.591.988-2.845 2.435-3.596 4.151-.185.397-3.476 3.702-2.141 4.495 3.027 1.771 5.817-2.644 6.134 1.322-.106-1.322 4.389.489 4.587.106-.079.172-1.322-3.438-.727-3.173.806.37-5.962-4.31-5.87-3.53.24-1.243.795-2.404 1.613-3.371Zm-189.4294-5.288c.8989-.41 1.322-.912.8989-1.401-.423-.489-1.5864 1.745-.8989 1.401Zm6.359-3.675c-1.0444-.41-2.102 1.256-2.2474 1.243-.4495-.08 3.2521-.833 2.2474-1.243Zm17.6619-9.109c-1.7186 2.168-3.1332 6.319.5288 2.644.542-.555 1.3352-4.984-.5288-2.644Zm-22.5267-5.367c-.7007-.423-1.2031-.225-1.4939.568.2778.34.6466.594 1.0633.732.4167.138.864.155 1.2899.048 2.5382-.925-.8726-1.493-.8593-1.348ZM317.28 251.392c-.119-.926-1.837.277-1.467.542.753.568 1.6.383 1.467-.542Zm37.994 9.293c0-.608-4.838 0-4.732 0-.622-.053 4.878 1.587 4.732 0Zm12.652.688c.381-.55.796-1.076 1.243-1.574-1.33.272-2.619.716-3.834 1.322-.661 1.27 2.736 1.124 2.591.252Zm-82.083-72.01c5.288-.291.317-8.368-2.221-6.887-.582.33-4.31 2.406-4.984 2.207-.083-.254-.241-.478-.453-.641-.213-.163-.47-.257-.737-.271-3.318 3.966.119-1.137-4.455-1.137-.952 0 .489 1.322.238 1.322-.926-.105-2.327-.383-2.552 1.322-.105.754 3.808.582 3.662.437-.145-.146-.383 1.401-.251 1.322-.106.066-3.133.132-2.869.674.093.185 2.763.277 3.226.819.846.979-.912 2.195-1.097 1.997 3.199 3.543 9.069-.965 12.493-1.164Zm9.901 34.571c4.442 0 5.659-3.2 5.222-6.61-.145-1.164 2.235-1.322-.436-2.79-1.197.044-2.378.295-3.49.74-.079 2.38.172.278-2.366 1.666-.08.08-.027 6.994 1.07 6.994Zm13.604-22.21c.424-.463.926-2.247.278-2.049-.648.198-.449 2.247-.278 2.049Zm-8.514 4.296c-.33-.356-1.626 1.653-1.123 1.64.502-.013 1.441-1.283 1.123-1.64Z" stroke="gray" stroke-miterlimit="10"/><path d="M300.411 208.479c1.626-1.427.093 5.487.093 4.601 0-1.243 2.141.608 1.903.648.469-.364.808-.869.965-1.441.754.119-.489 2.961-.476 3.146.146 1.111 2.856-.701 3.015-.41 1.784 3.107-1.428 4.403-1.322 6.452-.469.098-.897.337-1.228.684-.33.347-.548.786-.623 1.259 1.366.331 2.76.535 4.164.608.093.502-5.883 1.732-4.415 3.689 0 0 10.734-2.354 11.369-3.001.634-.648-1.097-.238-1.045-.701.291-2.155 1.983-1.15 1.045-3.503-.807-.388-1.52-.948-2.089-1.64-1.203-2.036-2.379-6.411-5.288-6.2 0 0 1.877-3.12 1.679-3.609-.82-2.089-2.366.291-3.53-1.11-.396-.463 2.393-2.327 1.573-3.094-.568-.634-5.671 3.517-5.79 3.622Zm30.578 6.756c-.317-.08 4.231-1.23 2.063-2.71-1.851-1.269-2.248 2.67-2.063 2.71Zm12.097-7.681c-.952 0-1.322 2.062-1.15 2.406.172.344 2.088-2.485 1.15-2.406Zm5.288-.608c.668-.283 1.265-.712 1.745-1.256 1.216-1.348-3.623 1.362-1.745 1.256Zm1.414-2.406c.198-.41-1.441-.225-1.071.145.076.07.166.123.265.154.098.031.203.04.305.026.102-.014.2-.05.287-.107.086-.056.16-.13.214-.218Zm-7.324-71.177c1.415 1.217 4.178-.185 5.936.913-.066 0-3.53 1.322-3.517 1.322.86 2.221 13.22 1.084 12.387-2.34-.105-.41-8.064-1.534-7.747-1.64-.239.226-.398.525-.451.85-.052.325.004.658.161.948-.661.489-3.861-2.141-4.575-2.049-.444.427-.811.928-1.084 1.481l-1.322-.992c-1.414-.013 0 1.335.212 1.507Zm-10.365 3.332c-2.538-.595 1.322 3.966 1.93 4.27 1.177.674 2.116-2.181 2.962-2.512.846-.33-.357 1.56.462 1.507.558-.344 1.164-.603 1.798-.767.727 1.137-5.288 3.332-4.481 3.543 1.52.384 3.159-.608 4.732-.224-1.591.34-3.145.836-4.64 1.48-.145 1.481 2.644 1.415 3.332 1.679-.068.176-.179.332-.322.454-.143.122-.314.207-.498.247-.383.515 2.102.767 2.499.529.962-1.266 1.845-2.591 2.644-3.966.304-.384 2.71-6.148 4.204-3.781-.397-.635.608 5.023.066 4.918.634.132 6.345 1.097 6.121-1.56.119 1.322-5.91-4.403-5.804-4.323-1.877-1.534-4.68-1.785-6.015-2.116.78.186-1.243-2.511-2.208-2.829-1.401-.462.317 4.984.41 4.548 1.322-5.605-3.9-1.203-3.86-1.216-.472-.495-.995-.938-1.56-1.322.443-.256.919-.451 1.414-.582-.436.172-9.65.529-3.186 2.023Zm-1.533 3.318c.362.344.761.645 1.19.899-.555 0-1.163-2.869-2.247-2.538-.065.356.008.724.205 1.028.196.305.501.523.852.611Zm300.359 51.981c-.762-.049-1.512.202-2.089.701.33.41 5.182 1.546 5.182.449-.859-.743-1.957-1.151-3.093-1.15Zm-82.295 51.518c-.251-1.665-3.966 5.473-2.102 4.442-.33.185 1.56-1.057 1.507-.78-.317-.462-.648-.925-.991-1.322 0 .397 10.761.304 10.219-4.375.291 2.538-9.003-1.666-7.932-2.393.106-.093-.701 4.164-.701 4.428Zm-19.909 23.03c.529 1.07 1.031-1.494 1.322-.212 0 .185-.714 4.045.529 3.768 1.017-.225 2.855-3.9 1.322-4.561-.45-.145-4.522-1.705-3.173 1.005Zm5.936-.437c.37-1.626 2.644.304 2.644-2.247 0-1.322-2.644 0-2.777.238-.436.806-.238 3.596.133 2.009Z" stroke="gray" stroke-miterlimit="10"/><path d="M538.345 260.579s-8.223.371-7.588 3.253c.079.37 6.927-.648 7.416-.754-1.534.357 1.467 1.084 1.824 1.058 1.164-.093.278-1.693.489-1.825 1.322-.806 5.288.714 6.61-1.123 1.058-1.441 3.464-11.356 1.6-12.427-2.34-1.322-3.503 6.187-4.6 7.72-.886 1.216-5.5 1.547-5.751 4.098Zm-42.45 33.963c.349-.707.649-1.435.899-2.182-.198-.753-4.428-.185-3.569 1.441.092.199 2.525 3.504 2.67.741Zm17.504-6.61c.819-.622 2.749-4.799 2.102-5.751-2.169-3.16-3.887 7.165-2.102 5.751Zm-1.546 11.422c-1.151 3.807 11.144 8.897 8.606 11.818 4.085-4.693-4.693-6.61-5.592-8.751-.899-2.142 3.159-5.209 0-7.047-2.115-1.256-2.962 3.821-3.014 3.98Zm-2.143 11.924c-.89.887-1.615 1.926-2.141 3.067-.212-.41 4.323-3.265 3.49-5.09-.362.216-.671.509-.904.859-.233.35-.385.748-.445 1.164Zm3.094-6.346c.145.767.502 2.354 1.599 1.97 1.098-.383-1.705-2.512-1.599-1.97Zm7.033 6.571c-.397-.542-1.388.463-1.243.872.145.41 1.639-.383 1.243-.872Zm1.653.925s-7.271 4.72-6.042 4.601c1.23-.119 1.732-1.838 2.988-.952 1.256.886.489 3.741 2.895 3.741-1.798 0 1.917-3.847 1.745-3.173.182-.781.128-1.598-.154-2.349-.282-.75-.781-1.4-1.432-1.868Z" stroke="gray" stroke-miterlimit="10"/><path d="M515.501 307.722c-.314.351-.479.811-.462 1.281.018.471.216.916.554 1.244 3.134-.687-1.097 2.38 1.322 2.948 2.076.502 2.221-6.266-1.414-5.473Zm50.381 31.45c0 2.168-5.566.82-5.645 1.481-.304 3.146 8.567.106 6.742-2.181-.608-.185-.978.039-1.097.7Zm2.248-.211c1.493-.436-1.164-2.327-1.481-2.406.489.106.991 2.538 1.481 2.406Zm-9.585 3.82c1.322.093-4.296-4.68-5.592-5.42-2.908-1.652-8.553-4.217-11.462-4.045-.846 0-2.022 2.644-3.053 2.459-2.076-.384-.886-2.644-2.367-3.213-1.322-.515-1.322-1.93-3.556-1.599-.383.066-2.551 1.771-1.785 1.943.423.093 4.812 2.538 4.839 1.785 0 .343-2.644.33-2.935.37-1.216.225 4.574 3.067 4.944 3.239 2.552 1.242 4.402.978 5.883 3.582 1.481 2.605-2.075 2.459-1.481 3.636 1.098 2.155 9.162.251 10.021.264 2.353 0 2.314-.079 5.288 1.388-.079 0 7.232 3.649 6.452 2.354-.357-.516-6.663-6.822-5.196-6.743Zm-111.934-30.895c-1.084.132-1.11 6.438.146 6.941 3.503 1.427 2.723-7.285-.146-6.941Zm-53.025 40.361c0 .066-2.34 4.085-2.736 4.495-1.058 1.057-3.834 1.705-4.667 2.644-2.3 2.644-.754 3.847-1.15 7.76-.291 2.763-3.543 13.921 3.966 10.285 4.296-2.089 3.41-14.37 5.023-18.402.212-.529 1.322 1.19 1.322-1.045 0-2.234-1.269-3.794-1.758-5.737Zm7.324-45.688c.555.634 1.653-.106 1.719-.357.066-.252-2.354-.357-1.719.357Zm178.668 41.272c.146.82 1.322 1.323 1.719 1.032.396-.291-1.877-1.878-1.719-1.032Zm-5.314-5.05c0 .212 1.15 1.481 1.414 1.322.265-.158-1.348-1.705-1.414-1.322Zm5.605 3.292c.41-.291-2.314-1.93-2.353-1.401-.04.529 1.943 1.692 2.353 1.401Zm-8.765-5.579c-.093.489 1.507 3.094 2.102 2.644 1.058-.74-2.036-3.133-2.102-2.644Zm10.233 5.5c-.384.899 1.11 2.459 1.321 2.498.212.04-.978-3.199-1.321-2.498Zm1.308 3.649c0 .198 1.044 1.189 1.534.819.489-.37-1.666-1.176-1.534-.819Zm-53.461 2.617c.37.331 2.234-.079 2.168-.568-.066-.489-2.737.079-2.168.568Z" stroke="gray" stroke-miterlimit="10"/><path d="M568.831 383.816s-.899-5.42-.437-5.208c-3.186-1.494-7.826-8.131-10.126-11.634-1.732-2.644-2.261-5.46-3.649-8.752-.714-1.705-2.195-.423-2.644-1.533-.74-1.626 0-5.024-1.6-6.518-1.216-1.136-1.864 8.131-1.877 8.17-1.692 4.812-.687 4.892-5.023 3.358-1.243-.449-4.984-2.366-5.288-3.966-.278-1.388 2.987-3.728 2.551-4.6.331.661-7.853-2.327-8.025-2.248-.211.529 0 .939.635 1.23-2.247-2.644-5.949 6.768-4.838 6.61.528-.066-3.345-.608-2.274 0-2.777-1.613-2.354-3.213-5.672-.833-2.155 1.56-1.388 3.649-2.644 5.037-.33.37-.555-1.891-1.071-1.547-1.784 1.203-.396 2.75-2.009 4.072-1.996 1.626-3.001 1.732-5.195 2.829-2.882 1.414-4.931 1.851-7.43 4.204-.124-.162-.205-.351-.237-.552-.033-.201-.015-.406.052-.598 0 .595-.714 2.459-.793 3.45-.08.992.951 4.825.674 5.407-.436-.183-.793-.516-1.005-.939.203.425.366.868.489 1.322-.41-.317-.806-.647-1.203-.978-.476 1.19 3.12 7.522 3.464 8.937.172.727.132 7.575-.172 6.94 2.3 4.72 5.632 1.494 9.439.37 3.12-.912 5.129-1.573 8.144-2.71 2.326-.872 7.271-2.644 9.809-2.221 1.56.252 9.36 6.359 7.575 7.166.542-.238 3.754-4.231 3.966-4.046 1.005.939-1.626 3.477-1.758 4.059-.476 2.287 2.644-1.798 1.798-1.137 1.123-.899.595 2.789.489 2.499-.106-.291 3.688 4.878 4.045 5.169 2.142 1.85 7.469.132 7.416.105.08.411.08.833 0 1.243-.489-.608 1.772.754 2.314 1.322-1.097-1.044 6.266-3.345 6.055-3.107 1.123-1.322 1.771-7.125 2.644-9.016.542-1.546 2.763-10.827 3.411-11.356Z" stroke="gray" stroke-miterlimit="10"/><path d="M539.773 400.262c.41.41 1.785.291 2.009-.291.225-.582-2.406-.079-2.009.291Zm16.908 11.409c-.992-.196-1.959-.502-2.882-.912.502-.146.092 7.747 4.31 5.526 2.128-1.177 2.948-5.143-1.428-4.614Zm36.21 13.775c.264.079 1.123-.159.634-.82-.489-.661-1.269.635-.634.82Zm16.908-20.755c-1.005 1.837-3.199-2.763-3.397-2.75-.098.154-.15.333-.15.515 0 .183.052.362.15.516.171-.264-3.319-5.01-4.046-5.01-.079 0 2.512 5.129 2.737 5.764.78 2.273-1.785 2.181-1.692 3.424 0-.093 1.864 5.288 1.758 5.169 2.142 4.019 6.702-11.409 4.64-7.628Zm-6.094 6.61c-2.102-1.64-14.74 9.65-10.92 12.215 3.821 2.565 12.691-10.788 10.92-12.215Zm8.302-49.073c.41.172 1.758-.317 1.758-1.018 0-.701-2.38.82-1.758 1.018Zm-2.314 2.221c.635.661 1.904.608 1.943-.569.04-1.176-2.511-.013-1.943.569ZM392.832 131.658c-.629.134-1.19.485-1.586.991.7 1.534 7.165-1.546 7.191-1.983.106-2.035-5.222.41-5.605.992Zm9.334.873c0-.873-2.644.092-2.089.277.555.185 2.089.595 2.089-.277Zm-11.726-1.309c.893-.403 1.862-.611 2.842-.608.331-.899-5.764 0-5.579.502.165.199.37.361.602.476.232.114.485.179.743.189.258.01.516-.035.756-.131.239-.097.456-.242.636-.428Zm2.551 43.705c1.455 1.467 2.34-.661 3.094-.978 1.031-.41-5.777-1.745-3.094.978Zm10.721-16.525c-2.037 1.983-3.936 4.103-5.684 6.346 0 .158 2.882 2.564 2.644 2.644-.251-.516-.159-.899.277-1.137-.264 0 7.219 6.266 7.549 2.644.093-.965-3.292-3.041-3.437-4.389-.146-1.349 1.322-2.737 1.89-3.966.923-1.642 2.066-3.15 3.398-4.482 2.221-2.049 18.323-8.804 17.609-9.413-1.719-1.467-16.076 3.226-18.402 4.68-1.256.873-5.804 7.073-5.844 7.073Zm157.477-3.437c.697.185 1.427.201 2.13.047.704-.154 1.361-.474 1.916-.933.343-3.768-16.274 0-4.046.886Zm-12.771 1.904c0-.82-2.644.304-1.586.713.595.225 1.586.106 1.586-.713Zm-70.779-14.648c1.004.621 9.968-.873 10.272-2.644.304-1.772-5.196-2.274-5.024-.899-.991-7.8-3.953 4.349-5.248 3.543Zm-7.734-7.721c-.496.458-.888 1.017-1.15 1.64 2.512 2.406 8.633 4.256 9.161 0 .45-3.609-8.011-2.618-8.011-1.64Zm-2.644-1.533c1.626.753-1.428.833-1.613.938-.872.437 3.239.199 3.966-.105.727-.304 6.187-1.904 5.182-3.134-4.032-5.076-8.315 1.944-7.535 2.301Zm31.926 22.923c-1.15 2.525 2.023.754 2.049.331-.097-.175-.232-.325-.396-.44-.164-.114-.351-.19-.548-.222-.197-.032-.399-.019-.591.039-.191.057-.367.157-.514.292Zm-95.871-25.382c.806.899 5.671.991 5.883-.595.066-.542-4.045-1.322-4.297-1.23.701-.105-1.15 2.301-1.586 1.825Zm62.649-1.415c.199-.819-3.106-.462-2.247.318.304.277 2.049.502 2.247-.318Zm149.201 39.594c.225.172 4.627-.132 3.755-1.163-2.063-2.472-6.478 1.044-6.148 1.216.794-.04 1.587-.053 2.393-.053Zm-73.146-15.203c1.624 1.011 3.558 1.4 5.447 1.097 1.322-.251 4.772-2.287 3.463-2.749.622.224 2.446 4.389 3.517 1.163.899-2.644-1.639-2.036-3.966-2.789-.198-.066-4.297-.172-4.323-.172.621-.119-8.011 1.348-4.138 3.45Zm10.391 6.994c2.644-.635-6.848-3.808-4.984-.873.595.952 4.098 1.097 4.984.873Z" stroke="gray" stroke-miterlimit="10"/><path d="m628.083 185.886 1.89.437c.489 0-.621-.648-.476-.741-.568.357 3.345-.991 2.446-1.322.066 0-7.668-4.6-7.774-3.001.119-1.784.78 2.882.516 2.023-1.428-4.719-11.078-9.888-16.485-11.052-3.001-.648-8.117-.542-9.942.304.146-.079 1.23 2.314-.251 3.226-.687.423-3.966-2.459-3.199-2.816.767-.357 1.732 1.256 1.93-.278.145-1.242-6.332.503-7.271.635-1.575-.015-3.147-.135-4.706-.357-2.049-.198-.952 1.613-1.798 2.023.727-.344-2.644-3.252-2.644-3.226-2.948-2.499-2.525-2.961-8.012-3.384-1.679-.133-9.888 0-10.721-2.499-.238-.74 2.499.146 1.771-1.071-1.612-2.644-8.156.384-8.236.661.461-.269.903-.569 1.322-.899-.6-.292-1.235-.505-1.89-.634-.569-.926 2.644 0 2.644-.489.476-2.829-13.656-1.164-12.268.766.205.104.431.158.661.158.229 0 .456-.054.661-.158-.899-.502.158 3.424.066 2.235 0 .224-3.213-.371-3.741 0 .274.276.602.492.965.634 0 0-8.924-1.692-9.532-1.837-.608-.146-1.626 3.728-2.974 3.648-2.01-.119-3.543-4.904-4.561-4.838.562.275 1.186.399 1.811.357 2.551-1.494-6.359-6.782-8.263-6.386-1.388.291-1.679 3.266-2.181 3.345-.754.132-7.932-.172-8.13-1.005-.133-.449.965-1.004.502-1.123-3.702-.965-6.61.766-8.91.991-.608 0 .119-2.155-.78-2.313-.436-.08-6.465 0-5.923.674.331.119.674.211 1.018.304.093.793-7.548 2.009-7.707 2.432 1.639-4.217 14-5.288 12.995-9.743-.304-1.322.516-2.419-2.221-3.728-3.49-1.639-6.121.979-9.254.199.334-.621.742-1.198 1.216-1.719 0 .344-4.375-.846-4.917-.621.37-.159 3.014-.595 2.432-1.507-1.996-3.041-6.61.832-8.276 2.049.86-.622-3.212 4.772-3.358 2.234.335.348.702.662 1.098.938.185-.581-4.68.503-4.931.41.145-.357.304-.7.476-1.044-1.841.199-3.663.548-5.447 1.044.237.375.604.648 1.031.767-.079-.621-8.143 2.142-8.738 2.419-1.904.886-.926.807-1.745 1.904-.476 0-.965 0-1.441-.093-.172.185 1.652 1.045 1.665 1.203-.437.067-.879.098-1.322.093 0 0 2.01 1.19 1.098 2.023-.542.489-3.675.224-4.574.409-12.533 2.644 0 3.491-2.433 6.809-.965 1.322-7.231-4.138-9.069-2.314-.158.159 2.023 1.679 1.534 1.811-.952.265-2.406-1.123-3.094.199-.542 1.057 4.429 2.736 4.046 3.199 0 0-5.288-1.097-5.288-1.177-1.045-1.189 1.797-4.587-.424-5.288-2.22-.7-3.529 9.981-2.644 11.198 2.393 3.252 6.862 1.533 8.369 6.491.793 2.644-4.588-3.675-2.248-2.644-1.599-.688-1.084-2.076-3.199-1.706-3.014.516-.145 2.235-1.322 3.662-1.322 1.679-3.107 4.112-4.944 4.522-.503.119-5.011-.119-4.601-1.322-.066.158 5.949-.609 6.954-3.966.635-2.129-.423-3.834-.886-6.267-.132-.7.199-8.038.251-7.932-3.556-5.856-9.478.82-9.782 4.971.079-1.15-.133 4.31-.397 3.622 0 0 6.425 4.125 2.644 4.733-2.644.449-13.22-8.884-16.485-7.02.859-.489 5.737 8.382 1.031 6.478-1.851-.754.066-.925-4.191-.542 0 0-6.808 1.137-6.279.714.528-.423 1.467-.859 1.322-1.917 0 .674-8.897 3.583-10.14 4.125-1.732.753-1.322 3.966-4.521 1.837-3.2-2.128 1.599-2.036 1.996-2.498 1.441-1.732-5.87-3.609-5.605-2.512 0-.304 1.718 5.486.343 4.481 3.424 2.473-.542 2.235-.766 2.406-3.966 3.173-3.966-.251-4.746 5.421-.133.951-3.279-.965-3.768-.582-.648-.41-1.322-.833-1.917-1.256-1.163.542-1.322 1.243-.529 2.115 1.917-1.084 2.538 4.165-.806 1.521-.82-.648-5.354-10.576-7.205-9.704 1.322-.635 20.094 8.302 14.344-1.996-1.098-1.983-12.797-6.927-13.789-5.685.444-.038.872-.188 1.243-.436-.159-1.322-3.028 0-3.345-.304-.78-.859-2.644 1.071-3.212-1.044.105.409 3.04-.384 3.12-.794.621-3.424-5.394-.37-4.654-.343-.595 0 .317-1.851.264-1.944-1.216-2.34-2.247 1.983-2.921 1.983-.238 0 .159-2.049-.265-1.771-.806.859-1.599 1.732-2.406 2.644-.872.172 1.706-2.829 1.693-2.895-.252-1.56-2.922 1.427-2.909 1.427.833-.714-3.358 2.38-2.128 2.01-1.613.489.423-3.636.621-2.869.106.357-2.446.291-2.406.899.362.36.606.821.701 1.322-.626-.134-1.27-.156-1.904-.066.216.398.548.721.952.925-.782-.129-1.537-.388-2.234-.766.105 0 .714 2.287 0 1.85-1.243-.819-.979-2.141-2.644-1.388-.132 0-3.623 2.644-3.556 3.041.066.396 1.705-.344 1.441 1.044 0 0-2.949 0-2.843.132.119-.515.251-1.018.41-1.533-1.595 1.573-3.272 3.06-5.024 4.455 1.322 0 4.27-3.252 5.672-1.957 0 0-.212 1.428-.238 1.441-3.966 1.587-5.077 8.025-8.739 9.625-.317.145 1.494 1.322.886 1.586-2.089.806-2.102 1.613-3.834 3.041-.132.105-1.322-1.521-1.401-.503-.198 2.089-1.229.476-2.274 2.036.09.179.217.338.372.465.154.128.334.221.527.275-1.11-2.458-3.966 3.966-3.86 3.464-.635 3.887 1.904 2.644 2.102 3.265.568 1.997-2.314 1.058-2.181.952-.142.574-.239 1.157-.291 1.745 0 .727 1.547-.793 1.837 0 .199.529-.965 1.084-1.123 1.322-1.957 2.988 6.61.675 5.592.899 1.322-.304 2.102-2.485 2.895-2.948.476-.291 4.177 11.264 4.548 11.396 1.745.661 5.38-4.64 5.962-4.812-.238.608-.542.753-.926.436.344-3.107 4.059-5.566 3.966-7.932 0-3.093-3.503-1.626-2.366-6.174.648-2.644 2.644-2.868 3.966-4.732 1.071-1.521 2.829-5.91 4.852-6.61 9.399-3.107-2.182 7.852-2.472 8.407-.727 1.322-.199 6.69.449 7.338 2.644 2.644 7.602.687 10.47-.093.24-.395.51-.77.807-1.124-.3.351-.57.727-.807 1.124 1.184.14 2.307.596 3.252 1.322.635.74-8.064 1.692-7.68 1.507-5.579 2.644-.199 2.565-1.6 4.178-1.666 2.644-2.009.634-2.644 1.203-.225.198-4.363.502-2.829 3.595 1.494 3.358-1.467 4.178-3.332 4.852.159 0-4.864.489-6.067.648-2.644.317-1.243.687-2.512-1.137-.542-.767-3.609 2.115-4.178 1.692-.112-.411-.112-.845 0-1.256-.727-.198-2.935 0-2.644-1.917 0-.343 1.917 1.018 2.076.172.291-1.599-.912-.542-1.322-1.322-.225-.357 2.062-4.217.872-5.526-.806-.885-2.141 2.129-2.141 2.129-.86.859-1.693-.674-1.825 2.908 0 1.15 2.208 3.768 1.64 4.892-.423.859-5.222 1.745-6.121 2.326-1.612 1.39-3.118 2.897-4.508 4.508-.923 1.105-1.946 2.123-3.054 3.041-1.322.621-4.204.264-4.64.516-.992.555.912 2.062 0 2.815-.913.754-3.53-1.586-4.138-.436-1.666 3.08.819.74 2.287 3.08 2.009 3.213 5.129 7.047.463 9.413-2.169 1.11-7.483-1.745-9.254-.793-3.319 1.811-.728 1.652-1.441 4.733-1.455 6.279-1.322 8.91 3.847 10.576 3.609 1.176 7.429.436 10.43-3.583 2.38-3.199 3.808-8.752 7.443-11.012-.82.515 7.601-.952 6.901-.979 3.609.185 1.322-.33 4.442 2.063-.093-.08 11.898 10.919 8.513 10.919 1.917 0 1.322-4.851 1.455-4.97.391-.069.793-.038 1.17.089.376.127.715.346.984.638-1.322-.397-13.219-13.22-7.403-12.903.794 0 7.047 7.112 9.043 8.236.025-.157.065-.312.119-.463-.054.151-.094.306-.119.463-1.957-1.15 5.222 10.933 5.222 8.117 0-2.485-3.239 6.161.991 3.834.009-.633-.089-1.264-.291-1.864.381.105.783.105 1.164 0 .621-.767-1.322-.661-.899-1.058.423-.396 2.419.741 2.128-.872-.344-1.957-1.401 0-2.128-.78.238.264-.304-3.966-.648-3.755.67.192 1.356.325 2.049.397 1.124-.502 7.126-.463 8.58-1.917-.384.384-2.406-3.212-2.274-3.966.787-1.615 1.754-3.136 2.882-4.534.687-.979 1.005-3.226 2.432-3.887.899-.423 4.918-.264 5.143.952-.68.548-1.438.994-2.247 1.322-.08-.423 1.824 2.327 1.771 2.274-.053-.053 5.169-1.322 5.288-1.481.304-.529-4.706-.238-2.3-2.816.568-.595 6.2-2.644 6.61-1.837.092.198-3.966 3.966-3.821 4.679.529 2.525 8.263 3.9 8.012 6.61-.344 3.729-4.786 2.42-7.39 2.367-1.111 0-1.997-1.256-3.081-1.322-3.556-.225-5.645.595-9.003 1.533-4.309 1.203-9.082 3.438-4.084 8.527 2.339 2.393 4.627 1.322 7.271 1.428.872 0 6.186-1.15 6.9-.687.714.462-1.546 6.755-1.824 7.429l.886.41c0 .172 0 .37-.066.542 0-.172 0-.37.066-.542l-.86-.397c-2.644 6.201-7.667 4.932-14.211 3.702-1.732-.317-3.133-1.15-4.865-1.388-2.803-.383-1.322-2.644-5.05-.727-1.23.648-.886 3.133-1.018 3.186-2.208.872-11.726-2.367-14.185-4.892-2.459-2.525 1.705-4.679-.159-7.31-1.137-1.6-8.884-.159-11.078.079-2.704.446-5.36 1.145-7.932 2.089-2.71.767-4.905.542-7.43 1.203-2.141.568-1.322-.331-3.159.674 1.983-1.057-4.27 4.654-3.504 3.424-.951 1.52-1.692 3.199-2.644 4.733-.687 1.19-.502 2.75-1.639 4.455-.74 1.124-2.247 1.322-3.08 2.168-2.327 2.589-4.183 5.564-5.486 8.791-1.455 3.689-.595 4.284-.714 7.509-.119 3.001-1.058 6.201-.965 9.162.105 3.252 1.573 4.561 3.159 7.125 3.57 5.804 7.8 11.171 14.648 11.898 3.634.136 7.263-.37 10.721-1.493.45-.119 5.037-2.644 5.513-2.076 1.259.762 2.557 1.459 3.887 2.089.608.291.37 1.758 1.15 2.115.78.357 1.652-.833 2.3-.423 3.636 2.287 2.234.304 4.085 4.495.357.925-.714 3.886-.7 4.349.079 3.768 1.493 4.323 3.688 8.144 1.811 3.133 4.111 9.254 3.622 12.889-.529 3.847-3.344 7.179-3.516 11.396-.291 2.829 3.741 9.492 4.362 12.453 1.124 5.288 2.75 8.527 4.522 13.55 2.406 6.835.343 8.316 7.932 7.364 7.376-.899 11.567-3.212 15.427-10.576.602-1.921 1.044-3.889 1.322-5.883 2.644-3.807 4.204-1.732 4.931-6.702.516-3.53-1.692-3.517.225-6.901 1.534-2.724 5.751-3.133 7.39-5.579 3.384-5.09-.132-10.708-1.097-15.864-1.045-5.513 1.771-9.492 5.565-13.59 1.56-1.706 20.24-21.39 14.437-23.532-3.966-1.494-8.448 4.231-13.022 1.322m33.896-177.611c1.52-2.141-6.61-.965-4.786.648.873.767 4.085.331 4.786-.648Zm-8.527 1.032c-.767.33-1.534.608-2.314.872-1.018 1.137 5.156.952 5.553-.37.251-.806-3.345-.714-3.239-.502Zm-.251-2.948c1.077-.27 2.117-.674 3.093-1.203-.648-.886-5.195.846-5.288.542.293.267.642.466 1.022.58.38.115.781.142 1.173.081Z" stroke="gray" stroke-miterlimit="10"/><path d="M550.124 225.137c1.057 2.644-2.102 10.192-.45 12.307-1.123-1.441 2.512.146 2.539.159.026.013-1.455-4.349-1.322-4.534 1.322-2.948 2.644-1.574 3.093-2.155.793-1.071-3.873-12.956-3.212-13.379-1.878 1.203-1.217 6.227-.648 7.602Zm-119.72-64.21c.93.081 1.861-.151 2.644-.661 1.031-2.075-4.891.278-2.644.661Zm15.864.212c-.106-.873-1.931.251-1.322.608.608.357 1.414.264 1.322-.608Zm-25.488-30.631 1.507-.793c.489-1.679-4.495.396-4.31.634.884.393 1.881.449 2.803.159Zm166.294 238.33c.106.661 4.296 4.164 4.891 3.728.595-.436-4.997-4.349-4.891-3.728Zm-408.207-86.882c-.939-1.771.211 3.503.634 2.525-.271-.825-.483-1.669-.634-2.525Zm27.59 28.992c1.242.277 1.652-.146 1.203-1.243-.886-.82-1.613.833-1.203 1.243Zm285.591 24.457c0-.489-1.322-.252-.885.436.436.687.885.053.885-.436Zm10.312 10.549c.651.181 1.335.203 1.996.066.886-.74-4.798-1.718-4.64-1.639.05-.4.256-.763.573-1.011.317-.248.72-.36 1.119-.311-1.48.991-14.423-3.358-13.563-.291.33 1.296 13.934 4.059 14.515 3.186Zm15.336.066c1.322 0 1.467-.172.542-.555-.661-.106-6.848.555-6.729.82.806 1.758 5.063-.199 6.187-.265Zm-10.048-.661c-.476 1.177-1.639-.41-2.247.397-1.243 1.666 4.27 1.626 4.746.476.291-.661-2.261-1.415-2.499-.873ZM493 328.848c3.768 3.847 1.93 7.165 8.143 7.495 5.169.265 5.46-3.847 8.818-8.051-.225.278-2.221-4.442-2.194-4.878.105-2.009 2.485-1.718 2.895-3.054.41-1.335-4.799-2.287-5.077-2.221-1.679.371-.832 3.332-3.714 3.107-.093 0-5.064 5.698-5.077 5.738.37-.886-6.412-.82-3.794 1.864Zm-19.724-1.481c-.106.542.449 2.128 1.044 1.48.595-.647-.925-2.022-1.044-1.48Zm2.473 4.706c-.106.265.449 1.322.793 1.031.344-.29-.489-1.903-.793-1.031Z" stroke="gray" stroke-miterlimit="10"/><path d="M488.162 338.141c-.146-2.3 1.15-1.692 1.137-3.173 0-.647-2.102-2.644-2.142-1.414.403.397.758.841 1.057 1.322-.436 1.097-5.552-6.703-5.816-6.994-1.19-1.322-11.528-9.254-11.991-8.222-.33.766 7.932 12.664 9.029 14.171 1.098 1.508 9.202 11.608 8.726 4.31Zm25.092 10.867c0-1.481-2.949-.687-3.094-.925-.145-.238 3.094 2.247 3.094.925Zm-3.345-14.145c-.238.436 3.146 5.38 1.745 5.962 1.322-.542.145-6.028 1.441-5.394 2.459 1.203-.264 4.601 3.027 2.036-1.745 1.322.093-9.042 1.428-6.108.172.397-7.443 2.393-5.539-.714 2.076-3.397 6.703.49 8.527-3.278-1.097 2.274-5.632-.502-7.139.516-2.353 1.586-2.181 4.653-3.49 6.98Zm15.718 1.256c1.44.539 2.927.942 4.442 1.203 1.851 0-5.341-4.178-4.442-1.203Zm.252-8.594c0-3.675-3.054 3.9-.251 3.345 1.85-.37.251-3.411.251-3.345Zm-5.619 20.505c.859-1.137 3.741-1.322 4.124-2.393.212-.635-4.428 1.414-4.865 1.467-.674.106-2.644 1.547-1.322 2.248.434-.002.858-.128 1.223-.362.366-.234.657-.567.84-.96Zm1.93-11.806c.212.873 1.653 1.322 2.049.608.397-.713-2.287-1.626-2.049-.608Zm-196.74-87.291c-.462.859.582 5.777 2.499 3.357 1.573-1.996-1.296-5.631-2.499-3.357Zm10.867 5.869c.357-.079-3.834-.37-3.464.741 1.079.992 2.322 1.789 3.675 2.353.319-1.014.699-2.007 1.137-2.975-.175-.174-.406-.281-.652-.303-.247-.022-.493.043-.696.184Z" stroke="gray" stroke-miterlimit="10"/><path d="M38.3384 602.885H614.915" stroke="#263238" stroke-linecap="round" stroke-linejoin="round"/><path d="M96.5065 556.43s-35.0198-61.5-26.9424-77.139c8.0775-15.639 28.7403 12.493 28.7403 12.493s-17.966-57.335-8.0774-82.361c9.889-25.025 26.929 0 27.762 17.728.833 17.728-3.583 47.949-3.583 47.949s7.179-62.543 24.233-43.784c17.053 18.759-21.549 81.316-21.549 81.316s26.043-14.542 25.118 4.177c-.925 18.72-31.424 35.443-31.424 35.443" fill="#fff"/><path d="M96.8104 544.968s-32.4155-30.234-16.6308-43.785c15.7847-13.55 24.1004 14.542 24.1004 14.542s-17.4507-86.524 10.814-89.658c28.264-3.133 7.469 75.064 7.469 75.064s24.1-33.368 22.474-6.254c-1.626 27.115-37.426 50.091-37.426 50.091m5.116-5.513-21.9052-23.73m17.3452 25.568 5.922-69.365m-6.848 64.341 19.632-26.017" stroke="#263238" stroke-miterlimit="10"/><path d="M135.624 531.431H75.0503l6.0548 71.454H129.57l6.054-71.454Z" fill="#263238"/><path d="m526.156 168.925-68.533 4.257c-3.876.241-7.511 1.963-10.151 4.811-2.641 2.847-4.085 6.601-4.034 10.485l.344 27.537-19.923 2.115 20.082 10.365c.027 1.991.448 3.958 1.238 5.787.789 1.828 1.933 3.483 3.364 4.869 1.431 1.385 3.121 2.475 4.975 3.205 1.853.73 3.832 1.087 5.824 1.051l66.536-1.217c3.862-.071 7.55-1.617 10.308-4.321 2.758-2.704 4.377-6.361 4.525-10.221l1.533-43.044c.085-2.117-.277-4.227-1.061-6.195-.785-1.968-1.974-3.749-3.491-5.227-1.517-1.479-3.328-2.622-5.316-3.355-1.987-.733-4.106-1.041-6.22-.902Z" fill="#fff" stroke="#263238" stroke-miterlimit="10"/><path d="M512.275 176.038h-44.882v28.264h44.882v-28.264Z" fill="#8C8C8C" stroke="#263238" stroke-linecap="round" stroke-linejoin="round"/><path d="M512.275 176.038h-25.488v28.264h25.488v-28.264Z" fill="#696969" stroke="#263238" stroke-linecap="round" stroke-linejoin="round"/><path d="M498.976 176.038h-18.284v28.264h18.284v-28.264Z" fill="#fff" stroke="#263238" stroke-linecap="round" stroke-linejoin="round"/><path d="M467.062 227.173v-7.179c0-3.45 2.446-5.751 6.135-5.751 3.688 0 6.134 2.248 6.134 5.645 0 .159-.133.265-.331.291l-1.176.079c-.212 0-.344 0-.344-.158v-.159c0-1.136-.451-2.225-1.255-3.029-.803-.803-1.892-1.254-3.028-1.254-1.136 0-2.226.451-3.029 1.254-.803.804-1.255 1.893-1.255 3.029v7.311c0 1.136.452 2.225 1.255 3.029.803.803 1.893 1.254 3.029 1.254s2.225-.451 3.028-1.254c.804-.804 1.255-1.893 1.255-3.029-.004-.044.004-.088.02-.129.017-.04.044-.076.077-.105.034-.028.074-.048.117-.058.042-.01.087-.01.13.001H479c.198 0 .331 0 .331.132v.132c0 3.424-2.446 5.698-6.134 5.698-3.689 0-6.135-2.274-6.135-5.75Zm15.772-11.383c-.018-.283.048-.565.192-.809.144-.245.358-.44.614-.562.256-.121.543-.163.823-.119.281.044.541.17.748.364.208.194.352.445.414.722.063.276.041.565-.063.829-.104.264-.285.491-.519.651-.234.16-.511.245-.794.246-.182.013-.364-.012-.535-.073-.171-.06-.328-.156-.461-.28-.132-.124-.238-.274-.31-.441-.072-.166-.109-.346-.109-.528Zm.502 16.604v-12.532c-.003-.045.002-.09.018-.133.015-.042.039-.081.07-.114.031-.032.069-.058.111-.075.042-.016.087-.024.132-.022h1.177c.046-.004.092.002.136.018.043.016.083.041.115.074.033.033.058.072.074.116.016.043.022.09.018.136v12.532c.004.047-.002.093-.018.137-.016.043-.041.083-.074.115-.032.033-.072.058-.115.074-.044.016-.09.022-.136.018h-1.177c-.045.002-.09-.005-.132-.022-.042-.017-.08-.042-.111-.075-.031-.032-.055-.071-.07-.114-.016-.042-.021-.088-.018-.133Zm15.693-8.698v8.698c.003.045-.002.091-.018.133-.015.043-.039.082-.07.114-.031.033-.069.058-.111.075-.042.017-.087.024-.132.022h-1.176c-.047.004-.093-.002-.137-.018-.043-.016-.083-.041-.115-.074-.033-.032-.058-.072-.074-.115-.016-.044-.022-.09-.018-.137v-.938c0-.106-.08-.159-.159 0-.538.52-1.177.925-1.877 1.191s-1.447.387-2.195.356c-2.221 0-4.309-1.071-4.309-3.821s1.983-4.23 5.38-4.23h3.054c.018.002.036 0 .053-.006s.032-.016.045-.028c.013-.013.023-.029.029-.046.005-.017.007-.035.005-.053v-.965c.04-.403-.014-.809-.156-1.188-.142-.379-.37-.72-.665-.998-.295-.277-.65-.482-1.037-.601-.387-.118-.796-.146-1.196-.081-1.652 0-2.723.674-3.014 1.771-.004.044-.018.087-.04.125-.023.038-.053.071-.09.097-.036.025-.078.042-.122.049-.043.007-.088.005-.131-.007l-1.322-.158c-.212 0-.344-.106-.317-.278.343-1.917 2.273-3.226 4.97-3.226 3.2-.052 4.945 1.759 4.945 4.337Zm-1.851 4.812v-2.01c.002-.018 0-.036-.006-.053s-.016-.032-.028-.045c-.013-.013-.028-.022-.045-.028-.017-.006-.036-.008-.053-.006h-2.737c-2.274 0-3.821.965-3.821 2.644 0 1.679 1.322 2.314 2.869 2.314 1.944.026 3.821-.992 3.821-2.816Zm5.645.806c-.277-1.047-.401-2.129-.37-3.212-.03-1.073.086-2.145.344-3.186.376-1.052 1.069-1.962 1.982-2.605.914-.643 2.003-.988 3.121-.988 1.117 0 2.207.345 3.12.988.914.643 1.606 1.553 1.983 2.605.273 1.048.398 2.129.37 3.212.031 1.083-.094 2.165-.37 3.213-.364 1.06-1.05 1.981-1.963 2.633-.912.652-2.006 1.002-3.127 1.002-1.122 0-2.215-.35-3.128-1.002-.912-.652-1.598-1.573-1.962-2.633v-.027Zm8.461-.542c.167-.871.237-1.757.211-2.644.036-.887-.035-1.774-.211-2.644-.208-.734-.649-1.38-1.258-1.841-.608-.46-1.35-.709-2.113-.709-.763 0-1.505.249-2.114.709-.608.461-1.05 1.107-1.257 1.841-.284 1.751-.284 3.537 0 5.288.207.734.649 1.381 1.257 1.841.609.46 1.351.709 2.114.709.763 0 1.505-.249 2.113-.709.609-.46 1.05-1.107 1.258-1.841Z" fill="#263238"/><path d="m239.11 202.808-27.101-7.324 6.121-40.175c.289-1.905.144-3.85-.425-5.691-.568-1.84-1.546-3.528-2.86-4.937-1.313-1.409-2.929-2.502-4.725-3.199-1.796-.696-3.726-.977-5.646-.821l-57.547 4.759c-1.668.135-3.294.598-4.784 1.361-1.489.764-2.814 1.813-3.898 3.089-1.084 1.275-1.906 2.752-2.419 4.345-.514 1.593-.708 3.272-.572 4.941l4.23 52.695c.25 3.11 1.631 6.021 3.882 8.181 2.251 2.161 5.216 3.422 8.334 3.545l44.287 1.745c3.134.129 6.206-.902 8.626-2.898 2.42-1.996 4.018-4.815 4.488-7.916l1.15-7.522 28.859-4.178Z" fill="#fff" stroke="#263238" stroke-miterlimit="10"/><path d="M198.842 151.898H153.96v28.264h44.882v-28.264Z" fill="#8C8C8C" stroke="#263238" stroke-linecap="round" stroke-linejoin="round"/><path d="M198.842 158.746H153.96v14.581h44.882v-14.581Z" fill="#fff" stroke="#263238" stroke-linecap="round" stroke-linejoin="round"/><path d="M164.39 190.368h1.177c.045-.002.09.006.132.022.042.017.08.043.111.075.031.033.055.071.07.114.015.042.021.088.017.133v17.609c.004.045-.002.09-.017.133-.015.042-.039.081-.07.113-.031.033-.069.058-.111.075-.042.017-.087.025-.132.023h-1.177c-.046.004-.092-.003-.136-.018-.043-.016-.083-.041-.116-.074-.033-.033-.058-.073-.074-.116-.015-.044-.022-.09-.017-.136v-7.932c.002-.018 0-.036-.006-.053s-.016-.033-.028-.045c-.013-.013-.029-.023-.046-.029-.017-.006-.035-.008-.053-.005h-8.275c-.018-.003-.036-.001-.053.005s-.033.016-.046.029c-.012.012-.022.028-.028.045-.006.017-.008.035-.006.053v7.932c.004.046-.002.092-.018.136-.015.043-.041.083-.073.116-.033.033-.073.058-.116.074-.044.015-.09.022-.136.018h-1.177c-.046.004-.092-.002-.135-.018-.043-.016-.081-.041-.113-.074-.032-.033-.056-.073-.07-.117-.014-.044-.019-.09-.012-.135v-17.662c-.007-.046-.002-.092.012-.135.014-.044.038-.084.07-.117.032-.033.07-.058.113-.074.043-.016.089-.022.135-.018h1.177c.046-.004.092.002.136.018.043.016.083.041.116.074.032.033.058.072.073.116.016.043.022.09.018.136v7.813c-.002.018 0 .036.006.053s.016.032.028.045c.013.013.029.022.046.028.017.006.035.008.053.006h8.289c.017.002.036 0 .053-.006s.032-.015.045-.028c.012-.013.022-.028.028-.045.006-.017.008-.035.006-.053v-7.813c.007-.082.045-.158.106-.212.062-.054.142-.083.224-.079Zm5.923 14.82c-.27-1.049-.39-2.131-.357-3.213-.032-1.072.079-2.143.331-3.186.38-1.05 1.074-1.958 1.988-2.6.914-.641 2.004-.985 3.121-.985s2.207.344 3.121.985c.915.642 1.609 1.55 1.989 2.6.273 1.048.398 2.13.37 3.213.03 1.083-.095 2.164-.37 3.212-.367 1.059-1.055 1.978-1.969 2.628-.913.65-2.006.999-3.128.999-1.121 0-2.214-.349-3.127-.999-.914-.65-1.602-1.569-1.969-2.628v-.026Zm8.461-.556c.168-.87.239-1.757.211-2.644.035-.886-.036-1.774-.211-2.644-.203-.736-.642-1.386-1.25-1.848-.608-.463-1.351-.714-2.115-.714-.763 0-1.506.251-2.114.714-.608.462-1.047 1.112-1.25 1.848-.172.871-.243 1.758-.212 2.644-.034.887.037 1.774.212 2.644.203.737.642 1.386 1.25 1.849.608.463 1.351.714 2.114.714.764 0 1.507-.251 2.115-.714.608-.463 1.047-1.112 1.25-1.849Zm5.857 3.636v-17.609c-.004-.046.002-.093.018-.136.015-.044.041-.083.073-.116.033-.033.073-.058.116-.074.044-.016.09-.022.136-.018h1.177c.045-.002.09.006.132.022.042.017.08.043.111.075.031.033.055.072.07.114.015.043.021.088.017.133v17.609c.004.045-.002.09-.017.133-.015.042-.039.081-.07.114-.031.032-.069.058-.111.074-.042.017-.087.025-.132.023h-1.177c-.046.004-.092-.002-.136-.018-.043-.016-.083-.041-.116-.074-.032-.033-.058-.072-.073-.116-.016-.043-.022-.09-.018-.136Zm15.573-8.646v8.699c.004.046-.002.092-.018.136-.016.043-.041.083-.074.116-.033.033-.072.058-.116.074-.043.015-.09.022-.136.017h-1.176c-.047.005-.093-.002-.137-.017-.043-.016-.083-.041-.115-.074-.033-.033-.058-.073-.074-.116-.016-.044-.022-.09-.018-.136v-.939c0-.106-.079-.158-.159 0-.538.519-1.177.923-1.878 1.187-.7.263-1.446.381-2.193.347-2.221 0-4.31-1.071-4.31-3.808 0-2.736 1.983-4.23 5.38-4.23h3.028c.018.002.036 0 .053-.006s.032-.015.045-.028c.013-.013.022-.028.028-.045.006-.017.008-.035.006-.053v-1.124c.042-.404-.01-.812-.151-1.193-.142-.38-.369-.723-.664-1.002-.296-.279-.651-.486-1.039-.605-.389-.119-.799-.147-1.2-.082-1.639 0-2.71.687-3.001 1.785-.005.044-.021.087-.045.125-.024.038-.056.07-.094.094-.038.024-.081.039-.125.045-.045.005-.09.001-.132-.013l-1.322-.146c-.199 0-.331-.105-.305-.29.331-1.904 2.274-3.213 4.958-3.213 3.226.053 4.984 1.851 4.984 4.495Zm-1.904 4.746v-2.009c.002-.018 0-.036-.005-.053-.006-.017-.016-.033-.029-.046-.012-.012-.028-.022-.045-.028-.017-.006-.035-.008-.053-.006h-2.736c-2.274 0-3.821.965-3.821 2.644 0 1.679 1.322 2.327 2.882 2.327 1.97.027 3.807-.965 3.807-2.829Z" fill="#263238"/><path d="M547.691 271.896h-35.258c-7.128 0-13.964 2.831-19.004 7.872-5.04 5.04-7.872 11.876-7.872 19.004v9.928l-17.569-.674 17.622 11.501v7.443c0 7.129 2.831 13.967 7.871 19.009 5.04 5.043 11.876 7.877 19.005 7.881h35.258c7.129-.004 13.965-2.838 19.005-7.881 5.04-5.042 7.871-11.88 7.871-19.009v-28.198c0-3.534-.697-7.033-2.051-10.297-1.354-3.265-3.338-6.23-5.839-8.726-2.502-2.496-5.471-4.475-8.738-5.823-3.266-1.347-6.767-2.037-10.301-2.03Z" fill="#fff" stroke="#263238" stroke-miterlimit="10"/><path d="M516.175 322.039h1.176c.044-.002.088.006.129.022.041.016.078.04.109.071.031.031.056.068.072.109.016.041.023.085.021.129v17.609c.004.045-.002.09-.017.133-.015.042-.039.081-.071.113-.031.033-.069.059-.111.075-.041.017-.087.025-.132.023h-1.176c-.046.004-.093-.003-.136-.018-.044-.016-.083-.041-.116-.074-.033-.033-.058-.072-.074-.116-.016-.044-.022-.09-.018-.136v-7.932c.002-.018 0-.036-.006-.053-.005-.017-.015-.033-.028-.045-.013-.013-.028-.023-.045-.029-.017-.006-.035-.008-.053-.005h-8.276c-.018-.003-.036-.001-.053.005s-.032.016-.045.029c-.013.012-.022.028-.028.045-.006.017-.008.035-.006.053v7.932c.004.046-.002.092-.018.136-.016.044-.041.083-.074.116-.032.033-.072.058-.116.074-.043.015-.09.022-.136.018h-1.176c-.046.004-.093-.003-.136-.018-.044-.016-.084-.041-.116-.074-.033-.033-.058-.072-.074-.116-.016-.044-.022-.09-.018-.136V322.37c-.002-.045.006-.09.022-.132.017-.042.042-.08.075-.111.033-.032.071-.056.114-.071.042-.015.088-.021.133-.017h1.176c.045-.004.091.002.133.017.043.015.081.039.114.071.032.031.058.069.075.111.016.042.024.087.022.132v7.813c-.002.018 0 .036.006.053s.015.032.028.045c.013.013.028.022.045.028.017.006.035.008.053.006h8.276c.018.002.036 0 .053-.006s.032-.015.045-.028c.013-.013.023-.028.028-.045.006-.017.008-.035.006-.053v-7.813c-.002-.045.006-.09.022-.132.017-.042.043-.08.075-.111.033-.032.072-.056.114-.071.043-.015.088-.021.133-.017Zm14.462 14.939c.015-.044.04-.083.072-.116.032-.032.072-.057.115-.072.043-.015.089-.021.135-.016.045.005.089.021.128.045l.753.423c.186.106.265.265.159.436-.439.9-1.134 1.65-1.996 2.158-.863.508-1.856.75-2.856.698-1.061.071-2.116-.211-3-.801-.885-.591-1.55-1.457-1.891-2.464-.384-1.163-.554-2.386-.502-3.609-.049-1.016.031-2.033.238-3.028.277-1.112.932-2.094 1.854-2.776.921-.683 2.051-1.024 3.196-.965 1.288-.095 2.561.325 3.54 1.168.979.842 1.583 2.039 1.682 3.327.138.874.191 1.759.158 2.644.005.045-.001.091-.017.134-.016.043-.042.082-.075.114-.033.032-.073.056-.116.07-.044.014-.09.018-.136.012h-8.355c-.017-.002-.036 0-.053.006s-.032.016-.045.028c-.013.013-.022.028-.028.045-.006.017-.008.036-.006.053-.021.643.032 1.287.159 1.917.192.777.653 1.46 1.302 1.927.649.468 1.444.689 2.241.625.689.026 1.371-.147 1.965-.498.593-.352 1.072-.868 1.379-1.485Zm-6.834-6.015c-.143.584-.214 1.183-.212 1.784-.002.018 0 .036.006.053s.015.033.028.046c.013.012.028.022.045.028.017.006.036.008.053.006h6.716c.017 0 .034-.004.049-.011.015-.006.029-.016.04-.029.012-.012.02-.027.025-.043.005-.016.007-.033.005-.05-.014-.562-.062-1.122-.145-1.679-.168-.756-.6-1.427-1.217-1.894-.618-.468-1.381-.701-2.154-.657-.744-.051-1.482.168-2.077.617-.595.45-1.008 1.099-1.162 1.829Zm12.294 9.016V322.37c-.002-.045.006-.09.023-.132.016-.042.042-.08.074-.111.033-.032.072-.056.114-.071.043-.015.088-.021.133-.017h1.177c.044-.004.089.002.131.017.042.015.08.039.111.071.032.032.056.07.071.112.016.042.021.086.017.131v17.609c.007.045.002.091-.012.135-.014.044-.038.083-.07.117-.032.033-.07.058-.113.074-.043.016-.09.022-.135.017h-1.177c-.046.004-.092-.002-.136-.017-.044-.016-.083-.042-.116-.074-.033-.033-.058-.073-.074-.116-.015-.044-.022-.09-.018-.136Zm6.069 0V322.37c-.002-.044.005-.088.021-.129.016-.041.04-.078.071-.109.031-.031.069-.055.11-.071.041-.016.084-.024.128-.022h1.177c.045-.004.09.002.133.017.042.015.081.039.113.071.033.031.058.069.075.111.017.042.025.087.022.132v17.609c.005.046-.002.092-.017.136-.016.043-.041.083-.074.116-.033.033-.073.058-.116.074-.044.015-.09.021-.136.017h-1.177c-.045.003-.09-.005-.132-.022-.042-.017-.08-.042-.111-.075-.031-.032-.055-.071-.07-.113-.015-.043-.021-.088-.017-.133Zm6.001-3.081c-.277-1.047-.401-2.129-.37-3.212-.029-1.073.086-2.144.344-3.186.38-1.05 1.074-1.958 1.988-2.6.915-.641 2.005-.986 3.121-.986 1.117 0 2.207.345 3.121.986.915.642 1.609 1.55 1.989 2.6.269 1.049.389 2.13.357 3.212.035 1.083-.085 2.165-.357 3.213-.367 1.059-1.055 1.978-1.969 2.628-.913.65-2.006.999-3.127.999s-2.215-.349-3.128-.999c-.913-.65-1.601-1.569-1.969-2.628v-.027Zm8.461-.542c.167-.871.238-1.757.212-2.644.033-.886-.038-1.774-.212-2.644-.203-.736-.642-1.386-1.25-1.848-.608-.463-1.35-.714-2.114-.714-.764 0-1.507.251-2.115.714-.608.462-1.047 1.112-1.25 1.848-.171.871-.242 1.758-.211 2.644-.033.887.038 1.774.211 2.644.203.737.642 1.386 1.25 1.849.608.463 1.351.714 2.115.714.764 0 1.506-.251 2.114-.714.608-.463 1.047-1.112 1.25-1.849Z" fill="#263238"/><path d="M552.715 283.622h-44.882v28.264h44.882v-28.264Z" fill="#fff" stroke="#263238" stroke-linecap="round" stroke-linejoin="round"/><path d="M552.953 283.622h-44.882v2.736h44.882v-2.736Zm0 4.283h-44.882v2.737h44.882v-2.737Zm0 4.27h-44.882v2.737h44.882v-2.737Zm0 4.283h-44.882v2.737h44.882v-2.737Zm0 4.284h-44.882v2.736h44.882v-2.736Zm0 4.283h-44.882v2.737h44.882v-2.737Zm0 4.283h-44.882v2.737h44.882v-2.737Z" fill="#263238"/><path d="M529.593 283.622h-21.76v15.058h21.76v-15.058Z" fill="#263238"/><path d="m508.679 284.891.198.423.423.066-.304.331.066.462-.383-.211-.37.211.066-.462-.304-.331.423-.066.185-.423Zm0 2.789.198.423.423.067-.304.33.066.463-.383-.225-.37.225.066-.463-.304-.33.423-.067.185-.423Zm0 2.777.198.423.423.066-.304.33.066.463-.383-.225-.37.225.066-.463-.304-.33.423-.066.185-.423Zm0 2.776.198.423.423.079-.304.317.066.463-.383-.211-.37.211.066-.463-.304-.317.423-.079.185-.423Zm0 2.789.198.423.423.066-.304.331.066.463-.383-.225-.37.225.066-.463-.304-.331.423-.066.185-.423Zm1.997-9.505.185.423.423.066-.304.331.066.462-.37-.211-.384.211.066-.462-.304-.331.423-.066.199-.423Zm0 2.79.185.423.423.066-.304.33.066.463-.37-.225-.384.225.066-.463-.304-.33.423-.066.199-.423Zm0 2.776.185.423.423.066-.304.33.066.463-.37-.211-.384.211.066-.463-.304-.33.423-.066.199-.423Zm0 2.776.185.423.423.066-.304.331.066.462-.37-.211-.384.211.066-.462-.304-.331.423-.066.199-.423Zm1.982-9.968.199.423.423.066-.318.331.08.462-.384-.211-.383.211.079-.462-.317-.331.436-.066.185-.423Zm0 2.789.199.423.423.067-.318.33.08.463-.384-.225-.383.225.079-.463-.317-.33.436-.067.185-.423Zm0 2.777.199.423.423.066-.318.33.08.463-.384-.225-.383.225.079-.463-.317-.33.436-.066.185-.423Zm0 2.776.199.423.423.079-.318.317.08.463-.384-.211-.383.211.079-.463-.317-.317.436-.079.185-.423Zm0 2.789.199.423.423.066-.318.331.08.463-.384-.225-.383.225.079-.463-.317-.331.436-.066.185-.423Zm1.997-9.505.185.423.423.066-.304.331.066.462-.37-.211-.384.211.066-.462-.304-.331.423-.066.199-.423Zm0 2.79.185.423.423.066-.304.33.066.463-.37-.225-.384.225.066-.463-.304-.33.423-.066.199-.423Zm0 2.776.185.423.423.066-.304.33.066.463-.37-.211-.384.211.066-.463-.304-.33.423-.066.199-.423Zm0 2.776.185.423.423.066-.304.331.066.462-.37-.211-.384.211.066-.462-.304-.331.423-.066.199-.423Zm1.982-9.968.186.423.423.066-.305.331.08.462-.384-.211-.383.211.066-.462-.304-.331.423-.066.198-.423Zm0 2.789.186.423.423.067-.305.33.08.463-.384-.225-.383.225.066-.463-.304-.33.423-.067.198-.423Zm0 2.777.186.423.423.066-.305.33.08.463-.384-.225-.383.225.066-.463-.304-.33.423-.066.198-.423Zm0 2.776.186.423.423.079-.305.317.08.463-.384-.211-.383.211.066-.463-.304-.317.423-.079.198-.423Zm0 2.789.186.423.423.066-.305.331.08.463-.384-.225-.383.225.066-.463-.304-.331.423-.066.198-.423Zm1.983-9.505.199.423.423.066-.304.331.066.462-.384-.211-.383.211.079-.462-.304-.331.423-.066.185-.423Zm0 2.79.199.423.423.066-.304.33.066.463-.384-.225-.383.225.079-.463-.304-.33.423-.066.185-.423Zm0 2.776.199.423.423.066-.304.33.066.463-.384-.211-.383.211.079-.463-.304-.33.423-.066.185-.423Zm0 2.776.199.423.423.066-.304.331.066.462-.384-.211-.383.211.079-.462-.304-.331.423-.066.185-.423Zm1.997-9.968.185.423.423.066-.304.331.066.462-.37-.211-.383.211.066-.462-.304-.331.423-.066.198-.423Zm0 2.789.185.423.423.067-.304.33.066.463-.37-.225-.383.225.066-.463-.304-.33.423-.067.198-.423Zm0 2.777.185.423.423.066-.304.33.066.463-.37-.225-.383.225.066-.463-.304-.33.423-.066.198-.423Zm0 2.776.185.423.423.079-.304.317.066.463-.37-.211-.383.211.066-.463-.304-.317.423-.079.198-.423Zm0 2.789.185.423.423.066-.304.331.066.463-.37-.225-.383.225.066-.463-.304-.331.423-.066.198-.423Zm1.983-9.505.185.423.436.066-.317.331.079.462-.383-.211-.384.211.08-.462-.317-.331.436-.066.185-.423Zm0 2.79.185.423.436.066-.317.33.079.463-.383-.225-.384.225.08-.463-.317-.33.436-.066.185-.423Zm0 2.776.185.423.436.066-.317.33.079.463-.383-.211-.384.211.08-.463-.317-.33.436-.066.185-.423Zm0 2.776.185.423.436.066-.317.331.079.462-.383-.211-.384.211.08-.462-.317-.331.436-.066.185-.423Zm1.983-9.968.198.423.423.066-.304.331.066.462-.383-.211-.37.211.066-.462-.304-.331.423-.066.185-.423Zm0 2.789.198.423.423.067-.304.33.066.463-.383-.225-.37.225.066-.463-.304-.33.423-.067.185-.423Zm0 2.777.198.423.423.066-.304.33.066.463-.383-.225-.37.225.066-.463-.304-.33.423-.066.185-.423Zm0 2.776.198.423.423.079-.304.317.066.463-.383-.211-.37.211.066-.463-.304-.317.423-.079.185-.423Zm0 2.789.198.423.423.066-.304.331.066.463-.383-.225-.37.225.066-.463-.304-.331.423-.066.185-.423Zm1.996-9.505.185.423.423.066-.304.331.08.462-.384-.211-.383.211.066-.462-.304-.331.423-.066.198-.423Zm0 2.79.185.423.423.066-.304.33.08.463-.384-.225-.383.225.066-.463-.304-.33.423-.066.198-.423Zm0 2.776.185.423.423.066-.304.33.08.463-.384-.211-.383.211.066-.463-.304-.33.423-.066.198-.423Zm0 2.776.185.423.423.066-.304.331.08.462-.384-.211-.383.211.066-.462-.304-.331.423-.066.198-.423Zm1.983-9.968.198.423.423.066-.304.331.066.462-.383-.211-.384.211.08-.462-.304-.331.423-.066.185-.423Zm0 2.789.198.423.423.067-.304.33.066.463-.383-.225-.384.225.08-.463-.304-.33.423-.067.185-.423Zm0 2.777.198.423.423.066-.304.33.066.463-.383-.225-.384.225.08-.463-.304-.33.423-.066.185-.423Zm0 2.776.198.423.423.079-.304.317.066.463-.383-.211-.384.211.08-.463-.304-.317.423-.079.185-.423Zm0 2.789.198.423.423.066-.304.331.066.463-.383-.225-.384.225.08-.463-.304-.331.423-.066.185-.423Z" fill="#fff"/><path d="M215.354 312.772h-23.175c-3.48-10.88-10.939-20.044-20.885-25.661-9.946-5.617-21.646-7.272-32.76-4.634-11.114 2.638-20.822 9.374-27.183 18.862-6.361 9.487-8.906 21.027-7.125 32.31 1.78 11.283 7.754 21.477 16.728 28.545 8.973 7.068 20.284 10.488 31.67 9.576 11.386-.913 22.008-6.09 29.741-14.497 7.733-8.406 12.008-19.422 11.969-30.845v-1.018l21.02-12.638Z" fill="#fff" stroke="#263238" stroke-miterlimit="10"/><path d="M127.031 341.539c-.817 1.429-1.741 2.795-2.763 4.085-.342-.497-.717-.97-1.124-1.415 2.855-3.82 4.987-8.13 6.293-12.717l2.168.647c-.106.265-.331.318-.621.291-.707 2.109-1.537 4.175-2.486 6.187l.754.212c0 .158-.172.291-.516.304v16.617h-1.705v-14.211Zm17.886.634c.212-.965.476-2.432.701-3.847h-5.195v15.256c0 1.877-.675 2.221-4.337 2.221-.133-.626-.35-1.231-.647-1.798h2.816c.343 0 .449-.106.449-.449v-15.23H134.5c-.677 1.75-1.565 3.41-2.644 4.945-.396-.409-.84-.769-1.322-1.071 2.149-3.216 3.616-6.838 4.31-10.642l2.168.581c0 .185-.225.291-.569.265-.361 1.451-.803 2.881-1.322 4.283h12.467c-.269 1.936-.662 3.852-1.177 5.737l-1.494-.251Zm-8.355.86c-.079.185-.264.29-.581.29-.762 3.132-2.108 6.092-3.966 8.726-.432-.345-.897-.646-1.388-.899 1.853-2.628 3.153-5.606 3.82-8.752l2.115.635Zm9.479 8.804c-.784-3.152-1.989-6.185-3.583-9.016l1.547-.542c1.646 2.788 2.896 5.791 3.715 8.924l-1.679.634Zm12.493-14.886.992.252-.159.37c-.195 3.861-1.045 7.66-2.512 11.237 1.141.825 2.183 1.779 3.107 2.842l-1.071 1.441c-.827-1.008-1.762-1.921-2.789-2.723-1.199 2.253-2.985 4.14-5.169 5.46-.311-.52-.68-1.003-1.098-1.441 2.096-1.183 3.801-2.952 4.905-5.09-.956-.721-1.949-1.392-2.975-2.01l-.317 1.151-1.494-.78c.661-2.301 1.468-5.619 2.221-8.99h-2.644v-1.653h2.975c.423-1.956.78-3.833 1.097-5.512l2.142.264c0 .185-.185.291-.516.317-.291 1.494-.661 3.186-1.044 4.931h3.966l.383-.066Zm-4.706 1.719c-.555 2.432-1.15 4.878-1.706 7.02 1.098.608 2.221 1.322 3.319 2.075 1.182-2.903 1.913-5.97 2.168-9.095h-3.781Zm19.935 4.495v1.692h-6.305v8.646c0 2.009-.78 2.327-5.407 2.274-.155-.603-.372-1.188-.648-1.745h3.133c.886 0 1.15 0 1.15-.556v-8.672h-6.398v-1.692h6.398v-4.442h.859c1.443-1.274 2.741-2.701 3.874-4.257h-10.061v-1.652h11.383l.344-.106 1.388.872c-.113.124-.261.212-.423.252-1.603 2.24-3.482 4.27-5.592 6.041v3.239l6.305.106Z" fill="#263238"/><path d="M171.53 295.07h-44.882v28.265h44.882V295.07Z" fill="#263238" stroke="#263238" stroke-linecap="round" stroke-linejoin="round"/><path d="m131.949 296.736 1.097 2.208 2.42.344-1.759 1.718.423 2.406-2.181-1.137-2.168 1.137.423-2.406-1.758-1.718 2.419-.344 1.084-2.208Zm7.046-.859.569 1.137 1.242.185-.899.872.212 1.243-1.124-.582-1.11.582.211-1.243-.912-.872 1.256-.185.555-1.137Zm1.521 5.737.555 1.137 1.256.172-.912.886.211 1.243-1.11-.582-1.124.582.212-1.243-.899-.886 1.242-.172.569-1.137Zm-3.729 3.755.555 1.123 1.256.186-.899.885.212 1.243-1.124-.595-1.11.595.211-1.243-.912-.885 1.256-.186.555-1.123Zm-5.169 1.718.555 1.124 1.256.185-.899.886.212 1.243-1.124-.582-1.11.582.211-1.243-.912-.886 1.256-.185.555-1.124Z" fill="#fff"/><path d="M401.201 205.545c0-7.202-1.419-14.332-4.174-20.985-2.756-6.654-6.795-12.699-11.888-17.791-5.092-5.092-11.137-9.131-17.79-11.887-6.653-2.756-13.784-4.174-20.985-4.174h-19.089c-14.544 0-28.492 5.777-38.776 16.061-10.284 10.284-16.061 24.232-16.061 38.776" stroke="#263238" stroke-width="3" stroke-linecap="round" stroke-linejoin="round"/><path d="M401.201 246.156v-40.611m-128.763 0v40.611" stroke="#263238" stroke-width="6" stroke-linecap="round" stroke-linejoin="round"/><path d="M311.821 307.087s3.424 23.915 2.736 30.063c-.687 6.147-2.049 12.294-19.129 5.459-17.08-6.834-47.817 5.474-67.634 29.375-19.817 23.902-57.375 103.843-57.375 113.401 0 9.559 7.509 22.474 21.152 24.59 13.643 2.115 45.768-36.884 45.768-36.884s13.656 77.191 13.656 83.286c0 6.094-6.121 46.455-6.121 46.455h193.33l-7.522-49.866 13.669-109.99s56.701 77.191 68.995 80.642c12.295 3.45 31.424-2.737 36.21-17.081 4.785-14.343-2.737-29.374-12.308-40.307-9.571-10.933-69.669-107.254-80.642-116.125-10.973-8.87-41.669-9.571-52.602-6.835-10.933 2.737-29.375 6.835-34.161 4.099-4.785-2.737-4.772-28.688 0-40.308.04.026-41.63 10.959-58.022.026Z" fill="#fff" stroke="#263238" stroke-linecap="round" stroke-linejoin="round"/><path d="M285.116 515.091c2.204.85 4.449 1.587 6.729 2.208m-41.987-46.032s3.041 26.545 28.053 40.453m49.747-118.2 13.299 19.433m118.213-.859 3.517-7.324m-9.215-2.049-9.121 40.308 11.21-23.387m38.867 55.71s14.437-9.254 28.648-9.254" stroke="#263238" stroke-linecap="round" stroke-linejoin="round"/><path d="M465.053 503.074c9.155-4.949 17.903-10.617 26.163-16.948 11.864-9.107 26.765-13.326 41.643-11.792 13.629 1.467 21.006 18.415 21.363 35.376.357 16.962-8.844 27.26-25.422 29.838-16.578 2.578-36.117-1.097-48.266-4.045-6.431-1.633-12.956-2.865-19.539-3.689 0 0-15.838-24.325 4.058-28.74Z" fill="#fff" stroke="#263238" stroke-linecap="round" stroke-linejoin="round"/><path d="M554.223 509.71c-.357-16.961-7.734-33.909-21.364-35.376-14.878-1.534-29.778 2.685-41.643 11.792l-1.851 1.414c15.864.542 47.936 7.02 42.912 51.32 14.384-3.45 22.289-13.431 21.946-29.15ZM311.82 307.087s3.424 23.915 2.737 30.063c-.516 4.613-1.415 9.254-9.03 8.355 10.894 17.807 42.529 59.609 72.049 2.644-3.437.211-6.213 0-7.694-.82-4.772-2.736-4.772-28.687 0-40.308 0 .066-41.669 10.999-58.062.066Z" fill="#fff" stroke="#263238" stroke-linecap="round" stroke-linejoin="round"/><path d="M311.82 307.087s.886 6.214 1.666 13.115c7.926 4.198 16.686 6.582 25.646 6.98 9.901.158 19.622-2.656 27.908-8.078.441-4.108 1.396-8.146 2.842-12.017 0 0-41.669 10.933-58.062 0Zm-37.545-82.678h-3.768c-4.629 0-8.381 3.753-8.381 8.382v32.072c0 4.629 3.752 8.381 8.381 8.381h3.768c4.629 0 8.382-3.752 8.382-8.381v-32.072c0-4.629-3.753-8.382-8.382-8.382Z" fill="#263238" stroke="#263238" stroke-linecap="round" stroke-linejoin="round"/><path d="M274.487 224.449h-4.204v48.756h4.204v-48.756Z" fill="#fff" stroke="#263238" stroke-linecap="round" stroke-linejoin="round"/><path d="M403.462 224.409h-3.768c-4.629 0-8.382 3.753-8.382 8.382v32.072c0 4.629 3.753 8.381 8.382 8.381h3.768c4.629 0 8.381-3.752 8.381-8.381v-32.072c0-4.629-3.752-8.382-8.381-8.382Z" fill="#263238" stroke="#263238" stroke-linecap="round" stroke-linejoin="round"/><path d="M403.686 224.449h-4.204v48.756h4.204v-48.756Zm-163.571 38.523c-1.6.145-3.138.688-4.475 1.579-1.337.892-2.43 2.103-3.179 3.524-3.067 5.103-12.758 23.981-11.74 29.6 1.018 5.618 43.375 45.41 43.375 47.962 0 2.551-33.671 48.478-56.132 68.889-22.461 20.412-40.308 43.362-43.375 61.738-3.067 18.376 7.655 33.671 18.892 36.738 11.237 3.067 24.999-3.569 40.81-23.479 15.811-19.909 59.199-106.645 65.835-136.166 0 0 1.521-13.22-4.6-20.927-6.121-7.707-21.43-25.514-21.43-25.514s3.067-35.205.516-37.757c-2.552-2.551-5.103 3.067-5.103 3.067s-2.367-11.805-5.619-11.237c-3.556.635-4.587 5.103-4.587 5.103s-2.551-10.272-9.188-3.12Z" fill="#fff" stroke="#263238" stroke-linecap="round" stroke-linejoin="round"/><path d="M259.509 272.16s-7.324 29.309-6.61 34.253m-3.596-40.387s-7.76 28.502-8.752 32.468c-.33 1.297-.39 2.649-.176 3.97.214 1.321.697 2.584 1.419 3.711m-1.679-43.203s-10.96 30.565-10.96 33.791c0 3.225 2.486 7.178 2.486 7.178" stroke="#263238" stroke-linecap="round" stroke-linejoin="round"/><path d="M230.359 390.691c-6.976 8.378-14.455 16.325-22.395 23.796-22.474 20.398-40.308 43.361-43.375 61.737-3.067 18.376 7.655 33.671 18.892 36.738 11.237 3.067 24.999-3.569 40.81-23.478 9.108-11.449 27.325-45.028 42.423-77.113-23.003-6.107-32.495-15.626-36.355-21.68Zm51.849-191.585s-.886 71.031 1.784 84.357c2.671 13.326 26.639 35.959 54.202 36.844 27.564.886 49.285-24.417 51.942-37.743 2.657-13.325 0-66.589-.436-87.899-.437-21.311-31.081-40.401-62.134-35.523-31.054 4.879-47.13 23.082-45.358 39.964Z" fill="#fff" stroke="#263238" stroke-linecap="round" stroke-linejoin="round"/><path d="M349.696 227.966s1.771 12.426 3.556 15.084c1.785 2.657 4.878 6.226-1.322 8.884-6.2 2.657-11.105-.45-11.105-3.557" stroke="#263238" stroke-linecap="round" stroke-linejoin="round"/><path d="M356.358 271.909s-23.981 3.067-34.636-7.509c0 0 2.644 16.433 10.655 19.103 8.011 2.67 23.981-11.594 23.981-11.594Z" fill="#fff" stroke="#263238" stroke-linecap="round" stroke-linejoin="round"/><path d="m325.278 228.402 2.221 7.099" stroke="#263238" stroke-linecap="round" stroke-linejoin="round"/><path d="M315.509 235.065s6.213 3.966 17.754.436" stroke="#263238" stroke-width="2" stroke-linecap="round" stroke-linejoin="round"/><path d="m368.785 228.402 2.221 7.099" stroke="#263238" stroke-linecap="round" stroke-linejoin="round"/><path d="M359.016 235.065s6.213 3.966 17.767.436m-64.381-19.526c2.17-2.894 4.985-5.243 8.22-6.861 3.235-1.618 6.803-2.459 10.421-2.459m23.98-.899s12.877-3.543 21.761 6.61" stroke="#263238" stroke-width="2" stroke-linecap="round" stroke-linejoin="round"/><path d="M338.433 224.74c1.128 1.926 1.709 4.123 1.681 6.354-.028 2.232-.664 4.414-1.84 6.311l-.251.396c-1.856 2.981-4.44 5.44-7.51 7.144-3.069 1.705-6.522 2.6-10.033 2.599h-2.776c-2.822 0-5.594-.742-8.04-2.15-2.445-1.408-4.478-3.434-5.894-5.874v0c-1.039-1.789-1.649-3.794-1.782-5.859-.133-2.064.214-4.132 1.015-6.039.963-2.294 2.548-4.273 4.575-5.714 2.028-1.441 4.417-2.287 6.9-2.443l12.638-.793c2.264-.137 4.521.358 6.519 1.429 1.998 1.072 3.659 2.678 4.798 4.639v0Zm14.541 0c-1.128 1.926-1.709 4.123-1.681 6.354.028 2.232.664 4.414 1.84 6.311l.251.396c1.856 2.981 4.44 5.44 7.51 7.145 3.069 1.704 6.522 2.599 10.033 2.599h2.776c2.822-.001 5.594-.743 8.04-2.151 2.445-1.408 4.478-3.434 5.894-5.874v0c1.042-1.788 1.654-3.794 1.787-5.859s-.216-4.132-1.02-6.039v0c-.963-2.294-2.548-4.272-4.575-5.714-2.028-1.441-4.417-2.287-6.9-2.443l-12.625-.793c-2.265-.137-4.524.358-6.524 1.43-2.001 1.071-3.664 2.677-4.806 4.638v0Zm-13.048 2.327s3.966-3.107 11.541 0m-16.868-6.65h21.76m-53.383 7.192h-20.768" stroke="#263238" stroke-linecap="round" stroke-linejoin="round"/><path d="M361.686 180.453s11.502 36.937 28.965 46.482c-.383-12.665-.832-24.563-.991-32.27-.45-21.311-31.08-40.401-62.134-35.523-31.054 4.879-47.063 23.082-45.292 39.964 0 0-.145 11.594-.132 26.308 14.991-6.464 54.466-24.47 79.584-44.961Z" fill="#263238"/><path d="M279.128 215.711s58.234-24.418 89.711-55.418m-94.418 35.693s61.064-14.092 96.295-51.201m2.34 19.725s.938 23.954 26.307 46.032" stroke="#737373" stroke-linecap="round" stroke-linejoin="round"/><path d="M366.445 313.565s0 16.102-12.07 41.762c-12.069 25.66-12.585 51.32-4.534 70.436 8.051 19.117 29.692 26.678 52.88 18.125 23.188-8.553 26.162-46.799 23.651-69.947-2.512-23.148-25.118-50.315-30.195-63.906-5.076-13.59-8.553-20.623-8.553-20.623s-13.088 18.112-21.152 22.131l-.027 2.022Z" fill="#263238"/><path d="M374.932 295.56c2.909 21.959-.004 44.298-8.447 64.778-14.093 33.816-3.292 69.986 13.154 77.495 16.445 7.509 32.402 4.706 40.387-5.632" stroke="#737373" stroke-linecap="round" stroke-linejoin="round"/><path d="M381.04 288.051s15.97 37.571 9.399 65.756c-6.57 28.185-3.754 63.945 15.97 70.925 19.724 6.98 31.001-6.98 31.001-6.98" stroke="#737373" stroke-linecap="round" stroke-linejoin="round"/><path d="M400.301 312.468s13.617 51.664 13.617 78.434c0 26.771 16.446 22.553 20.676 9.4" stroke="#737373" stroke-linecap="round" stroke-linejoin="round"/><path d="M366.445 313.565s0 16.102-12.07 41.762c-12.069 25.66-12.585 51.32-4.534 70.436 8.051 19.117 29.692 26.678 52.88 18.125 23.188-8.553 26.162-46.799 23.651-69.947-2.512-23.148-25.118-50.315-30.195-63.906-5.076-13.59-8.553-20.623-8.553-20.623s-13.088 18.112-21.152 22.131l-.027 2.022Z" stroke="#263238" stroke-linecap="round" stroke-linejoin="round"/><path d="m428.54 455.994-85.833-3.462c-3.787-.153-6.98 2.792-7.132 6.579l-4.781 118.513c-.153 3.786 2.793 6.98 6.579 7.132l85.834 3.463c3.786.153 6.979-2.793 7.132-6.579l4.781-118.514c.152-3.786-2.793-6.979-6.58-7.132Z" fill="#263238" stroke="#263238" stroke-linecap="round" stroke-linejoin="round"/><path d="M472.272 503.933s-43.944-13.669-51.439-15.97c-7.496-2.3-50.673 29.944-52.391 34.544-1.719 4.601 4.6 4.614 4.6 4.614s-2.644 4.601 1.322 6.901c1.251.842 2.579 1.564 3.966 2.155 0 0-2.3 5.182 2.301 6.914 4.6 1.732 10.946-2.882 10.946-2.882l10.364-7.483s-12.453 15.243-9.796 18.429c3.662 4.363 6.002-.317 6.002-.317l14.317-16.961 14.384-6.915s11.514 6.915 29.943 7.483c18.429.568 22.474-7.483 22.474-7.483" fill="#fff"/><path d="M472.272 503.933s-43.944-13.669-51.439-15.97c-7.496-2.3-50.673 29.944-52.391 34.544-1.719 4.601 4.6 4.614 4.6 4.614s-2.644 4.601 1.322 6.901c1.251.842 2.579 1.564 3.966 2.155 0 0-2.3 5.182 2.301 6.914 4.6 1.732 10.946-2.882 10.946-2.882l10.364-7.483s-12.453 15.243-9.796 18.429c3.662 4.363 6.002-.317 6.002-.317l14.317-16.961 14.384-6.915s11.514 6.915 29.943 7.483c18.429.568 22.474-7.483 22.474-7.483" stroke="#263238" stroke-linecap="round" stroke-linejoin="round"/><path d="M378.422 536.177s16.142-11.079 20.161-15.084c4.019-4.006 17.04-12.374 21.059-12.374m-17.608 24.047s7.932-8.963 10.919-10.298c2.988-1.336 7.351-3.345 7.351-3.345m-47.262 7.998s22.475-15.864 30.169-20.531c4.6-2.807 9.404-5.269 14.37-7.363" stroke="#263238" stroke-linecap="round" stroke-linejoin="round"/></svg>