<svg width="382" height="255" fill="none" xmlns="http://www.w3.org/2000/svg"><path d="M204.752 110.201c-4.667-3.136-10.261-4.59-15.862-4.124-5.602.466-10.879 2.825-14.965 6.69-4.086 3.864-6.739 9.005-7.524 14.578-.784 5.573.347 11.248 3.207 16.092m43.955-22.71c-.482-1.087-1.041-2.138-1.67-3.147m-.443 27.066c1.847-2.752 3.127-5.847 3.763-9.101.637-3.254.618-6.603-.055-9.85m-48.855-19.554c-1.686 1.693-3.196 3.552-4.508 5.549" stroke="#263238" stroke-width=".969642" stroke-linecap="round" stroke-linejoin="round"/><path d="M218.413 152.097c4.986-6.454 7.552-14.456 7.249-22.611-.302-8.155-3.454-15.945-8.906-22.01-5.452-6.066-12.857-10.0233-20.924-11.1815-8.067-1.1582-16.285.556-23.219 4.8435m-9.28 50.959c-3.44-4.458-5.752-9.684-6.738-15.231-.987-5.547-.618-11.25 1.074-16.623m-5.241 40.662c2.165 2.768 4.62 5.295 7.324 7.538" stroke="#263238" stroke-width=".969642" stroke-linecap="round" stroke-linejoin="round"/><path d="M218.534 90.4383c-8.719-5.979-19.14-8.966-29.698-8.5129-10.558.453-20.686 4.3216-28.862 11.0255-8.177 6.7038-13.963 15.8821-16.49 26.1571-2.526 10.275-1.658 21.093 2.476 30.832m90.503-36.832c-1.312-3.389-2.999-6.62-5.027-9.634m-6.769 62.638c4.774-4.56 8.572-10.044 11.164-16.118 2.593-6.075 3.926-12.614 3.917-19.22m-117.101 0c.001 16.229 5.74 31.934 16.2 44.331 10.461 12.396 24.967 20.683 40.948 23.392" stroke="#263238" stroke-width=".969642" stroke-linecap="round" stroke-linejoin="round"/><path d="M246.008 171.641c8.355-11.321 13.036-24.939 13.409-39.011.373-14.072-3.581-27.919-11.325-39.668-7.745-11.7486-18.906-20.8314-31.975-26.0197-13.069-5.1882-27.415-6.2314-41.095-2.9883m-52.375 66.82c.001-15.395 5.166-30.345 14.668-42.4487 9.501-12.1043 22.788-20.6619 37.728-24.2999M231.436 186.15c1.742-1.282 3.418-2.642 5.027-4.08m-34.151 16.427c7.8-1.308 15.313-3.965 22.202-7.854" stroke="#263238" stroke-width=".969642" stroke-linecap="round" stroke-linejoin="round"/><path d="M190.903 192.347c-6.946-.009-13.605-2.775-18.517-7.693-4.912-4.918-7.675-11.587-7.683-18.542v-8.833c0-.379.15-.742.418-1.01.267-.268.63-.418 1.008-.418h3.566c.378 0 .741.15 1.008.418s.418.631.418 1.01-.151.742-.418 1.01-.63.418-1.008.418h-2.124v7.405c0 6.2 2.46 12.147 6.838 16.531 4.379 4.384 10.317 6.848 16.51 6.848 6.192 0 12.13-2.464 16.509-6.848 4.378-4.384 6.838-10.331 6.838-16.531v-7.405h-2.139c-.378 0-.741-.15-1.008-.418-.268-.268-.418-.631-.418-1.01s.15-.742.418-1.01c.267-.268.63-.418 1.008-.418h3.565c.379 0 .741.15 1.009.418.267.268.418.631.418 1.01v8.833c-.008 6.958-2.774 13.629-7.689 18.547-4.915 4.919-11.578 7.683-18.527 7.688Zm27.626 21.95v-2.856c.001-.375-.072-.747-.215-1.094-.143-.347-.354-.662-.619-.927s-.579-.476-.926-.619c-.346-.143-.717-.217-1.092-.216h-49.548c-.375-.001-.746.073-1.092.216-.347.143-.661.354-.926.619s-.475.58-.618.927c-.143.347-.217.719-.216 1.094v2.856h55.252Z" fill="#263238"/><path d="M193.684 212.063c.047-.204.071-.413.071-.622v-20.523h-5.704v20.523c0 .209.024.418.071.622h5.562Z" fill="#263238"/><path d="M208.547 130.774c.04-2.345-.388-4.675-1.256-6.854-.869-2.179-2.163-4.162-3.805-5.835-1.643-1.673-3.602-3.002-5.762-3.908-2.161-.907-4.48-1.375-6.823-1.375s-4.662.468-6.823 1.375c-2.161.906-4.119 2.235-5.762 3.908-1.643 1.673-2.936 3.656-3.805 5.835-.869 2.179-1.296 4.509-1.256 6.854v35.338c.079 4.634 1.972 9.052 5.273 12.301 3.301 3.25 7.744 5.07 12.373 5.07s9.072-1.82 12.373-5.07c3.3-3.249 5.194-7.667 5.273-12.301v-35.338Z" stroke="#263238" stroke-width=".969642" stroke-linecap="round" stroke-linejoin="round"/><path d="M208.547 130.774c.04-2.345-.388-4.675-1.256-6.854-.869-2.179-2.163-4.162-3.805-5.835-1.643-1.673-3.602-3.002-5.762-3.908-2.161-.907-4.48-1.375-6.823-1.375s-4.662.468-6.823 1.375c-2.161.906-4.119 2.235-5.762 3.908-1.643 1.673-2.936 3.656-3.805 5.835-.869 2.179-1.296 4.509-1.256 6.854v35.338c.079 4.634 1.972 9.052 5.273 12.301 3.301 3.25 7.744 5.07 12.373 5.07s9.072-1.82 12.373-5.07c3.3-3.249 5.194-7.667 5.273-12.301v-35.338Z" fill="#E8E8E8"/><path d="M183.594 132.636h-10.339v4.284h10.339c.568 0 1.112-.226 1.513-.628.401-.401.627-.946.627-1.514 0-.568-.226-1.113-.627-1.515-.401-.402-.945-.627-1.513-.627Zm24.953 0h-10.335c-.567 0-1.111.225-1.512.627s-.627.947-.627 1.515.226 1.113.627 1.514c.401.402.945.628 1.512.628h10.335v-4.284Zm-17.644 0c-.423 0-.836.125-1.188.361-.352.235-.626.57-.788.961-.162.391-.204.822-.122 1.238.083.415.287.797.586 1.096.299.3.68.504 1.095.587.415.082.845.04 1.236-.122s.725-.437.96-.789c.235-.352.361-.767.361-1.19 0-.568-.226-1.113-.627-1.515-.401-.402-.945-.627-1.513-.627Zm0 8.66c-.423 0-.836.125-1.188.361-.352.235-.626.569-.788.961-.162.391-.204.822-.122 1.237.083.416.287.798.586 1.097.299.3.68.504 1.095.586.415.083.845.041 1.236-.122.391-.162.725-.436.96-.788.235-.353.361-.767.361-1.19 0-.569-.226-1.113-.627-1.515-.401-.402-.945-.627-1.513-.627Zm0 8.644c-.423 0-.836.126-1.188.361s-.626.57-.788.961c-.162.392-.204.822-.122 1.238.083.415.287.797.586 1.097.299.299.68.503 1.095.586.415.083.845.04 1.236-.122s.725-.437.96-.789c.235-.352.361-.766.361-1.19 0-.568-.226-1.113-.627-1.515-.401-.401-.945-.627-1.513-.627Zm-7.309-8.644h-10.339v4.284h10.339c.568 0 1.112-.226 1.513-.628.401-.402.627-.946.627-1.514 0-.569-.226-1.113-.627-1.515-.401-.402-.945-.627-1.513-.627Zm24.953 0h-10.335c-.567 0-1.111.225-1.512.627s-.627.946-.627 1.515c0 .568.226 1.112.627 1.514.401.402.945.628 1.512.628h10.335v-4.284Zm-24.953 8.644h-10.339v4.284h10.339c.568 0 1.112-.226 1.513-.627.401-.402.627-.947.627-1.515s-.226-1.113-.627-1.515c-.401-.401-.945-.627-1.513-.627Zm24.953 0h-10.335c-.567 0-1.111.226-1.512.627-.401.402-.627.947-.627 1.515s.226 1.113.627 1.515c.401.401.945.627 1.512.627h10.335v-4.284Z" fill="#fff"/><path d="M208.547 130.774c.04-2.345-.388-4.675-1.256-6.854-.869-2.179-2.163-4.162-3.805-5.835-1.643-1.673-3.602-3.002-5.762-3.908-2.161-.907-4.48-1.375-6.823-1.375s-4.662.468-6.823 1.375c-2.161.906-4.119 2.235-5.762 3.908-1.643 1.673-2.936 3.656-3.805 5.835-.869 2.179-1.296 4.509-1.256 6.854v35.338c.079 4.634 1.972 9.052 5.273 12.301 3.301 3.25 7.744 5.07 12.373 5.07s9.072-1.82 12.373-5.07c3.3-3.249 5.194-7.667 5.273-12.301v-35.338Z" stroke="#263238" stroke-width=".969642" stroke-miterlimit="10"/><path d="M173.255 166.112c.079 4.634 1.972 9.052 5.273 12.301 3.301 3.25 7.744 5.07 12.373 5.07 4.628 0 9.072-1.82 12.373-5.07 3.3-3.249 5.194-7.667 5.273-12.301h-35.292Z" fill="#263238" stroke="#263238" stroke-width=".969642" stroke-miterlimit="10"/><path d="M340.58 157.211c22.035-22.063 22.035-57.8357 0-79.8995-22.034-22.0638-57.76-22.0637-79.795 0-22.035 22.0638-22.035 57.8365 0 79.8995 22.035 22.064 57.761 22.064 79.795 0Z" fill="#E8E8E8"/><path d="M292.592 93.8859h-39.417c-1.986 0-3.596 1.612-3.596 3.6006v39.4685c0 1.989 1.61 3.601 3.596 3.601h39.417c1.986 0 3.596-1.612 3.596-3.601V97.4865c0-1.9886-1.61-3.6006-3.596-3.6006Z" fill="#fff"/><path opacity=".1" d="M253.974 140.561h15.555l9.912-46.6751h-16.187l-9.896 46.6241c.204.032.41.049.616.051Zm32.058-46.6751h-3.892l-9.906 46.6751h3.891l9.907-46.6751Z" fill="#000"/><path d="M291.792 141.724h-37.818c-1.471-.003-2.882-.588-3.923-1.629s-1.629-2.452-1.634-3.925V98.2872c.003-1.4748.589-2.8885 1.631-3.9314 1.041-1.0429 2.453-1.63 3.926-1.6327h37.818c1.474.0014 2.887.5879 3.929 1.6309 1.043 1.043 1.63 2.4575 1.633 3.9332V136.17c-.006 1.474-.594 2.886-1.636 3.927-1.042 1.041-2.454 1.626-3.926 1.627Zm-37.818-46.6702c-.857 0-1.679.3405-2.285.9468-.607.6062-.948 1.4286-.949 2.2866V136.17c0 .859.34 1.684.947 2.292.606.608 1.429.95 2.287.952h37.818c.425 0 .846-.084 1.239-.247.392-.163.749-.402 1.05-.704.3-.301.538-.659.7-1.052.163-.394.246-.815.245-1.241V98.2872c0-.425-.084-.8459-.246-1.2385-.163-.3926-.401-.7493-.701-1.0496-.301-.3003-.657-.5384-1.05-.7006-.392-.1622-.813-.2453-1.237-.2447h-37.818Z" fill="#fff" stroke="#263238" stroke-width=".932567" stroke-miterlimit="10"/><path d="M347.411 93.8859h-39.417c-1.986 0-3.596 1.612-3.596 3.6006v39.4685c0 1.989 1.61 3.601 3.596 3.601h39.417c1.986 0 3.596-1.612 3.596-3.601V97.4865c0-1.9886-1.61-3.6006-3.596-3.6006Z" fill="#fff"/><path opacity=".1" d="M312.863 140.561h15.555l9.907-46.6751h-16.182l-9.922 46.6241c.212.033.427.051.642.051Zm32.057-46.6751h-3.891l-9.912 46.6751h3.897l9.906-46.6751Z" fill="#000"/><path d="M346.612 141.724h-37.818c-1.472-.003-2.882-.588-3.923-1.629s-1.629-2.452-1.634-3.925V98.2872c.003-1.4748.589-2.8885 1.63-3.9314 1.042-1.0429 2.454-1.63 3.927-1.6327h37.818c1.473.0014 2.887.5879 3.929 1.6309 1.043 1.043 1.63 2.4575 1.633 3.9332V136.17c-.006 1.474-.594 2.886-1.636 3.927-1.043 1.041-2.454 1.626-3.926 1.627Zm-37.818-46.6702c-.857 0-1.679.3405-2.286.9468-.606.6062-.947 1.4286-.949 2.2866V136.17c0 .859.341 1.684.947 2.292.607.608 1.429.95 2.288.952h37.818c.425 0 .846-.084 1.239-.247.392-.163.749-.402 1.049-.704.301-.301.539-.659.701-1.052.162-.394.246-.815.245-1.241V98.2872c0-.425-.084-.8459-.246-1.2385-.163-.3926-.401-.7493-.702-1.0496-.3-.3003-.657-.5384-1.049-.7006-.392-.1622-.813-.2453-1.237-.2447h-37.818Z" fill="#fff" stroke="#263238" stroke-width=".932567" stroke-miterlimit="10"/><path d="M302.208 226.17c14.017 0 25.38-1.674 25.38-3.739 0-2.064-11.363-3.738-25.38-3.738s-25.38 1.674-25.38 3.738c0 2.065 11.363 3.739 25.38 3.739Z" fill="#E8E8E8"/><path d="M313.423 200.654s-.066 10.471-1.171 12.195c-1.319 2.04-2.256 4.89 1.238 5.666 3.494.775 5.572 4.635 9.733 4.89 4.161.255 4.584-1.53 2.771-2.963-1.814-1.433-6.418-5.406-7.024-7.338-.606-1.933.57-12.45.57-12.45h-6.117Z" fill="#fff"/><path opacity=".1" d="M318.985 206.734c.224-3.086.555-6.08.555-6.08h-6.112s0 2.678-.178 5.549c1.894.336 3.812.513 5.735.531Z" fill="#000"/><path d="M313.423 200.654s-.066 10.471-1.171 12.195c-1.319 2.04-2.256 4.89 1.238 5.666 3.494.775 5.572 4.635 9.733 4.89 4.161.255 4.584-1.53 2.771-2.963-1.814-1.433-6.418-5.406-7.024-7.338-.606-1.933.57-12.45.57-12.45h-6.117Z" stroke="#263238" stroke-width=".932567" stroke-linecap="round" stroke-linejoin="round"/><path d="M325.974 220.442c-1.699-1.347-3.312-2.8-4.829-4.35-1.451 1.102-5.704.061-6.957-.928-1.528-1.204-1.207-1.821-1.931-2.361l-.025.046c-1.319 2.04-2.257 4.89 1.238 5.666 3.494.775 5.572 4.636 9.733 4.891 4.161.255 4.594-1.556 2.771-2.964Z" fill="#BFBFBF" stroke="#263238" stroke-width=".932567" stroke-miterlimit="10"/><path d="M289.928 196.86s-4.584 9.578-6.316 10.746c-2.093 1.397-4.171 3.646-1.304 5.65 2.868 2.005 3.122 6.319 6.825 8.099 3.703 1.78 4.859.276 3.815-1.688-1.044-1.963-3.565-7.339-3.285-9.338.28-1.999 5.918-11.429 5.918-11.429l-5.653-2.04Z" fill="#fff"/><path opacity=".1" d="M289.928 196.86s-1.64 3.437-3.326 6.441c1.361 1.351 2.929 2.476 4.645 3.331 1.757-3.407 4.335-7.717 4.335-7.717l-5.654-2.055Z" fill="#000"/><path d="M289.928 196.86s-4.584 9.578-6.316 10.746c-2.093 1.397-4.171 3.646-1.304 5.65 2.868 2.005 3.122 6.319 6.825 8.099 3.703 1.78 4.859.276 3.815-1.688-1.044-1.963-3.565-7.339-3.285-9.338.28-1.999 5.918-11.429 5.918-11.429l-5.653-2.04Z" stroke="#263238" stroke-width=".932567" stroke-linecap="round" stroke-linejoin="round"/><path d="M292.948 219.642c-.976-1.869-1.827-3.802-2.546-5.784-1.809.475-5.567-1.948-5.98-3.427-.8-2.851-.326-2.116-.759-2.881l-.041.03c-2.093 1.398-4.171 3.647-1.304 5.651 2.868 2.004 3.123 6.319 6.825 8.099 3.703 1.78 4.849.275 3.805-1.688Z" fill="#BFBFBF" stroke="#263238" stroke-width=".932567" stroke-miterlimit="10"/><path d="M314.162 129.086s7.014 33.66 7.482 44.64c.469 10.981-1.355 30.565-1.355 30.565l-7.787-.51s-.051-5.789-.831-13.847c-.463-4.789-1.92-10.378-1.757-16.029 0 0-7.4-21.976-7.13-31.62.27-9.644 0-12.419 0-12.419l11.378-.78Z" fill="#263238" stroke="#263238" stroke-width=".932567" stroke-linecap="round" stroke-linejoin="round"/><path d="M295.413 129.086s-7.273 6.018-3.056 18.151c1.661 4.814 8.068 26.836 8.068 26.836-1.76 2.016-3.25 4.253-4.431 6.656-2.923 5.783-5.052 14.79-8.659 19.956l5.338 3.606s17.236-21.635 18.336-28.504c1.1-6.87-4.074-34.339-4.074-34.339l-1.656-11.163-9.866-1.199Z" fill="#263238" stroke="#263238" stroke-width=".932567" stroke-linecap="round" stroke-linejoin="round"/><path d="M327.67 106.274c-.096-1.14-.48-2.237-1.116-3.188.534-.703.996-1.458 1.38-2.254.388-.9332-.127-2.2541-1.202-.673-1.074 1.581-2.256 2.734-1.828 4.707.225 1.274-.006 2.587-.652 3.708l2.48 1.943 4.946-3.927-4.008-.316Z" fill="#fff" stroke="#263238" stroke-width=".932567" stroke-linecap="round" stroke-linejoin="round"/><path d="m329.999 96.1855-4.158 1.1319c-.382.1042-.608.4994-.504.8826l2.369 8.726c.104.383.499.609.881.505l4.159-1.132c.382-.104.608-.499.504-.883l-2.369-8.7253c-.104-.3832-.499-.6094-.882-.5052Z" fill="#263238" stroke="#263238" stroke-width=".932567" stroke-linecap="round" stroke-linejoin="round"/><path d="m330.91 96.7991-5.544 1.5092 2.312 8.5137 5.544-1.509-2.312-8.5139Z" fill="#E8E8E8" stroke="#263238" stroke-width=".932567" stroke-linecap="round" stroke-linejoin="round"/><path d="M329.799 99.7457c-.068-.2624-.237-.4872-.47-.6249-.233-.1377-.511-.1771-.773-.1095-.262.0677-.487.2368-.624.4701-.138.2334-.177.5119-.11.7746.067.255.398 1.453.51 1.877l1.976-.536c-.112-.393-.448-1.6371-.509-1.8513Zm-.184 3.2333c.245-.066.456-.221.593-.435.137-.215.189-.472.146-.722l-1.961.51c.085.242.258.443.484.563.227.12.49.15.738.084Z" fill="#263238"/><path d="m331.459 104.04-1.284.352-.265-.969c.366-.142.665-.415.842-.765.177-.35.218-.753.116-1.132l-.143-.51c-.002-.011-.007-.021-.013-.031-.006-.009-.015-.016-.024-.022-.01-.006-.02-.009-.031-.011-.012-.001-.023-.001-.033.003l-.214.056c-.011.002-.022.008-.031.015-.008.007-.016.016-.021.026-.005.01-.008.021-.009.032-.001.012.001.023.005.034.002.011.007.021.013.03.007.009.015.017.024.022.01.006.02.01.032.011.011.002.022.001.032-.002l.128-.036.117.434c.049.18.062.367.038.552-.023.185-.083.363-.176.525-.092.162-.216.304-.363.418-.147.114-.315.197-.495.246-.179.049-.367.062-.551.039-.185-.024-.363-.084-.525-.176-.161-.093-.303-.217-.417-.364-.114-.147-.197-.316-.246-.496l-.122-.433.127-.031c.022-.007.04-.022.051-.042.011-.019.015-.043.01-.065-.003-.011-.008-.021-.015-.03-.007-.01-.016-.017-.026-.023-.01-.006-.021-.009-.032-.011-.011-.001-.023 0-.034.003l-.209.056c-.011.003-.021.008-.03.015-.009.007-.017.016-.023.026-.005.01-.009.021-.01.032-.002.012-.001.023.002.034l.143.51c.103.378.342.705.671.918.329.213.725.296 1.111.235l.26.969-1.283.347c-.023.005-.043.016-.061.03-.019.014-.034.031-.045.051-.012.02-.019.042-.022.065-.003.023-.001.046.005.068l.046.168 3.24-.882-.046-.169c-.006-.022-.016-.043-.03-.061-.014-.018-.032-.033-.052-.045-.02-.011-.041-.018-.064-.021-.023-.003-.046-.001-.068.005Z" fill="#263238"/><path d="M331.984 98.787c-.51.0561-.933.8568-.775 1.984.158 1.127 1.192-.097 1.253-.454.061-.357.494-1.6269-.478-1.53Zm1.12 1.683c-.136-.002-.27.026-.394.083-.123.057-.232.141-.318.246-.087.105-.149.228-.182.36-.032.132-.035.269-.008.402.097 1.097.311.842.311.842.005.452.097.898.27 1.316.255.484.927-.25.927-.689 0-.438-.071-2.744-.606-2.56Z" fill="#fff" stroke="#263238" stroke-width=".932567" stroke-linecap="round" stroke-linejoin="round"/><path d="M332.518 102.382s.881-.26 1.09-.902l-1.09.902Z" fill="#fff"/><path d="M332.518 102.382s.881-.26 1.09-.902" stroke="#263238" stroke-width=".932567" stroke-linecap="round" stroke-linejoin="round"/><path d="M324.863 107.018c.171-.705.185-1.44.041-2.152-.428-1.974.748-3.131 1.828-4.707s1.589-.2602 1.202.673c-.384.796-.846 1.551-1.38 2.254.688.924 1.078 2.036 1.115 3.188v1.484" fill="#fff"/><path d="M324.863 107.018c.171-.705.185-1.44.041-2.152-.428-1.974.748-3.131 1.828-4.707s1.589-.2602 1.202.673c-.384.796-.846 1.551-1.38 2.254.688.924 1.078 2.036 1.115 3.188v1.484" stroke="#263238" stroke-width=".932567" stroke-linecap="round" stroke-linejoin="round"/><path d="M311.203 94.6917c1.772-.3723 2.317-.8262 2.317-.8262-1.329-5.3601 3.438-23.3886-11.587-24.2199-15.025-.8313-6.621 24.7146-6.621 24.7146l1.635.2091-.841-5.1357 1.956 5.2632c5.786.6273 9.494.51 11.827.2142-.317-2.3163-.349-4.6628-.097-6.987.294 2.2892.766 4.5519 1.411 6.7677Z" fill="#263238"/><path d="M301.928 69.9669c-.584-.5802-1.346-.9463-2.163-1.0388-.817-.0926-1.641.0937-2.34.5288" stroke="#263238" stroke-width=".932567" stroke-linecap="round" stroke-linejoin="round"/><path d="M313.372 97.9608v-.1632c-.03.0714-.061.1224 0 .1632Z" fill="#fff" stroke="#263238" stroke-width=".932567" stroke-linecap="round" stroke-linejoin="round"/><path d="m324.252 108.574-7.131 6.63.133-9.935c.024-1.5-.332-2.982-1.034-4.308-.701-1.3261-1.727-2.4528-2.98-3.2756l.27 26.1476c7.004.444 13.243-13.316 13.243-13.316-.254-.484-.609-.908-1.04-1.243-.432-.335-.93-.574-1.461-.7Z" fill="#fff"/><path opacity=".1" d="M316.026 120.625c-1.059.097-1.299-1.933-1.283-3.906-.297.742-.494 1.521-.586 2.315-.092 2.249-.092 4.478-.056 6.385 7.976-3.621 8.073-6.849 10.12-10.144-1.304 1.658-6.153 5.161-8.195 5.35Z" fill="#000"/><path d="m324.252 108.574-7.131 6.63.133-9.935c.024-1.5-.332-2.982-1.034-4.308-.701-1.3261-1.727-2.4528-2.98-3.2756l.27 26.1476c7.004.444 13.243-13.316 13.243-13.316-.254-.484-.609-.908-1.04-1.243-.432-.335-.93-.574-1.461-.7v0Z" stroke="#263238" stroke-width=".932567" stroke-linecap="round" stroke-linejoin="round"/><path d="m322.739 109.431 1.564-1.484 3.428 2.356-.999 1.662-3.993-2.534Z" fill="#E8E8E8" stroke="#263238" stroke-width=".932567" stroke-linecap="round" stroke-linejoin="round"/><path d="M316.057 110.16c-2.873 12.75-1.447 21.129-1.447 21.129s-6.932 4.922-21.504.75c0 0 2.649-6.594 1.936-11.623-.433-3.096-3.337-14.224-3.337-14.224s-1.375-4.865-.743-8.7922c1.217-.7905 3.825-1.7442 8.434-2.0808.077-.2581.13-.5227.158-.7904.147-1.2969.179-2.6041.097-3.9067-.066-1.53-.194-2.7489-.194-2.7489h5.562s.072 1.4076.25 3.06c.097.9741.234 2.0401.407 2.9581.086.4595.197.914.332 1.3616 5.551.8365 7.64 2.2848 8.042 3.5445 1.89 5.6818 2.618 8.6398 2.007 11.3628Z" fill="#fff" stroke="#263238" stroke-width=".932567" stroke-linecap="round" stroke-linejoin="round"/><path d="M305.284 91.8306c-.453 1.02-1.019 1.8258-2.979 1.8156-1.457 0-2.771-1.2903-2.919-1.785.158-1.1169 0-1.53-.066-2.7948 1.873-.0529 3.748.0563 5.602.3264.08.8183.2 1.6319.362 2.4378Z" fill="#263238"/><path d="M308.982 80.9115v-1.2189c-.413-1.9788-2.858-2.0808-3.983-2.0757-1.187.0385-2.37-.1681-3.474-.6069.362.866.96 1.612 1.727 2.1522-4.187-.9333-4.513-3.1467-4.355-4.3401-1.487 5.2071-3.418 5.4264-3.418 5.4264s0 .4641.087 1.2138c-.5.1149-.942.4068-1.244.8219-.302.4151-.445.9256-.401 1.4374-.006.5514.204 1.0831.585 1.4814.381.3984.902.6318 1.452.6504.11-.0049.219-.0202.326-.0459.886 3.4476 2.705 7.1961 6.428 7.0482 3.723-.1479 5.241-4.0341 5.842-7.5429.11.0102.221.0102.331 0 .552-.0554 1.06-.3275 1.412-.7566.352-.4291.52-.9803.467-1.5333.002-.5066-.176-.9974-.503-1.3843-.326-.3869-.78-.6446-1.279-.7271Z" fill="#fff" stroke="#263238" stroke-width=".932567" stroke-linecap="round" stroke-linejoin="round"/><path d="m301.525 86.751.642.4641c.081.0604.179.0931.28.0931.101 0 .199-.0327.28-.0931l.591-.4539m.652-2.9121s.795-1.0506 2.379-.3111m-5.842.3111s-.79-1.0506-2.379-.3111m5.873 5.0643c-.442.3501-.983.5511-1.546.574-.563.0229-1.118-.1334-1.587-.4465" stroke="#263238" stroke-width=".932567" stroke-linecap="round" stroke-linejoin="round"/><path d="M310.729 176.904c-.181.559-.392 1.109-.631 1.647m-6.805-38.811 1.66 1.489c1.482 1.328 2.456 3.131 2.756 5.1 1.421 9.053 3.703 18.36 3.423 28.193" stroke="#fff" stroke-width=".932567" stroke-linecap="round" stroke-linejoin="round"/><path d="m309.578 140.005-2.633 3.769.331-.464" stroke="#fff" stroke-width=".932567" stroke-linecap="round" stroke-linejoin="round"/><path d="m299.172 124.884.754.775m-6.209-11.46c.793 3.253 2.204 6.323 4.156 9.043" stroke="#263238" stroke-width=".932567" stroke-linecap="round" stroke-linejoin="round"/><path d="m293.864 79.7112-.565.0227.081 2.0129.564-.0227-.08-2.0129Zm17.241-.7266-.565.0228.081 2.0129.565-.0228-.081-2.0129Z" fill="#fff" stroke="#263238" stroke-width=".932567" stroke-linecap="round" stroke-linejoin="round"/><path d="M301.846 70.5738c-2.399.0976-4.667 1.1223-6.327 2.8588-1.66 1.7366-2.583 4.0498-2.576 6.4538.001.0451.01.0896.028.1308.019.0413.045.0785.078.1094.032.031.071.055.113.0706.042.0157.087.0227.132.0207h.596c.088-.004.17-.0419.23-.1057s.093-.1485.091-.236c.014-2.0624.821-4.04 2.253-5.5224 1.432-1.4824 3.379-2.3555 5.438-2.4382 2.058-.0827 4.068.6314 5.614 1.9941 1.547 1.3627 2.509 3.2693 2.688 5.3239.005.087.045.1685.11.2267.064.0582.15.0886.237.0844h.595c.045-.0013.089-.0116.13-.0305.041-.0188.077-.0458.107-.0791.03-.0334.053-.0726.068-.1151.014-.0425.02-.0875.016-.1323-.171-2.4062-1.271-4.6511-3.067-6.259-1.796-1.6079-4.147-2.4525-6.554-2.3549Zm-6.942 10.3683h-.132c-.384.0158-.761.1071-1.11.2687-.349.1617-.662.3905-.923.6735-.525.5715-.803 1.3287-.771 2.1051.032.7764.37 1.5083.941 2.0349.57.5265 1.327.8044 2.102.7726h.127l-.234-5.8548Z" fill="#E8E8E8" stroke="#263238" stroke-width=".932567" stroke-linecap="round" stroke-linejoin="round"/><path d="M295.693 83.8338c.087 2.1726.24 3.57-.509 3.6159-.749.0459-1.064-1.3719-1.151-3.57-.087-2.1981.112-3.57.861-3.621.749-.051.713 1.4025.799 3.5751Z" fill="#fff" stroke="#263238" stroke-width=".932567" stroke-linecap="round" stroke-linejoin="round"/><path d="M309.624 80.3505h.132c.384-.0154.767.0451 1.128.1779.36.1329.691.3356.974.5966.282.2609.51.575.671.9243.161.3492.252.7269.268 1.1113.015.3844-.045.7681-.178 1.1292s-.335.6924-.596.9751c-.26.2828-.574.5113-.923.6727-.349.1613-.726.2523-1.11.2677h-.132l-.234-5.8548Z" fill="#E8E8E8" stroke="#263238" stroke-width=".932567" stroke-linecap="round" stroke-linejoin="round"/><path d="M309.043 83.2983c.087 2.1726.051 3.57.8 3.57.748 0 .947-1.4535.86-3.6261-.086-2.1726-.402-3.57-1.146-3.5445-.743.0255-.601 1.428-.514 3.6006Z" fill="#fff" stroke="#263238" stroke-width=".932567" stroke-linecap="round" stroke-linejoin="round"/><path d="M297.028 81.9213s1.94-1.6065 3.779-.153m6.871-.1683s-2.037-1.4433-3.779.153" stroke="#263238" stroke-width=".932567" stroke-linecap="round" stroke-linejoin="round"/><path d="M298.663 94.6101s1.161 2.9172 5.47 3.57c0 0-1.721 3.5699-4.074 2.1679-2.817-1.6732-3.357-5.1463-3.357-5.1463l1.961-.5916Z" fill="#E8E8E8" stroke="#263238" stroke-width=".932567" stroke-linecap="round" stroke-linejoin="round"/><path d="M306.558 94.9722c.016.7766-.242 1.534-.728 2.1393-.487.6052-1.17 1.0197-1.931 1.1706 0 0 2.093 3.4369 3.81 1.53 1.716-1.9074.382-4.5033.382-4.5033l-1.533-.3366Zm-.958 10.1238c0 .101-.03.199-.086.283-.056.084-.135.149-.228.188-.093.038-.196.049-.294.029-.099-.02-.19-.068-.261-.14-.072-.071-.12-.162-.14-.261-.019-.099-.009-.201.029-.294.039-.094.104-.173.188-.229.084-.056.182-.086.283-.086.135 0 .264.053.36.149.096.096.149.225.149.361Zm.693 10.042c0 .1-.03.199-.086.283-.056.084-.136.149-.229.188-.093.038-.195.048-.294.029-.099-.02-.19-.068-.261-.14-.071-.071-.12-.162-.139-.261-.02-.099-.01-.201.029-.295.038-.093.104-.172.187-.228.084-.057.183-.086.283-.086.135 0 .265.053.36.149.096.096.15.225.15.361Zm.651 10.281c0 .101-.029.2-.085.284-.056.083-.136.149-.229.187-.093.039-.195.049-.294.029-.099-.019-.19-.068-.261-.139-.071-.072-.12-.162-.139-.261-.02-.099-.01-.202.029-.295.038-.093.103-.173.187-.229.084-.056.182-.086.283-.086.135 0 .265.054.36.15.096.095.149.225.149.36Z" fill="#E8E8E8" stroke="#263238" stroke-width=".932567" stroke-linecap="round" stroke-linejoin="round"/><path d="M351.827 57.0435H248.626c-.478 0-.866.3881-.866.867v1.8615c0 .4788.388.867.866.867h103.201c.478 0 .866-.3882.866-.867v-1.8615c0-.4789-.388-.867-.866-.867Z" fill="#fff"/><path d="M351.654 60.639H248.799m0-3.5955h102.855" stroke="#263238" stroke-width=".932567" stroke-linecap="round" stroke-linejoin="round"/><path d="M280.816 81.2379s-4.253-.5967-4.482.5457c-.229 1.1424-.102 2.9733.631 3.57 1.386 1.1322 1.131 3.2487 1.131 3.2487l3.565-.3468.092-1.785c.183-.5823.511-1.1087.953-1.53 1.283-1.2087.774-2.55.555-4.1667-.219-1.6167-1.284-.8976-1.37-.0612-.026.7458.036 1.4921.183 2.2236l-1.258-1.6983Z" fill="#fff" stroke="#263238" stroke-width=".932567" stroke-linecap="round" stroke-linejoin="round"/><path d="M281.814 82.8087s-1.019.2091-1.823 1.6524l1.823-1.6524Z" fill="#fff"/><path d="M281.814 82.8087s-1.019.2091-1.823 1.6524" stroke="#263238" stroke-width=".932567" stroke-linecap="round" stroke-linejoin="round"/><path d="M281.814 83.1861h-5.154c-.358.0108-.712-.0641-1.035-.2184-.322-.1544-.603-.3838-.819-.669-.185-.2592-.284-.5693-.284-.8874 0-.3181.099-.6283.284-.8874l2.577-3.7893c.223-.2814.506-.5087.829-.665.323-.1563.677-.2374 1.035-.2374.359 0 .713.0811 1.035.2374.323.1563.607.3836.829.665l2.583 3.7893c.184.2591.283.5693.283.8874 0 .3181-.099.6282-.283.8874-.218.2895-.503.5215-.831.6761-.327.1546-.687.2271-1.049.2113Zm-6.112-2.244c-.097.1352-.149.2975-.149.4641 0 .1665.052.3288.149.4641.113.1476.259.2662.426.346.167.0799.351.1186.537.113h5.149c.186.006.37-.0325.537-.1124.168-.0798.314-.1987.426-.3466.098-.135.15-.2974.15-.4641 0-.1668-.052-.3292-.15-.4641l-2.577-3.7842c-.113-.1513-.26-.273-.429-.3547-.17-.0818-.356-.1211-.544-.1145-.188-.007-.374.0321-.542.1139-.169.0818-.315.2038-.426.3553l-2.582 3.7893.025-.0051Z" fill="#263238"/><path d="M277.693 81.2889c.265 1.3464.102 1.8258-.509 1.7544-.611-.0714-1.227-1.7238-.382-2.1012.846-.3774 1.528-.6681 1.528-.6681.271-.1466.572-.228.88-.2377.307-.0098.613.0524.893.1816 1.212-.4233 1.426.459 1.426.459s.876 2.55.147 2.6367c-.728.0867-1.329-2.1267-1.329-2.1267s.912 2.4276.076 2.4684c-.835.0408-1.319-2.3562-1.319-2.3562s.545 2.1063-.244 2.1777c-.79.0714-1.167-2.1879-1.167-2.1879Zm1.926-21.6139h-.835v16.7433h.835V59.675Z" fill="#fff" stroke="#263238" stroke-width=".932567" stroke-linecap="round" stroke-linejoin="round"/><path d="m280.082 76.1583-.545.8007c-.035.0456-.081.0825-.133.1078-.052.0254-.109.0385-.167.0385-.058 0-.115-.0131-.167-.0385-.052-.0253-.098-.0622-.134-.1078l-.54-.8007c-.132-.1887.036-.4233.296-.4233h1.09c.265 0 .428.255.3.4233Zm-.397-5.6202h-.891c-.245 0-.443.1986-.443.4437v3.7128c0 .245.198.4437.443.4437h.891c.245 0 .443-.1987.443-.4437v-3.7128c0-.2451-.198-.4437-.443-.4437Zm0-14.0709h-.891c-.245 0-.443.1986-.443.4437v3.7128c0 .245.198.4437.443.4437h.891c.245 0 .443-.1987.443-.4437v-3.7128c0-.2451-.198-.4437-.443-.4437Z" fill="#fff" stroke="#263238" stroke-width=".932567" stroke-linecap="round" stroke-linejoin="round"/><path d="M269.697 83.186h-5.154c-.358.0109-.713-.064-1.035-.2183-.323-.1544-.604-.3838-.819-.6691-.185-.2591-.284-.5693-.284-.8874 0-.318.099-.6282.284-.8874l2.577-3.7892c.223-.2815.507-.5089.83-.6651.323-.1563.678-.2375 1.036-.2375.359 0 .714.0812 1.037.2375.323.1562.607.3836.83.6651l2.577 3.7892c.185.2592.284.5694.284.8874 0 .3181-.099.6283-.284.8874-.217.2895-.502.5216-.83.6762-.327.1546-.687.2271-1.049.2112Zm-6.112-2.244c-.097.1353-.149.2976-.149.4641 0 .1666.052.3289.149.4641.112.1477.258.2663.426.3461.167.0799.351.1186.537.1129h5.154c.186.0056.371-.033.539-.1128.168-.0798.315-.1984.429-.3462.097-.1352.149-.2975.149-.4641 0-.1665-.052-.3288-.149-.4641l-2.577-3.7842c-.113-.1512-.26-.2729-.429-.3547-.17-.0817-.356-.121-.544-.1145-.188-.007-.374.0321-.542.114-.169.0818-.315.2038-.426.3552l-2.582 3.7893.015-.0051Z" fill="#263238"/><path d="M267.502 59.675h-.835v16.7433h.835V59.675Z" fill="#fff" stroke="#263238" stroke-width=".932567" stroke-linecap="round" stroke-linejoin="round"/><path d="m267.965 76.1583-.565.8007c-.036.0456-.081.0825-.133.1078-.052.0254-.11.0385-.167.0385-.058 0-.115-.0131-.168-.0385-.052-.0253-.097-.0622-.133-.1078l-.54-.8007c-.132-.1887.036-.4233.296-.4233h1.09c.264 0 .448.255.32.4233Zm-.397-5.6202h-.891c-.245 0-.443.1986-.443.4437v3.7128c0 .245.198.4437.443.4437h.891c.245 0 .443-.1987.443-.4437v-3.7128c0-.2451-.198-.4437-.443-.4437Zm0-14.0709h-.891c-.245 0-.443.1986-.443.4437v3.7128c0 .245.198.4437.443.4437h.891c.245 0 .443-.1987.443-.4437v-3.7128c0-.2451-.198-.4437-.443-.4437Z" fill="#fff" stroke="#263238" stroke-width=".932567" stroke-linecap="round" stroke-linejoin="round"/><path d="M322.209 83.1861h-5.154c-.358.0117-.713-.0628-1.035-.2173-.323-.1544-.604-.3843-.819-.6701-.185-.2592-.284-.5693-.284-.8874 0-.3181.099-.6283.284-.8874l2.577-3.7893c.223-.2814.506-.5087.829-.665.323-.1563.677-.2374 1.035-.2374.359 0 .713.0811 1.035.2374.323.1563.607.3836.829.665l2.578 3.7893c.184.2591.283.5693.283.8874 0 .3181-.099.6282-.283.8874-.218.2887-.502.5204-.828.6749-.327.1546-.686.2275-1.047.2125Zm-6.112-2.244c-.098.1349-.15.2974-.15.4641 0 .1667.052.3291.15.4641.112.1479.258.2668.426.3466.167.0799.351.1184.537.1124h5.154c.186.006.37-.0325.537-.1124.168-.0798.314-.1987.426-.3466.098-.135.15-.2974.15-.4641 0-.1667-.052-.3292-.15-.4641l-2.577-3.7842c-.117-.1466-.265-.265-.433-.3464-.169-.0814-.353-.1237-.54-.1237-.187 0-.372.0423-.54.1237-.169.0814-.317.1998-.433.3464l-2.577 3.7893.02-.0051Z" fill="#263238"/><path d="M320.009 59.675h-.835v16.7433h.835V59.675Z" fill="#fff" stroke="#263238" stroke-width=".932567" stroke-linecap="round" stroke-linejoin="round"/><path d="m320.473 76.1583-.54.8007c-.036.0456-.082.0825-.134.1078-.052.0254-.109.0385-.167.0385-.058 0-.115-.0131-.167-.0385-.052-.0253-.097-.0622-.133-.1078l-.54-.8007c-.133-.1887.036-.4233.295-.4233h1.09c.26 0 .428.255.296.4233Zm-.392-5.6202h-.892c-.245 0-.443.1986-.443.4437v3.7128c0 .245.198.4437.443.4437h.892c.244 0 .443-.1987.443-.4437v-3.7128c0-.2451-.199-.4437-.443-.4437Zm0-14.0709h-.892c-.245 0-.443.1986-.443.4437v3.7128c0 .245.198.4437.443.4437h.892c.244 0 .443-.1987.443-.4437v-3.7128c0-.2451-.199-.4437-.443-.4437Z" fill="#fff" stroke="#263238" stroke-width=".932567" stroke-linecap="round" stroke-linejoin="round"/><path d="M333.756 83.186h-5.154c-.358.0109-.712-.064-1.035-.2183-.322-.1544-.603-.3838-.819-.6691-.185-.2591-.284-.5693-.284-.8874 0-.318.099-.6282.284-.8874l2.577-3.7892c.223-.2815.507-.5089.83-.6651.323-.1563.678-.2375 1.037-.2375.358 0 .713.0812 1.036.2375.323.1562.607.3836.83.6651l2.577 3.7892c.185.2592.284.5694.284.8874 0 .3181-.099.6283-.284.8874-.217.2895-.502.5216-.83.6762-.327.1546-.687.2271-1.049.2112Zm-6.112-2.244c-.097.1353-.149.2976-.149.4641 0 .1666.052.3289.149.4641.113.1477.259.2663.426.3461.167.0799.351.1186.537.1129h5.154c.186.0056.371-.033.539-.1128.168-.0798.315-.1984.429-.3462.097-.1352.149-.2975.149-.4641 0-.1665-.052-.3288-.149-.4641l-2.577-3.7842c-.112-.1512-.26-.2729-.429-.3547-.169-.0817-.356-.121-.544-.1145-.188-.007-.374.0321-.542.114-.169.0818-.315.2038-.426.3552l-2.582 3.7893.015-.0051Z" fill="#263238"/><path d="M331.561 59.675h-.835v16.7433h.835V59.675Z" fill="#fff" stroke="#263238" stroke-width=".932567" stroke-linecap="round" stroke-linejoin="round"/><path d="m332.024 76.1583-.545.8007c-.036.0456-.081.0825-.133.1078-.052.0254-.109.0385-.167.0385-.058 0-.115-.0131-.167-.0385-.052-.0253-.098-.0622-.134-.1078l-.54-.8007c-.132-.1887.036-.4233.296-.4233h1.09c.265 0 .428.255.3.4233Zm-.397-5.6202h-.891c-.245 0-.444.1986-.444.4437v3.7128c0 .245.199.4437.444.4437h.891c.245 0 .443-.1987.443-.4437v-3.7128c0-.2451-.198-.4437-.443-.4437Zm0-14.0709h-.891c-.245 0-.444.1986-.444.4437v3.7128c0 .245.199.4437.444.4437h.891c.245 0 .443-.1987.443-.4437v-3.7128c0-.2451-.198-.4437-.443-.4437Z" fill="#fff" stroke="#263238" stroke-width=".932567" stroke-linecap="round" stroke-linejoin="round"/><path d="m282.212 87.4497.27 2.1777-5.542.2601.463-2.1828 4.809-.255Z" fill="#E8E8E8" stroke="#263238" stroke-width=".932567" stroke-linecap="round" stroke-linejoin="round"/><path d="M291.608 105.754s-9.621 8.858-11.842 8.996c-.545.036-1.018.377-1.477.066-1.018-.693-2.49-2.162-2.276-8.129.112-3.264 2.083-16.8658 2.083-16.8658l3.565-.1581.866 15.2999c3.056-3.172 8.368-7.5683 8.374-7.5683 1.66 5.3143.707 8.3593.707 8.3593Z" fill="#fff" stroke="#263238" stroke-width=".932567" stroke-linecap="round" stroke-linejoin="round"/><path d="M315.873 118.07c.24-1.058.696-2.055 1.34-2.927l-1.34 2.927Z" fill="#fff"/><path d="M315.873 118.07c.24-1.058.696-2.055 1.34-2.927m-35.775-6.579c.371-.169 1.258-1.826 1.074-4.657" stroke="#263238" stroke-width=".932567" stroke-linecap="round" stroke-linejoin="round"/><path d="M284.855 72.2313v-6.0945c.001-.2944.119-.5764.327-.7847.208-.2082.489-.3257.783-.3271h9.555c.294.0014.576.1189.784.3271.208.2083.325.4903.327.7847v6.0945c0 .2949-.117.5777-.325.7862-.209.2085-.491.3256-.786.3256h-3.326l.265 2.3205h-1.716v2.193l-2.037-3.57h1.665l-.173-.9384h-4.238c-.146-.0006-.29-.0301-.424-.0866-.135-.0564-.257-.1389-.359-.2426-.103-.1037-.184-.2267-.239-.3618-.056-.1352-.084-.2799-.083-.4259Z" fill="#fff" stroke="#263238" stroke-width=".932567" stroke-linecap="round" stroke-linejoin="round"/><path d="M293.137 67.1108h-6.459m8.129 1.729h-8.129m6.876 1.7238h-6.876" stroke="#263238" stroke-width=".932567" stroke-linecap="round" stroke-linejoin="round"/><path d="M72.3457 223.074c13.1338 0 23.7808-1.569 23.7808-3.504s-10.647-3.503-23.7808-3.503c-13.1337 0-23.7808 1.568-23.7808 3.503s10.6471 3.504 23.7808 3.504Zm-2.0832-59.338c22.8723 0 41.4135-18.566 41.4135-41.469 0-22.9018-18.5412-41.4677-41.4135-41.4677-22.8722 0-41.4139 18.5659-41.4139 41.4677 0 22.903 18.5417 41.469 41.4139 41.469Z" fill="#E8E8E8"/><path d="M51.1622 149.384s1.0543 6.12-2.506 13h44.5209s-2.0373-3.208-4.1715-13H51.1622Z" fill="#fff" stroke="#263238" stroke-width=".87381" stroke-linecap="round" stroke-linejoin="round"/><path d="M61.3131 150.797c-2.4369.195-4.7726 1.061-6.7498 2.5-1.9772 1.44-3.519 3.399-4.4555 5.66-.4788 1.163-.9779 2.341-1.4516 3.442-2.7096 6.278-.1477 15.413 6.7792 15.413h31.7621c6.28 0 7.9965-7.962 6.494-13.959-.9678-3.856-2.9185-7.727-6.2496-10.44-4.4515-3.646-17.4599-3.31-26.1288-2.616Z" fill="#263238" stroke="#263238" stroke-width=".87381" stroke-linecap="round" stroke-linejoin="round"/><path d="M30.9878 144.06s-5.6944 3.447-5.8828 5.324h6.9829l2.7759-1.994-.9372 2.004h2.124s2.2563-1.754 2.3785-3.697l-.2292-1.637-4.0746-1.816-3.1375 1.816Z" fill="#fff" stroke="#263238" stroke-width=".87381" stroke-linecap="round" stroke-linejoin="round"/><path d="M97.6901 131.396s-.9117-6.002-2.9134-14.647c-2.0016-8.644-5.9133-9.323-5.9133-9.323h-.0357c-5.0933-2.193-18.336-3.376-18.336-3.376h-.6112s-13.2732 1.183-18.336 3.376h-.0356s-3.9473.694-5.949 9.323c-2.0017 8.629-2.9185 14.647-2.9185 14.647s-3.6163.98-10.1256 9.18c-1.0219 1.301-1.8918 2.714-2.5925 4.213 0 0 5.0017-1.647 8.5059.877 0 0 11.4804-4.875 12.0559-10.016 0-.184.0459-.388.0713-.607.326 7.803.6061 14.321.6061 14.321H89.169s.2852-6.518.6112-14.321c0 .219.0458.423.0662.607.5806 5.141 13.2886 10.904 13.2886 10.904 3.484-5.366 8.541-2.402 8.541-2.402l-13.9859-12.756Z" fill="#fff"/><path opacity=".3" d="M50.4851 135.66c0-.153.0408-.326.0611-.51l-.8302-18.059s-2.292.469-1.6349 6.013c.657 5.544 2.0373 4.59 1.2682 6.727-.7691 2.137-3.7538-.311-4.7419 1.53-.9881 1.841 5.5212 1.448 2.8319 6.191-2.6893 4.743-9.0101 8.16-9.0101 8.16s11.4855-4.901 12.0559-10.052Zm39.5398 0c0-.153 1.4974.112 0 0l.4533-15.458s-.112 7.477.6876 9.629c.7997 2.152 3.7538-.311 4.7368 1.53.983 1.841-5.5212 1.448-2.8268 6.191 2.6944 4.743 9.0052 8.16 9.0052 8.16s-11.4755-4.901-12.0561-10.052Zm-.5807 3.519c-.2496 5.85-.4381 10.2-.4381 10.2H54.835c22.92 0 34.6346-10.2 34.6346-10.2h-.0254Z" fill="#000"/><path d="M97.6901 131.396s-.9117-6.002-2.9133-14.647c-2.0017-8.644-5.9134-9.323-5.9134-9.323h-.0357c-5.0933-2.193-18.336-3.376-18.336-3.376h-.6112s-13.2732 1.183-18.336 3.376h-.0356s-3.9473.694-5.949 9.323c-2.0017 8.629-2.9185 14.647-2.9185 14.647s-3.6163.98-10.1256 9.18c-1.0219 1.301-1.8918 2.714-2.5925 4.213v0s5.0017-1.647 8.5059.877c0 0 11.4804-4.875 12.0559-10.016 0-.184.0459-.388.0713-.607.326 7.803.6061 14.321.6061 14.321H89.169s.2852-6.518.6112-14.321c0 .219.0458.423.0662.607.5806 5.141 13.2886 10.904 13.2886 10.904 3.484-5.366 8.541-2.402 8.541-2.402l-13.9859-12.756Z" stroke="#263238" stroke-width=".87381" stroke-linecap="round" stroke-linejoin="round"/><path d="M43.8584 131.361c1.8328-.092 3.6291.535 5.0067 1.749m-1.4261-15.478s2.3531.51 2.893 11.964l-.708-15.035m.7388 16.626.1072 2.321m46.0079-2.147c-1.8292-.099-3.6252.519-5.0067 1.724m-.9019-15.453c.0443-1.02.092-2.04.1431-3.06" stroke="#263238" stroke-width=".87381" stroke-linecap="round" stroke-linejoin="round"/><path d="M77.3015 104.876c-.6163 3.091-3.601 4.208-7.1969 4.208-3.5959 0-6.5704-1.112-7.1969-4.192h.1426c.3725-.051.7209-.214.9991-.467.2783-.253.4733-.585.5595-.951.0499-.146.0757-.3.0764-.454v-3.6261h11.0016v3.6261c-.0013.227.0401.452.1222.663.1186.315.3199.592.5825.802.2626.21.577.345.9099.391Z" fill="#fff"/><path d="M75.5949 102.107c-1.8234 1.795-3.8557 2.912-5.8166 2.999-2.0373.092-4.4006-1.581-5.3633-3.223.0398-.143.0587-.291.0561-.439v-1.112l11.0016.118v.994c0 .235.2801.51.1222.663Z" fill="#263238"/><path d="M77.3015 104.876c-.6163 3.091-3.601 4.208-7.1969 4.208-3.5959 0-6.5704-1.112-7.1969-4.192h.1426c.3725-.051.7209-.214.9991-.467.2783-.253.4733-.585.5595-.951.0499-.146.0757-.3.0764-.454v-3.6261h11.0016v3.6261c-.0013.227.0401.452.1222.663.1186.315.3199.592.5825.802.2626.21.577.345.9099.391v0Z" stroke="#263238" stroke-width=".87381" stroke-linecap="round" stroke-linejoin="round"/><path d="M62.0673 91.6063s-3.8149-4.3197-3.3157-10.2714c.4991-5.9517 5.3785-5.9517 5.3785-5.9517s5.8828-5.1969 12.4481-1.9431c6.5653 3.2538 6.112 14.535 1.253 17.34l-15.7639.8262Z" fill="#263238"/><path d="M78.8853 88.6992c.051-.9894.0459-1.6013.0459-1.6013-.438-2.6316-3.6519-2.8969-5.129-2.9428-6.1884-.2091-7.8183-4.0086-7.8183-4.0086-3.7538-1.1271-4.8183 6.9514-4.8183 6.9514s0 .6119.051 1.6013c-.6631.1268-1.2585.4881-1.6775 1.0181-.4189.53-.6334 1.1933-.6044 1.8686 0 1.6116 1.1613 2.912 2.5976 2.912.1453-.0007.2902-.0143.433-.0407l.6723 3.7943c.1273.8517.927 2.8665 1.6451 3.3455 1.528 1.02 3.9474 2.474 5.7657 2.474 1.5687 0 3.7691-1.296 5.3938-2.178.9067-.51 1.905-2.4634 1.9915-3.4885l.4228-3.8352c.2387-.0114.4768-.0352.713-.0714 1.4313 0 2.5977-1.3004 2.5977-2.912.029-.6753-.1855-1.3386-.6044-1.8686-.419-.53-1.0144-.8913-1.6775-1.0181Z" fill="#fff" stroke="#263238" stroke-width=".87381" stroke-linecap="round" stroke-linejoin="round"/><path d="M59.9331 86.2512h-.6724v2.397h.6724v-2.397Zm20.5415 0h-.6724v2.397h.6724v-2.397Z" fill="#fff" stroke="#263238" stroke-width=".87381" stroke-linecap="round" stroke-linejoin="round"/><path d="M69.8652 75.781c-2.8593-.0006-5.6074 1.1095-7.666 3.0965-2.0585 1.9871-3.2671 4.6962-3.3713 7.5574-.002.0533.0067.1064.0258.1562.0191.0498.0481.0951.0853.1333.0372.0382.0817.0684.1309.0887.0492.0204.1021.0305.1553.0298h.7131c.1036 0 .2031-.0405.2774-.1129.0742-.0724.1172-.171.1199-.2747.1133-2.4544 1.1669-4.7707 2.9416-6.4674 1.7747-1.6968 4.1342-2.6436 6.588-2.6436s4.8133.9468 6.588 2.6436c1.7747 1.6967 2.8283 4.013 2.9416 6.4674.004.1042.0481.2028.1231.2751.0751.0722.1752.1126.2793.1125h.708c.0534.0007.1065-.0094.156-.0297.0494-.0203.0943-.0505.1319-.0886.0375-.038.0671-.0833.0867-.1331.0197-.0498.0291-.1031.0277-.1566-.1054-2.8616-1.3151-5.5708-3.3745-7.5577-2.0593-1.987-4.808-3.0968-7.6678-3.0962Z" fill="#fff" stroke="#263238" stroke-width=".87381" stroke-linecap="round" stroke-linejoin="round"/><path d="M61.0793 87.7864h-.1528c-.9016.0345-1.7548.4174-2.3805 1.0683-.6257.6509-.9752 1.5192-.9752 2.4226 0 .9035.3495 1.7718.9752 2.4227.6257.6509 1.4789 1.0338 2.3805 1.0683h.1528v-6.9819Z" fill="#263238" stroke="#263238" stroke-width=".87381" stroke-miterlimit="10"/><path d="M61.9093 91.29c0 2.5857.1121 4.2687-.7793 4.2687-.8913 0-1.1969-1.683-1.1969-4.2687s.3056-4.2738 1.1969-4.2738c.8914 0 .7793 1.6626.7793 4.2738Z" fill="#fff" stroke="#263238" stroke-width=".87381" stroke-linecap="round" stroke-linejoin="round"/><path d="M78.6562 87.7864h.1529c.9015.0345 1.7547.4174 2.3804 1.0683.6257.6509.9752 1.5192.9752 2.4226 0 .9035-.3495 1.7718-.9752 2.4227-.6257.6509-1.4789 1.0338-2.3804 1.0683h-.1529v-6.9819Z" fill="#263238" stroke="#263238" stroke-width=".87381" stroke-miterlimit="10"/><path d="M77.8209 91.29c0 2.5857-.107 4.2687.7844 4.2687.8913 0 1.1969-1.683 1.1969-4.2687s-.3056-4.2738-1.1969-4.2738c-.8914 0-.7844 1.6626-.7844 4.2738Z" fill="#fff" stroke="#263238" stroke-width=".87381" stroke-linecap="round" stroke-linejoin="round"/><path d="M63.9058 91.9174s1.4516 1.7901 4.1714.3774" stroke="#263238" stroke-width=".87381" stroke-linecap="round" stroke-linejoin="round"/><path d="M68.0771 98.8789c.6004.4366 1.3234.6718 2.0654.6718s1.465-.2352 2.0654-.6718" stroke="#263238" stroke-width=".75" stroke-linecap="round" stroke-linejoin="round"/><path d="M63.5034 89.5153s2.6333-2.0094 4.9762 0m7.9561.0663s-2.6333-2.04-4.9762 0" stroke="#263238" stroke-width=".87381" stroke-linecap="round" stroke-linejoin="round"/><path d="M72.0552 96.0637s.2343 1.3056-2.1545 1.275c-.5857 0-1.6502-.4182-1.6859-1.275" stroke="#263238" stroke-width=".75" stroke-linecap="round" stroke-linejoin="round"/><path d="M64.4766 92.3916c.219.4335.713.9333 1.8183.9588 1.1052.0255 1.2988-.4131 1.3192-.8415-.4926.2393-1.0363.3538-1.5834.3333-.5471-.0204-1.0808-.1752-1.5541-.4506Z" fill="#263238"/><path d="M76.0533 91.9174s-1.4516 1.7901-4.1715.3774" stroke="#263238" stroke-width=".87381" stroke-linecap="round" stroke-linejoin="round"/><path d="M75.4832 92.3916c-.219.4335-.7131.9333-1.8183.9588-1.1053.0255-1.2988-.4131-1.3192-.8415.4924.2398 1.0362.3545 1.5834.334.5472-.0204 1.0809-.1754 1.5541-.4513Z" fill="#263238"/><path d="M65.383 72.8994s-1.3396.7497-1.1919 2.8815c0 0-.4686-1.4382-2.1901-.8109" stroke="#263238" stroke-width=".87381" stroke-linecap="round" stroke-linejoin="round"/><path d="M70.1656 110.67c1.7556 0 3.4681-.544 4.9032-1.556 1.4351-1.013 2.5226-2.445 3.1137-4.1-.4635-.071-.9219-.132-1.365-.194-.698 1.138-1.6757 2.078-2.8398 2.73-1.1641.653-2.4757.995-3.8095.995-1.3339 0-2.6455-.342-3.8096-.995-1.1641-.652-2.1418-1.592-2.8398-2.73-.4431.062-.9015.123-1.365.194.5908 1.654 1.6776 3.086 3.1117 4.098s3.1455 1.557 4.9001 1.558Z" fill="#263238" stroke="#263238" stroke-width=".87381" stroke-linecap="round" stroke-linejoin="round"/><path d="M89.7798 135.063c.2241-4.97.4499-9.943.6774-14.917" stroke="#263238" stroke-width=".87381" stroke-linecap="round" stroke-linejoin="round"/><path d="M89.9479 84.2572v-5.4927c0-.2705-.1073-.53-.2983-.7212-.1911-.1913-.4502-.2988-.7203-.2988h-8.5874c-.2702 0-.5293.1075-.7203.2988-.191.1912-.2984.4507-.2984.7212v5.4927c0 .2705.1074.53.2984.7213.191.1912.4501.2987.7203.2987h2.9949l-.2394 2.091h1.528v1.9737l1.8285-3.2181h-1.5025l.1579-.8466h3.8149c.1342.0007.2672-.0252.3914-.0762.1241-.0509.237-.126.3322-.2207.0951-.0948.1706-.2075.2221-.3316.0515-.1241.078-.2571.078-.3915Z" fill="#fff" stroke="#263238" stroke-width=".87381" stroke-linecap="round" stroke-linejoin="round"/><path d="M80.9839 79.6467h5.8217m-5.8217 1.5556h7.3191m-7.3191 1.5555h6.1935" stroke="#263238" stroke-width=".87381" stroke-linecap="round" stroke-linejoin="round"/><path d="M116.331 146.727c0 1.622-2.546 2.637-5.674 2.637-3.127 0-5.674-1.02-5.674-2.637s2.547-2.943 5.674-2.943c3.128 0 5.674 1.316 5.674 2.943Z" fill="#fff" stroke="#263238" stroke-width=".87381" stroke-linecap="round" stroke-linejoin="round"/><path d="M106.985 148.777c.153-.035.275-.892-1.105-1.53-.958-.438-.983-.902-.433-1.474.55-.571 1.487-1.05 2.21-.841 1.177.336 1.956 2.79 2.481 2.259.789-.204-.163-2.453-1.574-3.192 2.547.632 2.669 3.57 3.84 3.335.897-.173-.652-3.091-1.991-3.953.858.401 1.609 1.001 2.19 1.75.851 1.239.947 1.657 1.528 1.479.754-.24-1.044-2.963-1.268-3.259 1.131.449 1.344 1.397 1.691 1.78.346.382.509 1.02.988.77s.036-1.137-.285-1.658c-1.528-2.473-4.075-2.886-6.499-2.58-1.915.245-4.116 1.05-5.282 2.58-.297.382-.471.844-.5 1.327-.03.482.088.962.337 1.376.407.862 1.864 2.239 3.672 1.831Z" fill="#fff" stroke="#263238" stroke-width=".87381" stroke-linecap="round" stroke-linejoin="round"/><path d="M117.819 149.384H24.0863c-.2785 0-.5043.226-.5043.505v.811c0 .279.2258.505.5043.505h93.7327c.278 0 .504-.226.504-.505v-.811c0-.279-.226-.505-.504-.505Z" fill="#BFBFBF" stroke="#263238" stroke-width=".87381" stroke-miterlimit="10"/><path d="m26.8366 149.384-6.8964-20.986c-.026-.082-.0327-.169-.0197-.254.013-.084.0455-.165.0948-.235.0493-.07.1142-.128.1896-.169.0753-.041.159-.063.2447-.067h21.7841l7.7572 21.711H26.8366Z" fill="#263238"/><path d="m42.8298 127.673 7.1307 20.492h19.1v.719c0 .136-.0537.265-.1492.361-.0955.096-.2251.149-.3602.149h-19.813l-6.8608-20.874c-.0304-.094-.0383-.193-.0231-.291.0152-.097.0531-.189.1107-.269.0575-.08.1331-.146.2205-.191.0875-.045.1843-.069.2828-.07l.3616-.026Z" fill="#fff" stroke="#263238" stroke-width=".87381" stroke-linecap="round" stroke-linejoin="round"/><path d="M32.7141 138.531c-.0673-.356-.2331-.687-.4787-.953.1066-.127.2403-.227.3911-.294.1508-.067.3149-.099.4798-.094.385.016.7541.158 1.0511.404.297.246.5056.582.5941.958.0471.162.0548.334.0225.5-.0323.166-.1037.322-.2082.456-.1046.133-.2393.239-.393.309-.1537.071-.322.104-.4909.096-.3906-.009-.7656-.155-1.0595-.413.1469-.301.1795-.645.0917-.969Z" fill="#fff"/><path d="M76.8482 149.384h6.9626c.9276-.68 1.6792-1.572 2.1922-2.602.513-1.03.7725-2.168.7569-3.319v-3.279c0-.125-.0245-.248-.0721-.363-.0476-.115-.1174-.22-.2054-.308s-.1924-.158-.3073-.206c-.115-.047-.2382-.072-.3626-.072H74.872c-.1241 0-.2471.025-.3617.072-.1147.048-.2188.118-.3064.206-.0875.088-.1568.193-.2039.308-.047.115-.0709.238-.0702.363v3.279c-.0196 1.148.235 2.285.7426 3.315.5077 1.03 1.2536 1.923 2.1758 2.606Z" fill="#fff" stroke="#263238" stroke-width=".87381" stroke-linecap="round" stroke-linejoin="round"/><path d="M88.7358 140.633c-.2935-.185-.6297-.291-.9761-.307-.3463-.016-.6909.058-1.0002.215v1.183c.3018-.051.6116.011.871.173.983.572.7742 1.739.0866 2.928-.3145.673-.8553 1.215-1.528 1.53-.201.49-.4555.957-.7589 1.392 1.309.286 2.5059-.826 3.4431-2.448 1.1001-1.907 1.4312-3.759-.1375-4.666Z" fill="#fff" stroke="#263238" stroke-width=".87381" stroke-linecap="round" stroke-linejoin="round"/><path d="M80.4744 134.069c.2531-.826.3785-1.686.3719-2.55 0-4.794-4.5025-5.36-4.5025-10.807m.937 17.585c.8155-.509 1.5205-1.177 2.0729-1.964m.7294-11.051c-.2523-.469-.3573-1.002-.3013-1.53m3.8096 8.262c-.2292-1.5-1.0899-2.907-1.9405-4.188m-.667 10.527s1.4872-.627 2.3022-3.458" stroke="#263238" stroke-width=".87381" stroke-linecap="round" stroke-linejoin="round"/><path d="M90.0807 177.796H51.9418c-2.7848 0-5.0424 2.261-5.0424 5.049v25.245c0 2.789 2.2576 5.049 5.0424 5.049h38.1389c2.7848 0 5.0424-2.26 5.0424-5.049v-25.245c0-2.788-2.2576-5.049-5.0424-5.049Z" fill="#fff" stroke="#263238" stroke-width=".87381" stroke-miterlimit="10"/><path d="m58.9551 202.113.5755 10.083.0662.086c.4558.613 1.0497 1.109 1.7334 1.448.6836.339 1.4376.511 2.2004.503.7627-.009 1.5127-.198 2.1887-.552.676-.354 1.2588-.863 1.7009-1.485l.2139-10.083h-8.679Z" fill="#fff" stroke="#263238" stroke-width=".87381" stroke-linecap="round" stroke-linejoin="round"/><path d="M69.5391 222.049c-3.8635.678-7.8155.678-11.679 0-.3607-.357-.6709-.762-.9219-1.204-.3905-.696-.6111-1.474-.6439-2.272-.0327-.798.1233-1.592.4554-2.318l2.3277-4.156 9.224.102 2.0781 3.794c.4987.901.7135 1.931.6163 2.956-.0973 1.025-.5021 1.997-1.1613 2.787-.093.109-.1916.213-.2954.311Z" fill="#BFBFBF" stroke="#263238" stroke-width=".87381" stroke-miterlimit="10"/><path d="M67.2725 216.816c.5705.252 1.1148.559 1.6247.918l-1.6247-.918Z" fill="#BFBFBF"/><path d="M67.2725 216.816c.5705.252 1.1148.559 1.6247.918" stroke="#263238" stroke-width=".87381" stroke-miterlimit="10"/><path d="M58.5732 217.734c1.0124-.694 2.1523-1.179 3.3536-1.429 1.2014-.249 2.4402-.258 3.6447-.024" fill="#BFBFBF"/><path d="M58.5732 217.734c1.0124-.694 2.1523-1.179 3.3536-1.429 1.2014-.249 2.4402-.258 3.6447-.024" stroke="#263238" stroke-width=".87381" stroke-miterlimit="10"/><path d="m53.9893 160.502 4.0746 46.757H68.602s1.0442-28.56 1.7063-47.104c.0433-1.1-.1361-2.197-.5275-3.226-.3914-1.029-.9867-1.968-1.7499-2.76-.7633-.792-1.6788-1.422-2.6914-1.851-1.0126-.428-2.1014-.648-3.2009-.644-1.1287-.004-2.2459.227-3.2808.678-1.0349.452-1.9648 1.113-2.731 1.943-.7661.83-1.3518 1.81-1.7197 2.879-.368 1.068-.5102 2.202-.4178 3.328Z" fill="#263238"/><path d="M64.4764 152.006c-.7673-.226-1.5636-.338-2.3633-.332v0c-1.1265 0-2.2409.233-3.2728.686-1.0318.453-1.9587 1.115-2.7221 1.945-.7634.829-1.3468 1.808-1.7132 2.875-.3664 1.067-.508 2.198-.4157 3.322l1.4465 17.294m13.441-22.603c-.4174-.594-.9086-1.132-1.4617-1.601 0 0-.6367-.51-.9219-.674m3.1172 24.878c.2088-5.788.5348-12.561.713-17.641.0487-1.261-.1954-2.516-.713-3.667" stroke="#fff" stroke-width=".87381" stroke-linecap="round" stroke-linejoin="round"/><path d="m76.0991 202.113.5756 10.083.0662.086c.4557.613 1.0497 1.109 1.7333 1.448.6836.339 1.4376.511 2.2004.503.7628-.009 1.5127-.198 2.1887-.552.676-.354 1.2588-.863 1.7009-1.485l.2139-10.083h-8.679Z" fill="#fff" stroke="#263238" stroke-width=".87381" stroke-linecap="round" stroke-linejoin="round"/><path d="M86.6832 222.049c-3.8635.678-7.8155.678-11.679 0-.3599-.357-.6684-.762-.9168-1.204-.3925-.695-.6147-1.473-.6483-2.271-.0337-.798.1222-1.593.4548-2.319l2.3327-4.156 9.2189.102 2.0781 3.794c.4987.901.7135 1.931.6163 2.956-.0973 1.025-.5021 1.997-1.1613 2.787-.093.109-.1916.213-.2954.311Z" fill="#BFBFBF" stroke="#263238" stroke-width=".87381" stroke-miterlimit="10"/><path d="M84.4165 216.816c.5712.251 1.1155.558 1.6248.918l-1.6248-.918Z" fill="#BFBFBF"/><path d="M84.4165 216.816c.5712.251 1.1155.558 1.6248.918" stroke="#263238" stroke-width=".87381" stroke-miterlimit="10"/><path d="M75.7275 217.734c1.0126-.693 2.1525-1.179 3.3537-1.429 1.2013-.249 2.4401-.257 3.6446-.024" fill="#BFBFBF"/><path d="M75.7275 217.734c1.0126-.693 2.1525-1.179 3.3537-1.429 1.2013-.249 2.4401-.257 3.6446-.024" stroke="#263238" stroke-width=".87381" stroke-miterlimit="10"/><path d="m71.1485 160.502 4.0746 46.757h10.5381s1.0442-28.56 1.7114-47.104c.0398-1.102-.1434-2.201-.5385-3.231-.3952-1.03-.9943-1.97-1.7612-2.762-.7669-.792-1.6858-1.421-2.7016-1.848-1.0157-.428-2.1073-.645-3.2092-.64-1.1257.001-2.239.236-3.2696.689-1.0306.454-1.9563 1.116-2.7186 1.945-.7623.83-1.3447 1.808-1.7105 2.874-.3658 1.066-.5071 2.197-.4149 3.32Z" fill="#263238"/><path d="M82.6237 152.378c-1.0578-.471-2.2038-.711-3.3616-.704-1.1257.001-2.239.236-3.2696.689-1.0306.454-1.9563 1.116-2.7186 1.945-.7623.83-1.3447 1.808-1.7105 2.874-.3658 1.066-.5071 2.197-.4149 3.32l1.528 17.294m13.3448-22.603c-.4147-.596-.9062-1.134-1.4617-1.601m2.6383 24.204c.2088-5.788.0917-12.561.275-17.641.0413-1.116-.1459-2.228-.55-3.269" stroke="#fff" stroke-width=".87381" stroke-linecap="round" stroke-linejoin="round"/><path d="M212.01 80.9216V59.1599c0-1.0523-.417-2.0615-1.16-2.8056-.744-.7441-1.751-1.1622-2.802-1.1622h-34.095c-1.051 0-2.059.4181-2.802 1.1622-.743.7441-1.161 1.7533-1.161 2.8056v21.7617c0 1.0524.418 2.0616 1.161 2.8057.743.7441 1.751 1.1621 2.802 1.1621h11.872l-.937 8.2824H191v7.8082l7.253-12.7501h-5.949l.627-3.3456h15.117c1.05 0 2.057-.4173 2.8-1.1603.743-.743 1.161-1.7509 1.162-2.8024Z" fill="#fff" stroke="#263238" stroke-width="1.02547" stroke-linecap="round" stroke-linejoin="round"/><path d="M176.5 62.6382h23.052M176.5 68.8041h29.001M176.5 74.97h24.539" stroke="#263238" stroke-width="1.02547" stroke-linecap="round" stroke-linejoin="round"/><path d="m238.052 174.104 20.598 6.875-5.109 5.12 9.535 9.547-20.598-6.875 5.109-5.12-9.535-9.547Zm-94.104 0-20.598 6.875 5.109 5.12-9.535 9.547 20.598-6.875-5.109-5.12 9.535-9.547Zm46.476-157.7126-9.713 19.4514h7.233v13.5048l9.708-19.4514h-7.228V16.3914Z" fill="#E8E8E8" stroke="#263238" stroke-width="1.02547" stroke-linecap="round" stroke-linejoin="round"/></svg>