<svg width="371" height="247" fill="none" xmlns="http://www.w3.org/2000/svg"><path d="M298.591 151.48s-6.08-3.374-6.53 4.268c-.45 7.642-1.578 57.354-1.578 57.354" stroke="#263238" stroke-width="2" stroke-linecap="round" stroke-linejoin="round"/><path d="M288.885 156.425s4.947 11.021 2.706 56" stroke="#263238" stroke-width="2" stroke-linecap="round" stroke-linejoin="round"/><path d="M293.777 153.016s-2.33 1.482-3.65-.212c-1.321-1.694.895-4.826-1.059-6.16-1.954-1.334-5.332.701-5.332.701s2.597.761 2.512 2.179c-.084 1.418-1.335 1.976-1.484 1.334-.148-.643-1.409-3.74-3.522-2.441-.607.36-1.135.838-1.553 1.407-.417.569-.715 1.216-.875 1.903 0 0 4.912-.524 5.208 1.324.297 1.848-2.013-.321-4.041-.44-2.028-.118-3.878.178-3.745 1.403.045 1.084-.019 2.17-.193 3.241 1.11-.923 2.514-1.418 3.958-1.393 2.231.128 2.147 1.546.119 1.428-2.029-.119-3.77 1.808-3.77 1.808s1.85 3.156 4.2 4.717c2.35 1.561 3.195.988 3.463-.202.267-1.191-.357-4.288 1.063-4.204 1.42.084-2.35 5.35-.539 5.661 1.81.311 3.27-.217 3.745-1.408l.494-1.19s-.633-3.083-.356-4.288c.277-1.206.608.034.93 1.482.322 1.447.524 4.91 1.143 4.742.618-.168 2.602-2.692 3.067-3.68.465-.988-2.612-4.016-2.578-4.624.035-.608 2.409.548 2.78 1.181.269.48.512.975.728 1.482 0 0 1.484-.929 1.444-3.775-.04-2.845-2.157-1.976-2.157-1.976Z" fill="#fff"/><path opacity=".3" d="M293.777 153.016s-2.33 1.482-3.65-.212c-1.321-1.694.895-4.826-1.059-6.16-1.954-1.334-5.332.701-5.332.701s2.597.761 2.512 2.179c-.084 1.418-1.335 1.976-1.484 1.334-.148-.643-1.409-3.74-3.522-2.441-.607.36-1.135.838-1.553 1.407-.417.569-.715 1.216-.875 1.903 0 0 4.912-.524 5.208 1.324.297 1.848-2.013-.321-4.041-.44-2.028-.118-3.878.178-3.745 1.403.045 1.084-.019 2.17-.193 3.241 1.11-.923 2.514-1.418 3.958-1.393 2.231.128 2.147 1.546.119 1.428-2.029-.119-3.77 1.808-3.77 1.808s1.85 3.156 4.2 4.717c2.35 1.561 3.195.988 3.463-.202.267-1.191-.357-4.288 1.063-4.204 1.42.084-2.35 5.35-.539 5.661 1.81.311 3.27-.217 3.745-1.408l.494-1.19s-.633-3.083-.356-4.288c.277-1.206.608.034.93 1.482.322 1.447.524 4.91 1.143 4.742.618-.168 2.602-2.692 3.067-3.68.465-.988-2.612-4.016-2.578-4.624.035-.608 2.409.548 2.78 1.181.269.48.512.975.728 1.482 0 0 1.484-.929 1.444-3.775-.04-2.845-2.157-1.976-2.157-1.976Z" fill="#263238"/><path d="M281.984 159.69c1.519-1.872 3.75-4.406 5.625-5.616m-7.385 7.899s.39-.544 1.024-1.354m7.35-6.081s2.256 3.181 2.671 6.457m-5.223-4.575s.633-.365.396 3.68m1.251-7.454s1.286-1.146.608-3.418m-2.349 5.359-.92-1.679m-1.014 3.394s-2.919-2.204-4.744-2.312" stroke="#263238" stroke-linecap="round" stroke-linejoin="round"/><path d="M302.068 147.014s-.094 3.34-2.706 3.503c-2.612.163-4.224-4.179-6.896-3.137-2.671 1.042-2.928 5.809-2.928 5.809s2.533-2.079 3.898-1.027c1.365 1.052 1.049 2.667.312 2.411-.737-.257-4.71-1.142-4.843 1.852-.055.853.063 1.708.348 2.514.285.805.73 1.545 1.309 2.174 0 0 2.825-5.266 4.882-4.308 2.058.959-1.696 1.794-3.2 3.74-1.504 1.946-2.473 3.996-1.143 4.703 1.117.694 2.161 1.498 3.117 2.401 0 0-.357-2.757 1.296-4.896 1.652-2.139 3.012-1.092 1.513.855-1.499 1.946-.757 4.999-.757 4.999s4.423.306 7.589-.988c3.166-1.294 3.185-2.514 2.166-3.611-1.019-1.097-4.541-2.564-3.492-3.927 1.049-1.364 3.759 5.997 5.308 4.396 1.548-1.6 2.008-3.413 1.142-4.703l-.87-1.289s-3.522-1.482-4.541-2.564c-1.019-1.082.45-.588 2.117.074 1.667.662 5.273 2.821 5.53 2.09.258-.731-.925-4.446-1.597-5.572-.673-1.127-5.808-.129-6.392-.578-.583-.45 2.192-2.036 3.077-1.976.886.059 1.979.271 1.979.271s.079-2.109-2.8-4.016-3.418.8-3.418.8Z" fill="#fff"/><path opacity=".2" d="M302.068 147.014s-.094 3.34-2.706 3.503c-2.612.163-4.224-4.179-6.896-3.137-2.671 1.042-2.928 5.809-2.928 5.809s2.533-2.079 3.898-1.027c1.365 1.052 1.049 2.667.312 2.411-.737-.257-4.71-1.142-4.843 1.852-.055.853.063 1.708.348 2.514.285.805.73 1.545 1.309 2.174 0 0 2.825-5.266 4.882-4.308 2.058.959-1.696 1.794-3.2 3.74-1.504 1.946-2.473 3.996-1.143 4.703 1.117.694 2.161 1.498 3.117 2.401 0 0-.357-2.757 1.296-4.896 1.652-2.139 3.012-1.092 1.513.855-1.499 1.946-.757 4.999-.757 4.999s4.423.306 7.589-.988c3.166-1.294 3.185-2.514 2.166-3.611-1.019-1.097-4.541-2.564-3.492-3.927 1.049-1.364 3.759 5.997 5.308 4.396 1.548-1.6 2.008-3.413 1.142-4.703l-.87-1.289s-3.522-1.482-4.541-2.564c-1.019-1.082.45-.588 2.117.074 1.667.662 5.273 2.821 5.53 2.09.258-.731-.925-4.446-1.597-5.572-.673-1.127-5.808-.129-6.392-.578-.583-.45 2.192-2.036 3.077-1.976.886.059 1.979.271 1.979.271s.079-2.109-2.8-4.016-3.418.8-3.418.8Z" fill="#263238"/><path d="M300.717 163.356c-.841-2.796-1.86-6.758-1.79-9.455m2.879 12.765s-.277-.756-.658-1.942m-1.084-11.495s4.725-.084 8.291 1.729m-8.142 2.104s.059-.879 3.957 2.12m-6.609-6.329s-.267-2.069-3.012-2.939m3.76 5.997-2.31-.227m2.71 3.325s-4.199 1.422-5.55 3.171" stroke="#263238" stroke-linecap="round" stroke-linejoin="round"/><path d="M274.045 169.244s13.287 8.774 13.059 42.731" stroke="#263238" stroke-width="2" stroke-linecap="round" stroke-linejoin="round"/><path d="M290.428 166.928s-.425 3.843-3.462 3.789c-3.038-.055-4.482-5.227-7.658-4.274-3.176.954-3.932 6.422-3.932 6.422s3.121-2.158 4.6-.82c1.479 1.339.955 3.177.129 2.811-.826-.365-5.323-1.758-5.763 1.685-.143.98-.086 1.979.17 2.936.255.957.702 1.852 1.314 2.631 0 0 3.759-5.814 6.04-4.515 2.28 1.299-2.127 1.912-4.047 4.016-1.919 2.105-3.22 4.382-1.766 5.321 1.226.903 2.357 1.929 3.374 3.062 0 0-.153-3.216 1.979-5.527 2.132-2.312 3.581-.988 1.667 1.126-1.915 2.114-1.346 5.701-1.346 5.701s5.08.77 8.855-.415c3.774-1.186 3.908-2.599 2.834-3.952-1.073-1.354-4.996-3.389-3.655-4.861 1.34-1.472 3.769 7.271 5.708 5.572 1.939-1.699 2.642-3.749 1.761-5.32l-.925-1.571s-3.923-2.031-4.996-3.389c-1.074-1.359.574-.632 2.434.286 1.86.919 5.822 3.755 6.183 2.93.361-.825-.653-5.202-1.301-6.58-.648-1.378-6.688-.692-7.321-1.265s2.726-2.144 3.74-1.976c.755.126 1.503.291 2.24.494 0 0 .287-2.43-2.854-4.9s-4.002.583-4.002.583Z" fill="#fff"/><path opacity=".3" d="M290.428 166.928s-.425 3.843-3.462 3.789c-3.038-.055-4.482-5.227-7.658-4.274-3.176.954-3.932 6.422-3.932 6.422s3.121-2.158 4.6-.82c1.479 1.339.955 3.177.129 2.811-.826-.365-5.323-1.758-5.763 1.685-.143.98-.086 1.979.17 2.936.255.957.702 1.852 1.314 2.631 0 0 3.759-5.814 6.04-4.515 2.28 1.299-2.127 1.912-4.047 4.016-1.919 2.105-3.22 4.382-1.766 5.321 1.226.903 2.357 1.929 3.374 3.062 0 0-.153-3.216 1.979-5.527 2.132-2.312 3.581-.988 1.667 1.126-1.915 2.114-1.346 5.701-1.346 5.701s5.08.77 8.855-.415c3.774-1.186 3.908-2.599 2.834-3.952-1.073-1.354-4.996-3.389-3.655-4.861 1.34-1.472 3.769 7.271 5.708 5.572 1.939-1.699 2.642-3.749 1.761-5.32l-.925-1.571s-3.923-2.031-4.996-3.389c-1.074-1.359.574-.632 2.434.286 1.86.919 5.822 3.755 6.183 2.93.361-.825-.653-5.202-1.301-6.58-.648-1.378-6.688-.692-7.321-1.265s2.726-2.144 3.74-1.976c.755.126 1.503.291 2.24.494 0 0 .287-2.43-2.854-4.9s-4.002.583-4.002.583Z" fill="#263238"/><path d="M287.332 185.655c-.712-3.3-1.509-7.968-1.182-11.075m2.122 14.997s-.248-.899-.579-2.302m-.163-13.387s5.441.351 9.398 2.781m-9.591 1.665s.153-.988 4.368 2.816m-7.029-7.909s-.114-2.411-3.196-3.676m3.769 7.272-2.641-.479m2.815 4.095s-4.982 1.24-6.708 3.132" stroke="#263238" stroke-linecap="round" stroke-linejoin="round"/><path d="M279.224 196.009s8.558 6.521 9.458 16.194l-1.776-32.387" stroke="#263238" stroke-width="2" stroke-linecap="round" stroke-linejoin="round"/><path d="M299.941 191.287c-11.259-2.026-11.259 20.916-11.259 20.916" stroke="#263238" stroke-width="2" stroke-linecap="round" stroke-linejoin="round"/><path d="M290.033 211.975s-6.53-47.453 12.367-47.453" stroke="#263238" stroke-width="2" stroke-linecap="round" stroke-linejoin="round"/><path d="M295.652 189.918c-1.538-1.724-4.808-1.724-6.727 2.693-1.92 4.416-.193 3.645-.193 3.645s3.65-1.151 5.936-1.921c2.285-.771 5.382-2.688 5.575-1.532.193 1.156-1.539 2.302-3.656 2.688-2.117.385-7.687 1.916-7.113 3.072.574 1.156 1.924 4.604 1.924 4.604 1.643-1.391 3.377-2.674 5.189-3.838 2.503-1.536 4.041-.958 2.696.766-1.346 1.724-5.194 3.65-4.422 5.952.771 2.302 5.401 5.187 5.401 5.187s.574-4.801 1.925-6.338c1.35-1.536 1.345.193.959 2.88-.193 1.145-.322 2.299-.386 3.458l5.382 1.917c.881-1.338 1.844-2.62 2.884-3.838l.99-.959s-4.23-3.65-4.423-5.928c-.193-2.277 2.884 0 3.844.386.96.385 2.498 3.067 2.498 3.067s.965-4.411 1.157-5.928l.193-1.536s-4.041-1.536-5.579-1.536c-1.539 0-2.306 1.151-2.306-.386 0-1.536 1.539-2.494 3.27-2.302 1.567.259 3.111.644 4.615 1.151 0 0 1.153-.963.767-3.843s-1.345-2.88-3.651-2.109c-2.305.77-3.848 2.47-5.579 2.47-1.732 0-.767-2.11.385-2.688 1.153-.578 4.037-1.729 4.616-1.921.578-.193-3.077-2.88-5.001-3.261-1.925-.38-4.413.988-4.23 2.88.366 4.012-5.402 4.802-6.94 3.048Z" fill="#fff"/><path d="M308.029 209.688c.059.578.099 1.161.119 1.739m-3.982-15.521c1.689 3.804 2.905 7.8 3.62 11.9m-4.313-13.442c-.95-2.045-1.667-3.29-1.667-3.29 1.039-.5 1.902-1.305 2.473-2.307.451-.908 1.11-1.697 1.924-2.302m-11.13 11.135s6.926-2.88 6.926-2.302m3.843-1.344s3.077-1.536 5.768-1.536m-6.895 6.17c-1.334 1.094-2.558 2.315-3.656 3.646-1.122 1.322-2.03 2.813-2.691 4.416m8.434-7.321s4.041-1.151 6.153.766" stroke="#263238" stroke-linecap="round" stroke-linejoin="round"/><path d="M314.113 173.394c-2.092-1.235-4.407-1.265-5.545-2.569s1.093-1.976 2.285-1.482c1.192.494 3.958 1.912 4.477 2.223.519.311.163-4.209-.806-5.928-.97-1.719-3.626-2.692-4.947-1.304-2.795 2.934-7.158-.914-6.861-3.206.297-2.292-1.845-4.757-6.431-3.31-4.585 1.448-2.884 2.243-2.884 2.243s3.265 2.001 5.363 3.241c2.097 1.239 5.56 2.297 4.813 3.196-.747.899-2.751.35-4.428-.988-1.676-1.339-6.49-4.54-6.984-3.35-.495 1.191-2.226 4.446-2.226 4.446 2.131.327 4.238.794 6.307 1.398 2.8.875 3.373 2.411 1.187 2.53-2.186.118-6.164-1.522-7.42.568-1.256 2.089-.391 7.459-.391 7.459s4.007-2.712 6.05-2.702c2.043.01.737 1.141-1.548 2.613-.99.606-1.946 1.266-2.864 1.976l2.077 5.321c1.589-.215 3.19-.329 4.793-.341l1.356.094s0-5.583 1.603-7.237c1.602-1.655 1.889 2.173 2.23 3.151.342.978-.682 3.898-.682 3.898s3.957-2.169 5.253-3.028l1.291-.865s-1.484-4.051-2.473-5.211c-.989-1.161-2.379-.988-1.222-1.976 1.158-.988 2.899-.494 3.888.953.828 1.352 1.548 2.768 2.152 4.234 0 0 1.484.242 3.408-1.937 1.924-2.179 1.276-2.88-.821-4.11Zm-18.194 6.145c-1.538-.765 2.113-2.302 2.113-2.302 1.35-.202-.574 3.073-2.108 2.292l-.005.01Zm2.587-7.168c-.653-.326 1.311-.988 1.311-.988 2.85.529-.648 1.309-1.306.978l-.005.01Z" fill="#fff"/><path d="M295.88 183.442c-.399.425-.81.835-1.232 1.23m9.122-13.18c-1.767 3.769-3.992 7.306-6.624 10.532m7.336-12.063c.925-2.06 1.395-3.419 1.395-3.419 1.063.469 2.244.6 3.383.376.983-.256 2.011-.277 3.003-.06m-9.453 2.584c.435-.375-6.277-3.71-6.277-3.71m9.814 5.745s3.18 1.314 4.946 3.345m-9.186-1.196c-1.702-.285-3.428-.406-5.154-.36-1.735.019-3.456.311-5.1.864m11.061 1.596s3.517 2.292 3.463 5.142" stroke="#263238" stroke-linecap="round" stroke-linejoin="round"/><path d="M284.24 199.991c-1.681-.988-3.546-1.018-4.452-2.07-.905-1.052.876-1.581 1.836-1.181.959.401 3.18 1.537 3.606 1.784.425.247.128-3.384-.653-4.752-.782-1.369-2.919-2.169-3.957-1.048-2.251 2.357-5.763-.736-5.521-2.583.242-1.848-1.484-3.829-5.189-2.663-3.705 1.166-2.32 1.808-2.32 1.808s2.627 1.61 4.313 2.603c1.687.993 4.452 1.848 3.874 2.574-.579.726-2.211.282-3.562-.8-1.35-1.082-5.224-3.656-5.624-2.697-.401.958-1.786 3.601-1.786 3.601 1.715.261 3.41.636 5.075 1.121 2.251.707 2.711 1.947.95 2.04-1.761.094-4.947-1.225-5.936.455-.989 1.68-.312 6.002-.312 6.002s3.226-2.178 4.868-2.174c1.642.005.594.919-1.242 2.105-.798.486-1.57 1.015-2.31 1.586l1.672 4.283c1.279-.174 2.568-.267 3.859-.277l1.093.079s0-4.495 1.291-5.824c1.291-1.329 1.519 1.749 1.791 2.534.272.785-.549 3.137-.549 3.137s3.195-1.744 4.229-2.44l1.039-.692s-1.197-3.26-2.009-4.194c-.811-.934-1.919-.795-.989-1.606.93-.81 2.33-.38 3.126.771.668 1.089 1.249 2.228 1.737 3.409 0 0 1.192.192 2.74-1.561 1.548-1.754.989-2.337-.688-3.33Zm-14.642 4.94c-1.236-.617 1.702-1.852 1.702-1.852 1.083-.154-.465 2.474-1.707 1.857l.005-.005Zm2.088-5.77c-.529-.262 1.053-.79 1.053-.79 2.296.444-.529 1.062-1.053.795v-.005Z" fill="#fff"/><path d="M269.593 208.083c-.321.34-.653.671-.989.988m7.311-10.602c-1.424 3.031-3.215 5.877-5.332 8.473m5.906-9.708c.742-1.655 1.123-2.751 1.123-2.751.854.376 1.804.482 2.72.301.79-.205 1.617-.222 2.414-.049m-12.658-.889s5.407 2.682 5.055 2.964m2.859 1.645s2.558 1.057 3.958 2.687m-7.386-.958c-1.369-.232-2.757-.33-4.145-.292-1.397.017-2.782.252-4.106.697m8.9 1.284s2.834 1.843 2.78 4.14" stroke="#263238" stroke-linecap="round" stroke-linejoin="round"/><path d="M277.374 168.286s-2.117 1.536-3.462 0c-1.346-1.536.578-4.609-1.351-5.76-1.929-1.151-4.996.958-4.996.958s2.498.578 2.498 1.922c0 1.344-1.153 1.917-1.345 1.344-.193-.573-1.539-3.458-3.463-2.115-.555.374-1.028.856-1.391 1.417s-.609 1.19-.721 1.849c0 0 4.61-.771 4.996.958.386 1.729-1.924-.193-3.844-.193-1.919 0-3.655.386-3.462 1.537.104 1.021.104 2.051 0 3.072.996-.931 2.292-1.476 3.655-1.536 2.112 0 2.112 1.344.193 1.344s-3.463 1.921-3.463 1.921 1.925 2.88 4.23 4.224c2.305 1.344 3.077.771 3.27-.385.192-1.156-.579-4.031.766-4.031 1.346 0-1.919 5.187-.193 5.375 1.727.187 3.077-.381 3.463-1.537l.386-1.151s-.772-2.88-.579-4.031c.193-1.151.579 0 .96 1.344.381 1.343.771 4.609 1.345 4.416.574-.193 2.31-2.687 2.696-3.646.386-.958-2.696-3.65-2.696-4.223s2.31.38 2.696.958c.278.435.534.883.767 1.344 0 0 1.345-.959 1.153-3.651-.193-2.692-2.108-1.724-2.108-1.724Z" fill="#fff"/><path d="M266.625 175.246c1.331-1.852 3.299-4.371 5.006-5.616m-6.564 7.869s.341-.533.89-1.334m6.604-6.155s2.305 2.88 2.884 5.953m-5.184-4.051s.574-.385.574 3.458m.771-7.084s1.153-1.156.381-3.265m-1.919 5.182-.964-1.537m-.767 3.246s-2.884-1.922-4.615-1.922" stroke="#263238" stroke-linecap="round" stroke-linejoin="round"/><path d="M296.79 211.299h-14.865v21.365h14.865v-21.365Z" fill="#263238" stroke="#263238" stroke-width="2" stroke-linecap="round" stroke-linejoin="round"/><path d="M162.904 47.1177s.179-6.3133-.045-11.7424c-.223-5.429.229-17.0677.229-17.0677m-.105 6.8468-2.469-1.9414m2.439 3.2752.881-1.4178m-1.079 7.0347 2.191-1.813m-1.859-9.5984-1.158-1.0522m.807 13.4466-1.45-1.5511m1.573 7.647-3.012-2.7466" stroke="#263238" stroke-miterlimit="10"/><path d="M162.938 42.568c.768-.2973 1.515-.6455 2.236-1.0424" stroke="#263238" stroke-miterlimit="10"/><path d="M161.261 26.1277c-1.212-.9337-5.278-.7706-6.059 1.1708-.782 1.9414 1.706 5.1079 4.081 4.8856.935-.0889 1.34-.1531 1.706-.6767l-3.339-3.2604 3.616 2.9047c.102-.1891.185-.3876.248-.5928.039-.1433.079-.3014.108-.4644.253-1.1609.782-3.0924-.361-3.9668Zm7.87-2.2527v.0692c-.326 1.4474-1.978 2.2674-3.378 2.1439-.194-.0164-.386-.0512-.574-.1037-.327.5172-.53 1.1032-.591 1.7118-.062.6087.018 1.2233.235 1.7956.058.1636.136.3195.232.4643.411-.3359 4.804-4.0804 4.804-4.0804l-4.561 4.3867c1.375 1.482 4.6 1.2696 5.723-1.4523 1.123-2.722-.307-4.5448-1.89-4.9351Z" fill="#fff"/><path d="M166.896 18.8115c-2.365-.494-4.482.5533-4.452 3.0184.013.5434.137 1.0784.365 1.572.228.4936.555.9354.96 1.2981l2.439-3.3197-2.048 3.621c.459.3126.99.503 1.544.5533 1.394.1186 3.052-.7015 3.378-2.1489.341-1.6154.178-4.0755-2.186-4.5942Zm-2.76-8.5709s-.243.0741-1.757.8102c-.886.4879-1.542 1.3065-1.826 2.2766-.284.9701-.171 2.0129.313 2.9005.419.8292 1.144 1.4633 2.023 1.7685l.608-5.8737-.257 5.9527c.115.0119.231.0119.346 0 .99-.0988 2.538-1.2745 2.686-3.6803.149-2.4057-2.136-4.1545-2.136-4.1545Zm-6.911 5.3402 4.566 3.6457c.045-.1606.06-.328.044-.494-.213-2.0847-2.295-3.295-3.67-3.7297-1.376-.4347-2.33.3409-1.445 2.3366.886 1.9958 3.206 2.964 4.24 2.6627.245-.0605.466-.195.633-.3853l-4.368-4.036Z" fill="#fff"/><path d="M160.366 20.2539c-.7-.0504-1.379-.2589-1.987-.6097-.607-.3509-1.127-.8349-1.52-1.4157-.485-.0459-.969.0994-1.348.405-.379.3056-.623.7471-.68 1.2302-.465 2.1736 1.108 4.446 3.378 4.1693.713-.0371 1.39-.326 1.91-.8151l-4.057-3.7 4.344 3.3048c.085-.1525.139-.3204.158-.494.14-.6959.071-1.4177-.198-2.0748Zm-.025 12.0883c-.369.1577-.762.2513-1.162.2766-1.484.1383-2.998-1.0226-3.75-2.386-.441.0298-.86.2066-1.189.5021-.329.2956-.55.6927-.626 1.1281-.45 2.5441 1.909 5.8983 4.293 5.3648.62-.1205 1.194-.4113 1.658-.8398l-5.204-4.9993 5.505 4.6733c.315-.4032.518-.8819.589-1.3882.261-.7633.22-1.5972-.114-2.3316Zm10.472 5.2018c-1.751-2.0254-3.833-.2125-3.833-.2125s-1.277.4199-1.761 2.228c-.149.5485-.126 1.1292.064 1.6648l5.263-3.0628-5.135 3.3493c.495.9089 1.524 1.482 2.968 1.0621 2.306-.6323 4.18-2.9887 2.434-5.0289Z" fill="#fff"/><path d="M166.451 45.2108h-7.287V55.985h7.287V45.2108Z" fill="#263238"/><path d="M246.873 55.896H150.77v177.46h96.103V55.896Z" fill="#fff" stroke="#263238" stroke-miterlimit="10"/><path d="M233.32 58.1438h-80.552V230.654h80.552V58.1438Z" fill="#263238" stroke="#263238" stroke-linecap="round" stroke-linejoin="round"/><path d="M233.32 84.8988h-80.552v2.5441h80.552v-2.5441Zm0 29.4132h-80.552v2.544h80.552v-2.544Zm-25.961-56.1387h-1.711v26.7205h1.711V58.1733Zm-27.384 0h-1.712v26.7205h1.712V58.1733Zm27.384 58.7117h-1.711v26.721h1.711v-26.721Zm-27.384 0h-1.712v26.721h1.712v-26.721Zm13.558-29.2988h-1.711v26.7208h1.711V87.5862Zm39.787 56.0248h-80.552v2.544h80.552v-2.544Zm0 29.314h-80.552v58.628h80.552v-58.628Zm-39.787-26.726h-1.711v26.721h1.711v-26.721Z" fill="#fff" stroke="#263238" stroke-miterlimit="10"/><path d="M235.293 55.8812V233.316l11.586.04V55.8812h-11.586Z" fill="#263238" stroke="#263238" stroke-linecap="round" stroke-linejoin="round"/><path d="M212.682 60.2482h-4.136v24.5863h4.136V60.2482Z" fill="#fff" stroke="#263238" stroke-miterlimit="10"/><path d="M212.682 79.5537h-4.136v2.0155h4.136v-2.0155Zm0-16.8108h-4.136v2.0155h4.136v-2.0155Zm4.229-2.4947h-4.135v24.5863h4.135V60.2482Z" fill="#fff" stroke="#263238" stroke-miterlimit="10"/><path d="M216.911 79.5537h-4.135v2.0155h4.135v-2.0155Zm0-16.8108h-4.135v2.0155h4.135v-2.0155Zm4.235-2.4947h-4.136v24.5863h4.136V60.2482Z" fill="#fff" stroke="#263238" stroke-miterlimit="10"/><path d="M221.146 79.5537h-4.136v2.0155h4.136v-2.0155Zm0-16.8108h-4.136v2.0155h4.136v-2.0155Zm4.229-2.4947h-4.135v24.5863h4.135V60.2482Z" fill="#fff" stroke="#263238" stroke-miterlimit="10"/><path d="M232.266 60.2482h-6.926v24.5863h6.926V60.2482Z" fill="#fff" stroke="#263238" stroke-miterlimit="10"/><path d="M225.375 79.5537h-4.135v2.0155h4.135v-2.0155Zm0-16.8108h-4.135v2.0155h4.135v-2.0155Zm-40.36-2.4947h-4.135v24.5863h4.135V60.2482Z" fill="#fff" stroke="#263238" stroke-miterlimit="10"/><path d="M185.015 79.5537h-4.135v2.0155h4.135v-2.0155Zm0-16.8108h-4.135v2.0155h4.135v-2.0155Zm4.23-2.4947h-4.136v24.5863h4.136V60.2482Z" fill="#fff" stroke="#263238" stroke-miterlimit="10"/><path d="M189.245 79.5537h-4.136v2.0155h4.136v-2.0155Zm0-16.8108h-4.136v2.0155h4.136v-2.0155Zm4.234-2.4947h-4.135v24.5863h4.135V60.2482Z" fill="#fff" stroke="#263238" stroke-miterlimit="10"/><path d="M193.479 79.5537h-4.135v2.0155h4.135v-2.0155Zm0-16.8108h-4.135v2.0155h4.135v-2.0155Zm4.23-2.4947h-4.136v24.5863h4.136V60.2482Z" fill="#fff" stroke="#263238" stroke-miterlimit="10"/><path d="M204.599 60.2482h-6.925v24.5863h6.925V60.2482Z" fill="#fff" stroke="#263238" stroke-miterlimit="10"/><path d="M197.709 79.5537h-4.136v2.0155h4.136v-2.0155Zm0-16.8108h-4.136v2.0155h4.136v-2.0155Zm-12.694 56.3061h-4.135v24.586h4.135v-24.586Z" fill="#fff" stroke="#263238" stroke-miterlimit="10"/><path d="M185.015 138.354h-4.135v2.016h4.135v-2.016Zm0-16.805h-4.135v2.015h4.135v-2.015Zm4.23-2.5h-4.136v24.586h4.136v-24.586Z" fill="#fff" stroke="#263238" stroke-miterlimit="10"/><path d="M189.245 138.354h-4.136v2.016h4.136v-2.016Zm0-16.805h-4.136v2.015h4.136v-2.015Zm4.234-2.5h-4.135v24.586h4.135v-24.586Z" fill="#fff" stroke="#263238" stroke-miterlimit="10"/><path d="M193.479 138.354h-4.135v2.016h4.135v-2.016Zm0-16.805h-4.135v2.015h4.135v-2.015Zm4.23-2.5h-4.136v24.586h4.136v-24.586Z" fill="#fff" stroke="#263238" stroke-miterlimit="10"/><path d="M204.599 119.049h-6.925v24.586h6.925v-24.586Z" fill="#fff" stroke="#263238" stroke-miterlimit="10"/><path d="M197.709 138.354h-4.136v2.016h4.136v-2.016Zm0-16.805h-4.136v2.015h4.136v-2.015Zm14.617-2.5h-4.136v24.586h4.136v-24.586Z" fill="#fff" stroke="#263238" stroke-miterlimit="10"/><path d="M212.326 138.354h-4.136v2.016h4.136v-2.016Zm0-16.805h-4.136v2.015h4.136v-2.015Zm4.234-2.5h-4.135v24.586h4.135v-24.586Z" fill="#fff" stroke="#263238" stroke-miterlimit="10"/><path d="M216.56 138.354h-4.135v2.016h4.135v-2.016Zm0-16.805h-4.135v2.015h4.135v-2.015Zm4.23-2.5h-4.136v24.586h4.136v-24.586Z" fill="#fff" stroke="#263238" stroke-miterlimit="10"/><path d="M220.79 138.354h-4.136v2.016h4.136v-2.016Zm0-16.805h-4.136v2.015h4.136v-2.015Zm4.234-2.5h-4.135v24.586h4.135v-24.586Z" fill="#fff" stroke="#263238" stroke-miterlimit="10"/><path d="M231.91 119.049h-6.926v24.586h6.926v-24.586Z" fill="#fff" stroke="#263238" stroke-miterlimit="10"/><path d="M225.024 138.354h-4.135v2.016h4.135v-2.016Zm0-16.805h-4.135v2.015h4.135v-2.015Zm-67.146-2.5h-4.135v24.586h4.135v-24.586Z" fill="#fff" stroke="#263238" stroke-miterlimit="10"/><path d="M157.878 138.354h-4.135v2.016h4.135v-2.016Zm0-16.805h-4.135v2.015h4.135v-2.015Zm4.234-2.5h-4.135v24.586h4.135v-24.586Z" fill="#fff" stroke="#263238" stroke-miterlimit="10"/><path d="M162.112 138.354h-4.135v2.016h4.135v-2.016Zm0-16.805h-4.135v2.015h4.135v-2.015Zm4.229-2.5h-4.135v24.586h4.135v-24.586Z" fill="#fff" stroke="#263238" stroke-miterlimit="10"/><path d="M166.341 138.354h-4.135v2.016h4.135v-2.016Zm0-16.805h-4.135v2.015h4.135v-2.015Zm4.235-2.5h-4.136v24.586h4.136v-24.586Z" fill="#fff" stroke="#263238" stroke-miterlimit="10"/><path d="M177.462 119.049h-6.925v24.586h6.925v-24.586Z" fill="#fff" stroke="#263238" stroke-miterlimit="10"/><path d="M170.576 138.354h-4.136v2.016h4.136v-2.016Zm0-16.805h-4.136v2.015h4.136v-2.015Zm-13.227-61.3008h-4.136v24.5863h4.136V60.2482Z" fill="#fff" stroke="#263238" stroke-miterlimit="10"/><path d="M157.349 79.5537h-4.136v2.0155h4.136v-2.0155Zm0-16.8108h-4.136v2.0155h4.136v-2.0155Zm4.229-2.4947h-4.136v24.5863h4.136V60.2482Z" fill="#fff" stroke="#263238" stroke-miterlimit="10"/><path d="M161.578 79.5537h-4.136v2.0155h4.136v-2.0155Zm0-16.8108h-4.136v2.0155h4.136v-2.0155Zm4.234-2.4947h-4.135v24.5863h4.135V60.2482Z" fill="#fff" stroke="#263238" stroke-miterlimit="10"/><path d="M165.812 79.5537h-4.135v2.0155h4.135v-2.0155Zm0-16.8108h-4.135v2.0155h4.135v-2.0155Zm4.23-2.4947h-4.136v24.5863h4.136V60.2482Z" fill="#fff" stroke="#263238" stroke-miterlimit="10"/><path d="M176.933 60.2482h-6.926v24.5863h6.926V60.2482Z" fill="#fff" stroke="#263238" stroke-miterlimit="10"/><path d="M170.042 79.5537h-4.136v2.0155h4.136v-2.0155Zm0-16.8108h-4.136v2.0155h4.136v-2.0155Zm-.455 26.8045h-4.136v24.5866h4.136V89.5474Z" fill="#fff" stroke="#263238" stroke-miterlimit="10"/><path d="M169.587 108.853h-4.136v2.015h4.136v-2.015Zm0-16.806h-4.136v2.0155h4.136V92.047Z" fill="#fff" stroke="#263238" stroke-miterlimit="10"/><path d="M165.506 89.5474h-4.136v24.5866h4.136V89.5474Z" fill="#fff" stroke="#263238" stroke-miterlimit="10"/><path d="M165.506 108.853h-4.136v2.015h4.136v-2.015Zm0-16.806h-4.136v2.0155h4.136V92.047Z" fill="#fff" stroke="#263238" stroke-miterlimit="10"/><path d="M161.424 89.5474h-4.135v24.5866h4.135V89.5474Z" fill="#fff" stroke="#263238" stroke-miterlimit="10"/><path d="M161.424 108.853h-4.135v2.015h4.135v-2.015Zm0-16.806h-4.135v2.0155h4.135V92.047Z" fill="#fff" stroke="#263238" stroke-miterlimit="10"/><path d="M157.349 89.5474h-4.136v24.5866h4.136V89.5474Z" fill="#fff" stroke="#263238" stroke-miterlimit="10"/><path d="M157.349 108.853h-4.136v2.015h4.136v-2.015Zm0-16.806h-4.136v2.0155h4.136V92.047Zm16.467-2.4996h-4.135v24.5866h4.135V89.5474Z" fill="#fff" stroke="#263238" stroke-miterlimit="10"/><path d="M173.816 108.853h-4.135v2.015h4.135v-2.015Zm0-16.806h-4.135v2.0155h4.135V92.047Zm4.23-2.4996h-4.136v24.5866h4.136V89.5474Z" fill="#fff" stroke="#263238" stroke-miterlimit="10"/><path d="M178.046 108.853h-4.136v2.015h4.136v-2.015Zm0-16.806h-4.136v2.0155h4.136V92.047Zm4.234-2.4996h-4.135v24.5866h4.135V89.5474Z" fill="#fff" stroke="#263238" stroke-miterlimit="10"/><path d="M189.17 89.5474h-6.925v24.5866h6.925V89.5474Z" fill="#fff" stroke="#263238" stroke-miterlimit="10"/><path d="M182.28 108.853h-4.135v2.015h4.135v-2.015Zm0-16.806h-4.135v2.0155h4.135V92.047Zm16.709-2.4996h-4.135v24.5866h4.135V89.5474Z" fill="#fff" stroke="#263238" stroke-miterlimit="10"/><path d="M198.989 108.853h-4.135v2.015h4.135v-2.015Zm0-16.806h-4.135v2.0155h4.135V92.047Zm4.235-2.4996h-4.136v24.5866h4.136V89.5474Z" fill="#fff" stroke="#263238" stroke-miterlimit="10"/><path d="M203.224 108.853h-4.136v2.015h4.136v-2.015Zm0-16.806h-4.136v2.0155h4.136V92.047Zm8.467-2.5057-3.856 1.6256 9.696 22.9321 3.855-1.625-9.695-22.9327Z" fill="#fff" stroke="#263238" stroke-miterlimit="10"/><path d="m219.305 107.546-3.856 1.626.795 1.879 3.855-1.625-.794-1.88Zm-6.627-15.6741-3.856 1.6255.795 1.8796 3.855-1.6256-.794-1.8795Zm4.857 22.2171h8.632l3.883-1.615-8.662-.01-3.853 1.625Zm-5.842-24.5565h8.107l10.25 22.9415-8.662-.01-9.695-22.9315Zm-4.388.0149h-4.136v24.5866h4.136V89.5474Z" fill="#fff" stroke="#263238" stroke-miterlimit="10"/><path d="M207.305 108.853h-4.136v2.015h4.136v-2.015Zm0-16.806h-4.136v2.0155h4.136V92.047Zm0-2.4996h4.388l-3.859 1.6104 9.701 22.9312h-10.23V89.5474Zm-37.718 58.6966h-4.136v24.587h4.136v-24.587Z" fill="#fff" stroke="#263238" stroke-miterlimit="10"/><path d="M169.587 167.55h-4.136v2.015h4.136v-2.015Zm0-16.811h-4.136v2.016h4.136v-2.016Z" fill="#fff" stroke="#263238" stroke-miterlimit="10"/><path d="M165.506 148.244h-4.136v24.587h4.136v-24.587Z" fill="#fff" stroke="#263238" stroke-miterlimit="10"/><path d="M165.506 167.55h-4.136v2.015h4.136v-2.015Zm0-16.811h-4.136v2.016h4.136v-2.016Z" fill="#fff" stroke="#263238" stroke-miterlimit="10"/><path d="M161.424 148.244h-4.135v24.587h4.135v-24.587Z" fill="#fff" stroke="#263238" stroke-miterlimit="10"/><path d="M161.424 167.55h-4.135v2.015h4.135v-2.015Zm0-16.811h-4.135v2.016h4.135v-2.016Z" fill="#fff" stroke="#263238" stroke-miterlimit="10"/><path d="M157.349 148.244h-4.136v24.587h4.136v-24.587Z" fill="#fff" stroke="#263238" stroke-miterlimit="10"/><path d="M157.349 167.55h-4.136v2.015h4.136v-2.015Zm0-16.811h-4.136v2.016h4.136v-2.016Zm16.467-2.495h-4.135v24.587h4.135v-24.587Z" fill="#fff" stroke="#263238" stroke-miterlimit="10"/><path d="M173.816 167.55h-4.135v2.015h4.135v-2.015Zm0-16.811h-4.135v2.016h4.135v-2.016Zm4.23-2.495h-4.136v24.587h4.136v-24.587Z" fill="#fff" stroke="#263238" stroke-miterlimit="10"/><path d="M178.046 167.55h-4.136v2.015h4.136v-2.015Zm0-16.811h-4.136v2.016h4.136v-2.016Zm4.234-2.495h-4.135v24.587h4.135v-24.587Z" fill="#fff" stroke="#263238" stroke-miterlimit="10"/><path d="M189.17 148.244h-6.925v24.587h6.925v-24.587Z" fill="#fff" stroke="#263238" stroke-miterlimit="10"/><path d="M182.28 167.55h-4.135v2.015h4.135v-2.015Zm0-16.811h-4.135v2.016h4.135v-2.016Zm16.709-2.495h-4.135v24.587h4.135v-24.587Z" fill="#fff" stroke="#263238" stroke-miterlimit="10"/><path d="M198.989 167.55h-4.135v2.015h4.135v-2.015Zm0-16.811h-4.135v2.016h4.135v-2.016Zm4.235-2.495h-4.136v24.587h4.136v-24.587Z" fill="#fff" stroke="#263238" stroke-miterlimit="10"/><path d="M203.224 167.55h-4.136v2.015h4.136v-2.015Zm0-16.811h-4.136v2.016h4.136v-2.016Zm8.463-2.504-3.855 1.626 9.695 22.932 3.856-1.625-9.696-22.933Z" fill="#fff" stroke="#263238" stroke-miterlimit="10"/><path d="m219.204 165.803-3.85 1.63.796 1.877 3.85-1.63-.796-1.877Z" fill="#fff" stroke="#263238" stroke-width=".99925" stroke-miterlimit="10"/><path d="m212.674 150.566-3.855 1.626.794 1.879 3.856-1.625-.795-1.88Zm4.861 22.22h8.632l3.883-1.615-8.662-.015-3.853 1.63Z" fill="#fff" stroke="#263238" stroke-miterlimit="10"/><path d="M211.693 148.225h8.107l10.25 22.946-8.662-.015-9.695-22.931Zm-4.388.019h-4.136v24.587h4.136v-24.587Z" fill="#fff" stroke="#263238" stroke-miterlimit="10"/><path d="M207.305 167.55h-4.136v2.015h4.136v-2.015Zm0-16.811h-4.136v2.016h4.136v-2.016Zm0-2.495h4.388l-3.859 1.606 9.701 22.936h-10.23v-24.542Z" fill="#fff" stroke="#263238" stroke-miterlimit="10"/><path d="M191.822 172.92v57.649m-38.401-50.511H233.3" stroke="#263238" stroke-miterlimit="10"/><path d="M169.814 184.934v10.453m3.488-10.453v10.453m36.63-10.453v10.453m3.487-10.453v10.453" stroke="#263238" stroke-width="2" stroke-miterlimit="10"/><path d="M255.564 56.8149V39.0902h25.812m1.9 0h10.872v43.966h-38.584V59.5023" stroke="#263238" stroke-miterlimit="10"/><path d="M280.11 77.1282h-19.347v-32.11h28.181v32.11h-6.618" stroke="#263238" stroke-miterlimit="10"/><path d="M280.273 54.8982h-10.838v12.35h10.838v-12.35Zm17.304 22.4079V66.2504h16.101m1.182 0h6.782v27.4219h-24.065V78.9807" stroke="#263238" stroke-miterlimit="10"/><path d="M312.886 89.9771h-12.065V69.9454h17.576v20.0317h-4.131" stroke="#263238" stroke-miterlimit="10"/><path d="M312.99 76.1106h-6.762v7.7015h6.762v-7.7015Z" stroke="#263238" stroke-miterlimit="10"/><path d="M42.4424 233.356H321.434" stroke="#263238" stroke-linecap="round" stroke-linejoin="round"/><path d="M62.2291 164.196s-2.968-39.52-1.484-43.966c1.484-4.446 10.6353-4.199 12.3667-4.199 1.7313 0 37.8422 0 43.0362 2.47 5.194 2.47 5.936 63.232 5.936 63.232H64.7024l-2.4733-17.537Z" fill="#263238" stroke="#263238" stroke-miterlimit="10"/><path d="M124.058 160.985s-5.936 0-7.124 5.928c-1.187 5.928 3.488 30.381 3.834 37.297.346 6.916 1.563 16.549 1.563 16.549h21.023l4.7-59.774h-23.996Z" fill="#263238" stroke="#263238" stroke-miterlimit="10"/><path d="M148.054 160.985s-5.936 0-7.42 5.928 1.979 30.381 1.979 37.297c0 6.916.742 16.549.742 16.549h7.42s.742-17.784.742-20.254c0-2.47 2.968-28.158 1.484-33.345-1.484-5.187-2.721-5.681-4.947-6.175Z" fill="#636363" stroke="#263238" stroke-miterlimit="10"/><path d="M85.3549 118.624s-19.663 8.028-19.663 8.892c0 .865 6.678 24.083 9.1513 27.664 2.4734 3.582 4.2047 7.534 4.9467 9.016.742 1.482 3.9573 5.187 6.5543 5.187 2.597 0 5.6887-3.088 13.9748-4.323 8.285-1.235 15.705-1.111 17.189-2.223 1.484-1.111-.371-4.075-.618-4.693-.247-.617-1.237-2.84-1.237-2.84s8.039 6.669 11.254 6.916c3.215.247 5.565-1.359 6.06-3.458.494-2.1-1.361-7.163-2.597-9.88-1.237-2.717-7.049-7.04-9.646-10.374-2.597-3.335-5.936-7.287-8.286-10.004-2.048-2.392-4.576-4.327-7.42-5.681-2.226-.988-7.9148-3.458-11.5011-3.828-3.5863-.371-8.162-.371-8.162-.371Z" fill="#fff" stroke="#263238" stroke-miterlimit="10"/><path d="M123.894 147.563s-2.8 7.741-1.81 9.717c.989 1.976 3.626 2.633 3.626 2.633m-43.3233-38.695 16.324 15.808 2.4733-11.856" stroke="#263238" stroke-miterlimit="10"/><path d="M124.681 148.511s3.957 2.841 5.318 1.853c1.36-.988.989-2.841.123-4.817-.865-1.976-3.71-3.087-4.823-2.223-1.113.865-1.484 4.323-.618 5.187Zm-40.5628-35.074.6183 7.41 13.1087 12.844 1.9786-9.139.8652-3.828s-8.5325-1.482-11.2532-3.335c-2.7206-1.852-5.3176-3.952-5.3176-3.952Z" fill="#fff" stroke="#263238" stroke-miterlimit="10"/><path d="M100.689 120.724s-8.5325-1.482-11.2532-3.335c-2.7206-1.852-5.3176-3.952-5.3176-3.952l.6183 7.41 3.3143 3.246c2.5772.726 5.1445 1.077 6.8907.405 1.9376-.704 3.7894-1.623 5.5205-2.742l.227-1.032Zm-20.4888-13.007s-2.3101-10.5423-2.3101-12.3503c0-1.808 6.2675-11.0359 14.84-9.5539 8.5729 1.482 13.3559 6.422 13.6879 7.904.331 1.4819-.99 4.4459-.99 4.4459.261.8587.427 1.7433.495 2.6383 0 .988-1.484 5.266-1.484 5.266l-.495-4.446s-4.1203 1.156-6.4304 1.156c-2.3101 0-6.2675-1.482-6.2675-1.482s.8261 2.633 0 3.952-3.2944 2.47-3.2944 2.47-.3315 2.633-1.3208 2.633c-1.2205-.062-2.4335-.227-3.6259-.494-.6629-.163-2.8048-2.139-2.8048-2.139Z" fill="#263238" stroke="#263238" stroke-miterlimit="10"/><path d="M83.9944 108.868s-.3314-3.952-3.6308-2.964-1.1526 4.609.6628 6.422c1.8155 1.813 2.3052.494 2.3052.494s.4947 3.789 2.968 5.928 6.2674 6.091 10.2247 5.597c3.9577-.494 6.7617-5.434 7.2567-9.055.495-3.621.821-12.187.821-13.175-.119-1.115-.339-2.2158-.658-3.2903 0 0-3.462 2.4703-6.5936 1.8083-3.1312-.6622-6.4306-1.9763-7.9146-1.9763s-1.1575 2.1443-.6629 2.8013c.4947.657 1.8154 1.976.3314 2.801-1.484.825-3.4626 1.645-3.4626 1.645v3.458l-1.6473-.494Z" fill="#fff" stroke="#263238" stroke-miterlimit="10"/><path d="m99.7694 107.07-.8112 8.926-4.0612-1.176" stroke="#263238" stroke-miterlimit="10"/><path d="M96.3416 115.542s-1.9786 0-3.0669.093c-.6537.108-1.3179.138-1.9787.089-.4501-.089-.9893-.449-.089.45s3.6111 1.976 5.0555 2.164c1.4444.187 2.4387-.272 3.5171-.988 1.0784-.717 1.9784-1.443 1.4444-1.621-.744-.132-1.4997-.193-2.2557-.182v.454l-2.6267-.459Z" fill="#263238" stroke="#263238" stroke-miterlimit="10"/><path d="M93.4969 110.132c.3251 0 .5886-.544.5886-1.215s-.2635-1.215-.5886-1.215c-.3252 0-.5887.544-.5887 1.215s.2635 1.215.5887 1.215Zm8.8001-1.393c0 .672-.262 1.216-.583 1.216-.322 0-.589-.544-.589-1.216 0-.671.262-1.22.589-1.22.326 0 .583.549.583 1.22Z" fill="#263238"/><path d="M91.2861 107.07s2.4387-1.715 4.4224-.988m4.5165.089s2.527-1.176 3.611-.094m-8.7559 5.073s-.5441.632-2.3496 1.171m7.3115-1.556c.534.368 1.11.671 1.716.904" stroke="#263238" stroke-miterlimit="10"/><path d="m107.739 134.185.865-2.223s1.113 1.112 4.081 1.112c2.968 0 7.791 2.099 7.791 2.099l.371.618s.866-2.594 2.474-3.088c1.607-.494 4.204-2.223 4.575-2.717l.371-.494 1.732 1.482-7.668 10.127-14.345-5.557-.247-1.359Z" fill="#fff" stroke="#263238" stroke-miterlimit="10"/><path d="m107.862 133.321-3.71 19.636 12.862 2.964 4.699-19.019-13.851-3.581Z" fill="#fff" stroke="#263238" stroke-miterlimit="10"/><path d="m121.713 136.902 8.286-5.928-4.947 19.019-8.038 5.928 4.699-19.019Zm-29.8038 12.474 5.6046-2.307s4.9462-5.266 5.4412-5.76c.495-.494 5.441-.988 5.441-.988l5.442 3.621s.989.825 0 1.151c-.99.326-3.131-.657-3.131-.657l-2.147-1.319-1.316.662 2.8 2.302s.826 2.144.826 3.295c-.015.739-.184 1.467-.495 2.139l-1.647 2.307-4.947-2.47s-2.968 2.139-3.631 2.47c-.6625.331-6.925-.163-6.925-.163l-1.3158-4.283Z" fill="#fff" stroke="#263238" stroke-miterlimit="10"/><path d="m103.737 143.606 1.751-.331 1.504.415m-4.922 3.166s3.918-1.086 4.17-1.086c.252 0 3.171 2.998 3.171 2.998l.331 3.251" stroke="#263238" stroke-miterlimit="10"/><path d="m102.238 148.936 3.166.084 2.918 1.917c.296.932.433 1.907.406 2.885" stroke="#263238" stroke-miterlimit="10"/><path d="M69.1545 125.17s-3.6309.494-4.1255 3.621c-.4947 3.127-3.7892 29.477-2.7999 32.441.9894 2.964 19.292-2.139 19.9499-2.47.658-.331 11.046-3.458 11.2141-4.115.1682-.657.4947-6.096-.9893-6.422-1.484-.326-15.6661.163-15.6661.163l-1.9787-17.127" fill="#fff"/><path d="M69.1545 125.17s-3.6309.494-4.1255 3.621c-.4947 3.127-3.7892 29.477-2.7999 32.441.9894 2.964 19.292-2.139 19.9499-2.47.658-.331 11.046-3.458 11.2141-4.115.1682-.657.4947-6.096-.9893-6.422-1.484-.326-15.6661.163-15.6661.163l-1.9787-17.127m1.9788 17.127-8.7407 1.482m-1.6475-1.976 7.5832.988" stroke="#263238" stroke-miterlimit="10"/><path d="M127.772 139.125s-3.339 3.458-3.215 4.323c.124.864 1.855-.494 2.226-.865.371-.37 2.102-1.358 2.102-2.346s-.371-2.1-1.113-1.112Z" fill="#fff" stroke="#263238" stroke-miterlimit="10"/><path d="M128.144 141.225s.989.988.989 1.852c0 .865-2.102 3.705-3.092 3.705-.989 0-.247-1.976.248-2.84.494-.865 1.855-2.717 1.855-2.717Z" fill="#fff" stroke="#263238" stroke-miterlimit="10"/><path d="M129.133 143.077s1.237.371 1.237 1.482c0 1.112-2.35 2.964-2.968 3.088-.619.123-.495-.988 0-1.853.494-.864 1.731-2.717 1.731-2.717Z" fill="#fff" stroke="#263238" stroke-miterlimit="10"/><path d="M130.369 144.559c.254.626.339 1.307.248 1.976-.124 1.235-1.979 1.976-2.597 1.976-.619 0-.619-.864-.619-.864 1.047-.973 2.038-2.004 2.968-3.088Zm-38.8953 88.797H89.124l-1.1723-15.561h4.6993l-1.1773 15.561Zm-21.5176 0h-2.3497l-1.1723-15.561h4.6993l-1.1773 15.561Zm77.6629 0h-2.35l-1.172-15.561h4.699l-1.177 15.561Zm-21.518 0h-2.35l-1.172-15.561h4.699l-1.177 15.561Z" fill="#fff" stroke="#263238" stroke-miterlimit="10"/><path d="M144.344 188.021H88.1992v32.604h56.1448v-32.604Z" fill="#263238" stroke="#263238" stroke-miterlimit="10"/><path d="M185.07 182.805s5.936-2.47 7.256-3.458c1.321-.988 3.132 1.151 2.306 3.458-.827 2.307-2.968 6.422-6.263 8.398-3.294 1.976-5.936 3.621-6.599 4.278-.663.657-.494 3.132-3.294 4.12s-6.268-.988-8.246-4.12c-1.979-3.132-3.3-5.266-3.3-5.266s.168-2.307 3.463-3.458c3.294-1.151 8.904-1.65 8.904-1.65l5.773-2.302Z" fill="#fff" stroke="#263238" stroke-miterlimit="10"/><path d="M117.508 162.837s3.913-.948 4.902-.454c.99.494 4.289 3.626 4.289 3.626s19.95.326 21.434.988c1.484.662 16.819 12.35 20.118 13.995 3.299 1.645 6.099 3.127 6.099 3.127l-2.473 10.868v.988l.168 1.65s-8.577-2.638-10.719-3.132c-2.142-.494-11.046-5.103-11.872-5.103-.826 0-7.584-1.976-7.584-1.976s-.989-.657-11.708-1.645c-10.72-.988-22.755-2.144-27.044-2.307-4.2885-.163-9.893-.494-12.035-1.319-2.1419-.825-5.936-6.585-6.5939-10.043-.6579-3.458 6.2625-6.422 9.2305-7.741 2.968-1.319 14.0184-2.964 15.9974-2.964 1.979 0 7.791 1.442 7.791 1.442Z" fill="#fff" stroke="#263238" stroke-miterlimit="10"/><path d="m121.258 167.654-3.3 4.777 4.452-2.964" fill="#fff"/><path d="m121.258 167.654-3.3 4.777 4.452-2.964" stroke="#263238" stroke-miterlimit="10"/><path d="M171.877 181.98s4.784-3.789 5.773-4.94c.989-1.151 4.289-7.41 4.947-9.386.658-1.976 2.31-2.964 3.462-1.482 1.153 1.482 1.979 4.446 2.637 5.765.658 1.319-.327 7.736-2.305 9.88-1.979 2.144-4.714 7.336-5.278 8.398-1.484 2.796-3.794 3.127-5.278 3.29-1.484.163-5.11-3.784-5.11-3.784l1.152-7.741Z" fill="#fff" stroke="#263238" stroke-miterlimit="10"/><path d="M98.5031 170.949s4.9469-.988 9.3989-.494c4.452.494 13.519 3.29 17.313 4.278 3.794.988 10.551 1.482 13.688 2.638 3.136 1.156 11.377 2.633 17.639 2.633 6.263 0 15.83.825 15.83.825s-1.316 9.549-.99 11.362c.326 1.459.767 2.889 1.321 4.278 0 0-12.698.988-16.324 1.482-3.626.494-18.303-1.808-20.776-2.47-2.473-.662-6.099-1.645-8.409-1.645-2.31 0-6.762.988-13.193 1.645s-15.4979-2.139-16.6505-2.302c-1.1526-.163-5.2781-1.65-6.2674-2.307-.9893-.657-6.7621-10.868-4.7834-15.151 1.9786-4.283 4.452-4.94 4.452-4.94" fill="#fff"/><path d="M98.5031 170.949s4.9469-.988 9.3989-.494c4.452.494 13.519 3.29 17.313 4.278 3.794.988 10.551 1.482 13.688 2.638 3.136 1.156 11.377 2.633 17.639 2.633 6.263 0 15.83.825 15.83.825s-1.316 9.549-.99 11.362c.326 1.459.767 2.889 1.321 4.278 0 0-12.698.988-16.324 1.482-3.626.494-18.303-1.808-20.776-2.47-2.473-.662-6.099-1.645-8.409-1.645-2.31 0-6.762.988-13.193 1.645s-15.4979-2.139-16.6505-2.302c-1.1526-.163-5.2781-1.65-6.2674-2.307-.9893-.657-6.7621-10.868-4.7834-15.151 1.9786-4.283 4.452-4.94 4.452-4.94" stroke="#263238" stroke-miterlimit="10"/><path d="M128.836 187.562c3.181.632 6.549 2.559 11.105 4.342 6.08 2.376 18.248 2.159 19.817 2.376 1.568.218 5.55 0 5.55 0" fill="#fff"/><path d="M128.836 187.562c3.181.632 6.549 2.559 11.105 4.342 6.08 2.376 18.248 2.159 19.817 2.376 1.568.218 5.55 0 5.55 0" stroke="#263238" stroke-miterlimit="10"/><path d="m104.311 189.795 1.815.262c5.283.79 15.335-2.11 19.549-2.638" fill="#fff"/><path d="m104.311 189.795 1.815.262c5.283.79 15.335-2.11 19.549-2.638" stroke="#263238" stroke-miterlimit="10"/><path d="M98.9927 189.266s.9497 0 3.4283.292l-3.4283-.292Z" fill="#fff"/><path d="M98.9927 189.266s.9497 0 3.4283.292" stroke="#263238" stroke-miterlimit="10"/><path d="M66.9236 160.985s-5.936 0-7.1232 5.928c-1.1872 5.928 3.4627 30.381 3.8337 37.297.371 6.916 1.5631 16.549 1.5631 16.549h21.0233l4.6994-59.774H66.9236Z" fill="#263238" stroke="#263238" stroke-miterlimit="10"/><path d="M90.9201 160.985s-5.936 0-7.42 5.928 1.9787 30.381 1.9787 37.297c0 6.916.742 16.549.742 16.549h7.42s.742-17.784.742-20.254c0-2.47 2.968-28.158 1.484-33.345-1.484-5.187-2.7207-5.681-4.9467-6.175Z" fill="#636363" stroke="#263238" stroke-miterlimit="10"/><path d="M139.209 233.356h-2.35l-1.172-15.561h4.699l-1.177 15.561Zm20.034 0h-2.349l-1.173-15.561h4.7l-1.178 15.561Zm9.399 0h-2.35l-1.172-15.561h4.699l-1.177 15.561Zm19.787 0h-2.35l-1.172-15.561h4.699l-1.177 15.561Z" fill="#fff" stroke="#263238" stroke-miterlimit="10"/><path d="M136.305 197.541h51.668c.951 0 1.864.377 2.536 1.049.673.671 1.051 1.582 1.051 2.532v25.318h-58.866v-25.318c0-.472.094-.94.276-1.376.181-.436.448-.832.783-1.165.336-.333.734-.596 1.172-.775.438-.178.907-.269 1.38-.265Z" fill="#263238" stroke="#263238" stroke-miterlimit="10"/><path d="M187.998 197.541h-18.797c-.951 0-1.863.377-2.536 1.049-.672.671-1.05 1.582-1.05 2.532v25.318h25.97v-25.318c-.002-.949-.38-1.859-1.052-2.531-.672-.671-1.584-1.049-2.535-1.05Z" fill="#636363" stroke="#263238" stroke-miterlimit="10"/></svg>