<svg width="311" height="311" fill="none" xmlns="http://www.w3.org/2000/svg"><path d="M249.857 270.11c9.952-7.022 18.102-16.298 23.786-27.07 35.553-66.61 27.523-164.8297-40.947-206.9578C201.049 16.6136 155.5 4.29181 121.29 24.2891c-27.7414 16.2155-44.7468 46.7495-58.8165 74.528-8.8386 17.4969-16.1222 36.2749-27.0197 52.6209-14.1318 21.198-29.68803 49.512-13.9825 74.143 21.403 33.55 61.8268 48.87 98.4817 58.959 39.77 10.941 84.492 12.496 121.227-8.851 2.974-1.729 5.866-3.589 8.677-5.579Z" fill="#C8C8C8"/><path opacity=".7" d="M249.857 270.11c9.952-7.022 18.102-16.298 23.786-27.07 35.553-66.61 27.523-164.8297-40.947-206.9578C201.049 16.6136 155.5 4.29181 121.29 24.2891c-27.7414 16.2155-44.7468 46.7495-58.8165 74.528-8.8386 17.4969-16.1222 36.2749-27.0197 52.6209-14.1318 21.198-29.68803 49.512-13.9825 74.143 21.403 33.55 61.8268 48.87 98.4817 58.959 39.77 10.941 84.492 12.496 121.227-8.851 2.974-1.729 5.866-3.589 8.677-5.579Z" fill="#fff"/><g opacity=".3" stroke="#000" stroke-miterlimit="10"><path opacity=".3" d="M281.144 50.0522h-64.066V134.19h64.066V50.0522Z"/><path opacity=".3" d="M269.388 65.4902h-40.554v53.2618h40.554V65.4902Z"/></g><path d="M202.069 40.6228H32.4497V191.607H202.069V40.6228Z" fill="#263238" stroke="#263238" stroke-miterlimit="10"/><path d="M198.853 36.9468H29.2339V187.931H198.853V36.9468Z" fill="#fff" stroke="#263238" stroke-linecap="round" stroke-linejoin="round"/><path d="M165.825 97.8779h8.434v-8.4343h-8.434v8.4343Zm11.041 0h8.434v-8.4343h-8.434v8.4343Z" fill="#fff" stroke="#263238" stroke-linecap="round" stroke-linejoin="round"/><path d="M162.454 94.1709h-42.85" stroke="#263238" stroke-linecap="round" stroke-linejoin="round"/><path d="M165.825 117.788h8.434v-8.434h-8.434v8.434Zm11.041 0h8.434v-8.434h-8.434v8.434Z" fill="#fff" stroke="#263238" stroke-linecap="round" stroke-linejoin="round"/><path d="M162.454 114.075h-42.85" stroke="#263238" stroke-linecap="round" stroke-linejoin="round"/><path d="M165.825 137.698h8.434v-8.434h-8.434v8.434Zm11.041 0h8.434v-8.434h-8.434v8.434Z" fill="#fff" stroke="#263238" stroke-linecap="round" stroke-linejoin="round"/><path d="M162.454 133.985h-42.85" stroke="#263238" stroke-linecap="round" stroke-linejoin="round"/><path d="M85.1892 97.8779h8.4343v-8.4343h-8.4343v8.4343Zm11.0464 0h8.4344v-8.4343h-8.4344v8.4343Z" fill="#fff" stroke="#263238" stroke-linecap="round" stroke-linejoin="round"/><path d="M81.8178 94.1709H38.9683" stroke="#263238" stroke-linecap="round" stroke-linejoin="round"/><path d="M85.1892 117.788h8.4343v-8.434h-8.4343v8.434Zm11.0464 0h8.4344v-8.434h-8.4344v8.434Z" fill="#fff" stroke="#263238" stroke-linecap="round" stroke-linejoin="round"/><path d="M81.8178 114.075H38.9683" stroke="#263238" stroke-linecap="round" stroke-linejoin="round"/><path d="M85.1892 137.698h8.4343v-8.434h-8.4343v8.434Zm11.0464 0h8.4344v-8.434h-8.4344v8.434Z" fill="#fff" stroke="#263238" stroke-linecap="round" stroke-linejoin="round"/><path d="M81.8178 133.985H38.9683" stroke="#263238" stroke-linecap="round" stroke-linejoin="round"/><path d="M50.923 166.696h-9.2926v9.293h9.2926v-9.293Zm37.9234 0h-9.2927v9.293h9.2927v-9.293Zm39.4286 0h-9.293v9.293h9.293v-9.293Z" fill="#fff" stroke="#263238" stroke-linecap="round" stroke-linejoin="round"/><path d="m99.0034 92.2674 1.4366 2.8861 6.96-6.7238m-8.3966 23.5243 1.4366 2.88 6.96-6.724m-20.401 24.488 1.4431 2.88 6.9602-6.724m83.7707-36.7228 1.437 2.8799 6.96-6.7238M167.554 112.19l1.437 2.88 6.96-6.718m-8.397 24.066 1.437 2.879 6.96-6.717" stroke="#263238" stroke-width="2" stroke-linecap="round" stroke-linejoin="round"/><path d="M198.853 36.9468H29.2339V60.533H198.853V36.9468Z" fill="#fff" stroke="#263238" stroke-linecap="round" stroke-linejoin="round"/><path d="M198.853 36.9468h-6.388V187.931h6.388V36.9468Z" fill="#DBDBDB" stroke="#263238" stroke-linecap="round" stroke-linejoin="round"/><path d="M198.853 59.6375h-6.388v29.1407h6.388V59.6375Z" fill="#949494" stroke="#263238" stroke-linecap="round" stroke-linejoin="round"/><path d="M198.853 36.9468H29.2339v11.4697H198.853V36.9468Z" fill="#DBDBDB" stroke="#263238" stroke-linecap="round" stroke-linejoin="round"/><path d="M104.726 40.2869H37.8359v4.7769h66.8901v-4.7769Z" fill="#fff" stroke="#263238" stroke-linecap="round" stroke-linejoin="round"/><path d="M188.839 40.5107h5.872m-5.872 2.482h5.872m-5.872 2.488h5.872" stroke="#263238" stroke-linecap="round" stroke-linejoin="round"/><path d="M88.4858 70.0746c0-1.4742.7775-2.3139 2.1957-2.3139 1.4182 0 2.1894.8397 2.1894 2.3139v4.7769c0 1.468-.7712 2.3077-2.1894 2.3077-1.4182 0-2.1957-.8397-2.1957-2.3077v-4.7769Zm1.4493 4.8702c0 .6531.2861.9019.7464.9019.4603 0 .7464-.2488.7464-.9019v-4.976c0-.6593-.2861-.9081-.7464-.9081-.4603 0-.7464.2488-.7464.9081v4.976Zm5.1559-4.5406v6.6492h-1.3v-9.1869h1.81l1.4866 5.4984v-5.4984h1.2876v9.1869h-1.4866l-1.7976-6.6492Zm4.3167-2.5377h1.4493v7.8745h2.395v1.3124h-3.8256l-.0187-9.1869Zm4.4663 0h1.443v9.1869h-1.443v-9.1869Zm3.769 2.5377v6.6492h-1.281v-9.1869h1.81l1.486 5.4984v-5.4984h1.282v9.1869h-1.468l-1.829-6.6492Zm5.76 1.3373h1.984v1.3124h-1.984v2.6871h2.488v1.3124h-3.931v-9.1869h3.937v1.3124h-2.488l-.006 2.5626Zm5.007-3.875h4.46v1.3124h-1.512v7.8745h-1.443v-7.8745h-1.505v-1.3124Zm6.537 3.875h1.978v1.3124h-1.978v2.6871h2.488v1.3124h-3.937v-9.1869h3.937v1.3124h-2.488v2.5626Zm5.325-3.9808c1.405 0 2.127.8397 2.127 2.3139v.2861h-1.362v-.3794c0-.6593-.262-.9081-.722-.9081-.46 0-.721.2488-.721.9081 0 1.866 2.817 2.2454 2.817 4.8702 0 1.468-.734 2.3077-2.152 2.3077-1.418 0-2.127-.8397-2.127-2.3077v-.566h1.368v.6593c0 .6531.286.8895.747.8895.46 0 .746-.2364.746-.8895 0-1.866-2.818-2.2454-2.818-4.8702-.043-1.4742.697-2.3139 2.097-2.3139Zm2.55.1058h4.46v1.3124h-1.506v7.8745h-1.424v-7.8745h-1.512l-.018-1.3124ZM48.864 164.457h-1.4617l-.2488-1.667h-1.7478l-.2488 1.667h-1.3498l1.4679-9.187h2.1148l1.4742 9.187Zm-3.2966-2.917h1.3933l-.6967-4.647-.6966 4.647Zm40.6106-4.174v.323c0 .946-.2861 1.549-.933 1.866.7775.299 1.0761.996 1.0761 1.966v.753c0 1.418-.7464 2.177-2.1895 2.177h-2.2703v-9.181h2.177c1.499 0 2.1397.696 2.1397 2.096Zm-2.8736-.802v2.425h.566c.5349 0 .8646-.236.8646-.97v-.51c0-.659-.224-.945-.734-.945h-.6966Zm0 3.732v2.823h.8272c.4852 0 .7464-.224.7464-.908v-.796c0-.858-.2737-1.119-.9268-1.119h-.6468Zm42.6756.734v1.244c0 1.474-.734 2.313-2.153 2.313-1.418 0-2.152-.839-2.152-2.313v-4.777c0-1.468.734-2.308 2.152-2.308 1.419 0 2.153.84 2.153 2.308v.895h-1.363v-1.026c0-.659-.292-.908-.752-.908-.461 0-.747.249-.747.908v4.976c0 .659.293.896.747.896s.752-.237.752-.896v-1.312h1.363Z" fill="#263238"/><path d="M39.6211 150.375H149.871" stroke="#263238" stroke-linecap="round" stroke-linejoin="round"/><path opacity=".3" d="M220.704 37.687h12.173V25.5145h-12.173V37.687Zm15.942 0h12.172V25.5145h-12.172V37.687Z" stroke="#000" stroke-linecap="round" stroke-linejoin="round"/><path opacity=".3" d="m223.322 30.3286 2.078 4.155 6.108-6.7238" stroke="#000" stroke-width="2" stroke-linecap="round" stroke-linejoin="round"/><path opacity=".3" d="M36.4368 216.276h12.1726v-12.173H36.4368v12.173Zm15.9356 0h12.1725v-12.173H52.3724v12.173Z" stroke="#000" stroke-linecap="round" stroke-linejoin="round"/><path opacity=".3" d="m39.0425 208.917 2.0775 4.155 6.108-6.724" stroke="#000" stroke-width="2" stroke-linecap="round" stroke-linejoin="round"/><path opacity=".3" d="M94.1019 216.276h12.1721v-12.173H94.1019v12.173Zm15.9421 0h12.173v-12.173h-12.173v12.173Z" stroke="#000" stroke-linecap="round" stroke-linejoin="round"/><path opacity=".3" d="m96.7144 208.917 2.0774 4.155 6.1082-6.724" stroke="#000" stroke-width="2" stroke-linecap="round" stroke-linejoin="round"/><g opacity=".3" stroke="#000" stroke-linecap="round" stroke-linejoin="round"><path opacity=".3" d="M112.98 31.6025c4.26-.6884 7.155-4.6993 6.466-8.9586-.688-4.2594-4.699-7.1543-8.958-6.4659-4.26.6883-7.155 4.6992-6.466 8.9586.688 4.2593 4.699 7.1542 8.958 6.4659Z"/><path opacity=".3" d="m113.919 26.7148-2.183-2.8239v-4.4473"/></g><g opacity=".3"><path opacity=".3" d="M257.558 173.737h-1.157l-.199-1.319h-1.406l-.199 1.319h-1.051l1.169-7.284h1.673l1.17 7.284Zm-2.613-2.308h1.101l-.553-3.688-.548 3.688Zm18.903-3.302v.261c.044.29-.003.587-.134.85s-.341.479-.6.618c.292.132.533.357.687.638.154.282.212.606.165.923v.622c.029.235.004.473-.074.696-.078.224-.206.426-.374.593-.168.166-.372.292-.596.367-.224.075-.463.098-.697.067h-1.798v-7.309h1.729c1.182 0 1.692.548 1.692 1.674Zm-2.276-.622v1.928h.448c.423 0 .684-.187.684-.772v-.404c0-.522-.174-.752-.585-.752h-.547Zm0 2.967v2.239h.653c.385 0 .622-.174.622-.716v-.622c0-.671-.224-.883-.74-.883l-.535-.018Zm18.772.578v.964c0 1.169-.579 1.835-1.705 1.835-1.126 0-1.71-.666-1.71-1.835v-3.788c0-1.169.584-1.835 1.71-1.835s1.705.666 1.705 1.835v.709h-1.083v-.809c0-.522-.23-.715-.591-.715-.36 0-.622.193-.622.715v3.938c0 .522.23.709.622.709s.591-.187.591-.709v-1.014h1.083Z" fill="#000"/><path opacity=".3" d="M259.834 177.711h-8.851v8.851h8.851v-8.851Zm16.465 0h-8.851v8.851h8.851v-8.851Zm16.464 0h-8.851v8.851h8.851v-8.851Z" stroke="#000" stroke-miterlimit="10"/></g><path d="M50.0336 280.248H31.3052m263.1058 0H56.1353" stroke="#263238" stroke-miterlimit="10"/><path d="m222.452 280.037 4.006-60.832 2.948-28.923-8.086-9.025-4.056-2.948s-5.71 4.976-9.759 6.077-7.943 2.214-7.943 2.214-13.814 25.975-14.928 37.762c-1.113 11.787-2.948 55.451-2.948 55.451l1.536.224h39.23Z" fill="#9E9E9E" stroke="#263238" stroke-miterlimit="10"/><path d="M203.463 229.885s-.691-.355.69-3.912" stroke="#263238" stroke-miterlimit="10"/><path d="M201.839 185.978c.687 4.915 1.067 9.867 1.138 14.829 0 0 4.149-1.661 7.464-7.464 1.832-3.115 3.408-6.372 4.715-9.741l-13.317 2.376Z" fill="#263238" stroke="#263238" stroke-miterlimit="10"/><path d="m222.452 280.037 3.602-54.693c-3.533 1.804-10.506 4.783-18.2 4.914-9.218.156-20.632-7.004-20.632-7.004l-2.569 1.008v.1c-1.107 11.818-2.948 55.451-2.948 55.451l1.536.224h39.211Z" fill="#fff" stroke="#263238" stroke-miterlimit="10"/><path d="M216.456 249.422c0 14.088.485 27.642.622 30.602h27.15c.374-4.391 2.712-31.722 3.913-41.518 1.312-10.705 9.921-26.64 9.921-32.344 0-5.704 1.747-4.802-6.115-8.951-7.862-4.148-25.203-13.105-27.604-14.2-2.401-1.095-5.026-3.732-5.026-3.732s.871 5.461.622 20.308-3.483 33.906-3.483 49.835Z" fill="#fff"/><path opacity=".2" d="M219.317 179.335c.324 2.584.511 5.184.56 7.787v-7.258c-.348-.318-.56-.529-.56-.529Zm35.703 35.547v1.866c.212-.566.423-1.113.622-1.654v-.224h.081c.081-.205.155-.417.23-.622h-.311v-7.744h2.407v-.622h-2.407v-6.631c-.193-.118-.398-.23-.622-.354v6.985h-6.531v-7.775h5.051l-1.17-.622h-3.881v-2.053l-.622-.329v2.363h-6.531v-5.759l-.622-.324v6.083h-6.531v-7.756h3.253l-1.206-.622h-2.047v-1.051l-.622-.324v1.375h-6.531v-4.696c-.218-.112-.423-.218-.622-.311v5.007h-6.469v.622h6.469v7.775h-6.413v.622h6.413v7.775h-6.531v-2.955c-.124 3.036-.348 6.22-.622 9.461v1.866h-.162l-.056.622h.218v7.8h-.933l-.062.622h1.026v7.775h-1.766l-.056.622h1.822v7.775h-2.426l-.037.622h2.488v7.775h-2.755v.622h2.761v7.775h-2.743v.622h2.737v7.775h-2.612v.622h2.6v14.772h.622v-14.791h6.487v14.773h.622v-14.773h6.531v14.773h.622v-14.773h6.531v14.773h.622v-14.773h4.186c0-.205 0-.41.056-.622h-4.242v-7.756h4.976c0-.205.044-.411.062-.622h-5.038v-7.775h5.747c0-.212.038-.411.063-.622h-5.81v-7.775h6.531v.827l.274-2.382c.087-.697.205-1.418.348-2.158v-4.684h1.163l.187-.622h-1.35v-7.775h4.043c.081-.205.156-.417.236-.622h-4.279v-7.775l6.531-.019Zm-6.531-8.378h6.531v7.775h-6.531v-7.775Zm-22.081 58.138h-6.531v-7.756h6.531v7.756Zm0-8.397h-6.531v-7.775h6.531v7.775Zm0-8.397h-6.531v-7.756h6.531v7.756Zm0-8.397h-6.531v-7.775h6.531v7.775Zm0-8.397h-6.531v-7.756h6.531v7.756Zm0-8.397h-6.531v-7.775h6.531v7.775Zm0-8.397h-6.531v-7.756h6.531v7.756Zm7.153 50.382h-6.531v-7.756h6.531v7.756Zm0-8.397h-6.531v-7.775h6.531v7.775Zm0-8.397h-6.531v-7.756h6.531v7.756Zm0-8.397h-6.531v-7.775h6.531v7.775Zm0-8.397h-6.531v-7.756h6.531v7.756Zm0-8.397h-6.531v-7.775h6.531v7.775Zm0-8.397h-6.531v-7.756h6.531v7.756Zm0-8.397h-6.531v-7.775h6.531v7.775Zm0-8.397h-6.531v-7.756h6.531v7.756Zm7.153 67.176h-6.531v-7.756h6.531v7.756Zm0-8.397h-6.531v-7.775h6.531v7.775Zm0-8.397h-6.531v-7.756h6.531v7.756Zm0-8.397h-6.531v-7.775h6.531v7.775Zm0-8.397h-6.531v-7.756h6.531v7.756Zm0-8.397h-6.531v-7.775h6.531v7.775Zm0-8.397h-6.531v-7.756h6.531v7.756Zm0-8.397h-6.531v-7.775h6.531v7.775Zm7.153 33.588h-6.531v-7.775h6.531v7.775Zm0-8.397h-6.531v-7.756h6.531v7.756Zm0-8.397h-6.531v-7.775h6.531v7.775Zm0-8.397h-6.531v-7.756h6.531v7.756Zm0-8.397h-6.531v-7.775h6.531v7.775Z" fill="#000"/><path d="M216.456 249.422c0 14.088.485 27.642.622 30.602h27.15c.374-4.391 2.712-31.722 3.913-41.518 1.312-10.705 9.921-26.64 9.921-32.344 0-5.704 1.747-4.802-6.115-8.951-7.862-4.148-25.203-13.105-27.604-14.2-2.401-1.095-5.026-3.732-5.026-3.732s.871 5.461.622 20.308-3.483 33.906-3.483 49.835Z" stroke="#263238" stroke-miterlimit="10"/><path d="M219.317 179.335s.871 5.461.622 20.308c-.049 3.732-.304 7.763-.622 11.918.747-1.027 3.154-4.304 3.732-4.491.653-.218 4.149 3.06 6.985 3.496 2.837.435 3.931.435.877-2.843-3.054-3.278-4.354-12.882-5.461-20.091-.21-1.543-.55-3.066-1.014-4.553h-.074c-2.426-1.119-5.045-3.744-5.045-3.744Z" fill="#263238" stroke="#263238" stroke-miterlimit="10"/><path d="M237.237 246.884c2.009-.914 3.589-1.704 3.589-1.704l.74 5.71s-10.872 4.789-16.949 5.156c-6.077.367-6.631.554-6.631.554l.181-5.524" stroke="#263238" stroke-miterlimit="10"/><path d="M231.794 249.117c1.114-.373 2.42-.902 3.695-1.455m-15.301 2.861c3.179-.081 6.35-.37 9.492-.865m11.886 1.232.367 4.422" stroke="#263238" stroke-miterlimit="10"/><path d="M158.23 280.037h30.553c.069-2.395.952-32.829 1.549-48.361.622-16.172 11.594-40.703 11.594-40.703s1.468-3.459-.087-5.014c-1.555-1.555-5.287-.933-8.086 1.244-2.799 2.177-28.612 13.373-30.167 14.928-1.555 1.555-1.244 6.842-1.866 13.062-.622 6.22-10.885 49.138-10.885 49.138s-2.799.622-3.732 1.244c-.933.622-.933 2.488-.933 2.488s1.244.311 4.976 2.177c3.433 1.717 6.599 8.683 7.084 9.797Z" fill="#fff"/><path opacity=".2" d="M197.796 198.088v3.179c.212-.572.417-1.126.622-1.661v-1.518h.585l.242-.622h-.827v-7.756h3.919c.043-.193.093-.404.124-.622h-4.043v-3.906c-.205.031-.41.062-.622.112v3.794h-6.531v-.423l-.622.317v.106h-.211l-1.244.622h1.455v7.775h-6.531v-5.349l-.622.292v5.038h-6.531v-1.984l-.622.293v1.691h-3.614l-1.318.622h4.932v7.794h-6.531v-7.029l-.622.299v6.73h-6.531v-1.567c-.35 2.265-.557 4.55-.622 6.842v3.11h-.224l-.056.622h.28v7.787h-1.673l-.131.622h1.804v7.775h-3.489c-.044.205-.093.417-.137.622h3.626v7.775h-5.38c-.05.212-.093.417-.143.622h5.523v7.775H155.5v-3.421l-.622 2.687v.703h-.161l-.144.622h.305v7.806h-2.127l-.149.622h2.276v7.775h-5.281c-.634.17-1.257.377-1.866.622v3.384c.187.074.392.161.622.267v-3.651h6.525v8.708c.218.311.423.622.622.939v-9.641h6.531v14.773h.622v-14.798h6.531v14.773h.622v-14.773h6.531v14.773h.622v-14.773h6.531v14.773h.622v-14.773h5.107v-.622h-5.107v-7.756h5.368v-.622h-5.368v-7.775h5.636v-.622h-5.636v-7.775h5.915v-.622h-5.915v-7.775h6.22c0-.205 0-.41.031-.622h-6.251v-7.775h6.531v4.597c.162-1.325.367-2.687.622-4.068v-.529h.1c.037-.205.081-.41.118-.622h-.218v-7.775h2.084c.056-.205.118-.41.174-.622h-2.258v-7.775h4.665c.075-.205.143-.417.212-.622h-4.877v-7.775l6.531-.019Zm-6.531-8.378h6.531v7.775h-6.531v-7.775Zm-29.234 74.951H155.5v-7.775h6.531v7.775Zm0-8.397H155.5v-7.775h6.531v7.775Zm7.153 8.397h-6.531v-7.775h6.531v7.775Zm0-8.397h-6.531v-7.775h6.531v7.775Zm0-8.397h-6.531v-7.775h6.531v7.775Zm0-8.397h-6.531v-7.775h6.531v7.775Zm0-8.397h-6.531v-7.775h6.531v7.775Zm0-8.397h-6.531v-7.775h6.531v7.775Zm0-8.397h-6.531v-7.775h6.531v7.775Zm7.153 50.382h-6.531v-7.775h6.531v7.775Zm0-8.397h-6.531v-7.775h6.531v7.775Zm0-8.397h-6.531v-7.775h6.531v7.775Zm0-8.397h-6.531v-7.775h6.531v7.775Zm0-8.397h-6.531v-7.775h6.531v7.775Zm0-8.397h-6.531v-7.775h6.531v7.775Zm0-8.397h-6.531v-7.775h6.531v7.775Zm7.153 50.382h-6.531v-7.775h6.531v7.775Zm0-8.397h-6.531v-7.775h6.531v7.775Zm0-8.397h-6.531v-7.775h6.531v7.775Zm0-8.397h-6.531v-7.775h6.531v7.775Zm0-8.397h-6.531v-7.775h6.531v7.775Zm0-8.397h-6.531v-7.775h6.531v7.775Zm0-8.397h-6.531v-7.775h6.531v7.775Zm0-8.397h-6.531v-7.775h6.531v7.775Zm7.153 16.794h-6.531v-7.775h6.531v7.775Zm0-8.397h-6.531v-7.775h6.531v7.775Zm0-8.397h-6.531v-7.775h6.531v7.775Z" fill="#000"/><path d="M158.23 280.037h30.553c.069-2.395.952-32.829 1.549-48.361.622-16.172 11.594-40.703 11.594-40.703s1.468-3.459-.087-5.014c-1.555-1.555-5.287-.933-8.086 1.244-2.799 2.177-28.612 13.373-30.167 14.928-1.555 1.555-1.244 6.842-1.866 13.062-.622 6.22-10.885 49.138-10.885 49.138s-2.799.622-3.732 1.244c-.933.622-.933 2.488-.933 2.488s1.244.311 4.976 2.177c3.433 1.717 6.599 8.683 7.084 9.797Z" stroke="#263238" stroke-miterlimit="10"/><path d="M146.17 268.082s1.244.311 4.976 2.177 7.153 9.952 7.153 9.952h6.027c.38-1.132 1.306-5.25-2.917-10.263-4.976-5.909-10.574-5.598-10.574-5.598s-2.799.622-3.732 1.244c-.933.622-.933 2.488-.933 2.488Zm51.912-82.863c-1.337 3.539-4.503 11.544-7.128 15.357-3.421 4.976-9.641 9.019-7.464 10.885 2.177 1.866 8.397-4.043 8.397-4.043s1.555 4.354 1.866 5.598c.017.057.044.109.081.156 2.245-7.556 4.945-14.97 8.086-22.199 0 0 1.468-3.459-.087-5.014-.802-.808-2.171-1.02-3.751-.74Z" fill="#263238" stroke="#263238" stroke-miterlimit="10"/><path d="M175.367 215.243c.178-1.15.294-2.308.348-3.471m-5.287 69.042s.933-19.904.933-31.411c0-8.291 2.258-22.236 3.526-30.776" stroke="#263238" stroke-miterlimit="10"/><path d="M171.983 245.068s4.976 1.555 7.464 1.866l7.464.933-.566 7.047s-.367-.205-5.965-2.071-9.019-3.421-9.019-3.421" stroke="#263238" stroke-miterlimit="10"/><path d="M186.345 254.896s-.367 13.808-.367 15.674c0 1.866-5.598.622-5.598.622" stroke="#263238" stroke-miterlimit="10"/><path d="M190.811 178.651s5.865 8.434 11.115 12.322c5.25 3.887 9.728-1.555 13.23-7.39 3.502-5.834 5.834-10.113 7.582-15.17 1.748-5.057 0-13.417-6.997-20.029-6.998-6.612-23.344-16.34-27.424-11.283-4.081 5.057-7.974 16.172-5.256 25.67 1.623 5.71 4.247 11.087 7.75 15.88Z" fill="#9E9E9E" stroke="#263238" stroke-miterlimit="10"/><path d="M188.342 160.507c2.213-.663 4.572-.663 6.786 0" stroke="#263238" stroke-width="2" stroke-miterlimit="10" stroke-linecap="round"/><path d="M193.361 165.713c.187 1.008-.05 1.897-.529 1.984-.479.088-1.007-.659-1.194-1.673-.187-1.014.05-1.897.529-1.984.479-.087 1.007.659 1.194 1.673Zm17.304.268c.181 1.007-.056 1.866-.529 1.984-.472.118-1.007-.66-1.194-1.673-.186-1.014.05-1.897.529-1.985.479-.087 1.008.66 1.194 1.674Z" fill="#263238"/><path d="M197.846 179.696c2.247.774 4.624 1.104 6.997.97 4.087-.193 7.589-3.11 7.589-3.11" stroke="#263238" stroke-miterlimit="10"/><path d="M188.92 141.399s8.64 19.705 9.722 20.246c1.082.541 3.241-5.94 3.241-5.94s2.967 5.393 6.487 7.016c3.521 1.624 4.59-1.076 4.59-1.076 1.764.994 3.477 2.075 5.132 3.241l1.35 1.076 1.349 4.858s-4.049 13.23-2.699 14.853c1.35 1.624 8.907-.541 8.907-.541s-1.866 2.7.541 2.7 6.749.541 12.956-7.831c6.208-8.373 6.749-21.864 6.749-21.864s2.967 3.235 3.241-.815c.273-4.049-3.508-10.797-3.508-10.797s5.934 5.94 5.399-.268c-.535-6.207-4.05-13.23-5.399-14.847-1.35-1.617-9.455-6.22-9.455-6.22s3.241-.541.815-4.323c-2.426-3.782-11.339-4.858-14.58-4.858-3.24 0-9.989 1.082-9.989 1.082s4.323-8.372-.267-8.913c-4.591-.541-12.689 8.372-12.689 8.372s-8.086-6.481-10.531-5.131c-2.444 1.35-.808 3.24-.808 3.24s-10.524.809-13.498 5.399c-2.973 4.591.541 7.29.541 7.29s-18.896 12.957-15.929 17.814c2.967 4.858 8.372.274 8.372.274s-7.563 19.438-6.481 20.787c1.082 1.35 6.22-.541 6.22-.541s-.268 15.656 3.782 17.279c4.049 1.624 4.858-1.349 4.858-1.349s2.158 2.158 7.022 2.425c4.864.268 6.475-5.399 6.475-5.399s-5.399-12.688-5.125-23.213c.273-10.524 3.209-14.026 3.209-14.026Z" fill="#263238" stroke="#263238" stroke-miterlimit="10"/><path d="M199.793 164.133s-1.947 10.114-.392 12.254c1.555 2.139 7.003 0 7.389-1.163" fill="#9E9E9E"/><path d="M199.793 164.133s-1.947 10.114-.392 12.254c1.555 2.139 7.003 0 7.389-1.163" stroke="#263238" stroke-miterlimit="10"/><path d="M191.719 170.359c4.242 0 7.681-2.525 7.681-5.641s-3.439-5.642-7.681-5.642c-4.243 0-7.682 2.526-7.682 5.642 0 3.116 3.439 5.641 7.682 5.641Zm18.473-.385c4.243 0 7.682-2.526 7.682-5.642 0-3.115-3.439-5.641-7.682-5.641-4.242 0-7.681 2.526-7.681 5.641 0 3.116 3.439 5.642 7.681 5.642Zm-10.4-5.841s1.555-1.163 2.719.199" stroke="#263238" stroke-miterlimit="10"/><path d="M135.789 271.758s9.765-2.755 12.769-3.253c3.004-.498 9.019 5.007 10.021 8.011 1.001 3.005-.28 3.676-.28 3.676l-20.01-.665-2.5-7.769Z" fill="#9E9E9E" stroke="#263238" stroke-miterlimit="10"/><path d="M139.328 270.788s7.371 2.761 9.212 3.868c1.841 1.108 1.287 3.316.186 4.417-1.328 1.11-2.912 1.871-4.609 2.214-1.717.098-3.439.098-5.156 0-2.208-.187-4.236.187-6.077.187-1.841 0-7.371-.554-7.371-.554l-1.66-1.107s-3.11.92-5.524 1.866c-2.413.945-1.66-1.107.181-2.582 1.841-1.474 6.45-5.156 7.19-5.523.74-.367 10.132-3.11 10.132-3.11l3.496.324Z" fill="#9E9E9E" stroke="#263238" stroke-miterlimit="10"/><path d="M142.09 271.522s-4.796-2.209-6.083-2.209c-1.288 0-10.5 3.11-11.787 4.05-1.288.939-2.582 9.765-1.661 10.319.921.553 1.661-1.107 1.866-2.208.205-1.101 2.768-7.004 2.768-7.004l-1.866 9.398s.74 1.468 1.474.181c.734-1.288 5.343-10.133 5.71-10.686.483-.514 1.043-.948 1.661-1.288 0 0-.921 4.056-1.661 7.924-.74 3.869-.18 4.976.927 5.157 1.107.18 1.654-2.395 2.208-3.682.553-1.288 2.948-8.665 2.948-8.665" fill="#9E9E9E"/><path d="M142.09 271.522s-4.796-2.209-6.083-2.209c-1.288 0-10.5 3.11-11.787 4.05-1.288.939-2.582 9.765-1.661 10.319.921.553 1.661-1.107 1.866-2.208.205-1.101 2.768-7.004 2.768-7.004l-1.866 9.398s.74 1.468 1.474.181c.734-1.288 5.343-10.133 5.71-10.686.483-.514 1.043-.948 1.661-1.288 0 0-.921 4.056-1.661 7.924-.74 3.869-.18 4.976.927 5.157 1.107.18 1.654-2.395 2.208-3.682.553-1.288 2.948-8.665 2.948-8.665" stroke="#263238" stroke-miterlimit="10"/><path d="M147.414 275.21s-5.524 5.71-6.264 6.998c-.74 1.287-.734 1.474 1.294 1.474s8.291-4.056 8.839-4.609c.547-.554.373-2.208-.921-3.315-.412-.321-.895-.537-1.407-.633-.513-.095-1.042-.066-1.541.085Zm34.496-.634s-7.37 2.382-9.18 3.732c-1.811 1.349-4.423 2.836-3.857 3.29.566.454 2.382 0 2.948-.454.566-.454 3.173-.908 3.173-.908s3.06-1.816 5.442-3.284c2.382-1.468 4.192-3.061 1.474-2.376Z" fill="#9E9E9E" stroke="#263238" stroke-miterlimit="10"/><path d="M222.595 262.098s-20.526 3.732-27.953 6.339c-7.426 2.606-10.381 4.422-14.094 7.047-3.714 2.625-11.24 7.582-10.12 8.453 1.119.871 5.019-2.183 5.679-2.837.659-.653 5.455-2.618 5.455-2.618l3.209-1.642s-4.833 5.952-6.574 7.464c-1.742 1.511-.566 2.457.746 2.021 1.312-.435 3.788-3.041 3.788-3.041l7.98-5.25s-3.278 4.59-4.808 5.897c-1.53 1.306 1.748 2.407 2.407 1.312.66-1.095 3.931-3.931 3.931-3.931s5.455-2.836 6.768-3.931c1.312-1.095 4.584-4.149 4.584-4.149l24.457 1.966s1.53-.871.659-5.897-6.114-7.203-6.114-7.203Z" fill="#9E9E9E" stroke="#263238" stroke-miterlimit="10"/><path d="m239.19 223.447 12.011 29.707-19.438 6.767 5.461 15.942s13.958.037 24.88-.622c10.923-.659 18.586-7.246 16.838-15.102-1.748-7.856-8.298-19.22-13.541-32.761-5.243-13.541-3.62-21.614-6.021-25.763-2.401-4.149-9.174-5.243-9.174-5.243l-3.732-.622" fill="#fff"/><path opacity=".2" d="M277.101 268.399v-3.11h1.623c.069-.205.125-.41.174-.622h-1.797v-7.781h.933c-.069-.199-.143-.41-.212-.622h-.721v-1.897c-.199-.516-.405-1.045-.622-1.574v3.471h-6.531v-7.775h4.69c-.094-.205-.181-.41-.274-.622h-4.416v-7.775h.871c-.1-.205-.193-.41-.287-.622h-.584v-1.3c-.206-.46-.417-.92-.622-1.387v2.687h-6.531v-7.775h4.354c-.087-.205-.174-.41-.255-.622h-4.099v-7.775h1.163c-.069-.205-.131-.417-.193-.622h-.97v-3.545c-.237-.983-.442-1.922-.622-2.824v6.369h-6.531v-7.775h6.27l-.112-.622h-6.158v-7.775h5.106l-.093-.622h-5.013v-7.626c-.546-.292-1.106-.556-1.68-.79h-5.473v-1.393l-.622-.112v1.505h-1.835l-.168.622h2.003v7.794h-4.043l-.162.622h4.211v7.775h-6.264l-.167.622h6.425v7.775h-6.531v-7.377l-.622 2.358v4.976h-1.319l-.162.622h1.481v3.937l.622 1.536v-5.43h6.531v7.775h-5.598l.249.622h5.349v7.775h-2.177l.255.622h1.953v4.833l.622 1.536v-6.369h6.5v7.775h-5.965l.255.622h5.71v7.775h-6.531v-2.152l-.622.218v1.934h-5.561l-1.791.622h.199v7.775h-6.531v-5.598l-.622.218v5.349h-.181l.803 2.339v-1.717h6.531v10.574h.622v-10.574h6.531v10.493h.622v-10.481h6.531v10.282h.622v-10.282h6.531v9.952l.622-.049v-9.903h6.531v8.534l.622-.236v-8.298h6.531v3.907c.217-.255.429-.51.622-.772Zm-29.234-3.732h-6.531v-7.781h6.531v7.781Zm7.153 0h-6.531v-7.781h6.531v7.781Zm0-25.191h-6.531v-7.775h6.531v7.775Zm0-8.397h-6.531v-7.781h6.531v7.781Zm0-8.397h-6.531v-7.775h6.531v7.775Zm0-8.397h-6.531v-7.781h6.531v7.781Zm0-8.397h-6.531v-7.775h6.531v7.775Zm7.153 58.779h-6.531v-7.781h6.531v7.781Zm0-8.397h-6.531v-7.775h6.531v7.775Zm0-8.397h-6.531v-7.781h6.531v7.781Zm0-8.397h-6.531v-7.775h6.531v7.775Zm0-8.397h-6.531v-7.781h6.531v7.781Zm7.153 33.588h-6.531v-7.781h6.531v7.781Zm0-8.397h-6.531v-7.775h6.531v7.775Zm0-8.397h-6.531v-7.781h6.531v7.781Zm.622 16.794v-7.781h6.531v7.775l-6.531.006Z" fill="#263238"/><path d="m239.19 223.447 12.011 29.707-19.438 6.767 5.461 15.942s13.958.037 24.88-.622c10.923-.659 18.586-7.246 16.838-15.102-1.748-7.856-8.298-19.22-13.541-32.761-5.243-13.541-3.62-21.614-6.021-25.763-2.401-4.149-9.174-5.243-9.174-5.243l-3.732-.622" stroke="#263238" stroke-miterlimit="10"/><path d="M262.894 250.131c-3.963.734-7.87 1.742-11.693 3.017 0 0 8.297-5.461 12.881-5.897m4.373 2.619c-.86-.124-1.732-.153-2.6-.087" stroke="#263238" stroke-miterlimit="10"/><path d="M237.442 257.508s4.416 4.223 5.722 7.495c1.307 3.272.828 12.16-.043 13.031-.871.871-17.124.765-19.798-2.575-.697-.871 4.074-2.88 1.673-7.688s-3.496-5.237-3.496-5.237-1.965-1.095 1.748-3.496 12.229-4.142 14.194-1.53Z" fill="#263238" stroke="#263238" stroke-miterlimit="10"/><path d="M276.162 291.183H260.04l-2.016-31.871h20.153l-2.015 31.871Z" fill="#263238" stroke="#263238" stroke-linejoin="round"/><path d="M279.073 259.362h-21.938v4.64h21.938v-4.64Z" fill="#fff" stroke="#263238" stroke-linejoin="round"/><path d="M279.073 259.536h-21.938l2.189-2.749h17.553l2.196 2.749Zm-2.321 22.299.803-12.695h-18.909l.802 12.695h17.304Z" fill="#fff" stroke="#263238" stroke-linejoin="round"/><path d="m183.253 293.304 19.867-5.25v2.687l-19.867 5.567v-3.004Z" fill="#263238" stroke="#263238" stroke-linejoin="round"/><path d="M203.12 288.054H99.2525l-20.0782 5.25H183.254l19.866-5.25Z" fill="#fff" stroke="#263238" stroke-linejoin="round"/><path d="M183.254 233.281H79.1743v63.027H183.254v-63.027Z" fill="#fff" stroke="#263238" stroke-linejoin="round"/><path d="M183.254 242.399c-22.641 1.076-36.126 21.945-56.161 35.927-18.262 12.751-40.8154 14.928-47.8938 15.27v2.712H183.254v-53.909Z" fill="#263238" stroke="#263238" stroke-linejoin="round"/><path d="M183.254 293.304H79.1743v3.004H183.254v-3.004Z" fill="#fff" stroke="#263238" stroke-miterlimit="10"/><path d="M48.3605 272.511s-8.6707-13.871-1.7105-21.677c6.9602-7.806 18.206-4.049 20.526 3.178 2.3201 7.228-2.5999 19.369-2.5999 19.369l-16.2156-.87Z" fill="#fff" stroke="#263238" stroke-linecap="round" stroke-linejoin="round"/><path d="M48.6468 256.612c-1.443 0-6.9353-2.021-8.6707-4.621-1.7353-2.6-2.0339-8.385 2.8923-8.385 4.9263 0 6.6492 8.671 6.6492 8.671l.2861 3.178" fill="#fff"/><path d="M48.6468 256.612c-1.443 0-6.9353-2.021-8.6707-4.621-1.7353-2.6-2.0339-8.385 2.8923-8.385 4.9263 0 6.6492 8.671 6.6492 8.671l.2861 3.178" stroke="#263238" stroke-linecap="round" stroke-linejoin="round"/><path d="M53.0941 251.213c-1.2937-.622-5.3056-4.901-5.6975-8.005-.3918-3.104 1.9344-8.403 6.332-6.22 4.3975 2.183 2.0775 10.73 2.0775 10.73l-1.1632 2.973" fill="#fff"/><path d="M53.0941 251.213c-1.2937-.622-5.3056-4.901-5.6975-8.005-.3918-3.104 1.9344-8.403 6.332-6.22 4.3975 2.183 2.0775 10.73 2.0775 10.73l-1.1632 2.973" stroke="#263238" stroke-linecap="round" stroke-linejoin="round"/><path d="M58.3436 252.669c-.7215-1.244-1.6918-7.023-.2985-9.822 1.3932-2.799 6.2697-5.921 8.7079-1.654 2.4383 4.267-4.2233 10.076-4.2233 10.076l-2.6187 1.829" fill="#fff"/><path d="M58.3436 252.669c-.7215-1.244-1.6918-7.023-.2985-9.822 1.3932-2.799 6.2697-5.921 8.7079-1.654 2.4383 4.267-4.2233 10.076-4.2233 10.076l-2.6187 1.829" stroke="#263238" stroke-linecap="round" stroke-linejoin="round"/><path d="M60.0665 263.031c-.2363-1.43.846-7.177 3.11-9.33 2.2641-2.152 7.9305-3.389 8.7454 1.456.8148 4.845-7.464 7.999-7.464 7.999l-3.11.808" fill="#fff"/><path d="M60.0665 263.031c-.2363-1.43.846-7.177 3.11-9.33 2.2641-2.152 7.9305-3.389 8.7454 1.456.8148 4.845-7.464 7.999-7.464 7.999l-3.11.808" stroke="#263238" stroke-linecap="round" stroke-linejoin="round"/><path d="m40.6104 248.501.9765 1.537m1.8164 2.233 1.5301 1.25m-3.2034-7.949 1.5301 2.233m2.0963 1.816 1.6732 3.067m2.2267-10.463.5598 1.674m1.3934 3.066.9765 1.4m-1.393-9.486 1.2564 2.787m-6.1392 16.881.4229 2.506m.8334 2.37.5598 2.096m.8333-6.835.5598 2.786m1.2566 1.953.4167 2.096m.5598-10.462.8335 3.907m1.1197 3.763.1368 1.816m1.3934-10.742.6967 3.626m-.0004 3.769.2799 3.763m3.0727-9.765v3.073m-.4229 3.906.1431 2.37m3.763-23.854-.6966 1.679m-.2799 1.947-.6967 2.376m4.7399-2.792-1.1134 2.233m-2.37 2.513-1.2565 1.393m-1.3933-6.276-.4167 1.81m6.5496 8.229-1.5301 2.513m-.9762 1.53-.8397 2.233m2.0962 1.119 2.5066-1.399m1.5359-5.996-1.2564 2.096m2.513.274-1.6732 1.256" stroke="#fff" stroke-linecap="round" stroke-linejoin="round"/><path d="M67.6799 267.671H43.9692v23.711h23.7107v-23.711Z" fill="#263238" stroke="#263238" stroke-linecap="round" stroke-linejoin="round"/></svg>