<svg width="390" height="390" fill="none" xmlns="http://www.w3.org/2000/svg"><path d="M341.897 130.533h-69.669v158.044h69.669V130.533Z" stroke="#263238" stroke-width=".75" stroke-linecap="round" stroke-linejoin="round"/><path d="M335.782 136.648h-57.439v145.813h57.439V136.648Zm-50.91 64.381-1.568 2.722m18.057-31.27-14.68 25.428m28.15-48.765-11.123 19.266m13.479-23.338-1.186 2.044m-26.457 123.216-1.334 2.309m4.423-7.659-1.412 2.457m20.249-35.085-15.811 27.394m29.811-51.644-12.378 21.45m15.444-26.754-1.224 2.122m-20.249 47.962-11.404 19.757m25.99-45.021-12.925 22.386m15.959-27.636-1.529 2.644m-39.85-3.533-1.732 3.003m16.887-29.25-13.767 23.845m32.682-56.605-17.292 29.944m28.657-49.631-10.031 17.378m-200.936-29.632H48.1025v158.044h69.6695V130.533Z" stroke="#263238" stroke-width=".75" stroke-linecap="round" stroke-linejoin="round"/><path d="M111.657 136.648H54.2178v145.813h57.4392V136.648Zm-50.9105 64.381-1.5678 2.722m18.0492-31.27-14.6796 25.428m28.158-48.765L79.5835 168.41m13.4703-23.338-1.1778 2.044M65.4188 270.332l-1.3338 2.309m4.4225-7.659-1.4196 2.457m20.2564-35.085-15.8184 27.394m29.8191-51.644-12.386 21.45m15.452-26.754-1.233 2.122m-20.2407 47.962-11.4114 19.757m25.9973-45.021-12.9246 22.386M100.55 222.37l-1.5212 2.644m-39.8504-3.533-1.7394 3.003m16.8871-29.25-13.767 23.845m32.6822-56.605-17.2848 29.944m28.6495-49.631-10.0313 17.378" stroke="#263238" stroke-width=".75" stroke-linecap="round" stroke-linejoin="round"/><path d="M23.0098 354.455H366.99" stroke="#263238" stroke-linecap="round" stroke-linejoin="round"/><path d="M142.498 292.664h-5.967v20.288h5.967v-20.288Z" fill="#fff"/><path opacity=".2" d="M142.498 292.664h-5.967v20.288h5.967v-20.288Z" fill="#000"/><path d="M148.473 294.895h-5.967v18.057h5.967v-18.057Zm7.449 0h-4.212v18.057h4.212v-18.057Z" fill="#fff"/><path opacity=".9" d="M155.922 294.895h-4.212v18.057h4.212v-18.057Z" fill="#fff"/><path d="M151.718 292.991h-3.822v19.968h3.822v-19.968Z" fill="#fff"/><path opacity=".1" d="M151.718 292.991h-3.822v19.968h3.822v-19.968Z" fill="#000"/><path d="M161.897 292.664h-5.967v20.288h5.967v-20.288Z" fill="#fff"/><path d="M167.863 294.895h-5.967v18.057h5.967v-18.057Z" fill="#fff"/><path opacity=".2" d="M167.863 294.895h-5.967v18.057h5.967v-18.057Z" fill="#263238"/><path d="M175.32 294.895h-4.212v18.057h4.212v-18.057Z" fill="#fff"/><path opacity=".8" d="M175.32 294.895h-4.212v18.057h4.212v-18.057Z" fill="#fff"/><path d="M171.109 292.991h-3.822v19.968h3.822v-19.968Z" fill="#fff"/><path opacity=".1" d="M171.109 292.991h-3.822v19.968h3.822v-19.968Z" fill="#000"/><path d="M203.79 312.959h5.967v-20.287h-5.967v20.287Z" fill="#fff"/><path opacity=".2" d="M203.79 312.959h5.967v-20.287h-5.967v20.287Z" fill="#000"/><path d="M197.816 312.959h5.967v-18.057h-5.967v18.057Zm-7.449 0h4.212v-18.057h-4.212v18.057Z" fill="#fff"/><path opacity=".9" d="M190.367 312.959h4.212v-18.057h-4.212v18.057Z" fill="#fff"/><path d="M194.571 312.952h3.822v-19.968h-3.822v19.968Z" fill="#fff"/><path opacity=".1" d="M194.571 312.952h3.822v-19.968h-3.822v19.968Z" fill="#000"/><path d="M184.392 312.959h5.967v-20.287h-5.967v20.287Z" fill="#fff"/><path d="M178.425 312.959h5.967v-18.057h-5.967v18.057Z" fill="#fff"/><path opacity=".2" d="M178.425 312.959h5.967v-18.057h-5.967v18.057Z" fill="#263238"/><path d="M175.18 312.952h3.822v-19.968h-3.822v19.968Z" fill="#fff"/><path opacity=".1" d="M175.18 312.952h3.822v-19.968h-3.822v19.968Z" fill="#000"/><path d="M238.188 312.959h5.967v-20.287h-5.967v20.287Z" fill="#fff"/><path opacity=".2" d="M238.188 312.959h5.967v-20.287h-5.967v20.287Z" fill="#000"/><path d="M232.214 312.959h5.967v-18.057h-5.967v18.057Zm-7.449 0h4.212v-18.057h-4.212v18.057Z" fill="#fff"/><path opacity=".9" d="M224.765 312.959h4.212v-18.057h-4.212v18.057Z" fill="#fff"/><path d="M228.969 312.952h3.822v-19.968h-3.822v19.968Z" fill="#fff"/><path opacity=".1" d="M228.969 312.952h3.822v-19.968h-3.822v19.968Z" fill="#000"/><path d="M218.79 312.959h5.967v-20.287h-5.967v20.287Zm29.25-.716 3.919-1.051-5.275-19.679-3.919 1.05 5.275 19.68Z" fill="#fff"/><path d="M212.823 312.959h5.967v-18.057h-5.967v18.057Z" fill="#fff"/><path opacity=".2" d="M212.823 312.959h5.967v-18.057h-5.967v18.057Z" fill="#263238"/><path d="M209.578 312.952h3.822v-19.968h-3.822v19.968Z" fill="#fff"/><path opacity=".1" d="M209.578 312.952h3.822v-19.968h-3.822v19.968Z" fill="#000"/><path d="m250.038 339.313 4.008-1.074-5.251-19.597-4.008 1.074 5.251 19.597Z" fill="#fff"/><path opacity=".2" d="m250.038 339.313 4.008-1.074-5.251-19.597-4.008 1.074 5.251 19.597Z" fill="#000"/><path d="M239.741 339.113h5.967v-18.057h-5.967v18.057Zm-7.465 0h4.212v-18.057h-4.212v18.057Z" fill="#fff"/><path opacity=".9" d="M232.276 339.113h4.212v-18.057h-4.212v18.057Z" fill="#fff"/><path d="M236.488 339.121h3.822v-19.968h-3.822v19.968Z" fill="#fff"/><path opacity=".1" d="M236.488 339.121h3.822v-19.968h-3.822v19.968Z" fill="#000"/><path d="M226.317 339.121h5.967v-20.288h-5.967v20.288Zm-5.975-.008h5.967v-18.057h-5.967v18.057Z" fill="#fff"/><path opacity=".2" d="M220.342 339.113h5.967v-18.057h-5.967v18.057Z" fill="#263238"/><path d="M212.893 339.113h4.212v-18.057h-4.212v18.057Z" fill="#fff"/><path opacity=".8" d="M212.893 339.113h4.212v-18.057h-4.212v18.057Z" fill="#fff"/><path d="M217.097 339.121h3.822v-19.968h-3.822v19.968Z" fill="#fff"/><path opacity=".1" d="M217.097 339.121h3.822v-19.968h-3.822v19.968Z" fill="#000"/><path d="M184.423 318.833h-5.967v20.288h5.967v-20.288Z" fill="#fff"/><path opacity=".2" d="M184.423 318.833h-5.967v20.288h5.967v-20.288Z" fill="#000"/><path d="M190.39 321.063h-5.967v18.057h5.967v-18.057Zm7.457 0h-4.212v18.057h4.212v-18.057Z" fill="#fff"/><path opacity=".9" d="M197.847 321.063h-4.212v18.057h4.212v-18.057Z" fill="#fff"/><path d="M193.635 319.153h-3.822v19.968h3.822v-19.968Z" fill="#fff"/><path opacity=".1" d="M193.635 319.153h-3.822v19.968h3.822v-19.968Z" fill="#000"/><path d="M203.814 318.833h-5.967v20.288h5.967v-20.288Zm5.967 2.23h-5.967v18.057h5.967v-18.057Z" fill="#fff"/><path opacity=".2" d="M209.781 321.063h-5.967v18.057h5.967v-18.057Z" fill="#263238"/><path d="M213.026 319.153h-3.822v19.968h3.822v-19.968Z" fill="#fff"/><path opacity=".1" d="M213.026 319.153h-3.822v19.968h3.822v-19.968Z" fill="#000"/><path d="M150.025 318.833h-5.967v20.288h5.967v-20.288Z" fill="#fff"/><path opacity=".2" d="M150.025 318.833h-5.967v20.288h5.967v-20.288Z" fill="#000"/><path d="M155.992 321.063h-5.967v18.057h5.967v-18.057Zm7.457 0h-4.212v18.057h4.212v-18.057Z" fill="#fff"/><path opacity=".9" d="M163.449 321.063h-4.212v18.057h4.212v-18.057Z" fill="#fff"/><path d="M159.237 319.153h-3.822v19.968h3.822v-19.968Z" fill="#fff"/><path opacity=".1" d="M159.237 319.153h-3.822v19.968h3.822v-19.968Z" fill="#000"/><path d="M169.416 318.833h-5.967v20.288h5.967v-20.288Zm-25.37.867-3.903-1.046-5.251 19.597 3.903 1.045 5.251-19.596Zm31.337 1.363h-5.967v18.057h5.967v-18.057Z" fill="#fff"/><path opacity=".2" d="M175.383 321.063h-5.967v18.057h5.967v-18.057Z" fill="#263238"/><path d="M178.628 319.153h-3.822v19.968h3.822v-19.968Z" fill="#fff"/><path opacity=".1" d="M178.628 319.153h-3.822v19.968h3.822v-19.968Z" fill="#000"/><path d="M141.118 354.455h-5.967l-.819-11.544h7.605l-.819 11.544Zm113.731 0h-5.967l-.819-11.544h7.605l-.819 11.544Z" fill="#263238"/><path d="M261.425 285.004h-132.85c-.759 0-1.487.302-2.024.839-.537.536-.839 1.265-.839 2.024v54.272c0 .759.302 1.487.839 2.024.537.537 1.265.839 2.024.839h132.85c.759 0 1.487-.302 2.024-.839.537-.537.838-1.265.838-2.024v-54.272c0-.759-.301-1.488-.838-2.024-.537-.537-1.265-.839-2.024-.839Zm-2.871 5.733v22.222h-127.14v-22.222h127.14ZM131.445 339.3v-22.246h127.14V339.3h-127.14Z" fill="#fff" stroke="#263238" stroke-width=".75" stroke-linecap="round" stroke-linejoin="round"/><path d="M241.784 171.007h-91.923c-2.955 0-5.351 2.396-5.351 5.351v19.734c0 2.955 2.396 5.351 5.351 5.351h91.923c2.955 0 5.351-2.396 5.351-5.351v-19.734c0-2.955-2.396-5.351-5.351-5.351Z" fill="#263238" stroke="#263238" stroke-linecap="round" stroke-linejoin="round"/><path d="M240.146 169.369h-91.923c-2.955 0-5.35 2.396-5.35 5.351v19.734c0 2.955 2.395 5.351 5.35 5.351h91.923c2.956 0 5.351-2.396 5.351-5.351V174.72c0-2.955-2.395-5.351-5.351-5.351Z" fill="#fff" stroke="#263238" stroke-linecap="round" stroke-linejoin="round"/><path d="M240.146 169.369h-91.923c-2.955 0-5.35 2.396-5.35 5.351v19.734c0 2.955 2.395 5.351 5.35 5.351h91.923c2.956 0 5.351-2.396 5.351-5.351V174.72c0-2.955-2.395-5.351-5.351-5.351Z" stroke="#263238" stroke-linecap="round" stroke-linejoin="round"/><path d="M165.594 193.573h-13.517v-17.098h9.009l4.508 4.509v12.589Z" fill="#fff"/><path opacity=".5" d="M165.594 193.573h-13.517v-17.098h9.009l4.508 4.509v12.589Z" fill="#fff"/><path d="M165.594 193.573h-13.517v-17.098h9.009l4.508 4.508v12.59Z" stroke="#263238" stroke-linecap="round" stroke-linejoin="round"/><path d="M161.085 180.984h4.509l-4.509-4.509v4.509Z" fill="#fff" stroke="#263238" stroke-linecap="round" stroke-linejoin="round"/><path d="M155.08 185.546c-.213-.02-.41-.119-.554-.277-.143-.157-.223-.363-.223-.577 0-.213.08-.419.223-.577.144-.158.341-.256.554-.277h7.511c.212.021.41.119.553.277.144.158.223.364.223.577 0 .214-.079.42-.223.577-.143.158-.341.257-.553.277h-7.511Zm0 3.596c-.213-.02-.41-.119-.554-.277-.143-.158-.223-.363-.223-.577 0-.213.08-.419.223-.577.144-.158.341-.257.554-.277h5.873c.212.02.41.119.553.277.144.158.223.364.223.577 0 .214-.079.419-.223.577-.143.158-.341.257-.553.277h-5.873Z" fill="#858585" stroke="#263238" stroke-width=".75" stroke-linecap="round" stroke-linejoin="round"/><path d="M199.766 186.529h-25.155c-.449.03-.869.229-1.176.557-.307.328-.477.761-.477 1.21 0 .449.17.882.477 1.21.307.328.727.527 1.176.557h25.155v-3.534Z" fill="#fff"/><path d="M174.611 190.063c-.449-.03-.869-.229-1.176-.557-.307-.328-.477-.761-.477-1.21 0-.449.17-.882.477-1.21.307-.328.727-.527 1.176-.557h59.904c.242-.016.484.018.712.099.229.082.438.209.615.375s.318.366.414.588c.097.223.147.463.147.705 0 .242-.05.482-.147.705-.096.222-.237.422-.414.588-.177.165-.386.293-.615.375-.228.081-.47.115-.712.099h-59.904Z" stroke="#263238" stroke-linecap="round" stroke-linejoin="round"/><path d="M200.335 181.74h-1.896v-.897l1.802-4.267h1.084v4.267h.468v.897h-.468v1.147h-.99v-1.147Zm0-.897v-2.457l-.975 2.465.975-.008Zm1.919.554v-.492h.936v.562c0 .452.195.616.515.616s.515-.164.515-.616v-1.412c0-.452-.203-.624-.515-.624s-.515.172-.515.624v.055h-.936l.179-3.526h2.613v.905h-1.731l-.078 1.505c.087-.148.213-.269.364-.35.152-.081.322-.119.494-.11.725 0 1.1.515 1.1 1.443v1.42c0 1.014-.507 1.56-1.482 1.56s-1.459-.546-1.459-1.56Zm3.572-2.317v-1.56c-.012-.132.004-.266.047-.393.042-.126.11-.242.2-.34.09-.099.2-.177.322-.231.122-.054.253-.082.387-.082.133 0 .265.028.387.082.122.054.231.132.321.231.09.098.158.214.201.34.042.127.058.261.046.393v1.56c.012.133-.004.267-.046.393-.043.126-.111.242-.201.341-.09.098-.199.177-.321.231-.122.053-.254.081-.387.081-.134 0-.265-.028-.387-.081-.122-.054-.232-.133-.322-.231-.09-.099-.158-.215-.2-.341-.043-.126-.059-.26-.047-.393Zm1.279.047v-1.669c0-.273-.124-.39-.319-.39s-.328.117-.328.39v1.669c0 .281.117.398.328.398.21 0 .319-.125.319-.398Zm1.966-2.543h.632l-2.442 6.311h-.631l2.441-6.311Zm-.476 5.39v-1.56c-.012-.133.004-.266.046-.393.043-.126.111-.242.201-.34.09-.099.2-.177.322-.231.122-.054.253-.082.387-.082.133 0 .265.028.387.082.122.054.231.132.321.231.09.098.158.214.201.34.042.127.058.26.046.393v1.56c.012.133-.004.267-.046.393-.043.126-.111.242-.201.341-.09.098-.199.177-.321.23-.122.054-.254.082-.387.082-.134 0-.265-.028-.387-.082-.122-.053-.232-.132-.322-.23-.09-.099-.158-.215-.201-.341-.042-.126-.058-.26-.046-.393Zm1.279.047v-1.669c0-.281-.124-.398-.327-.398s-.32.117-.32.398v1.669c0 .281.117.398.32.398s.327-.117.327-.398Z" fill="#263238"/><path d="M241.784 206.326h-91.923c-2.955 0-5.351 2.395-5.351 5.35v19.734c0 2.956 2.396 5.351 5.351 5.351h91.923c2.955 0 5.351-2.395 5.351-5.351v-19.734c0-2.955-2.396-5.35-5.351-5.35Z" fill="#263238" stroke="#263238" stroke-linecap="round" stroke-linejoin="round"/><path d="M240.146 204.688h-91.923c-2.955 0-5.35 2.395-5.35 5.35v19.734c0 2.956 2.395 5.351 5.35 5.351h91.923c2.956 0 5.351-2.395 5.351-5.351v-19.734c0-2.955-2.395-5.35-5.351-5.35Z" fill="#fff" stroke="#263238" stroke-linecap="round" stroke-linejoin="round"/><path d="M219.609 221.629h-44.998c-.449.03-.869.229-1.176.557-.307.328-.477.761-.477 1.21 0 .449.17.882.477 1.21.307.328.727.527 1.176.557h44.998v-3.534Z" fill="#fff"/><path d="M174.611 225.163c-.449-.03-.869-.229-1.176-.557-.307-.328-.477-.761-.477-1.21 0-.449.17-.882.477-1.21.307-.328.727-.527 1.176-.557h59.904c.242-.016.484.018.712.099.229.082.438.209.615.375s.318.366.414.588c.097.223.147.463.147.705 0 .242-.05.482-.147.705-.096.222-.237.422-.414.588-.177.165-.386.293-.615.374-.228.082-.47.116-.712.1h-59.904Z" stroke="#263238" stroke-linecap="round" stroke-linejoin="round"/><path d="M198.557 216.528v-.561c-.031-.255.014-.513.129-.742.115-.229.295-.418.518-.545-.212-.124-.383-.308-.491-.529-.109-.22-.149-.468-.117-.712v-.257c0-.401.159-.786.443-1.07.284-.284.668-.443 1.07-.443.401 0 .786.159 1.07.443.284.284.443.669.443 1.07v.257c.028.244-.015.492-.124.712-.11.22-.281.403-.492.529.224.125.406.315.522.544.117.229.163.487.133.743v.561c0 .414-.164.811-.457 1.103-.292.293-.689.457-1.103.457-.414 0-.811-.164-1.103-.457-.293-.292-.457-.689-.457-1.103h.016Zm2.113-.055v-.608c0-.476-.195-.71-.561-.71-.367 0-.562.234-.562.71v.608c0 .476.195.71.562.71.366 0 .561-.234.561-.71Zm0-2.846v-.5c0-.413-.179-.632-.522-.632s-.523.219-.523.632v.5c0 .413.18.631.523.631s.483-.218.483-.631h.039Zm1.584 2.87v-.491h.936v.561c0 .453.195.616.515.616.319 0 .514-.163.514-.616v-1.412c0-.452-.202-.624-.514-.624s-.515.172-.515.624v.055h-.936l.179-3.526h2.613v.905h-1.731l-.078 1.506c.087-.149.213-.27.364-.351.151-.081.322-.119.494-.11.725 0 1.099.515 1.099 1.443v1.42c.015.203-.012.407-.08.599-.067.192-.174.368-.312.518-.139.149-.307.268-.494.349-.186.081-.388.123-.592.123-.203 0-.405-.042-.592-.123-.186-.081-.354-.2-.493-.349-.139-.15-.245-.326-.313-.518-.067-.192-.094-.396-.08-.599h.016Zm3.572-2.317v-1.56c-.012-.132.004-.266.047-.393.042-.126.11-.242.2-.34.09-.099.2-.177.322-.231.122-.054.253-.082.387-.082.133 0 .265.028.387.082.122.054.231.132.321.231.09.098.158.214.201.34.042.127.058.261.046.393v1.56c.012.133-.004.267-.046.393-.043.126-.111.242-.201.341-.09.098-.199.177-.321.231-.122.053-.254.081-.387.081-.134 0-.265-.028-.387-.081-.122-.054-.232-.133-.322-.231-.09-.099-.158-.215-.2-.341-.043-.126-.059-.26-.047-.393Zm1.279.047v-1.669c0-.273-.124-.398-.319-.398s-.328.125-.328.398v1.669c0 .281.117.398.328.398.21 0 .319-.125.319-.398Zm1.966-2.543h.632l-2.442 6.31h-.631l2.441-6.31Zm-.476 5.39v-1.56c-.012-.133.004-.266.046-.393.043-.126.111-.242.201-.34.09-.099.2-.177.322-.231.122-.054.253-.082.387-.082.133 0 .265.028.387.082.122.054.231.132.321.231.09.098.158.214.201.34.042.127.058.26.046.393v1.56c.012.133-.004.267-.046.393-.043.126-.111.242-.201.341-.09.098-.199.177-.321.23-.122.054-.254.082-.387.082-.134 0-.265-.028-.387-.082-.122-.053-.232-.132-.322-.23-.09-.099-.158-.215-.201-.341-.042-.126-.058-.26-.046-.393Zm1.279.047v-1.669c0-.281-.124-.398-.327-.398s-.32.117-.32.398v1.669c0 .281.117.398.32.398s.327-.117.327-.398Z" fill="#263238"/><path d="M165.594 228.673h-13.517v-17.098h9.009l4.508 4.508v12.59Z" fill="#fff"/><path opacity=".5" d="M165.594 228.673h-13.517v-17.098h9.009l4.508 4.508v12.59Z" fill="#fff" stroke="#263238" stroke-linecap="round" stroke-linejoin="round"/><path d="M165.594 228.673h-13.517v-17.098h9.009l4.508 4.508v12.59Z" stroke="#263238" stroke-linecap="round" stroke-linejoin="round"/><path d="M155.08 220.646c-.213-.02-.41-.119-.554-.277-.143-.158-.223-.363-.223-.577 0-.213.08-.419.223-.577.144-.158.341-.256.554-.277h7.511c.212.021.41.119.553.277.144.158.223.364.223.577 0 .214-.079.419-.223.577-.143.158-.341.257-.553.277h-7.511Zm0 3.596c-.213-.02-.41-.119-.554-.277-.143-.158-.223-.363-.223-.577 0-.213.08-.419.223-.577.144-.158.341-.257.554-.277h5.873c.212.02.41.119.553.277.144.158.223.364.223.577 0 .214-.079.419-.223.577-.143.158-.341.257-.553.277h-5.873Z" fill="#858585" stroke="#263238" stroke-width=".75" stroke-linecap="round" stroke-linejoin="round"/><path d="M161.085 216.083h4.509l-4.509-4.508v4.508Z" fill="#fff" stroke="#263238" stroke-linecap="round" stroke-linejoin="round"/><path d="M254.35 123.849H137.288c-2.955 0-5.351 2.395-5.351 5.35v27.199c0 2.955 2.396 5.351 5.351 5.351H254.35c2.955 0 5.351-2.396 5.351-5.351v-27.199c0-2.955-2.396-5.35-5.351-5.35Z" fill="#263238" stroke="#263238" stroke-linecap="round" stroke-linejoin="round"/><path d="M252.712 122.21H135.65c-2.956 0-5.351 2.396-5.351 5.351v27.199c0 2.955 2.395 5.351 5.351 5.351h117.062c2.955 0 5.351-2.396 5.351-5.351v-27.199c0-2.955-2.396-5.351-5.351-5.351Z" fill="#fff" stroke="#263238" stroke-linecap="round" stroke-linejoin="round"/><path d="M174.892 156.991h-25.031V125.33h16.685l8.346 8.339v23.322Z" fill="#fff"/><path opacity=".7" d="M174.892 156.991h-25.031V125.33h16.685l8.346 8.339v23.322Z" fill="#fff"/><path d="M174.892 156.991h-25.031V125.33h16.685l8.346 8.339v23.322Z" stroke="#263238" stroke-linecap="round" stroke-linejoin="round"/><path d="M166.545 133.669h8.346l-8.346-8.339v8.339Z" fill="#fff" stroke="#263238" stroke-linecap="round" stroke-linejoin="round"/><path d="M157.248 137.569h-4.914v4.914h4.914v-4.914Zm5.054 0h-4.914v4.914h4.914v-4.914Zm5.062 0h-4.914v4.914h4.914v-4.914Zm5.055 0h-4.914v4.914h4.914v-4.914Zm-15.171 4.914h-4.914v4.914h4.914v-4.914Zm5.054 0h-4.914v4.914h4.914v-4.914Zm5.062 0h-4.914v4.914h4.914v-4.914Zm5.055 0h-4.914v4.914h4.914v-4.914Zm-15.171 4.914h-4.914v4.914h4.914v-4.914Zm5.054 0h-4.914v4.914h4.914v-4.914Zm5.062 0h-4.914v4.914h4.914v-4.914Zm5.055 0h-4.914v4.914h4.914v-4.914Z" stroke="#fff" stroke-width=".75" stroke-linecap="round" stroke-linejoin="round"/><path d="m152.427 151.835 4.961-4.555 2.457.117 2.683-4.844 2.379 2.387 2.668-2.801 2.387-4.57" stroke="#fff" stroke-width="2" stroke-linecap="round" stroke-linejoin="round"/><path d="m167.146 138.996 2.816-1.427.569 3.073" stroke="#fff" stroke-width="2" stroke-linecap="round" stroke-linejoin="round"/><path d="M184.735 140.15H183.3v-.951c1.139 0 1.56-.25 1.856-1.084h.905v8.58h-1.349l.023-6.545Zm2.925 4.525v-4.524c0-.545.216-1.066.601-1.451s.907-.601 1.451-.601 1.065.216 1.45.601.601.906.601 1.451v4.524c0 .544-.216 1.065-.601 1.45s-.906.601-1.45.601c-.544 0-1.066-.216-1.451-.601s-.601-.906-.601-1.45Zm2.754.085v-4.68c0-.608-.273-.842-.702-.842-.429 0-.702.234-.702.842v4.68c0 .617.273.851.702.851.429 0 .702-.234.702-.851Zm2.16-.085v-4.524c0-.545.216-1.066.601-1.451s.907-.601 1.451-.601 1.065.216 1.45.601.601.906.601 1.451v4.524c0 .544-.216 1.065-.601 1.45s-.906.601-1.45.601c-.544 0-1.066-.216-1.451-.601s-.601-.906-.601-1.45Zm2.754.085v-4.68c0-.608-.273-.842-.702-.842-.429 0-.702.234-.702.842v4.68c0 .617.273.851.702.851.429 0 .702-.234.702-.851Zm2.183-3.245v-2.145c0-.345.137-.676.382-.921.244-.244.575-.381.921-.381.345 0 .677.137.921.381.244.245.381.576.381.921v2.145c0 .346-.137.677-.381.922-.244.244-.576.381-.921.381-.346 0-.677-.137-.921-.381-.245-.245-.382-.576-.382-.922Zm1.747.063v-2.27c0-.382-.171-.546-.444-.546s-.445.164-.445.546v2.27c0 .382.164.538.445.538s.444-.156.444-.538Zm2.676-3.463h.866l-3.331 8.58h-.858l3.323-8.58Zm-.655 7.347v-2.153c0-.171.033-.34.099-.498.065-.158.161-.302.282-.423.121-.121.265-.217.423-.282.158-.065.327-.099.498-.099.171 0 .341.034.499.099.158.065.301.161.422.282.121.121.217.265.283.423.065.158.099.327.099.498v2.153c0 .171-.034.341-.099.499-.066.158-.162.301-.283.422-.121.121-.264.217-.422.283-.158.065-.328.099-.499.099-.171 0-.34-.034-.498-.099-.158-.066-.302-.162-.423-.283-.121-.121-.217-.264-.282-.422-.066-.158-.099-.328-.099-.499Zm1.747.063v-2.278c0-.382-.172-.538-.445-.538s-.437.156-.437.538v2.278c0 .374.156.538.437.538s.445-.164.445-.538Zm3.042-1.498v-3.393c0-.387.154-.758.427-1.031.274-.274.645-.428 1.031-.428.387 0 .758.154 1.032.428.273.273.427.644.427 1.031v.671h-.936v-.733c0-.414-.203-.585-.499-.585-.297 0-.492.171-.492.585v3.525c0 .414.195.577.492.577.296 0 .499-.163.499-.577v-.967h.936v.897c0 .387-.154.758-.427 1.031-.274.274-.645.428-1.032.428-.386 0-.757-.154-1.031-.428-.273-.273-.427-.644-.427-1.031Zm3.455-.039v-3.315c0-.399.159-.782.441-1.064.283-.283.666-.441 1.065-.441.399 0 .782.158 1.064.441.283.282.441.665.441 1.064v3.315c0 .399-.158.782-.441 1.064-.282.283-.665.441-1.064.441s-.782-.158-1.065-.441c-.282-.282-.441-.665-.441-1.064Zm2.021.062v-3.439c0-.453-.195-.624-.515-.624s-.515.171-.515.624v3.439c0 .453.203.624.515.624s.515-.171.515-.624Zm1.653-4.875h1.42l.632 4.517.631-4.517h1.412v6.311h-.936v-4.774l-.725 4.774h-.827l-.718-4.774v4.774h-.865l-.024-6.311Zm4.852 0h1.458c.991 0 1.475.554 1.475 1.56v.624c0 1.007-.484 1.56-1.475 1.56h-.468v2.567h-.99v-6.311Zm1.458 2.84c.312 0 .484-.141.484-.593v-.78c0-.453-.172-.593-.484-.593h-.468v1.934l.468.032Zm2.013-2.84h.991v5.406h1.63v.905h-2.621v-6.311Zm3.12 0h2.698v.905h-1.708v1.662h1.35v.904h-1.358v1.935h1.709v.905h-2.691v-6.311Zm4.025.905h-1.03v-.905h3.058v.905h-1.038v5.406h-.99v-5.406Zm2.511-.905h2.699v.905h-1.708v1.662h1.357v.904h-1.357v1.935h1.708v.905h-2.699v-6.311Zm3.268 0h1.514c.99 0 1.474.554 1.474 1.56v3.191c0 1.006-.484 1.56-1.474 1.56h-1.514v-6.311Zm1.49 5.406c.32 0 .507-.164.507-.609v-3.283c0-.445-.187-.609-.507-.609h-.499v4.501h.499Z" fill="#263238"/><path d="M241.784 241.652h-91.923c-2.955 0-5.351 2.396-5.351 5.351v19.734c0 2.955 2.396 5.35 5.351 5.35h91.923c2.955 0 5.351-2.395 5.351-5.35v-19.734c0-2.955-2.396-5.351-5.351-5.351Z" fill="#263238" stroke="#263238" stroke-linecap="round" stroke-linejoin="round"/><path d="M240.146 240.014h-91.923c-2.955 0-5.35 2.396-5.35 5.351v19.734c0 2.955 2.395 5.351 5.35 5.351h91.923c2.956 0 5.351-2.396 5.351-5.351v-19.734c0-2.955-2.395-5.351-5.351-5.351Z" fill="#fff" stroke="#263238" stroke-linecap="round" stroke-linejoin="round"/><path d="M216.434 256.737H174.61c-.467 0-.915.186-1.246.516-.331.331-.516.779-.516 1.247 0 .467.185.916.516 1.246.331.331.779.517 1.246.517h41.824v-3.526Z" fill="#fff"/><path d="M174.61 260.263c-.467 0-.915-.186-1.246-.517-.331-.33-.516-.779-.516-1.246 0-.468.185-.916.516-1.247.331-.33.779-.516 1.246-.516h59.904c.232 0 .461.046.675.134.214.089.408.219.572.382.164.164.293.358.382.572.089.214.134.443.134.675 0 .231-.045.461-.134.674-.089.214-.218.409-.382.572-.164.164-.358.294-.572.382-.214.089-.443.135-.675.135H174.61Z" stroke="#263238" stroke-linecap="round" stroke-linejoin="round"/><path d="M165.594 263.78h-13.517v-17.097h9.009l4.508 4.5v12.597Z" fill="#fff"/><path opacity=".5" d="M165.594 263.78h-13.517v-17.097h9.009l4.508 4.5v12.597Z" fill="#fff"/><path d="M165.594 263.78h-13.517v-17.097h9.009l4.508 4.5v12.597Z" stroke="#263238" stroke-linecap="round" stroke-linejoin="round"/><path d="M155.08 255.754c-.213-.02-.41-.119-.554-.277-.143-.158-.223-.363-.223-.577 0-.213.08-.419.223-.577.144-.158.341-.257.554-.277h7.511c.212.02.41.119.553.277.144.158.223.364.223.577 0 .214-.079.419-.223.577-.143.158-.341.257-.553.277h-7.511Zm-.001 3.588c-.225 0-.442-.089-.601-.249-.159-.159-.249-.375-.249-.601 0-.225.09-.442.249-.601.159-.16.376-.249.601-.249h5.874c.225 0 .441.089.601.249.159.159.249.376.249.601 0 .226-.09.442-.249.601-.16.16-.376.249-.601.249h-5.874Z" fill="#858585" stroke="#263238" stroke-width=".75" stroke-linecap="round" stroke-linejoin="round"/><path d="M161.085 251.183h4.509l-4.509-4.5v4.5Z" fill="#fff" stroke="#263238" stroke-linecap="round" stroke-linejoin="round"/><path d="M200.616 247.689h-2.005v-.897h2.972v.866l-1.56 5.46h-1.014l1.607-5.429Zm1.591 3.916v-3.315c0-.4.159-.782.441-1.065.282-.282.665-.441 1.064-.441.4 0 .783.159 1.065.441.282.283.441.665.441 1.065v3.315c0 .399-.159.782-.441 1.064-.282.282-.665.441-1.065.441-.399 0-.782-.159-1.064-.441-.282-.282-.441-.665-.441-1.064Zm2.02.062v-3.44c0-.452-.203-.624-.515-.624s-.514.172-.514.624v3.44c0 .452.202.616.514.616s.515-.164.515-.616Zm1.599-2.379v-1.56c-.012-.133.004-.266.047-.393.042-.126.11-.242.2-.34.09-.099.2-.177.322-.231.122-.054.253-.082.387-.082.133 0 .265.028.387.082.122.054.231.132.321.231.09.098.158.214.201.34.042.127.058.26.046.393v1.56c.012.133-.004.267-.046.393-.043.126-.111.242-.201.341-.09.098-.199.177-.321.23-.122.054-.254.082-.387.082-.134 0-.265-.028-.387-.082-.122-.053-.232-.132-.322-.23-.09-.099-.158-.215-.2-.341-.043-.126-.059-.26-.047-.393Zm1.279.047v-1.669c0-.281-.124-.398-.319-.398s-.328.117-.328.398v1.669c0 .273.117.39.328.39.21 0 .319-.125.319-.39Zm1.935-2.543h.632l-2.442 6.302h-.632l2.442-6.302Zm-.476 5.39v-1.56c-.012-.133.004-.267.046-.393.043-.126.111-.242.201-.341.09-.098.199-.177.321-.23.122-.054.254-.082.387-.082.134 0 .266.028.387.082.122.053.232.132.322.23.09.099.158.215.201.341.042.126.058.26.046.393v1.56c.012.133-.004.266-.046.393-.043.126-.111.242-.201.34-.09.099-.2.177-.322.231-.121.054-.253.082-.387.082-.133 0-.265-.028-.387-.082-.122-.054-.231-.132-.321-.231-.09-.098-.158-.214-.201-.34-.042-.127-.058-.26-.046-.393Zm1.279.039v-1.662c0-.28-.125-.397-.327-.397-.203 0-.32.117-.32.397v1.662c0 .281.117.398.32.398.202 0 .358-.117.358-.398h-.031Z" fill="#263238"/><path d="m92.3833 85.9561 20.5847-15.912 20.584 15.912H92.3833Z" fill="#263238" stroke="#263238" stroke-linecap="round" stroke-linejoin="round"/><path d="M118.349 68.796h-10.764V78h10.764v-9.204Z" fill="#263238" stroke="#263238" stroke-linecap="round" stroke-linejoin="round"/><path d="M112.967 45.9265v32.0736" stroke="#263238" stroke-width=".75" stroke-linecap="round" stroke-linejoin="round"/><path d="m256.44 85.9561 20.592-15.912 20.585 15.912H256.44Z" fill="#263238" stroke="#263238" stroke-linecap="round" stroke-linejoin="round"/><path d="M282.415 68.796h-10.764V78h10.764v-9.204Z" fill="#263238" stroke="#263238" stroke-linecap="round" stroke-linejoin="round"/><path d="M277.033 44.3665v33.6336" stroke="#263238" stroke-width=".75" stroke-linecap="round" stroke-linejoin="round"/><path d="m285.067 334.3-.437 12.87 6.661.32 2.426-13.19h-8.65Z" fill="#fff" stroke="#263238" stroke-linecap="round" stroke-linejoin="round"/><path d="M272.033 351.117c2.246-.78 6.13-2.106 7.589-3.019 1.17-.733 2.8-3.12 4.009-3.79.254-.11.527-.167.804-.167.276 0 .549.057.803.167.196.218.324.489.367.78.033.125.103.239.2.325.098.087.218.143.347.161.129.018.261-.002.378-.058.118-.056.216-.145.284-.257.186-.366.453-.686.78-.936 1.029-.577 3.814-.741 4.726 0 1.514 1.24 2.06 5.515 2.34 7.441.071.422 0 2.762 0 2.762h-24.304v-1.069c-.004-.517.157-1.022.458-1.442.301-.421.728-.735 1.219-.898Z" fill="#fff" stroke="#263238" stroke-linecap="round" stroke-linejoin="round"/><path d="M294.676 354.51h-24.321v-1.069c0-.265.045-.529.133-.78h24.219c0 .819-.031 1.849-.031 1.849Z" fill="#858585" stroke="#263238" stroke-linecap="round" stroke-linejoin="round"/><path d="m289.271 234.523-5.109 104.676 9.36 1.56s5.896-30.296 6.614-40.217c.172-2.34 0-9.399 0-9.399l6.622-32.596s4.36-4.025 4.867-23.19l-22.354-.834Z" fill="#263238" stroke="#263238" stroke-linecap="round" stroke-linejoin="round"/><path opacity=".7" d="M303.124 275.036c.358-1.513.78-3.003 1.287-4.485.078-.211.171-.406.265-.601.232-2.215.589-4.416 1.068-6.591.166-.812.603-1.544 1.241-2.075.182-.411.453-.776.795-1.069.341-.293.744-.506 1.178-.623-.287-2.014-.725-4.004-1.31-5.952-.593-2.043-1.56-4.001-1.849-6.115-.078-.546-.39-1.115-.289-1.178-.67-.261-1.326-.558-1.965-.889l-.117-.093c-.598 9.879-.7 19.782-.304 29.671Z" fill="#000"/><path d="M288.826 294.395c1.657-.383 3.178-1.211 4.399-2.394" stroke="#7F7F7F" stroke-width=".75" stroke-linecap="round" stroke-linejoin="round"/><path d="m282.929 341.188 11.318.928.842-3.666-12.16-.952v3.69Zm32.682-8.471 2.411 15.046 6.162-.484-.203-15.405-8.37.843Z" fill="#fff" stroke="#263238" stroke-linecap="round" stroke-linejoin="round"/><path d="M305.292 351.117c2.254-.78 6.138-2.106 7.589-3.019 1.17-.733 2.808-3.12 4.009-3.79.255-.11.53-.167.808-.167.277 0 .552.057.807.167.141.145.241.325.289.522.041.149.127.283.245.383.118.101.263.164.417.181.154.018.31-.011.447-.082.138-.071.251-.182.326-.318.159-.269.371-.503.624-.686 1.029-.578 3.814-.741 4.727 0 1.513 1.24 2.059 5.514 2.34 7.441.062.421 0 2.761 0 2.761h-24.297v-1.069c-.001-.513.16-1.014.459-1.431.3-.417.723-.729 1.21-.893Z" fill="#fff" stroke="#263238" stroke-linecap="round" stroke-linejoin="round"/><path d="M327.943 354.51h-24.32v-1.069c-.003-.265.039-.529.125-.78h24.219c0 .819-.024 1.849-.024 1.849Z" fill="#858585" stroke="#263238" stroke-linecap="round" stroke-linejoin="round"/><path d="M302.297 237.682s2.34 13.548 4.493 24.913c1.466 7.706 1.56 30.474 1.56 30.474l7.472 47.011 9.212-1.24s.109-28.938-.928-38.22c-.234-2.067-.617-8.206-.617-8.206s.351-24.554 2.247-32.76c1.357-5.85 4.056-11.996.78-23.985l-24.219 2.013Z" fill="#263238" stroke="#263238" stroke-linecap="round" stroke-linejoin="round"/><path d="M310.37 294.395c.937 1.297 2.33 2.192 3.9 2.504" stroke="#7F7F7F" stroke-width=".75" stroke-linecap="round" stroke-linejoin="round"/><path d="m314.277 337.966.531 3.448 11.419-1.225-.078-3.713-11.872 1.49Z" fill="#fff" stroke="#263238" stroke-linecap="round" stroke-linejoin="round"/><path d="m258.827 175.009-2.519-4.236s-.608-6.918-2.012-8.268c-1.404-1.349-4.524-5.319-4.969-4.539-.702 1.248 1.895 3.471 1.895 3.471l.476 2.574s-4.204-3.027-5.39-3.027c0 0-3.354-3.97-4.539-3.978-1.186-.008.483 2.746.483 2.746s-1.131-.866-1.349-.328c-.218.538 1.459 2.379 1.459 2.379s-.648.702.327 2.208c-.135.486-.133 1 .004 1.486.138.485.406.924.776 1.267 1.295 1.03 8.253 4.969 8.253 4.969l2.34 5.506 4.765-2.23Z" fill="#858585" stroke="#263238" stroke-linecap="round" stroke-linejoin="round"/><path d="M243.282 161.912s.92.375.538 1.724c.367.522.573 1.141.593 1.779.093 1.185 6.099.6 7.722 3.12m-8.853-8.081 2.449 2.589" stroke="#263238" stroke-width=".75" stroke-linecap="round" stroke-linejoin="round"/><path d="m284.832 173.94-16.075 12.527-11.014-15.007-5.608 2.808s8.814 24.351 15.483 24.351c7.09 0 20.568-11.388 20.568-11.388s.851-2.176-3.354-13.291Z" fill="#fff" stroke="#263238" stroke-linecap="round" stroke-linejoin="round"/><path d="M269.365 187.66c.376.799.656 1.639.835 2.504" stroke="#263238" stroke-width=".75" stroke-linecap="round" stroke-linejoin="round"/><path d="m284.833 173.94 3.424 45.326v18.829s19.726 2.34 39.187-.499l-.671-19.383 1.973-43.204s-9.032-6.529-22.9-6.529c-13.869 0-21.013 5.46-21.013 5.46Z" fill="#fff" stroke="#263238" stroke-linecap="round" stroke-linejoin="round"/><path opacity=".2" d="m327.444 237.596-.624-17.371c-.335 8.37-9.571 5.226-11.661 4.836-2.239-.421-4.813 6.958-4.813 6.958s-8.58 1.474-15.295.951c-6.716-.522-6.818-6.653-6.818-6.653v11.778s19.75 2.371 39.211-.499Z" fill="#000"/><path d="M297.5 218.829c8.272-.89 16.21-3.749 23.15-8.338l-23.15 8.338Z" fill="#fff"/><path d="M297.5 218.829c8.272-.89 16.21-3.749 23.15-8.338" stroke="#263238" stroke-width=".75" stroke-linecap="round" stroke-linejoin="round"/><path d="M294.06 219.063s.663 0 1.833-.086l-1.833.086Z" fill="#fff"/><path d="M294.06 219.063s.663 0 1.833-.086" stroke="#263238" stroke-width=".75" stroke-linecap="round" stroke-linejoin="round"/><path d="m300.737 176.124-3.417-1.24-3.26 3.151 2.387-9.75 2.878-2.262 1.466.928 6.552-.249 5.094.413 2.426-.749 2.589 2.59-5.764 11.021-2.418-4.173-5.335.663-3.198-.343Z" fill="#fff"/><path opacity=".5" d="m300.737 176.124-3.417-1.24-3.26 3.151 2.387-9.75 2.878-2.262 1.466.928 6.552-.249 5.094.413 2.426-.749 2.589 2.59-5.764 11.021-2.418-4.173-5.335.663-3.198-.343Z" fill="#fff"/><path d="m300.737 176.124-3.417-1.24-3.26 3.151 2.387-9.75 2.878-2.262 1.466.928 6.552-.249 5.094.413 2.426-.749 2.589 2.59-5.764 11.021-2.418-4.173-5.335.663-3.198-.343Z" stroke="#263238" stroke-linecap="round" stroke-linejoin="round"/><path d="m312.086 168.925-.78-11.919-7.535 1.334-1.56 5.6-1.56 4.852-.741.078 2.052 11.138 10.873-10.92-.749-.163Z" fill="#858585"/><path d="M293.561 157.833c0 3.026.468 9.797 4.625 10.585 4.306.819 9.243-4.08 11.014-6.038.443-.486.79-1.053 1.021-1.669l.944-2.504c.617.048 1.234-.082 1.779-.374h-19.383Z" fill="#263238" stroke="#263238" stroke-width=".5" stroke-linecap="round" stroke-linejoin="round"/><path d="m312.086 168.925-.78-11.919-7.535 1.334-1.56 5.6-1.56 4.852-.741.078 2.052 11.138 10.873-10.92-.749-.163Z" stroke="#263238" stroke-linecap="round" stroke-linejoin="round"/><path d="M298.584 142.529s-3.565-2.714-1.817-4.851c.912-1.108 2.098.351 2.098.351s-.632-3.401 1.903-3.9c2.34-.437 2.246 2.246 2.246 2.246s1.209-2.301 3.323-1.786c1.685.406 1.038 2.792 1.038 2.792s2.246-2.792 4.57-1.56c2.005 1.053.351 3.581.351 3.581s2.387-.843 3.721.499c1.334 1.341 0 3.12 0 3.12s2.629 0 2.746 1.965c.117 1.966-2.036 2.34-2.036 2.34s3.042.983 3.065 3.37c.024 2.387-2.012 1.622-2.012 1.622s1.263 2.247.21 3.44c-.118.16-.272.29-.449.379-.178.089-.374.136-.572.136-.199 0-.395-.047-.572-.136-.178-.089-.332-.219-.45-.379 0 0 1.318 2.832-.351 3.658-1.194.585-1.896-.85-1.896-.85s-1.006 2.449-2.223.952c-1.216-1.498-7.254-13.034-7.254-13.034l-5.639-3.955Z" fill="#263238" stroke="#263238" stroke-width=".75" stroke-linecap="round" stroke-linejoin="round"/><path d="m297.554 142.639-2.246 4.68c-.23.487-.35 1.02-.351 1.56v1.466l-1.24 3.12c-.064.163-.116.329-.156.499-.398 1.662-2.293 10.585 2.34 12.402 4.087 1.607 9.843-2.27 11.957-3.861.527-.397.972-.892 1.311-1.458l1.404-2.278c.596.178 1.233.163 1.82-.043.587-.206 1.094-.592 1.448-1.104 1.256-1.801 2.706-2.776.983-4.399-1.724-1.622-3.315.975-3.315.975l.234-4.578-1.997-3.51-.102-2.208s-6.536-.725-10.92-3.12l-1.17 1.857Z" fill="#fff" stroke="#263238" stroke-width=".75" stroke-linecap="round" stroke-linejoin="round"/><path d="m297.554 142.639-2.246 4.68c-.23.487-.35 1.02-.351 1.56v1.466l-1.24 3.12c-.064.163-.116.329-.156.499-.398 1.662-2.293 10.585 2.34 12.402 4.087 1.607 9.843-2.27 11.957-3.861.527-.397.972-.892 1.311-1.458l1.404-2.278c.596.178 1.233.163 1.82-.043.587-.206 1.094-.592 1.448-1.104 1.256-1.801 2.706-2.776.983-4.399-1.724-1.622-3.315.975-3.315.975l.234-4.578-1.997-3.51-.102-2.208s-6.536-.725-10.92-3.12l-1.17 1.857Z" fill="#858585" stroke="#263238" stroke-linecap="round" stroke-linejoin="round"/><path d="M301.532 158.621c-1.264 2.441-2.98 2.036-4.056 1.427" stroke="#263238" stroke-width=".75" stroke-linecap="round" stroke-linejoin="round"/><path d="M301.555 153.075c-.171.554-.522.936-.779.858-.258-.078-.344-.601-.172-1.154.172-.554.523-.944.78-.858.257.085.343.6.171 1.154Zm-5.21-1.615c-.172.562-.523.944-.78.858-.257-.085-.343-.6-.172-1.154.172-.554.531-.936.78-.85.25.086.344.593.172 1.146Z" fill="#263238"/><path d="M295.971 147.857c.206-.058.423-.073.635-.043.213.029.417.102.6.214s.341.261.464.437.208.375.251.585m2.535.936s1.817-1.911 3.042.117m-5.538 1.849c-.164.745-.514 1.436-1.019 2.008-.505.572-1.148 1.006-1.867 1.26l1.419 2.254" stroke="#263238" stroke-width=".75" stroke-linecap="round" stroke-linejoin="round"/><path d="m307.016 241.379-.398 2.41c-.057.398.041.803.275 1.13.234.327.586.551.981.625l25.014 4.103c.398.057.803-.042 1.13-.276.327-.234.551-.585.625-.98l.39-2.41-28.017-4.602Z" fill="#fff" stroke="#263238" stroke-width=".75" stroke-linecap="round" stroke-linejoin="round"/><path d="m336.154 230.793-25.3-4.152c-.753-.123-1.463.386-1.586 1.139l-2.508 15.278c-.123.753.387 1.463 1.139 1.586l25.3 4.153c.753.123 1.463-.387 1.586-1.139l2.508-15.279c.123-.752-.387-1.462-1.139-1.586Z" fill="#fff"/><path opacity=".5" d="m336.154 230.793-25.3-4.152c-.753-.123-1.463.386-1.586 1.139l-2.508 15.278c-.123.753.387 1.463 1.139 1.586l25.3 4.153c.753.123 1.463-.387 1.586-1.139l2.508-15.279c.123-.752-.387-1.462-1.139-1.586Z" fill="#fff"/><path d="m336.154 230.793-25.3-4.152c-.753-.123-1.463.386-1.586 1.139l-2.508 15.278c-.123.753.387 1.463 1.139 1.586l25.3 4.153c.753.123 1.463-.387 1.586-1.139l2.508-15.279c.123-.752-.387-1.462-1.139-1.586Z" stroke="#263238" stroke-linecap="round" stroke-linejoin="round"/><path d="m326.391 233.641-1.381 4.68-4.68 3.346c-.662 2.049-1.443 4.057-2.34 6.014-.059.109-.09.232-.09.356.001.124.033.246.094.355.061.108.148.199.254.265.106.065.227.102.351.108.647 0 1.404-.304 1.817-1.56 0 0 .18 2.465 1.701.96 0 0 .928 2.387 2.378.507 0 0 3.362.499 3.9-1.927.539-2.426 1.334-6.7 1.334-6.7l2.137-5.015-5.475-1.389Z" fill="#858585" stroke="#263238" stroke-linecap="round" stroke-linejoin="round"/><path d="m320.385 246.246.53-3.611m.305 3.845s.366 1.193 1.193.998c.827-.195 2.005.726 4.579-.358" stroke="#263238" stroke-width=".75" stroke-linecap="round" stroke-linejoin="round"/><path d="M328.746 175.009s11.7 32.51 11.482 37.26c-.218 4.75-8.541 25.413-8.541 25.413l-6.427-2.044 4.29-24.235-3.846-16.84s-.873-12.347 3.042-19.554Z" fill="#fff" stroke="#263238" stroke-linecap="round" stroke-linejoin="round"/><path d="M330.993 210.865c.431-.33.931-.56 1.463-.672.532-.112 1.082-.103 1.61.025" stroke="#263238" stroke-width=".75" stroke-linecap="round" stroke-linejoin="round"/><path d="M323.388 236.153c-.233-.309-.407-.658-.515-1.03-.45-.009-.886.154-1.221.454-.335.3-.544.716-.584 1.164-.041.448.09.895.366 1.25.275.356.675.593 1.119.665.467.077.945-.034 1.329-.309.385-.275.645-.691.723-1.157-.502-.213-.927-.575-1.217-1.037ZM95.1132 167.536l1.4196 6.997-15.7716.663 2.7378-19.391 10.6236 1.232.9906 10.499Z" fill="#fff"/><path d="m102.18 156.92-13.1898 3.9c.1646 1.512.4782 3.004.936 4.454.78 2.247 5.5302 6.24 8.58 6.193 3.0498-.046 3.3928-9.765 3.3928-9.765l1.841-1.022c.105-.06.197-.142.268-.24.072-.098.122-.21.147-.328.025-.119.025-.242-.001-.36-.026-.119-.077-.23-.149-.328l-1.825-2.504Z" fill="#263238" stroke="#263238" stroke-width=".75" stroke-linecap="round" stroke-linejoin="round"/><path d="m95.1132 167.536 1.4196 6.997-15.7716.663 2.7378-19.391 10.6236 1.232.9906 10.499Z" stroke="#263238" stroke-linecap="round" stroke-linejoin="round"/><path d="M95.8387 142.888s3.8298.78 3.4398-3.377c-.39-4.158-7.527-1.615-11.2476-1.147-3.7206.468-15.7326 4.953-11.4816 12.036 0 0-2.5038 3.993 6.513 10.693 0 0 4.2822-2.012 6.63.929l1.833-3.573 4.68-8.221-.3666-7.34Z" fill="#263238" stroke="#263238" stroke-linecap="round" stroke-linejoin="round"/><path d="M95.5576 142.264s3.666 2.044 5.7724-.515c0 0 .234 5.46-5.7724.515Z" fill="#263238" stroke="#263238" stroke-linecap="round" stroke-linejoin="round"/><path d="M95.9397 141.695s5.4603 5.748 5.2733 9.687v3.596l2.886 3.245c.08.083.141.183.179.293.037.109.049.226.036.341-.014.115-.053.226-.114.324-.062.098-.144.181-.242.243l-1.677 1.162s.492 9.204-2.3945 9.532c-2.886.328-7.6908-3.12-8.6502-5.148-.7226-1.861-1.2455-3.793-1.56-5.764-.84-.228-1.5927-.701-2.1612-1.36-.5686-.659-.9269-1.473-1.029-2.337-.3354-3.027 2.7144-2.941 3.5022-.96l.6396 1.615 1.9812-.07s-1.131-2.855-.4602-3.698c.6708-.842 3.3072-2.893 2.0982-4.851-1.209-1.958-.8034-5.289 1.6926-5.85Z" fill="#fff" stroke="#263238" stroke-linecap="round" stroke-linejoin="round"/><path d="M99.0601 162.388c.2271.403.5752.725.9949.92.42.194.891.252 1.345.164" stroke="#263238" stroke-width=".75" stroke-linecap="round" stroke-linejoin="round"/><path d="M97.6245 151.406s1.2402-1.724 2.4185-.148" stroke="#263238" stroke-linecap="round" stroke-linejoin="round"/><path d="M99.5826 155.002c0 .538-.2106.982-.4992.99-.2886.008-.5382-.421-.5538-.959-.0156-.538.2106-.983.4992-.991.2886-.008.5382.398.5538.96Z" fill="#263238"/><path d="M74.5676 327.787 72.29 347.389l6.7782 1.045 3.7362-19.375-8.2368-1.272Z" fill="#fff" stroke="#263238" stroke-linecap="round" stroke-linejoin="round"/><path d="M71.3774 241.176s.273 11.357 4.2822 19.344l.9126 30.139-4.6254 48.563 10.2882.983 9.36-50.794 3.12-46.02-23.3376-2.215Z" fill="#fff" stroke="#263238" stroke-linecap="round" stroke-linejoin="round"/><path opacity=".2" d="m93.2643 265.52-.858-5.406-3.9-17.011-.7176-.367-16.38-1.56s0 1.864.3666 4.618l8.0886 4.586c.1908 2.88.8412 5.711 1.9266 8.385.0972.234.1327.488.1031.739-.0297.251-.1234.491-.2722.695-.1489.205-.3478.367-.5778.473-.2299.105-.483.15-.7351.129-.8346-.063-1.56 0-1.56.546 0 1.263 6.0996 5.343 6.0996 5.343s6.1542 19.89 5.9358 27.237l.8346-4.524 1.6458-23.883Z" fill="#000"/><path d="m95.2534 329.074.741 19.719h6.8566l.733-19.719h-8.3306Z" fill="#fff" stroke="#263238" stroke-linecap="round" stroke-linejoin="round"/><path d="M113.771 351.569c-2.264-.689-4.466-1.566-6.584-2.62-1.014-.632-2.433-2.699-3.478-3.284-.22-.095-.456-.143-.695-.143-.238 0-.474.048-.694.143-.499.406-.522 2.519-.522 2.519s-.882-2.152-1.521-2.519c-.8895-.499-3.3075-.647-4.0953 0-1.3104 1.069-1.7862 4.781-2.0436 6.45-.0624.367 0 2.395 0 2.395h21.0599v-.928c.002-.443-.135-.874-.391-1.235-.256-.361-.618-.633-1.036-.778Z" fill="#263238" stroke="#263238" stroke-linecap="round" stroke-linejoin="round"/><path d="m109.598 242.112-1.685 45.56-2.816 52.018H94.38s-2.2464-39.928-1.6848-51.48l-5.6238-26.715s-5.9046-7.878-4.5006-17.433l27.0272-1.95Z" fill="#fff" stroke="#263238" stroke-linecap="round" stroke-linejoin="round"/><path d="m93.4282 335.821.351 6.256h11.7388l.913-6.256H93.4282Zm-22.3392-.538-.2418 6.256 11.6844 1.115 1.5054-6.139-12.948-1.232Zm56.277-123.162-16.216-10.312 17.09-17.089 16.224 10.311-17.098 17.09Z" fill="#fff" stroke="#263238" stroke-linecap="round" stroke-linejoin="round"/><path d="m128.294 208.595-13.042-8.291 13.744-13.744 13.042 8.292-13.744 13.743Z" fill="#fff" stroke="#263238" stroke-width=".75" stroke-linecap="round" stroke-linejoin="round"/><path d="m129.246 194.36 2.277-2.277-2.925-1.857-2.277 2.27 2.925 1.864Zm-3.533 3.542 2.277-2.278-2.933-1.864-2.269 2.277 2.925 1.865Zm-3.659 3.658 2.27-2.278-2.925-1.864-2.277 2.278 2.932 1.864Z" stroke="#263238" stroke-width=".75" stroke-linecap="round" stroke-linejoin="round"/><path d="m134.823 187.379-2.153 2.161c-.102.102-.179.225-.227.361-.048.135-.065.28-.049.423.016.143.063.281.14.403.076.122.178.226.3.303l3.12 2.004c.344.22.752.315 1.158.271.405-.044.784-.224 1.073-.512l1.989-1.997-5.351-3.417Zm-57.7043-13.314 2.8158-6.186s16.3097-1.825 20.6625 11.81l-23.4783-5.624Zm-9.2588 5.273s-4.0248 30.833-2.9562 41.761c.8424 8.642 6.5364 15.959 6.5364 15.959l8.4396-3.308-4.29-12.651s1.3338-22.776 2.5974-28.08l-10.3272-13.681Z" fill="#858585" stroke="#263238" stroke-linecap="round" stroke-linejoin="round"/><path d="m68.9985 235.544 2.379 2.847 9.75-3.798-1.2636-3.799-10.8654 4.75Z" fill="#858585" stroke="#263238" stroke-linecap="round" stroke-linejoin="round"/><path d="M67.8596 179.338s-1.2714 17.713 2.34 30.162c3.6114 12.449 0 32.893 0 32.893s16.6218 10.756 42.1204 2.527c0 0-3.159-60.528-7.379-63.898-4.22-3.369-28.0334-16.231-37.0814-1.684Z" fill="#858585" stroke="#263238" stroke-linecap="round" stroke-linejoin="round"/><path opacity=".2" d="M112.32 244.92s-1.084-20.748-2.824-38.626c-3.689-8.954-9.7183-20.88-10.0381-4.134-.468 24.219 14.4381 22.792 2.6281 27.012-2.6401 1-5.4687 1.405-8.2839 1.187-2.8151-.219-5.5474-1.055-8.002-2.451-.1963-.1-.4211-.131-.6371-.086-.2159.045-.4101.162-.5503.332-.1402.171-.218.384-.2205.604-.0025.221.0704.435.2067.609 2.964 3.767 7.4646 6.115 10.92 7.464.312.12.5758.339.7502.624.1745.285.2498.619.2142.951-.0357.332-.1802.643-.4111.885-.2308.241-.5351.399-.8653.45-11.1228 1.646-19.8432-4.267-23.8446-7.707-.468 5.96-1.2402 10.359-1.2402 10.359s16.6998 10.756 42.1979 2.527Z" fill="#000"/><path d="M104.957 181.03c1.52.698 2.84 1.769 3.835 3.114.996 1.344 1.635 2.919 1.859 4.577.842 5.803 6.24 23.626 6.24 23.626l1.794-1.162c1.497.673 2.731 1.821 3.51 3.267.778 1.445 1.058 3.107.795 4.728 0 0-4.383 8.58-9.173 6.965-4.921-1.669-7.675-5.694-10.14-12.277-1.302-3.51-5.0618-14.087-5.0618-14.087" fill="#858585"/><path d="M104.957 181.03c1.52.698 2.84 1.769 3.835 3.114.996 1.344 1.635 2.919 1.859 4.577.842 5.803 6.24 23.626 6.24 23.626l1.794-1.162c1.497.673 2.731 1.821 3.51 3.267.778 1.445 1.058 3.107.795 4.728 0 0-4.383 8.58-9.173 6.965-4.921-1.669-7.675-5.694-10.14-12.277-1.302-3.51-5.0618-14.087-5.0618-14.087" stroke="#263238" stroke-linecap="round" stroke-linejoin="round"/><path d="M119.043 217.511c.029.458.008.919-.062 1.373m-3.159 2.215s1.474-2.34 1.264-7.387c.709.537 1.25 1.265 1.56 2.098" stroke="#263238" stroke-width=".75" stroke-linecap="round" stroke-linejoin="round"/><path d="m119.862 210.694 5.624-4.01c.281-1.246.893-2.394 1.772-3.322.878-.928 1.991-1.602 3.22-1.95 0 0 2.598-4.29 4.072-3.791 1.474.499-1.755 2.246-2.036 4.493l1.193 1.599s3.9-.687 4.852-1.95c0 0-.211 2.675-1.755 3.12 0 0 0 2.035-1.053 1.965l-7.738 2.184-4.5 8.401-3.651-6.739Z" fill="#fff" stroke="#263238" stroke-linecap="round" stroke-linejoin="round"/><path d="M96.8369 230.194c.8892-.082 1.7707-.234 2.6364-.453m-24.7419-12.332s8.2914 12.683 20.28 12.855" stroke="#263238" stroke-width=".75" stroke-linecap="round" stroke-linejoin="round"/><path d="M117.437 210.834s5.865 4.43 5.304 9.773l2.113-4.048s-.07-3.408-4.921-7.02l-2.496 1.295Z" fill="#858585" stroke="#263238" stroke-linecap="round" stroke-linejoin="round"/><path d="M94.1381 354.51h21.0599v-.928c0-.228-.037-.455-.109-.671H94.1069c0 .71.0312 1.599.0312 1.599Z" fill="#fff" stroke="#263238" stroke-width=".75" stroke-linecap="round" stroke-linejoin="round"/><path d="M89.6999 351.569c-2.2633-.689-4.4653-1.566-6.5832-2.62-1.014-.632-2.4336-2.699-3.471-3.284-.2206-.095-.4581-.144-.6981-.144-.24 0-.4775.049-.6981.144-.4992.406-.5226 2.519-.5226 2.519s-.8736-2.152-1.521-2.519c-.8892-.499-3.3072-.647-4.095 0-1.3104 1.069-1.7862 4.781-2.0436 6.45-.0624.367 0 2.395 0 2.395h21.06v-.928c.0016-.443-.1352-.874-.3911-1.235-.256-.361-.6183-.633-1.0363-.778Z" fill="#263238" stroke="#263238" stroke-linecap="round" stroke-linejoin="round"/><path d="M70.0517 354.51h21.06v-.928c-.0001-.228-.037-.455-.1092-.671h-20.982c0 .71.0312 1.599.0312 1.599Z" fill="#fff" stroke="#263238" stroke-width=".75" stroke-linecap="round" stroke-linejoin="round"/><path d="M101.119 288.514s-2.2386 3.861-5.8656 2.387m-9.7422-1.03s-4.017 3.432-7.3398 1.03" stroke="#263238" stroke-width=".75" stroke-linecap="round" stroke-linejoin="round"/><path d="m127.428 189.953.562 2.793h4.976l-4.048-.944.195-1.903-1.685.054Z" fill="#fff"/></svg>