<svg width="293" height="293" fill="none" xmlns="http://www.w3.org/2000/svg"><path d="m250.187 189.694-.457 4.102 7.975-9.323c.954.1 1.913.15 2.872.152m-20.381-23.223c-1.048 1.581-1.705 3.389-1.916 5.274-.756 6.815 4.588 13.261 12.663 16.244l-.41 3.662m-7.237-28.573c-.52.421-1.013.873-1.477 1.354m31.386-1.354c-3.641-2.495-7.85-4.034-12.242-4.477-4.641-.569-9.349.123-13.63 2.004m18.793 28.538c7.618-1.576 13.39-6.446 14.064-12.763.492-4.418-1.576-8.678-5.274-11.948" stroke="#263238" stroke-linecap="round" stroke-linejoin="round"/><path d="M247.339 162.539c.645.12 1.307.111 1.949-.025.641-.137 1.25-.399 1.79-.772l2.848 2.209c-.2.064-.182-.357.029-.369.211-.012.369.182.515.334.669.709 1.794.732 2.749.527.955-.205 1.887-.586 2.86-.551.578.061 1.147.193 1.693.393 3.915 1.213 7.987 1.823 12.042 2.42m-29.838 0c.586-.035 3.85 0 4.318-.392l.797 1.388.879-.849c.153.586.305 1.172.452 1.723.662.158.586-1.12 1.172-1.501.18-.088.387-.105.579-.047.192.057.356.185.458.358.192.36.285.764.269 1.172l4.009.328.779.065c.279-.425.691-.745 1.172-.909-.147.926 1.02 1.454 1.946 1.641 4.559.93 9.141 1.733 13.747 2.409m-28.796.978c.369.258.82-.222 1.271-.281.452-.059.821.281 1.219.486.399.205 1.055.118 1.079-.328.093.586.82.797 1.412.879l15.388 2.163M39.8481 153.051l6.1648 8.298-1.2365-10.858c1.4739-.716 2.8836-1.557 4.2133-2.514 6.3171-4.571 8.8604-11.925 6.5457-17.85-1.6233-4.137-5.4264-6.95-10.2316-8.116m-29.804 17.949c-.1921 1.879.065 3.777.7501 5.538 2.4964 6.387 10.2198 9.61 18.752 8.497m-18.3358-18.483c-.2618.616-.4868 1.246-.6739 1.887m27.1608-15.786c-4.3844-.525-8.8302.064-12.9272 1.711-4.3728 1.653-8.2191 4.455-11.134 8.11" stroke="#263238" stroke-linecap="round" stroke-linejoin="round"/><path d="M22.3501 137.64c1.2606-.394 2.3141-1.27 2.93-2.438l3.516.633c-.1524.146-.3282-.235-.1465-.346.1817-.111.4102 0 .586.059.9259.316 1.9279-.182 2.678-.809s1.3947-1.407 2.2796-1.817c.5405-.216 1.1052-.365 1.6818-.445 4.0317-.738 7.9168-2.098 11.7903-3.452m-26.3582 13.871c.5216-.311 3.4105-1.793 3.6449-2.344l1.3537.861c.1289-.386.2578-.779.3809-1.172l1.2013 1.319c.6622-.164 0-1.26.3164-1.858.1179-.162.293-.273.4899-.311.1969-.039.4009 0 .5708.106.3347.225.6036.534.7794.897l3.6977-1.571.7266-.304c.0416-.504.2475-.979.586-1.354.3047.897 1.5822.814 2.4846.551 4.4732-1.289 8.9053-2.708 13.2964-4.255m-24.9929 14.24c.4512.059.627-.586.9962-.844.3692-.257.8614-.123 1.3068-.134.4453-.012.9903-.381.8028-.786.3574.475 1.1017.323 1.6584.123l14.65-5.244" stroke="#263238" stroke-linecap="round" stroke-linejoin="round"/><path d="M218.537 52.5173H72.4239c-2.8448 0-5.151 2.3062-5.151 5.151V189.296c0 2.844 2.3062 5.151 5.151 5.151H218.537c2.845 0 5.151-2.307 5.151-5.151V57.6683c0-2.8448-2.306-5.151-5.151-5.151Z" fill="#fff"/><path opacity=".2" d="M223.688 130.262v59.186c0 1.325-.526 2.595-1.462 3.532-.936.938-2.206 1.465-3.531 1.466H72.2715c-1.3257 0-2.5971-.526-3.5345-1.464-.9374-.937-1.4641-2.208-1.4641-3.534v-11.72h.3106v7.899c0 .751.148 1.494.4355 2.188.2875.694.7089 1.324 1.24 1.854.5312.531 1.1618.952 1.8556 1.238.6939.287 1.4375.434 2.1883.434H214.757c.751 0 1.495-.147 2.189-.434.694-.286 1.324-.707 1.855-1.238.531-.53.953-1.16 1.24-1.854.288-.694.436-1.437.436-2.188V139.04c0-1.055-.419-2.067-1.166-2.813-.746-.747-1.758-1.166-2.813-1.166H67.2729v-4.799H223.688Z" fill="#000"/><path d="M218.537 52.5173H72.4239c-2.8448 0-5.151 2.3062-5.151 5.151V189.296c0 2.844 2.3062 5.151 5.151 5.151H218.537c2.845 0 5.151-2.307 5.151-5.151V57.6683c0-2.8448-2.306-5.151-5.151-5.151Z" stroke="#263238" stroke-linecap="round" stroke-linejoin="round"/><path d="M210.069 147.115v-6.78c.001-.329-.063-.656-.189-.96-.126-.305-.31-.582-.543-.815-.233-.233-.51-.418-.815-.543-.305-.126-.631-.191-.961-.19H83.3997c-.6652 0-1.3031.264-1.7735.735-.4703.47-.7346 1.108-.7346 1.773v6.78c0 .665-.2642 1.303-.7345 1.774-.4704.47-1.1084.734-1.7735.734-.6668 0-1.3062.265-1.7777.737-.4714.471-.7363 1.111-.7363 1.777v13.379c0 3.085 1.2256 6.043 3.407 8.225 2.1814 2.181 5.1401 3.407 8.2251 3.407.4958 0 .9713.197 1.3218.547.3506.351.5476.826.5476 1.322v4.008c0 1.48.5877 2.899 1.6339 3.945 1.0462 1.046 2.4652 1.634 3.9448 1.634H196.011c1.48 0 2.899-.588 3.945-1.634 1.046-1.046 1.634-2.465 1.634-3.945v-4.008c0-.496.197-.971.548-1.322.35-.35.826-.547 1.321-.547 1.528 0 3.041-.301 4.452-.886 1.411-.584 2.693-1.441 3.774-2.521 1.08-1.08 1.936-2.363 2.521-3.774s.885-2.924.885-4.451v-13.379c0-.665-.264-1.304-.734-1.775-.47-.472-1.108-.737-1.774-.739-.665 0-1.304-.264-1.775-.734-.471-.47-.737-1.108-.739-1.774Z" fill="#263238"/><path d="M90.402 141.666h-4.3422c-.5315 0-1.0413.211-1.4171.587-.3759.375-.587.885-.587 1.417v1.113c0 2.309 1.8693 5.239 4.1781 5.239 2.3089 0 4.1782-2.93 4.1782-5.239v-1.113c-.0015-.532-.214-1.042-.5908-1.418-.3767-.376-.8871-.586-1.4192-.586Zm10.39 0h-4.3421c-.532 0-1.0424.21-1.4192.586s-.5892.886-.5908 1.418v1.113c0 2.309 1.8694 5.239 4.1782 5.239 2.3089 0 4.1779-2.93 4.1779-5.239v-1.113c0-.532-.211-1.042-.587-1.417-.376-.376-.885-.587-1.417-.587Zm10.431 0h-4.342c-.532 0-1.042.211-1.418.587-.375.375-.587.885-.587 1.417v1.113c0 2.309 1.87 5.239 4.173 5.239s4.178-2.93 4.178-5.239v-1.113c0-.532-.211-1.042-.587-1.417-.376-.376-.886-.587-1.417-.587Zm10.407 0h-4.342c-.532 0-1.041.211-1.417.587-.376.375-.587.885-.587 1.417v1.113c0 2.309 1.869 5.239 4.178 5.239s4.172-2.93 4.172-5.239v-1.113c0-.264-.052-.524-.152-.767-.101-.243-.249-.464-.435-.65-.186-.187-.407-.334-.65-.435-.243-.101-.504-.152-.767-.152Zm10.408 0h-4.342c-.532 0-1.042.211-1.418.587-.375.375-.587.885-.587 1.417v1.113c0 2.309 1.87 5.239 4.179 5.239 2.308 0 4.178-2.93 4.178-5.239v-1.113c-.002-.532-.214-1.042-.591-1.418-.377-.376-.887-.586-1.419-.586Zm10.413 0h-4.342c-.532 0-1.043.21-1.42.586-.376.376-.589.886-.59 1.418v1.113c0 2.309 1.869 5.239 4.178 5.239s4.178-2.93 4.178-5.239v-1.113c0-.532-.211-1.042-.587-1.417-.376-.376-.886-.587-1.417-.587Zm10.407 0h-4.342c-.532 0-1.041.211-1.417.587-.376.375-.587.885-.587 1.417v1.113c0 2.309 1.869 5.239 4.172 5.239s4.178-2.93 4.178-5.239v-1.113c0-.532-.211-1.042-.587-1.417-.376-.376-.885-.587-1.417-.587Zm10.407 0h-4.342c-.531 0-1.041.211-1.417.587-.376.375-.587.885-.587 1.417v1.113c0 2.309 1.869 5.239 4.178 5.239s4.172-2.93 4.172-5.239v-1.113c0-.532-.211-1.042-.587-1.417-.375-.376-.885-.587-1.417-.587Zm10.408-.001h-4.319c-.263 0-.524.052-.767.153s-.464.248-.65.434c-.186.187-.334.407-.434.651-.101.243-.153.503-.153.767v1.113c0 2.309 1.869 5.239 4.178 5.239s4.178-2.93 4.178-5.239v-1.113c0-.266-.054-.529-.156-.773-.103-.245-.254-.467-.443-.653-.189-.187-.413-.334-.659-.433-.246-.099-.51-.149-.775-.146Zm10.413.001h-4.342c-.532 0-1.043.21-1.419.586-.377.376-.59.886-.591 1.418v1.113c0 2.309 1.869 5.239 4.178 5.239s4.178-2.93 4.178-5.239v-1.113c0-.532-.211-1.042-.587-1.417-.376-.376-.885-.587-1.417-.587Zm10.407 0h-4.342c-.531 0-1.041.211-1.417.587-.376.375-.587.885-.587 1.417v1.113c0 2.309 1.869 5.239 4.172 5.239s4.178-2.93 4.178-5.239v-1.113c0-.532-.211-1.042-.587-1.417-.375-.376-.885-.587-1.417-.587Zm10.408-.001h-4.342c-.532 0-1.041.212-1.417.587-.376.376-.587.886-.587 1.418v1.113c0 2.303 1.857 5.233 4.201 5.233 2.344 0 4.173-2.93 4.173-5.239v-1.113c-.001-.265-.054-.527-.157-.771-.102-.244-.252-.465-.441-.651-.188-.186-.412-.332-.657-.431-.246-.099-.508-.149-.773-.146ZM90.402 163.723h-4.3422c-.5315 0-1.0413.211-1.4171.587-.3759.375-.587.885-.587 1.417v1.113c0 2.309 1.8693 5.239 4.1781 5.239 2.3089 0 4.1782-2.93 4.1782-5.239v-1.113c-.0015-.532-.214-1.042-.5908-1.418-.3767-.376-.8871-.586-1.4192-.586Zm10.39 0h-4.3421c-.532 0-1.0424.21-1.4192.586s-.5892.886-.5908 1.418v1.113c0 2.309 1.8694 5.239 4.1782 5.239 2.3089 0 4.1779-2.93 4.1779-5.239v-1.113c0-.532-.211-1.042-.587-1.417-.376-.376-.885-.587-1.417-.587Zm10.431 0h-4.342c-.532 0-1.042.211-1.418.587-.375.375-.587.885-.587 1.417v1.113c0 2.309 1.87 5.239 4.173 5.239s4.178-2.93 4.178-5.239v-1.113c0-.532-.211-1.042-.587-1.417-.376-.376-.886-.587-1.417-.587Zm10.407 0h-4.342c-.532 0-1.041.211-1.417.587-.376.375-.587.885-.587 1.417v1.113c0 2.309 1.869 5.239 4.178 5.239s4.172-2.93 4.172-5.239v-1.113c0-.264-.052-.524-.152-.767-.101-.243-.249-.464-.435-.65-.186-.187-.407-.334-.65-.435-.243-.101-.504-.152-.767-.152Zm10.408 0h-4.342c-.532 0-1.042.211-1.418.587-.375.375-.587.885-.587 1.417v1.113c0 2.309 1.87 5.239 4.179 5.239 2.308 0 4.178-2.93 4.178-5.239v-1.113c-.002-.532-.214-1.042-.591-1.418-.377-.376-.887-.586-1.419-.586Zm10.413 0h-4.342c-.532 0-1.043.21-1.42.586-.376.376-.589.886-.59 1.418v1.113c0 2.309 1.869 5.239 4.178 5.239s4.178-2.93 4.178-5.239v-1.113c0-.532-.211-1.042-.587-1.417-.376-.376-.886-.587-1.417-.587Zm10.407 0h-4.342c-.532 0-1.041.211-1.417.587-.376.375-.587.885-.587 1.417v1.113c0 2.309 1.869 5.239 4.172 5.239s4.178-2.93 4.178-5.239v-1.113c0-.532-.211-1.042-.587-1.417-.376-.376-.885-.587-1.417-.587Zm10.407 0h-4.342c-.531 0-1.041.211-1.417.587-.376.375-.587.885-.587 1.417v1.113c0 2.309 1.869 5.239 4.178 5.239s4.172-2.93 4.172-5.239v-1.113c0-.532-.211-1.042-.587-1.417-.375-.376-.885-.587-1.417-.587Zm10.408 0h-4.319c-.263 0-.524.051-.767.152s-.464.248-.65.435c-.186.186-.334.407-.434.65-.101.243-.153.503-.153.767v1.113c0 2.309 1.869 5.239 4.178 5.239s4.178-2.93 4.178-5.239v-1.113c0-.266-.054-.528-.156-.773-.103-.245-.254-.467-.443-.653s-.413-.334-.659-.433c-.246-.099-.51-.149-.775-.145Zm10.413 0h-4.342c-.532 0-1.043.21-1.419.586-.377.376-.59.886-.591 1.418v1.113c0 2.309 1.869 5.239 4.178 5.239s4.178-2.93 4.178-5.239v-1.113c0-.532-.211-1.042-.587-1.417-.376-.376-.885-.587-1.417-.587Zm10.407 0h-4.342c-.531 0-1.041.211-1.417.587-.376.375-.587.885-.587 1.417v1.113c0 2.309 1.869 5.239 4.172 5.239s4.178-2.93 4.178-5.239v-1.113c0-.532-.211-1.042-.587-1.417-.375-.376-.885-.587-1.417-.587Zm10.408 0h-4.342c-.532 0-1.041.211-1.417.587-.376.375-.587.885-.587 1.417v1.113c0 2.309 1.869 5.239 4.178 5.239s4.172-2.93 4.172-5.239v-1.113c0-.532-.211-1.042-.587-1.417-.376-.376-.885-.587-1.417-.587ZM85.1984 153.051h-4.3305c-.5315 0-1.0413.212-1.4171.587-.3759.376-.587.886-.587 1.418v1.113c0 2.303 1.8693 5.239 4.1781 5.239 2.3089 0 4.1724-2.93 4.1724-5.239v-1.113c0-.265-.0523-.526-.1537-.77-.1015-.244-.2501-.465-.4375-.652-.1873-.186-.4096-.333-.6541-.433-.2445-.1-.5064-.151-.7706-.15Zm10.4077 0h-4.3422c-.5315 0-1.0413.212-1.4171.587-.3759.376-.587.886-.587 1.418v1.113c0 2.303 1.8693 5.239 4.1781 5.239 2.3089 0 4.1782-2.93 4.1782-5.239v-1.113c-.0015-.533-.214-1.042-.5908-1.418-.3767-.376-.8871-.587-1.4192-.587Zm10.4129 0h-4.342c-.532 0-1.042.211-1.419.587s-.5895.885-.591 1.418v1.113c0 2.303 1.875 5.239 4.178 5.239s4.178-2.93 4.178-5.239v-1.113c0-.532-.211-1.042-.587-1.418-.375-.375-.885-.587-1.417-.587Zm10.407 0h-4.342c-.531 0-1.041.212-1.417.587-.376.376-.587.886-.587 1.418v1.113c0 2.303 1.869 5.239 4.172 5.239s4.179-2.93 4.179-5.239v-1.113c0-.264-.052-.524-.153-.767-.101-.244-.248-.465-.434-.651-.187-.186-.407-.333-.651-.434-.243-.101-.503-.153-.767-.153Zm10.408 0h-4.36c-.532 0-1.041.212-1.417.587-.376.376-.587.886-.587 1.418v1.113c0 2.303 1.869 5.239 4.178 5.239s4.172-2.93 4.172-5.239v-1.113c0-.529-.208-1.036-.581-1.411-.372-.376-.877-.589-1.405-.594Zm10.407 0h-4.342c-.531 0-1.041.212-1.417.587-.376.376-.587.886-.587 1.418v1.113c0 2.303 1.869 5.239 4.178 5.239s4.178-2.93 4.178-5.239v-1.113c-.001-.533-.214-1.042-.59-1.418-.377-.376-.888-.587-1.42-.587Zm10.431 0h-4.342c-.532 0-1.043.211-1.419.587-.377.376-.59.885-.591 1.418v1.113c0 2.303 1.875 5.239 4.178 5.239s4.178-2.93 4.178-5.239v-1.113c0-.532-.211-1.042-.587-1.418-.376-.375-.885-.587-1.417-.587Zm10.39 0h-4.343c-.531 0-1.041.212-1.417.587-.376.376-.587.886-.587 1.418v1.113c0 2.303 1.87 5.239 4.173 5.239s4.178-2.93 4.178-5.239v-1.113c0-.532-.211-1.042-.587-1.418-.376-.375-.886-.587-1.417-.587Zm10.407 0h-4.342c-.532 0-1.042.212-1.417.587-.376.376-.587.886-.587 1.418v1.113c0 2.303 1.869 5.239 4.178 5.239s4.172-2.93 4.172-5.239v-1.113c0-.532-.211-1.042-.587-1.418-.376-.375-.886-.587-1.417-.587Zm10.408 0h-4.343c-.531 0-1.041.212-1.417.587-.376.376-.587.886-.587 1.418v1.113c0 2.303 1.87 5.239 4.178 5.239 2.309 0 4.179-2.93 4.179-5.239v-1.113c-.002-.533-.214-1.042-.591-1.418-.377-.376-.887-.587-1.419-.587Zm10.401 0h-4.342c-.532 0-1.043.211-1.419.587-.377.376-.59.885-.591 1.418v1.113c0 2.303 1.875 5.239 4.178 5.239s4.178-2.93 4.178-5.239v-1.113c0-.532-.211-1.042-.587-1.418-.376-.375-.885-.587-1.417-.587Zm10.419 0h-4.342c-.527.008-1.029.223-1.399.598-.369.375-.576.88-.576 1.407v1.113c0 2.303 1.869 5.239 4.172 5.239s4.178-2.93 4.178-5.239v-1.113c0-.266-.052-.529-.155-.774-.102-.245-.253-.467-.442-.654-.189-.186-.414-.333-.66-.432-.247-.099-.51-.148-.776-.145Zm10.408 0h-4.343c-.531 0-1.041.212-1.417.587-.376.376-.587.886-.587 1.418v1.113c0 2.303 1.87 5.239 4.178 5.239 2.309 0 4.173-2.93 4.173-5.239v-1.113c0-.532-.211-1.042-.587-1.418-.376-.375-.886-.587-1.417-.587Zm-24.87 21.782h-79.509c-1.039 0-1.881.842-1.881 1.881v5.708c0 1.039.842 1.881 1.881 1.881h79.509c1.039 0 1.881-.842 1.881-1.881v-5.708c0-1.039-.842-1.881-1.881-1.881Zm10.648.557h-4.343c-.531 0-1.041.211-1.417.587-.376.376-.587.885-.587 1.417v1.113c0 2.309 1.869 5.239 4.178 5.239s4.173-2.93 4.173-5.239v-1.113c0-.532-.212-1.041-.587-1.417-.376-.376-.886-.587-1.417-.587Zm-96.4624 0h-4.3423c-.5315 0-1.0412.211-1.4171.587-.3758.376-.587.885-.587 1.417v1.113c0 2.309 1.8694 5.239 4.1782 5.239 2.3088 0 4.1786-2.93 4.1786-5.239v-1.113c-.002-.532-.214-1.042-.591-1.418-.377-.375-.8873-.586-1.4194-.586Z" fill="#fff" stroke="#263238" stroke-linecap="round" stroke-linejoin="round"/><path opacity=".2" d="M90.6427 144.847c.2103.001.4201.021.627.059v-1.236c-.0015-.231-.0942-.452-.2578-.614-.1636-.163-.3848-.254-.6153-.254h-4.3423c-.2295.002-.4493.094-.6116.256-.1623.162-.2542.382-.2557.612v1.113c0 1.6 1.172 3.616 2.555 4.02-.4278-1.776.5332-3.956 2.9007-3.956Zm10.6413-.298c.133-.01.266-.01.399 0v-.903c-.002-.229-.094-.449-.256-.611-.162-.163-.382-.255-.612-.256h-4.3418c-.2305 0-.4517.091-.6153.253-.1636.163-.2563.384-.2578.614v1.113c0 1.758 1.3888 3.956 2.93 4.102-.7091-1.816.2227-4.312 2.7539-4.312Zm10.718-.153h.088v-.732c0-.23-.091-.451-.254-.614-.163-.162-.383-.254-.613-.254h-4.343c-.23 0-.451.092-.615.254-.163.163-.256.383-.258.614v1.113c0 1.787 1.477 4.102 3.042 4.102.076.006.152.006.228 0-.785-1.852.123-4.483 2.725-4.483Zm9.746-.299c.243-.007.487.013.726.059v-.51c0-.23-.091-.451-.254-.613-.162-.163-.383-.254-.613-.254h-4.342c-.23 0-.451.091-.614.254-.162.162-.254.383-.254.613v1.113c0 1.676 1.29 3.809 2.743 4.102-.996-1.84-.135-4.764 2.608-4.764Zm10.94 0h.223v-.439c-.002-.231-.094-.451-.258-.614-.164-.162-.385-.253-.615-.253h-4.343c-.229.001-.449.093-.611.255-.162.163-.254.382-.256.612v1.113c0 1.788 1.477 4.102 3.041 4.102.08.006.161.006.241 0-1.026-1.846-.164-4.776 2.578-4.776Zm10.495.059h.135v-.51c-.002-.229-.093-.449-.256-.611-.162-.163-.382-.255-.611-.256h-4.343c-.23 0-.451.091-.615.253-.163.163-.256.384-.258.614v1.113c0 1.788 1.477 4.102 3.042 4.102.095.009.191.009.287 0-.961-1.845-.088-4.705 2.619-4.705Zm10.044-.059c.167.003.333.014.498.035v-.462c0-.23-.091-.451-.254-.614-.162-.162-.383-.254-.613-.254h-4.342c-.23 0-.451.092-.614.254-.162.163-.254.384-.254.614v1.113c0 1.758 1.454 4.067 3.007 4.102-1.038-1.84-.182-4.788 2.572-4.788Zm10.906.153v-.586c0-.23-.091-.451-.254-.614-.163-.162-.383-.254-.613-.254h-4.343c-.23 0-.45.092-.613.254-.162.163-.254.384-.254.614v1.113c0 1.787 1.471 4.102 3.042 4.102.157-.002.313-.028.462-.076-.843-1.805.018-4.471 2.573-4.553Zm9.558-.229c.288-.001.576.037.855.111v-.462c-.001-.231-.094-.452-.258-.614-.163-.163-.385-.254-.615-.254h-4.319c-.229.002-.449.094-.611.256-.163.162-.255.382-.256.612v1.113c0 1.652 1.254 3.739 2.678 4.055-1.096-1.834-.246-4.817 2.526-4.817Zm10.641 0c.209.001.416.02.621.059v-.41c-.001-.23-.093-.45-.255-.612-.163-.162-.382-.254-.612-.256h-4.342c-.231 0-.452.091-.616.254-.163.162-.256.383-.257.614v1.113c0 1.758 1.406 3.991 2.93 4.102-1.102-1.84-.258-4.864 2.531-4.864Zm10.571.299c.153.002.306.014.458.035v-.685c0-.23-.092-.451-.254-.614-.163-.162-.384-.254-.614-.254h-4.342c-.114 0-.227.023-.332.066-.105.044-.201.108-.281.188-.081.081-.145.176-.188.282-.044.105-.066.218-.066.332v1.113c0 1.758 1.406 3.985 2.93 4.102-.85-1.852.047-4.565 2.689-4.565Zm10.865-.135v-.515c0-.23-.091-.451-.254-.614-.162-.162-.383-.254-.613-.254h-4.342c-.23 0-.451.092-.614.254-.162.163-.254.384-.254.614v1.113c0 1.787 1.471 4.102 3.042 4.102.226-.003.449-.051.656-.141-.832-1.769-.047-4.36 2.379-4.559ZM90.9415 165.838c.1113-.006.2228-.006.334 0v-.123c-.0015-.231-.0942-.451-.2578-.614-.1635-.162-.3847-.253-.6153-.253h-4.3423c-.2295.001-.4492.093-.6115.255-.1623.163-.2542.382-.2557.612v1.113c0 1.788 1.4767 4.102 3.0413 4.102.1082-.002.216-.014.3223-.035-1.3126-1.781-.5157-5.057 2.385-5.057Zm10.1965 0c.182.001.365.016.545.047v-.152c-.002-.23-.094-.45-.256-.612-.162-.162-.382-.254-.612-.256h-4.3418c-.2305 0-.4517.091-.6153.254-.1636.162-.2563.383-.2578.614v1.113c0 1.787 1.4767 4.102 3.0413 4.102h.129c-1.342-1.805-.5509-5.11 2.3676-5.11Zm10.343.147c.196 0 .392.018.586.052v-.31c0-.114-.023-.227-.066-.332-.044-.105-.108-.201-.188-.282-.081-.08-.177-.144-.282-.188-.105-.043-.218-.066-.332-.066h-4.342c-.231 0-.452.092-.615.254-.164.163-.257.383-.258.614v1.113c0 1.758 1.453 4.061 3.006 4.102-1.166-1.822-.352-4.957 2.491-4.957Zm10.565.076c.151 0 .302.01.452.029v-.363c0-.114-.023-.227-.066-.332-.044-.105-.108-.201-.188-.282-.081-.08-.176-.144-.282-.188-.105-.043-.218-.066-.332-.066h-4.342c-.114 0-.226.023-.332.066-.105.044-.201.108-.281.188-.081.081-.145.177-.188.282-.044.105-.066.218-.066.332v1.113c0 1.787 1.471 4.102 3.041 4.102h.071c-1.126-1.834-.288-4.881 2.513-4.881Zm10.197-.223c.224 0 .448.022.668.064v-.169c-.002-.231-.094-.452-.258-.614-.164-.163-.385-.254-.615-.254h-4.343c-.229.002-.449.094-.611.256-.162.162-.254.382-.256.612v1.113c0 1.787 1.477 4.102 3.041 4.102-1.336-1.793-.55-5.11 2.374-5.11Zm10.565.07c.171.002.341.015.51.041v-.222c-.002-.23-.093-.45-.256-.612-.162-.162-.382-.254-.611-.256h-4.343c-.23 0-.451.092-.615.254-.163.163-.256.383-.258.614v1.113c0 1.787 1.477 4.102 3.042 4.102h.111c-1.266-1.817-.457-5.034 2.42-5.034Zm10.794.223h.123v-.41c0-.23-.091-.451-.254-.613-.162-.163-.383-.254-.613-.254h-4.342c-.23 0-.451.091-.614.254-.162.162-.254.383-.254.613v1.113c0 1.787 1.471 4.102 3.036 4.102.114-.002.228-.015.34-.041-1.008-1.828-.17-4.764 2.578-4.764Zm10.478-.223h.035v-.181c0-.114-.022-.227-.066-.332-.043-.105-.107-.201-.188-.282-.08-.08-.176-.144-.281-.188-.105-.043-.218-.066-.332-.066h-4.325c-.113 0-.226.023-.331.066-.106.044-.201.108-.282.188-.08.081-.144.177-.188.282-.043.105-.066.218-.066.332v1.113c0 1.787 1.471 4.102 3.042 4.102.179-.003.357-.034.527-.094-1.19-1.816-.363-4.94 2.455-4.94Zm10.132-.222h.328c-.009-.225-.104-.437-.266-.593-.161-.156-.376-.244-.601-.245h-4.319c-.229.001-.449.093-.611.255-.163.163-.255.382-.256.612v1.113c0 1.788 1.477 4.102 3.041 4.102.143-.004.285-.026.422-.064-1.471-1.746-.709-5.18 2.262-5.18Zm10.724.152v-.105c-.002-.23-.094-.45-.256-.612-.162-.162-.382-.254-.612-.256h-4.342c-.23 0-.452.091-.615.254-.164.162-.256.383-.258.614v1.113c0 1.787 1.477 4.102 3.041 4.102.2-.003.398-.039.586-.106-1.224-1.816-.416-5.004 2.456-5.004Zm10.202 0h.235v-.117c0-.114-.023-.227-.066-.332-.044-.105-.108-.201-.188-.281-.081-.081-.176-.145-.282-.188-.105-.044-.218-.066-.332-.066h-4.342c-.23 0-.45.091-.613.254-.163.162-.254.383-.254.613v1.113c0 1.787 1.471 4.102 3.035 4.102.139-.002.277-.021.411-.058-1.307-1.794-.504-5.04 2.396-5.04Zm10.255.445h.375v-.586c0-.23-.091-.45-.254-.613-.162-.163-.383-.254-.613-.254h-4.342c-.23 0-.451.091-.614.254-.162.163-.254.383-.254.613v1.114c0 1.787 1.471 4.102 3.042 4.102-.909-1.817-.03-4.63 2.66-4.63Zm-119.3972-10.94h.0761v-.287c-.0015-.231-.0942-.452-.2578-.614-.1635-.163-.3847-.254-.6153-.254h-4.3305c-.2301 0-.4507.092-.6133.254-.1627.163-.254.384-.254.614v1.113c0 1.787 1.4708 4.102 3.0413 4.102.1509-.004.3007-.027.4454-.07-1.1251-1.829-.2754-4.858 2.5081-4.858Zm10.1904 0h.293v-.299c-.0016-.231-.0943-.451-.2578-.614-.1636-.162-.3848-.253-.6154-.253h-4.3422c-.2296.001-.4493.093-.6116.255-.1623.163-.2542.382-.2557.612v1.113c0 1.787 1.4767 4.102 3.0413 4.102.0859.006.172.006.2579 0-1.1545-1.834-.3223-4.916 2.4905-4.916Zm10.6478 0h.052v-.287c-.001-.23-.093-.45-.255-.612-.163-.162-.382-.254-.612-.256h-4.342c-.115-.001-.23.02-.337.063-.106.043-.204.106-.286.187-.082.08-.148.177-.193.283-.045.106-.068.219-.069.335v1.113c0 1.787 1.477 4.102 3.041 4.102.158-.002.314-.028.463-.076-1.096-1.823-.258-4.852 2.538-4.852Zm10.19-.053h.27v-.223c0-.23-.092-.45-.254-.613-.163-.163-.384-.254-.614-.254h-4.342c-.23 0-.451.091-.613.254-.163.163-.254.383-.254.613v1.114c0 1.787 1.471 4.102 3.035 4.102.107-.003.212-.014.317-.035-1.213-1.823-.393-4.958 2.455-4.958Zm10.138.053c.187 0 .373.015.557.047v-.334c0-.23-.091-.451-.254-.614-.163-.162-.383-.254-.613-.254h-4.378c-.23 0-.45.092-.613.254-.163.163-.254.384-.254.614v1.113c0 1.787 1.471 4.102 3.041 4.102-1.16-1.823-.334-4.928 2.514-4.928Zm10.478-.375c.156 0 .313.01.469.029-.017-.219-.115-.424-.276-.574-.161-.15-.372-.234-.592-.235h-4.342c-.23.002-.449.094-.612.256-.162.162-.254.382-.255.612v1.113c0 1.787 1.476 4.102 3.041 4.102.113-.002.224-.016.334-.041-1.523-1.741-.779-5.262 2.233-5.262Zm10.489.445h.393v-.381c-.002-.229-.094-.449-.256-.611-.162-.163-.382-.255-.612-.256h-4.342c-.23 0-.452.091-.615.253-.164.163-.256.384-.258.614v1.113c0 1.788 1.477 4.102 3.041 4.102h.117c-1.095-1.816-.269-4.834 2.532-4.834Zm10.8-.357c0-.23-.092-.451-.254-.614-.163-.162-.383-.254-.613-.254h-4.343c-.114 0-.226.023-.332.066-.105.044-.2.108-.281.188-.08.081-.144.176-.188.282-.044.105-.066.218-.066.332v1.113c0 1.787 1.471 4.102 3.036 4.102.312-.008.618-.092.89-.246-1.183-1.746-.469-4.735 2.151-4.969Zm10.425.234v-.223c0-.23-.091-.45-.254-.613-.163-.163-.383-.254-.613-.254h-4.342c-.23 0-.451.091-.614.254-.162.163-.254.383-.254.613v1.114c0 1.787 1.471 4.102 3.042 4.102.251-.004.499-.062.726-.17-1.072-1.788-.304-4.676 2.309-4.823Zm10.032-.176h.364v-.076c-.002-.231-.095-.451-.258-.614-.164-.162-.385-.253-.615-.253h-4.343c-.229.001-.449.093-.611.255-.163.163-.254.382-.256.612v1.113c0 1.788 1.477 4.102 3.041 4.102.111-.001.221-.015.328-.041-1.359-1.764-.58-5.098 2.35-5.098Zm10.771.381v-.439c-.002-.23-.094-.45-.256-.612-.162-.162-.382-.254-.611-.256h-4.343c-.23 0-.451.091-.615.254-.164.162-.256.383-.258.614v1.113c0 1.787 1.477 4.102 3.042 4.102.177-.003.353-.033.521-.088-.955-1.817-.117-4.618 2.52-4.688Zm9.915-.305c.165.003.329.014.493.035v-.169c0-.231-.092-.451-.254-.614-.163-.162-.384-.254-.614-.254h-4.342c-.114 0-.227.023-.332.066-.105.044-.201.108-.281.188-.081.081-.145.176-.188.282-.044.105-.066.218-.066.332v1.113c0 1.787 1.471 4.102 3.035 4.102.055.003.11.003.164 0-1.312-1.811-.515-5.081 2.385-5.081Zm10.495.452c.135-.01.27-.01.405 0v-.586c0-.23-.092-.451-.254-.614-.163-.162-.383-.254-.613-.254h-4.343c-.23 0-.45.092-.613.254-.163.163-.254.384-.254.614v1.113c0 1.758 1.459 4.102 3.024 4.102-.914-1.846-.03-4.629 2.648-4.629Zm-24.588 26.815v-5.778c0-.392-.317-.709-.709-.709h-79.579c-.391 0-.709.317-.709.709v5.778c0 .392.318.709.709.709h79.579c.392 0 .709-.317.709-.709Zm10.771-4.483v-.586c0-.114-.023-.227-.066-.332-.044-.105-.108-.201-.188-.281-.081-.081-.176-.145-.282-.188-.105-.044-.218-.066-.332-.066h-4.342c-.114 0-.227.022-.332.066-.105.043-.201.107-.281.188-.081.08-.145.176-.188.281-.044.105-.066.218-.066.332v1.113c0 1.788 1.471 4.102 3.041 4.102.131-.003.26-.02.387-.052-.867-1.829.018-4.559 2.649-4.577Zm-96.9657-.375c.1707.001.3407.015.5097.041v-.246c-.001-.231-.094-.451-.258-.614-.1633-.162-.3845-.253-.615-.253h-4.3423c-.2295.001-.4492.093-.6116.255-.1623.163-.2541.382-.2557.612v1.113c0 1.788 1.4767 4.102 3.0414 4.102h.0996c-1.2482-1.816-.4278-5.01 2.4319-5.01ZM73.6601 55.377H217.3c.987 0 1.934.392 2.632 1.0898.697.6979 1.089 1.6444 1.089 2.6313v32.816H69.939v-32.816c0-.9869.392-1.9334 1.0898-2.6313.6979-.6978 1.6444-1.0898 2.6313-1.0898Z" fill="#000"/><path d="M205.557 61.5651H85.4273c-1.0017-8.3192-2.7672-16.5285-5.274-24.5241H210.855c-2.546 7.9864-4.32 16.1988-5.298 24.5241Z" fill="#fff"/><path opacity=".2" d="M206.741 53.6599c-.874 4.7701-1.172 7.9052-1.172 7.9052H85.4386s-.3047-3.0765-1.2013-7.9052H206.741Z" fill="#000"/><path d="M205.557 61.5651H85.4273c-1.0017-8.3192-2.7672-16.5285-5.274-24.5241H210.855c-2.547 7.9864-4.32 16.1988-5.298 24.5241v0Z" stroke="#263238" stroke-linecap="round" stroke-linejoin="round"/><path d="M203.922 82.2158H86.0718v48.4852H203.922V82.2158Z" fill="#263238"/><g opacity=".4" fill="#fff"><path opacity=".4" d="m142.058 126.412.621.029c.782-12.091 1.563-24.202 2.344-36.3319-.996 12.1339-1.984 24.2349-2.965 36.3029Zm-2.004-.153.621.053c1.355-12.013 2.709-24.079 4.061-36.197-1.559 12.126-3.12 24.174-4.682 36.144Zm-1.951-.222c.205 0 .416.047.621.07 1.922-11.884 3.856-23.883 5.801-35.9979-2.149 12.1259-4.289 24.1019-6.422 35.9279Zm-1.976-.299.627.1c2.493-11.72 5.005-23.636 7.536-35.7464-2.734 12.1224-5.455 24.0044-8.163 35.6464Zm-1.968-.369.633.129c3.047-11.498 6.135-23.296 9.264-35.3947-3.328 12.1027-6.627 23.8577-9.897 35.2657Zm-1.957-.446.633.159c3.592-11.24 7.284-22.895 10.987-34.9846-3.92 12.0896-7.829 23.6916-11.62 34.8256Zm-1.952-.527.639.188c4.102-10.924 8.397-22.421 12.698-34.4983-4.518 12.0773-9.018 23.5103-13.337 34.3103Zm-1.916-.598.639.205c4.635-10.548 9.499-21.863 14.398-33.9232-5.139 12.0602-10.226 23.2932-15.037 33.7182Zm-1.946-.685.645.234c5.133-10.149 10.589-21.237 16.085-33.2789-5.725 12.0419-11.409 23.0299-16.73 33.0449Zm-1.898-.774.644.27c5.603-9.693 11.65-20.51 17.75-32.5526-6.346 12.0186-12.61 22.7776-18.394 32.2826Zm-1.881-.867.644.31c6.048-9.17 12.687-19.748 19.397-31.7373-6.95 11.9893-13.818 22.4673-20.041 31.4273Zm-1.852-.961.644.351c6.446-8.596 13.695-18.875 21.014-30.8349-6.675 10.5369-13.905 20.7129-21.658 30.4839Z"/><path opacity=".4" d="M118.958 119.456c.211.135.434.258.65.387 8.133-9.473 15.679-19.434 22.597-29.8276-7.079 10.3246-14.846 20.1606-23.247 29.4406Z"/><path opacity=".4" d="m117.159 118.29.638.439c8.776-8.936 16.85-18.536 24.149-28.7136-7.451 10.1066-15.743 19.5646-24.787 28.2746Z"/><path opacity=".4" d="M141.712 89.9802c-9.428 11.8078-18.652 20.8148-26.27 27.0378l.627.487c9.405-8.337 17.992-17.5541 25.643-27.5248Z"/><path opacity=".4" d="M141.478 89.9626c-10.044 11.7204-19.859 20.2874-27.706 25.6784l.621.533c7.741-5.731 17.305-14.462 27.085-26.2114Z"/><path opacity=".4" d="M141.226 89.9451c-10.648 11.6319-21.02 19.6959-29.042 24.1959.193.199.386.398.586.586 7.946-4.864 18.089-13.121 28.456-24.7819Z"/><path opacity=".4" d="M141.009 89.9216c-11.228 11.5154-22.139 19.0454-30.29 22.6194l.586.639c8.069-3.967 18.734-11.708 29.704-23.2584Z"/><path opacity=".4" d="M109.371 110.83c.17.235.346.469.522.697 8.174-3.017 19.338-10.219 30.888-21.6229-11.785 11.3509-23.188 18.3179-31.41 20.9259Z"/><path opacity=".4" d="M108.175 109.049c.153.246.311.492.469.738 8.204-2.063 19.854-8.69 31.902-19.924-12.283 11.169-24.137 17.551-32.371 19.186Z"/><path opacity=".4" d="M107.156 107.238c.129.258.263.51.398.768 8.204-1.114 20.252-7.155 32.758-18.1371-12.711 10.8761-24.952 16.6661-33.156 17.3691Z"/><path opacity=".4" d="M106.324 105.386c.105.258.217.522.328.78 8.157-.2 20.51-5.644 33.402-16.3381-13.039 10.5831-25.585 15.7631-33.73 15.5581Zm37.72 21.108h.616c.187-12.111.383-24.237.586-36.379-.41 12.134-.811 24.26-1.202 36.379Zm1.981.012h.622c-.391-12.111-.782-24.237-1.172-36.3793l.55 36.3793Zm1.981-.053h.621c-.976-12.072-1.953-24.182-2.93-36.3322.77 12.1342 1.539 24.2452 2.309 36.3322Zm2.01-.123.621-.047c-1.562-11.982-3.125-24.038-4.688-36.168 1.344 12.13 2.7 24.202 4.067 36.215Zm1.951-.188.622-.076c-2.126-11.841-4.274-23.827-6.446-35.9569 1.957 12.1299 3.898 24.1409 5.824 36.0329Zm1.975-.263.627-.094c-2.695-11.662-5.42-23.553-8.174-35.6759 2.531 12.1259 5.047 24.0499 7.547 35.7699Zm1.969-.334.627-.118c-3.254-11.431-6.557-23.205-9.909-35.3237 3.117 12.1187 6.212 23.9327 9.282 35.4417Zm1.957-.411.639-.146c-3.797-11.134-7.712-22.778-11.644-34.8906 3.716 12.1146 7.384 23.7936 11.005 35.0366Zm1.958-.48.632-.182c-4.324-10.823-8.831-22.268-13.36-34.3863 4.307 12.1063 8.596 23.5983 12.728 34.5683Zm1.939-.569.645-.211c-4.846-10.442-9.962-21.682-15.078-33.7942 4.911 12.0892 9.786 23.4162 14.433 34.0052Zm1.928-.65.645-.24c-5.333-10.015-11.029-21.049-16.772-33.1269 5.515 12.0779 10.982 23.1879 16.127 33.3669Zm1.91-.733c.217-.093.44-.175.651-.269-5.801-9.528-12.095-20.317-18.453-32.3766 6.123 12.0596 12.177 22.9306 17.802 32.6456Zm1.893-.814.651-.311c-6.241-8.983-13.138-19.49-20.112-31.5265 6.733 12.0245 13.39 22.6375 19.461 31.8375Zm1.858-.92c.217-.111.433-.235.644-.352-7.782-9.805-15.039-20.016-21.74-30.5889 7.36 12.0129 14.65 22.3209 21.096 30.9409Zm1.84-1.014.656-.387c-8.438-9.314-16.237-19.187-23.346-29.5516 6.943 10.4346 14.521 20.4326 22.69 29.9386Z"/><path opacity=".4" d="M148.738 89.9978c7.329 10.2252 15.438 19.8682 24.255 28.8432l.65-.44c-9.089-8.747-17.421-18.248-24.905-28.4032Z"/><path opacity=".4" d="M148.973 89.9802c7.687 10.0186 16.321 19.2728 25.784 27.6358.216-.158.422-.322.633-.486-7.642-6.224-16.936-15.272-26.417-27.1498Z"/><path opacity=".4" d="M149.207 89.9626c9.845 11.8194 19.467 20.5864 27.231 26.3174.211-.176.428-.352.633-.533-7.876-5.38-17.755-13.971-27.864-25.7844Z"/><path opacity=".4" d="M149.43 89.9451c10.46 11.7199 20.656 20.0349 28.626 24.8929.205-.193.398-.398.586-.586-8.028-4.494-18.477-12.587-29.212-24.3069Z"/><path opacity=".4" d="M149.676 89.9216c11.058 11.6384 21.805 19.4144 29.886 23.3524l.586-.645c-8.151-3.533-19.151-11.093-30.472-22.7074Z"/><path opacity=".4" d="M181.01 111.609c.181-.234.351-.468.527-.709-8.233-2.549-19.742-9.54-31.644-20.9959 11.65 11.5029 22.924 18.7289 31.117 21.7049Z"/><path opacity=".4" d="m182.281 109.846.481-.75c-8.245-1.553-20.211-7.952-32.623-19.2154 12.183 11.3274 23.903 17.9724 32.142 19.9654Z"/><path opacity=".4" d="M183.418 108.023c.141-.258.275-.516.41-.779-8.204-.586-20.574-6.382-33.402-17.3868 12.588 11.0988 24.788 17.1518 32.992 18.1658Z"/><path opacity=".4" d="M150.602 89.8279c13.033 10.8171 25.55 16.2611 33.695 16.3431.117-.263.229-.527.34-.791-8.134.334-20.815-4.852-34.035-15.5521Z"/></g><path opacity=".2" d="M128.334 90.9882c-2.221 5.6959.182 22.2678 16.209 22.2678s21.846-11.644 21.195-18.8397l21.395-3.4457s6.558 18.1194-7.366 30.7944c-13.923 12.675-62.186 11.855-72.388 2.221-10.2026-9.634-4.542-28.6673-4.542-28.6673l25.497-4.3305Z" fill="#000"/><path d="M222.235 66.4114v-3.9966c-.001-.1478.047-.2919.134-.4111.088-.1192.211-.2072.352-.251l2.93-.9142V56.842c0-.4787.19-.9378.529-1.2763.338-.3384.797-.5286 1.276-.5286h3.516c.173-.0033.341.0609.468.179.127.1181.203.2808.212.4539v1.2892c0 .1762-.07.3452-.194.4703s-.292.1962-.468.1977h-4.471v3.9086c-.003.1179-.034.2333-.093.3357-.058.1024-.141.1885-.241.2503l-2.497 1.5119v2.7835l-1.453-.0058Z" fill="#999" stroke="#263238" stroke-linecap="round" stroke-linejoin="round"/><path d="M226.091 66.4114h-3.856v11.5325h3.856V66.4114Z" fill="#263238"/><path d="M230.914 65.4327h-4.823v13.4897h4.823V65.4327Z" fill="#757575"/><path opacity=".2" d="M230.902 73.6484h-4.811v5.274h4.811v-5.274Z" fill="#000"/><path d="M230.914 65.4327h-4.823v13.4897h4.823V65.4327Z" stroke="#263238" stroke-linecap="round" stroke-linejoin="round"/><path d="M64.8702 77.938h3.8559V66.4055h-3.8559V77.938Z" fill="#263238"/><path d="M60.0473 78.9166h4.8228V65.4269h-4.8228v13.4897Z" fill="#757575"/><path opacity=".2" d="M64.876 73.6484h-4.8228v5.1451h4.8228v-5.1451Z" fill="#000"/><path d="M60.0473 78.9166h4.8228V65.4269h-4.8228v13.4897Z" stroke="#263238" stroke-linecap="round" stroke-linejoin="round"/><path d="M68.146 72.8632c.3482-.9136.4021-1.9131.1541-2.8588-.248-.9456-.7854-1.7901-1.5371-2.4152l-2.8362-2.344c-.1805-.1521-.3903-.2654-.6165-.3327-.2262-.0674-.4638-.0874-.6981-.0588-.2342.0286-.4601.1052-.6634.225-.2033.1198-.3798.2802-.5184.4712L50.1851 81.0613c-.214.2902-.329.6415-.3282 1.0021v16.66c0 .2236.0444.445.1307.6513.0863.2063.2127.3934.3719.5504.1592.1569.348.2809.5555.3639.2075.084.4295.125.6531.122.4476 0 .8768-.178 1.1933-.4943.3165-.3165.4943-.7457.4943-1.1933V85.1926c.0011-.334.1055-.6595.2989-.9317l8.4091-11.72c.0736-.1029.1678-.1894.2766-.254.1088-.0647.2298-.106.3554-.1214.1256-.0154.253-.0046.3742.0318.1212.0363.2335.0975.3299.1795l1.547 1.3126c.383.3251.8689.5037 1.3713.504.4177-.0025.8251-.1307 1.1689-.368.3439-.2372.6084-.5725.759-.9622Z" fill="#fff" stroke="#263238" stroke-linecap="round" stroke-linejoin="round"/><path d="M65.8253 71.3455c.4434 0 .8028-.3594.8028-.8028 0-.4434-.3594-.8028-.8028-.8028-.4434 0-.8028.3594-.8028.8028 0 .4434.3594.8028.8028.8028Z" fill="#999" stroke="#263238" stroke-linecap="round" stroke-linejoin="round"/><path d="M218.66 60.8385H72.3066V83.505H218.66V60.8385Z" fill="#263238"/><path opacity=".2" d="M216.545 62.5437H74.3634c-.4467 0-.8087.3621-.8087.8087v3.6683c0 .4467.362.8087.8087.8087H216.545c.446 0 .808-.362.808-.8087v-3.6683c0-.4466-.362-.8087-.808-.8087Z" fill="#fff"/><path d="M205.557 88.064H85.4273c-3.3853-7.7381-5.1789-16.0784-5.274-24.5241H210.855c0 11.3567-5.298 24.5241-5.298 24.5241Z" fill="#fff"/><path opacity=".7" d="M95.1431 86.224s2.6311-.1406 4.102-1.0255c1.4709-.8848 1.3649.797 2.2089.9083.844.1114 2.837-.586 3.891-.586 1.055 0 .252.6446 1.442.586 1.189-.0586.551.0586 1.172-.0586l5.092-.8497s2.584-.4981 3.106-.2461c.522.252 1.207 1.4943 1.969 1.172.762-.3223.357-.586 1.506-.586.71.0033 1.416.1059 2.098.3047 0 0 .105-.2988.633-.3047h.943s1.998.5274 2.315.5274c.316 0 2.678-.5215 2.76-.5274.082-.0059 2.344-.586 2.344-.586.48.5016 1.088.8623 1.758 1.0431.856.1113 1.758-.1172 2.403.1699.644.2872 2.766-.1172 2.766-.1172.506.0033 1.011.0425 1.511.1172.657.1499 1.341.1297 1.987-.0586 1.188-.3142 2.435-.3343 3.633-.0586 1.905.3458 3.657-.5215 4.465-.5274.809-.0058 4.044.3575 5.157.3575 1.114 0 4.061.3985 6.112.1699 2.051-.2285 3.393.2872 4.77.2872 1.377 0 2.848-.0586 3.165-.0586.316 0 1.84-.9962 4.02-.756 2.18.2403.24-.2988 1.582 0 1.342.2989 2.402.586 2.971.6446.456.0266.913.007 1.365-.0586l2.344-.1699h11.685m-99.7081-4.2368s7.2371 0 8.5441-.1172c1.307-.1172 2.004-.7852 2.701-.7852.698 0 4.219.668 4.219.668.103-.2185.271-.4.481-.5196.21-.1195.451-.1714.691-.1484.956 0 .469.0879 1.348.4395.879.3516.422 0 .885.3457.69.3099 1.42.5229 2.168.6329 0 0 3.264.1523 3.387-.6329.123-.7852 1.758.6329 1.758.6329s4.431-.6329 6.142-.6329c1.711 0 6-.3457 6-.3457s3.516.4629 3.68.4629c.164 0 .745.92 1.372.5157.627-.4044 1.23-.8673 1.974-.7501.692.1714 1.36.4232 1.993.7501l1.635-.8673 1.875.1172s1.91 1.2716 3.276.7501c1.039-.4155 2.055-.8889 3.041-1.4181l1.682 1.4181h1.102l3.264-.6329c.251.3088.589.5344.971.6473.382.113.789.1079 1.168-.0144 1.382-.3985 14.597 0 17.96 0 3.364 0 4.102-.8673 4.102-.8673l2.591.8673h12.892" stroke="#263238" stroke-linecap="round" stroke-linejoin="round"/><path opacity=".2" d="M206.782 84.677c-.709 2.1096-1.225 3.3871-1.225 3.3871H85.4274s-.586-1.2306-1.3888-3.3871H206.782Zm2.502-8.8721c-.404 1.758-.85 3.475-1.289 4.9927H82.7316c-.4337-1.4884-.879-3.1702-1.2658-4.9927H209.284Z" fill="#000"/><path d="M205.557 88.064H85.4273c-3.3853-7.7381-5.1789-16.0784-5.274-24.5241H210.855c0 11.3567-5.298 24.5241-5.298 24.5241Z" stroke="#263238" stroke-linecap="round" stroke-linejoin="round"/><path d="M72.2772 59.6724h-3.5804v25.0104h3.5804V59.6724Z" fill="#757575"/><path opacity=".2" d="M72.2069 77.264h-3.4867v7.4188h3.4867V77.264Z" fill="#000"/><path d="M72.2772 59.6724h-3.5804v25.0104h3.5804V59.6724Z" stroke="#263238" stroke-linecap="round" stroke-linejoin="round"/><path d="M222.264 59.6724h-3.58v25.0104h3.58V59.6724Z" fill="#757575"/><path opacity=".2" d="M222.264 77.264h-3.61v7.4188h3.61V77.264Z" fill="#000"/><path d="M222.264 59.6724h-3.58v25.0104h3.58V59.6724Z" stroke="#263238" stroke-linecap="round" stroke-linejoin="round"/><path d="M218.713 58.6234v18.2422H72.2482V58.6234h-1.4064v19.4669H220.119V58.6234h-1.406Z" fill="#999" stroke="#263238" stroke-linecap="round" stroke-linejoin="round"/><path d="M227.368 89.3532v40.9088c0 .69-.274 1.352-.762 1.84s-1.15.762-1.84.762H66.177c-.69 0-1.3518-.274-1.8397-.762-.488-.488-.7621-1.15-.7621-1.84V89.3532c0-.6901.2741-1.3519.7621-1.8398.4879-.4879 1.1497-.7621 1.8397-.7621h73.074v2.6019s-12.476 10.8238-33.988 14.8138c3.083 13.953 19.924 24.612 40.247 24.612 20.322 0 37.164-10.671 40.252-24.612-21.541-3.99-34.017-14.8138-34.017-14.8138v-2.6253h73.039c.342.0023.68.0721.996.2053.315.1333.601.3274.841.5713.24.2438.429.5326.557.8499.129.3172.193.6566.19.9988Z" fill="#fff" stroke="#263238" stroke-linecap="round" stroke-linejoin="round"/><path d="M227.368 89.3532v40.9088c0 .342-.067.681-.199.997-.131.316-.323.603-.565.845-.242.241-.53.433-.846.563-.317.131-.655.197-.998.197H66.177c-.3421 0-.6811-.066-.9974-.197-.3164-.13-.6039-.322-.8461-.563-.2423-.242-.4344-.529-.5656-.845-.1311-.316-.1986-.655-.1986-.997V89.3532c.0016-.6911.2768-1.3535.7655-1.8422.4887-.4887 1.1511-.764 1.8422-.7655h73.074v2.6077s-12.482 10.8178-33.988 14.8138c3.083 13.953 19.924 24.612 40.253 24.612 20.328 0 37.158-10.671 40.246-24.612-21.541-3.996-34.017-14.8138-34.017-14.8138v-2.6253h73.039c.69.0062 1.35.2861 1.835.7783.484.4921.754 1.1564.749 1.847Z" fill="#fff"/><path opacity=".2" d="M223.852 89.9803v37.7677c0 .251-.05.5-.146.732-.097.231-.238.442-.416.619s-.39.317-.622.412c-.232.095-.481.143-.732.141H67.7356c-.2504.001-.4984-.047-.7298-.143-.2314-.095-.4416-.236-.6186-.413-.177-.177-.3173-.387-.4127-.618-.0955-.232-.1442-.48-.1434-.73V89.9803c-.0008-.2509.0478-.4994.1431-.7315.0953-.2321.2354-.4431.4123-.621.1768-.178.387-.3193.6184-.4161.2315-.0967.4798-.1468.7307-.1476h71.4924v1.2892s-12.482 10.8177-33.988 14.8137c3.082 13.953 19.924 24.612 40.252 24.612 20.328 0 37.158-10.671 40.246-24.612-21.541-3.996-34.017-14.8137-34.017-14.8137v-1.2892h70.232c.505.0046.988.2086 1.344.5674.355.3589.555.8436.555 1.3488Z" fill="#fff"/><path d="M227.368 89.3532v40.9088c0 .342-.067.681-.199.997-.131.316-.323.603-.565.845-.242.241-.53.433-.846.563-.317.131-.655.197-.998.197H66.177c-.3421 0-.6811-.066-.9974-.197-.3164-.13-.6039-.322-.8461-.563-.2423-.242-.4344-.529-.5656-.845-.1311-.316-.1986-.655-.1986-.997V89.3532c.0016-.6911.2768-1.3535.7655-1.8422.4887-.4887 1.1511-.764 1.8422-.7655h73.074v2.6077s-12.482 10.8178-33.988 14.8138c3.083 13.953 19.924 24.612 40.253 24.612 20.328 0 37.158-10.671 40.246-24.612-21.541-3.996-34.017-14.8138-34.017-14.8138v-2.6253h73.039c.69.0062 1.35.2861 1.835.7783.484.4921.754 1.1564.749 1.847v0Z" stroke="#263238" stroke-linecap="round" stroke-linejoin="round"/><path opacity=".2" d="m174.98 144.988 7.788 21.723s3.369-23.909 5.379-23.909c2.01 0 6.341 13.074 6.341 13.074s2.672-6.821 5.203-7.067c2.532-.246 4.823 16.748 4.823 16.748l.393 37.721-3.194 57.047s-20.375-22.444-26.317-28.228c-5.942-5.784-11.621-18.512-13.262-21.096-1.64-2.584-2.056-16.115-2.056-16.115 2.077-2.658 3.163-5.957 3.07-9.329 0 0 4.782-8.005 4.489-13.912-.293-5.907-1.031-28.86 7.343-26.657Z" fill="#000" fill-opacity=".7"/><path d="m236.281 250.222-30.847 16.226c0-.164-4.055-6.733-8.954-14.163-2.215-3.364-4.606-6.897-6.874-10.097-3.715-5.233-8.438-9.751-8.842-10.736-1.172-2.93-10.209-13.899-12.23-18.166-2.022-4.266-2.485-17.539-3.376-20.662-.89-3.123 1.665-6.106 3.716-7.559 2.051-1.454 4.201-5.274 4.201-5.274s-2.268-8.837-2.291-13.332c-.023-4.494-1.553-20.182.275-21.647 1.829-1.465 3.464-.849 3.921.159 1.5 3.322 2.848 11.679 4.002 15.529 1.155 3.85 3.323 15.019 4.389 15.822 1.067.802 2.965-2.21 2.965-2.21s.182-9.376.586-13.261l-.586-12.306s-1.095-7.395 1.454-8.098c3.516-.967 4.799 1.242 5.198 2.174.398.931 2.039 6.299 2.039 6.299l.094.369v.176c.027.102.056.213.087.334.065.246.141.539.223.873.78 3.053 2.28 9.165 2.215 10.671-.088 2.034-.797 13.297.205 15.635l1.559-15.558s-2.514-11.99-1.781-13.719c.732-1.728 4.184.182 4.594.862.41.679 3.762 4.793 4.36 6.364l.586 1.57s.826-3.715 2.766-2.748c1.939.967 2.18 5.69 2.314 7.753.135 2.062 1.542 15.329 1.758 15.353.217.023 2.456 6.915 2.151 11.468-.639 9.745 1.049 16.994 1.108 20.733.058 3.738-2.761 12.399-2.761 12.399.1.17 1.94 3.299 2.444 6.048.369 2.016 6.938 9.3 12.306 15.095 3.733 3.997 6.862 7.267 7.026 7.624Z" fill="#fff"/><path opacity=".4" d="M196.486 252.296c-2.215-3.363-4.606-6.897-6.874-10.096-3.715-5.233-8.438-9.751-8.843-10.736-1.172-2.93-10.208-13.9-12.229-18.166-2.022-4.266-2.485-17.539-3.376-20.662-.89-3.124 1.665-6.106 3.716-7.56 2.051-1.453 4.201-5.274 4.201-5.274s-2.268-8.837-2.291-13.331c-.024-4.495-1.553-20.182.275-21.647 1.829-1.465 3.464-.85 3.921.158 1.5 3.323 2.848 11.679 4.002 15.529 1.154 3.85 3.323 15.019 4.389 15.822 1.067.803 2.965-2.209 2.965-2.209s.182-9.376.586-13.261l-.586-12.306s-1.096-7.395 1.454-8.099c3.516-.967 4.799 1.243 5.197 2.174.399.932 2.04 6.3 2.04 6.3l.093.369v.176c.024.101.053.213.088.334.065.246.141.539.223.873-.908-1.436-2.156-2.66-3.827-2.983-4.688-.914-3.674 4.302-3.228 7.431.252 2.076.203 4.178-.147 6.241l1.172-.674c-.844 1.506-2.051 14.023-2.051 16.806 0 2.784-2.203 3.71-4.178 2.895-1.975-.814-2.678-13.589-4.178-15.881-1.5-2.291-5.673 2.087-5.86 6.089-.188 4.002 3.545 15.939 2.66 18.752-.885 2.813-.873 13.478-.873 13.478l-1.078-2.748c.07.375 0 1.635-2.256 5.344-.848 1.343-1.396 2.852-1.607 4.426-.211 1.573-.081 3.174.382 4.692 1.377 3.042 8.362 11.058 9.534 11.884 0 0 .85-3.481 3.516-2.555-.908 1.444-1.569 3.028-1.957 4.688-.551 2.555 5.01 4.19 6.751 6.622 1.066 1.483 1.781 6.001 8.274 17.105Zm32.804-9.692c-5.485-5.526-15.136-10.788-14.55-12.165.785-1.852-.211-5.796-1.899-8.995-1.688-3.2.586-8.392.586-8.392l1.043 3.018c.835-3.481.932-7.098.287-10.618-1.066-5.983-1.898-3.88-1.898-3.88s.216-5.391 1.172-8.333c.955-2.941 1.758-10.085.439-14.31-1.318-4.225-4.102-3.428-4.846-1.975-.744 1.454.053 7.12.668 8.978.615 1.858-2.004 4.981-2.057 2.66-.053-2.32-1.043-8.79-1.043-8.79l1.986-12.991-1.986-10.32s.826-3.715 2.766-2.748c1.939.967 2.18 5.69 2.315 7.753.134 2.062 1.541 15.33 1.758 15.353.216.023 2.455 6.915 2.15 11.468-.639 9.745 1.049 16.994 1.108 20.733.058 3.738-2.76 12.399-2.76 12.399.099.17 1.939 3.3 2.443 6.048.369 2.016 6.938 9.3 12.306 15.095l.012.012Zm-22.708-87.677c.112.293.205.533.276.726-1.864-4.33-5.04-2.988-5.602-1.758-.563 1.231 1.33 8.867 1.758 10.05.427 1.184-1.7 10.636-2.01 13.765-.311 3.13-1.137 3.768-1.137 3.768-2.104.159-2.344-5.649-2.344-6.446.041.667.171 1.325.387 1.958l1.558-15.559s-2.572-12.001-1.84-13.73c.733-1.728 4.184.182 4.595.862.41.679 3.762 4.793 4.359 6.364Z" fill="#fff"/><path d="M236.281 250.222c-.398-.902-18.699-19.338-19.338-22.725-.515-2.825-2.449-6.053-2.449-6.053s2.818-8.644 2.76-12.4c-.059-3.756-1.758-10.988-1.108-20.733.305-4.553-1.928-11.444-2.15-11.468-.223-.023-1.629-13.29-1.758-15.353-.129-2.063-.37-6.786-2.315-7.753-1.946-.967-2.766 2.748-2.766 2.748l-.586-1.57c-.586-1.571-3.95-5.684-4.36-6.364-.41-.68-3.856-2.596-4.594-.861-.738 1.734 1.834 13.706 1.834 13.706l-1.547 15.576c-1.002-2.344-.293-13.601-.205-15.634.088-2.034-2.666-12.424-2.666-12.424s-1.653-5.344-2.04-6.305c-.386-.961-1.681-3.141-5.197-2.174-2.55.703-1.454 8.098-1.454 8.098l.586 12.306c-.392 3.903-.586 13.262-.586 13.262s-1.898 3.006-2.965 2.209c-1.066-.797-3.235-11.96-4.389-15.822-1.154-3.862-2.502-12.207-4.002-15.529-.457-1.008-2.092-1.623-3.921-.158-1.828 1.465-.304 17.146-.275 21.646.029 4.501 2.291 13.332 2.291 13.332s-2.15 3.797-4.201 5.274c-2.051 1.477-4.606 4.43-3.716 7.559.891 3.13 1.354 16.408 3.376 20.663 2.021 4.254 11.034 15.236 12.229 18.166.405.984 5.128 5.502 8.843 10.735 7.296 10.273 15.822 24.026 15.822 24.261" stroke="#263238" stroke-linecap="round" stroke-linejoin="round"/><path d="M173.075 179.808s1.454 7.202 1.401 8.409c0 0-1.272 5.561-1.284 9.165-.889 1.358-1.688 2.774-2.39 4.237-.493 1.301-1.372 4.501-1.008 6.282" stroke="#263238" stroke-linecap="round" stroke-linejoin="round"/><path d="M170.42 190.45s3.563.029 3.335 1.529m-.563 5.403s-2.285-.99-3.088.34m16.244-23.598s-.164 5.52-1.618 5.081m13.174-2.233s-.422 3.018.715 3.95m8.555-24.425s1.583 7.618 1.946 9.423c.363 1.805-1.799 11.017-1.758 13.414.041 2.396 1.066 5.824.926 7.436m5.204 27.583s-.51 4.975 1.019 7.102m-31.743 2.743s-3.411 3.106-2.163 6.926m24.577-45.649c.053 2.191-1.23 4.746-1.365 7.776m-9.499-9.733c.726 1.793-.856 5.695-1.096 7.16-.096 1.147.029 2.301.369 3.399m21.148-4.383c-.293 1.905-1.64 3.264-1.898 9.124m-31.374-15.857c.984 1.072.322 6.194.586 7.032m17.773-36.537s3.352-2.455 6.235.439m-17.779-6.082s.586-.979 3.416-.739 3.334 1.834 3.334 1.834" stroke="#263238" stroke-linecap="round" stroke-linejoin="round"/><path d="M180.013 164.543s-.949-1.401-3.451-.938c-2.502.463-3.616 4.003-3.616 4.003" fill="#fff"/><path d="M180.013 164.543s-.949-1.401-3.451-.938c-2.502.463-3.616 4.003-3.616 4.003m41.067 9.247s-2.086-3.024-4.594-1.729" stroke="#263238" stroke-linecap="round" stroke-linejoin="round"/><path opacity=".2" d="M125.141 154.704c3.516 2.725.55 19.449.55 19.449l.311 5.444 6.03-2.625 2.748 11.632s-.07 4.26 2.163 5.86c0 0 .55 9.558 0 16.543-.551 6.985-11.72 15.195-15.57 22.526-3.85 7.331-28.9606 28.878-28.9606 28.878l-21.2601-10.115 15.3708-62.08 13.7709-17.703 8.163-20.364s1.401 13.302.586 22.268l16.098-19.713Z" fill="#000" fill-opacity=".7"/><path d="M131.059 191.856c-.533 2.567.75 16.637.527 18.536-.222 1.898-11.415 14.65-11.978 15.616-.562.967-8.045 5.275-9.786 7.331-8.133 9.488-12.5753 18.225-16.144 26.986-.6856 1.687-1.342 3.381-1.9866 5.08l-32.2768-18.752c2.7131-3.363 5.274-6.352 7.618-9.071 4.688-5.514 8.4208-9.927 10.2491-14.093.5611-1.064 1.2037-2.083 1.9221-3.048.7266-1.031 1.3771-1.881 1.3771-1.881s-2.344-6.604-1.799-8.678c.5449-2.075-.6739-19.127-.6739-19.127s-1.5881-11.609-3.1527-14.539c-.3843-.765-.5582-1.618-.504-2.473.0762-2.678 1.6291-6.053 2.3909-9.962 1.0196-5.274.5274-7.882 3.727-6.059 3.1995 1.822 1.7052 12.892 1.7052 12.892l4.8345 10.712c1.2716-2.59 0-10.15-.0644-11.937 0-.293 0-.779-.0469-1.412-.0996-3.082-.3047-9.499-.041-12.031 0-.14 0-.269.0468-.386.3927-2.614 1.7932-10.929 2.6839-11.855 1.3244-1.371 3.4281-2.526 5.4088.586 1.1075 1.758.6329 15.699.6329 15.699s4.594-5.544 5.989-6.897c1.395-1.354 5.626-3.827 6.756-.962 1.131 2.866-3.041 11.72-3.041 11.72.873 2.051.979 7.73.979 7.73s1.975 7.096 3.188 7.032h.052c.352-.076.739-1.366 1.143-3.176.996-4.436 2.08-12.025 2.93-12.687l.586-.469c.027-.034.058-.063.094-.088l.217-.193c2.074-1.846 6.446-5.948 6.446-5.948s.31-1.963 4.137-1.36c3.826.604-1.7 11.896-1.7 11.896-.767 3.592-1.945 12.833-1.945 12.833-.358 3.845-.147 14.176-.147 14.176s1.811-6.013 1.694-8.204c-.117-2.192 3.598-7.56 4.688-8.943 1.09-1.382 5.954-.896 4.6 1.758-1.354 2.655-.803 11.07-1.336 13.648Z" fill="#fff"/><path opacity=".4" d="M77.2643 223.512c.5611-1.064 1.2037-2.083 1.9221-3.047 0 0-1.9045 5.274-2.0921 8.081-.123 1.852-4.9985 5.057-10.0792 9.059 4.7173-5.514 8.4209-9.926 10.2492-14.093Zm1.9217-3.047c.7266-1.031 1.3771-1.881 1.3771-1.881s-2.344-6.604-1.799-8.679c.545-2.074-.6739-19.127-.6739-19.127s-1.5881-11.608-3.1527-14.538l3.6449 6.369s-.3574 5.034.6798 7.794 2.344 11.181 2.344 11.181-1.5353 7.079-1.0138 9.628c.5215 2.549 2.8714 1.623 2.8714 1.623s1.1544 4.665-4.2778 7.63Zm8.5029-47.953c2.514 14.721-1.8166 10.648-3.3812 7.472-1.5646-3.176-5.2388-9.188-8.0048-7.905-.7767.364-1.4274.952-1.8693 1.688.0762-2.678 1.6291-6.054 2.3909-9.962 1.0196-5.274.5274-7.882 3.7269-6.06 3.1996 1.823 1.7053 12.892 1.7053 12.892l4.8345 10.712c1.2716-2.59 0-10.149-.0645-11.936 0-.293 0-.78-.0468-1.413.1933 1.354.4277 2.86.709 4.512Zm6.1531-14.544s-2.7131-3.551-5.0689-3.369c-.4045.021-.7937.161-1.1197.402-.3259.24-.5743.571-.7144.951 0-.14 0-.269.0468-.387.3927-2.613 1.7932-10.928 2.6839-11.854 1.3244-1.372 3.4281-2.526 5.4088.586 1.1075 1.758.6329 15.699.6329 15.699s4.5946-5.544 5.9886-6.898c1.395-1.353 5.626-3.826 6.757-.961 1.131 2.866-3.041 11.72-3.041 11.72.873 2.051.978 7.73.978 7.73s1.975 7.096 3.188 7.032c-2.672 5.028-4.454-6.089-4.454-6.089.399-2.297-1.019-7.278-.879-8.591.141-1.312-2.461-5.953-6.8441-4.688-4.3833 1.266-1.2189 18.588-1.2189 18.588-.8661 1.38-1.37 2.956-1.465 4.583-1.3536-1.67 0-6.446 0-6.446-1.2013-4.571-.879-18.008-.879-18.008Zm20.428 4.295c-1.869 1.964-1.612 6.927-3.516 13.156.996-4.436 2.08-12.025 2.93-12.687l.586-.469Zm16.789 29.593c-.534 2.567.75 16.637.527 18.535-.223 1.899-11.415 14.65-11.978 15.617-.562.967-8.046 5.274-9.786 7.331-8.134 9.488-12.5755 18.225-16.1443 26.986 1.3443-4.542 2.9667-8.996 4.858-13.338 3.8503-8.655 5.4203-10.196 7.7293-12.669 2.309-2.473 2.057-7.729 2.057-7.729 1.704-.411 3.451-.617 5.204-.616 2.93 0 11.602-12.364 14.585-14.533 2.983-2.168 3.516-2.168 0-6.95-3.516-4.781-2.52.768-3.575.586-1.054-.181-1.629 2.128-1.629 2.128-.369-4.876-3.516-10.548-4.178-11.966-.662-1.419 1.606-9.734 1.137-12.049-.469-2.314 2.016-16.408 2.016-16.408s-.311-5.408-5.21-5.426c-.751-.042-1.494.182-2.098.633 2.075-1.846 6.446-5.948 6.446-5.948s.311-1.963 4.138-1.36c3.826.604-1.7 11.896-1.7 11.896-.767 3.592-1.945 12.834-1.945 12.834-.358 3.844-.147 14.175-.147 14.175s1.811-6.012 1.694-8.204c-.117-2.192 3.598-7.559 4.688-8.942 1.09-1.383 5.954-.897 4.6 1.758-1.354 2.654-.756 11.081-1.289 13.659Z" fill="#fff"/><path d="M91.6856 265.458c3.9789-10.507 8.4264-20.762 18.1364-32.089 1.758-2.028 9.218-6.335 9.786-7.331.569-.996 11.761-13.724 11.978-15.617.217-1.893-1.06-15.969-.527-18.535.533-2.567-.088-11.029 1.26-13.666 1.348-2.637-3.516-3.117-4.6-1.758-1.084 1.36-4.788 6.774-4.688 8.943.099 2.168-1.694 8.204-1.694 8.204s-.211-10.332.147-14.176c0 0 1.172-9.241 1.945-12.833 0 0 5.52-11.298 1.7-11.896-3.821-.598-4.138 1.359-4.138 1.359s-6.1 5.732-7.307 6.669c-1.207.938-2.854 15.588-4.067 15.863-1.213.276-3.24-7.032-3.24-7.032s-.106-5.678-.979-7.729c0 0 4.166-8.831 3.041-11.72-1.125-2.889-5.356-.387-6.756.961-1.401 1.348-5.9892 6.897-5.9892 6.897s.4747-13.953-.6329-15.699c-1.9807-3.123-4.102-1.969-5.4088-.586-.8907.926-2.2912 9.241-2.6838 11.855-.3927 2.614 0 12.036.041 13.83.041 1.793 1.3361 9.346.0644 11.936l-4.8345-10.712s1.5002-11.081-1.7052-12.892c-3.2054-1.81-2.7073.803-3.727 6.06-1.0196 5.256-3.4457 9.528-1.8869 12.464s3.1527 14.538 3.1527 14.538 1.2071 17.053.6739 19.127c-.5333 2.075 1.8166 8.685 1.8166 8.685s-2.7073 3.569-3.2992 4.928c-2.7307 6.206-9.6397 12.992-17.8554 23.2" stroke="#263238" stroke-linecap="round" stroke-linejoin="round"/><path d="M95.7113 160.007c-.6805 1.007-1.0251 2.203-.9844 3.417 0 2.227 1.4591 14.415 1.4591 14.415s-1.0607 1.254-1.1134 2.344m26.2764 13.396c.16 2.059.69 4.072 1.565 5.942 1.371 2.708.926 4.202.457 5.802-.314 1.402-.481 2.834-.498 4.272m-35.266-30.672s1.0197 3.235-.8731 4.77m22.9011-5.098s.199 1.272-1.6 1.389m13.683-16.039s-4.512-4.922-8.016-1.213" stroke="#263238" stroke-linecap="round" stroke-linejoin="round"/><path d="M103.435 161.179s-2.08-2.631-3.8852-2.473c-1.8049.159-4.2426 1.26-4.5181 2.708m28.7253 42.326c.728 1.042 1.258 2.208 1.565 3.44m-13.285-23.446c-1.4 2.608-.732 7.032-1.248 8.245M97.2 179.404c.3282 1.5-.709 3.944-.8673 5.743-.1582 1.799 1.3127 4.576 1.0431 7.102m-9.6865-6.704s-1.2248 2.825-1.172 4.688c.0527 1.864.7149 5.948.7149 5.948m-8.5501-10.771s-.4454 2.93.586 4.993c1.0313 2.063 2.0334 6.446 2.0334 6.446m-.738 21.729c.5401-.15 1.0229-.458 1.3855-.885.3626-.428.5883-.954.6479-1.512m27.4251 11.328s1.119 4.143-1.026 6.809m-34.5331-61.044s3.1527-3.076 5.5377-.48m6.9852-17.229s2.344-2.455 5.0865.17" stroke="#263238" stroke-linecap="round" stroke-linejoin="round"/></svg>